<svg xmlns="http://www.w3.org/2000/svg" width="24" height="24" viewBox="0 0 24 24" fill="none">
<path d="M8.36511 12.51C7.76111 12.51 7.22317 12.4061 6.75129 12.1985C6.28211 11.9882 5.91135 11.6997 5.63901 11.333C5.36937 10.9636 5.2305 10.5375 5.22241 10.0549H6.98588C6.99667 10.2571 7.06273 10.435 7.18407 10.5887C7.30811 10.7397 7.47259 10.857 7.67752 10.9406C7.88245 11.0242 8.11299 11.066 8.36915 11.066C8.6361 11.066 8.87204 11.0188 9.07697 10.9245C9.2819 10.8301 9.44234 10.6993 9.55828 10.5321C9.67423 10.3649 9.7322 10.1721 9.7322 9.95373C9.7322 9.73263 9.67019 9.53713 9.54615 9.36726C9.42481 9.19469 9.24954 9.05986 9.02034 8.96279C8.79384 8.86572 8.5242 8.81719 8.21141 8.81719H7.43888V7.53099H8.21141C8.47566 7.53099 8.70891 7.48515 8.91114 7.39347C9.11607 7.30179 9.27516 7.17506 9.38841 7.01327C9.50166 6.84879 9.55828 6.65734 9.55828 6.43893C9.55828 6.2313 9.5084 6.04929 9.40863 5.8929C9.31156 5.73381 9.17404 5.60977 8.99608 5.52079C8.82081 5.43181 8.61588 5.38732 8.38129 5.38732C8.144 5.38732 7.92694 5.43046 7.7301 5.51675C7.53326 5.60034 7.37552 5.72033 7.25687 5.87672C7.13823 6.03311 7.07486 6.21647 7.06678 6.42679H5.38824C5.39633 5.94952 5.5325 5.52888 5.79675 5.16486C6.061 4.80084 6.41693 4.51637 6.86454 4.31144C7.31485 4.10381 7.82313 4 8.38938 4C8.96102 4 9.46121 4.10381 9.88995 4.31144C10.3187 4.51906 10.6517 4.79949 10.889 5.15273C11.129 5.50326 11.2476 5.89694 11.2449 6.33377C11.2476 6.79755 11.1033 7.18449 10.8121 7.49458C10.5236 7.80467 10.1475 8.00151 9.68367 8.0851V8.14982C10.2931 8.22801 10.7569 8.43968 11.075 8.78483C11.3959 9.12728 11.555 9.55601 11.5523 10.071C11.555 10.5429 11.4188 10.9622 11.1438 11.3289C10.8714 11.6956 10.4953 11.9842 10.0153 12.1945C9.53536 12.4048 8.98529 12.51 8.36511 12.51Z" fill="#333333"/>
<path d="M15.3406 12.3967H12.4041V4.11325H15.3648C16.198 4.11325 16.9153 4.27908 17.5166 4.61074C18.1179 4.93971 18.5803 5.41293 18.9039 6.03042C19.2302 6.6479 19.3933 7.38673 19.3933 8.24689C19.3933 9.10975 19.2302 9.85127 18.9039 10.4715C18.5803 11.0916 18.1152 11.5676 17.5085 11.8992C16.9045 12.2309 16.1819 12.3967 15.3406 12.3967ZM14.1555 10.8961H15.2678C15.7855 10.8961 16.221 10.8045 16.5742 10.6211C16.9301 10.435 17.1971 10.1479 17.375 9.75959C17.5557 9.36861 17.646 8.86437 17.646 8.24689C17.646 7.6348 17.5557 7.13461 17.375 6.74632C17.1971 6.35803 16.9315 6.07221 16.5782 5.88885C16.225 5.7055 15.7895 5.61382 15.2718 5.61382H14.1555V10.8961Z" fill="#333333"/>
<path d="M20.2224 10V11.5C21.7224 11.5 24.2224 17.2 14.2224 18V19.5C26.7224 18.5 23.2224 10 20.2224 10Z" fill="#333333"/>
<path d="M8.10747 16.3307L7.72247 17.7214C0.222419 16.5 2.22242 12 3.72245 11.5V10C1.72243 10 -2.77759 17 7.47656 18.951L7.27848 20.1583C7.25356 20.3102 7.4024 20.4321 7.54643 20.3778L10.9092 19.1094C11.0451 19.0581 11.0828 18.8836 10.98 18.7808L8.44163 16.2426C8.33329 16.1343 8.14835 16.183 8.10747 16.3307Z" fill="#333333"/>
</svg>