<svg width="16" height="16" viewBox="0 0 16 16" fill="none" xmlns="http://www.w3.org/2000/svg">
<path d="M14 11.0812V4.91601C14 4.8273 13.9764 4.74018 13.9316 4.66359C13.8868 4.58701 13.8225 4.52372 13.7451 4.48023L8.24513 1.38648C8.17029 1.34438 8.08587 1.32227 8 1.32227C7.91413 1.32227 7.82971 1.34438 7.75487 1.38648L2.25487 4.48023C2.17754 4.52372 2.11318 4.58701 2.0684 4.66359C2.02361 4.74018 2 4.8273 2 4.91601V11.0812C2 11.1699 2.02361 11.257 2.0684 11.3336C2.11318 11.4102 2.17754 11.4735 2.25487 11.517L7.75487 14.6107C7.82971 14.6528 7.91413 14.6749 8 14.6749C8.08587 14.6749 8.17029 14.6528 8.24513 14.6107L13.7451 11.517C13.8225 11.4735 13.8868 11.4102 13.9316 11.3336C13.9764 11.257 14 11.1699 14 11.0812Z" stroke="#5B6077" stroke-linecap="round" stroke-linejoin="round"/>
<path d="M13.9321 4.66505L8.06037 8.00093L2.07031 4.66449" stroke="#5B6077" stroke-linecap="round" stroke-linejoin="round"/>
<path d="M8.05867 8L8 14.6763" stroke="#5B6077" stroke-linecap="round" stroke-linejoin="round"/>
</svg>
