<svg width="24" height="24" viewBox="0 0 24 24" fill="none" xmlns="http://www.w3.org/2000/svg">
<path d="M12 4.5C11.0151 4.5 10.0398 4.69399 9.12987 5.0709C8.21993 5.44781 7.39314 6.00026 6.6967 6.6967C5.29018 8.10322 4.5 10.0109 4.5 12C4.5 13.9891 5.29018 15.8968 6.6967 17.3033C7.39314 17.9997 8.21993 18.5522 9.12987 18.9291C10.0398 19.306 11.0151 19.5 12 19.5C13.9891 19.5 15.8968 18.7098 17.3033 17.3033C18.7098 15.8968 19.5 13.9891 19.5 12C19.5 11.0151 19.306 10.0398 18.9291 9.12987C18.5522 8.21993 17.9997 7.39314 17.3033 6.6967C16.6069 6.00026 15.7801 5.44781 14.8701 5.0709C13.9602 4.69399 12.9849 4.5 12 4.5ZM12 18C8.6925 18 6 15.3075 6 12C6 8.6925 8.6925 6 12 6C15.3075 6 18 8.6925 18 12C18 15.3075 15.3075 18 12 18Z" fill="currentcolor"/>
<rect x="11.25" y="9.5" width="1.5" height="7" rx="0.75" fill="currentcolor"/>
<rect x="11.25" y="7.25" width="1.5" height="1.5" rx="0.75" fill="currentcolor"/>
</svg>
