<svg xmlns="http://www.w3.org/2000/svg" width="24" height="24" viewBox="0 0 24 24" fill="none">
<path fill-rule="evenodd" clip-rule="evenodd" d="M14.8773 5.65517H14.0305V8.46737L14.4229 9.12973C14.768 9.04496 15.1287 9 15.5 9C17.9853 9 20 11.0147 20 13.5C20 14.6812 19.5449 15.7562 18.8004 16.559C19.4936 18.1572 18.3016 20 16.456 20H7.54694C5.62762 20 4.39952 18.0008 5.30222 16.3451C6.6087 13.9488 8.5345 10.3967 9.51457 8.49368V5.65517H8.66783V4H14.8773V5.65517ZM17.2962 17.6272C16.746 17.867 16.1385 18 15.5 18C13.0147 18 11 15.9853 11 13.5C11 11.9899 11.7439 10.6535 12.8852 9.83725L12.337 8.91194V5.65517H11.2081V8.88502L11.1187 9.05976C10.1587 10.9362 8.14099 14.658 6.79676 17.1235C6.49524 17.6765 6.9056 18.3448 7.54694 18.3448H16.456C16.9075 18.3448 17.2417 18.0139 17.2962 17.6272ZM18.5375 13.5C18.5375 15.1776 17.1776 16.5375 15.5 16.5375C13.8224 16.5375 12.4625 15.1776 12.4625 13.5C12.4625 11.8224 13.8224 10.4625 15.5 10.4625C17.1776 10.4625 18.5375 11.8224 18.5375 13.5Z" fill="#333333"/>
</svg>