<svg width="16" height="16" viewBox="0 0 16 16" fill="currentColor" xmlns="http://www.w3.org/2000/svg">
<path d="M5.41477 12H4.25L6.86719 4.72723H8.13494L10.7521 12H9.58736L7.53125 6.04825H7.47443L5.41477 12ZM5.61009 9.15194H9.38849V10.0752H5.61009V9.15194ZM7.50284 4.25493C7.21165 4.25493 6.96307 4.15313 6.7571 3.94953C6.5535 3.74593 6.4517 3.5009 6.4517 3.21444C6.4517 3.02268 6.49787 2.84749 6.5902 2.68888C6.6849 2.53026 6.81155 2.40478 6.97017 2.31246C7.13116 2.21776 7.30871 2.17041 7.50284 2.17041C7.6946 2.17041 7.86979 2.21776 8.02841 2.31246C8.18939 2.40478 8.31723 2.53026 8.41193 2.68888C8.50663 2.84749 8.55398 3.02268 8.55398 3.21444C8.55398 3.40621 8.50663 3.58139 8.41193 3.74001C8.31723 3.89626 8.18939 4.02174 8.02841 4.11643C7.86979 4.20876 7.6946 4.25493 7.50284 4.25493ZM7.50284 3.7116C7.64489 3.7116 7.76326 3.66307 7.85795 3.56601C7.95265 3.46894 8 3.35057 8 3.21089C8 3.07358 7.95265 2.95639 7.85795 2.85933C7.76326 2.76227 7.64489 2.71373 7.50284 2.71373C7.3608 2.71373 7.24124 2.76227 7.14418 2.85933C7.04948 2.95639 7.00213 3.07477 7.00213 3.21444C7.00213 3.35175 7.04948 3.47013 7.14418 3.56956C7.23887 3.66662 7.35843 3.71397 7.50284 3.7116Z" fill="currentColor"/>
</svg>
