<svg width="24" height="24" fill="none" xmlns="http://www.w3.org/2000/svg"><rect x="11" y="10" width="5" height="2" rx="1" transform="rotate(-90 11 10)" fill="currentColor"/><rect x="15" y="10" width="5" height="2" rx="1" transform="rotate(-90 15 10)" fill="currentColor"/><rect x="7" y="10" width="5" height="2" rx="1" transform="rotate(-90 7 10)" fill="currentColor"/><path d="M5 5.75A.75.75 0 0 1 5.75 5h12.5a.75.75 0 0 1 0 1.5H5.75A.75.75 0 0 1 5 5.75z" fill="currentColor"/><rect x="13" y="14" width="5" height="2" rx="1" transform="rotate(90 13 14)" fill="currentColor"/><rect x="9" y="14" width="5" height="2" rx="1" transform="rotate(90 9 14)" fill="currentColor"/><rect x="17" y="14" width="5" height="2" rx="1" transform="rotate(90 17 14)" fill="currentColor"/><path d="M19 18.25a.75.75 0 0 1-.75.75H5.75a.75.75 0 0 1 0-1.5h12.5a.75.75 0 0 1 .75.75z" fill="currentColor"/></svg>