<svg width="24" height="24" viewBox="0 0 24 24" fill="none" xmlns="http://www.w3.org/2000/svg">
<rect x="11" y="10" width="5" height="2" rx="1" transform="rotate(-90 11 10)" fill="currentColor"/>
<rect x="15" y="10" width="5" height="2" rx="1" transform="rotate(-90 15 10)" fill="currentColor"/>
<rect x="7" y="10" width="5" height="2" rx="1" transform="rotate(-90 7 10)" fill="currentColor"/>
<path d="M5 5.75C5 5.33579 5.33579 5 5.75 5L18.25 5C18.6642 5 19 5.33579 19 5.75C19 6.16421 18.6642 6.5 18.25 6.5L5.75 6.5C5.33579 6.5 5 6.16421 5 5.75Z" fill="currentColor"/>
<rect x="13" y="14" width="5" height="2" rx="1" transform="rotate(90 13 14)" fill="currentColor"/>
<rect x="9" y="14" width="5" height="2" rx="1" transform="rotate(90 9 14)" fill="currentColor"/>
<rect x="17" y="14" width="5" height="2" rx="1" transform="rotate(90 17 14)" fill="currentColor"/>
<path d="M19 18.25C19 18.6642 18.6642 19 18.25 19L5.75 19C5.33579 19 5 18.6642 5 18.25C5 17.8358 5.33579 17.5 5.75 17.5L18.25 17.5C18.6642 17.5 19 17.8358 19 18.25Z" fill="currentColor"/>
</svg>
