<svg width="24" height="24" viewBox="0 0 24 24" fill="none" xmlns="http://www.w3.org/2000/svg">
<path fill-rule="evenodd" clip-rule="evenodd" d="M3 22C2.86441 22 2.73512 21.973 2.61721 21.9241C2.6121 21.922 2.60701 21.9198 2.60194 21.9176C2.36971 21.8168 2.18324 21.6303 2.08236 21.3981C2.08016 21.393 2.078 21.3879 2.07588 21.3828C2.02699 21.2649 2 21.1356 2 21V15C2.82843 15 3.5 15.6716 3.5 16.5V20.5H7.5C8.32843 20.5 9 21.1716 9 22H3ZM2 9C2.82843 9 3.5 8.32843 3.5 7.5V3.5H7.5C8.32843 3.5 9 2.82843 9 2H3C2.86441 2 2.73512 2.02699 2.61721 2.07588C2.6121 2.078 2.60701 2.08016 2.60194 2.08236C2.3697 2.18324 2.18324 2.3697 2.08236 2.60194C2.08016 2.60701 2.078 2.6121 2.07588 2.61721C2.02699 2.73512 2 2.86441 2 3V9ZM15 2C15 2.82843 15.6716 3.5 16.5 3.5H20.5V7.5C20.5 8.32843 21.1716 9 22 9V3C22 2.86441 21.973 2.73512 21.9241 2.61721C21.922 2.6121 21.9198 2.60701 21.9176 2.60194C21.8168 2.36971 21.6303 2.18324 21.3981 2.08236C21.393 2.08016 21.3879 2.078 21.3828 2.07588C21.2649 2.02699 21.1356 2 21 2H15ZM22 15C21.1716 15 20.5 15.6716 20.5 16.5V20.5H16.5C15.6716 20.5 15 21.1716 15 22H21C21.1356 22 21.2649 21.973 21.3828 21.9241C21.3879 21.922 21.393 21.9198 21.3981 21.9176C21.6303 21.8168 21.8168 21.6303 21.9176 21.3981C21.9198 21.393 21.922 21.3879 21.9241 21.3828C21.973 21.2649 22 21.1356 22 21V15Z" fill="currentColor"/>
<path d="M8.98825 16.9405C8.87029 17.2757 8.55361 17.5 8.19825 17.5C7.61635 17.5 7.2118 16.9212 7.41176 16.3747L10.7849 7.15636C10.9292 6.76216 11.3043 6.5 11.724 6.5H12.2759C12.6957 6.5 13.0708 6.76216 13.2151 7.15636L16.5883 16.3749C16.7882 16.9213 16.3838 17.5 15.802 17.5C15.4465 17.5 15.1298 17.2756 15.012 16.9402L12.0609 8.53928C12.0522 8.51458 12.0289 8.49805 12.0027 8.49805C11.9765 8.49805 11.9532 8.51456 11.9445 8.53925L8.98825 16.9405ZM9.09175 13.8906C9.09175 13.505 9.40437 13.1924 9.79 13.1924H14.2045C14.5902 13.1924 14.9028 13.505 14.9028 13.8906C14.9028 14.2763 14.5902 14.5889 14.2045 14.5889H9.78999C9.40437 14.5889 9.09175 14.2763 9.09175 13.8906Z" fill="currentColor"/>
</svg>
