<svg width="16" height="16" viewBox="0 0 16 16" fill="currentColor" xmlns="http://www.w3.org/2000/svg">
<path d="M4.96492 8.17756C4.96208 7.68324 5.03878 7.28409 5.19503 6.98011C5.35412 6.6733 5.56577 6.44886 5.82998 6.30682C6.09702 6.16477 6.38822 6.09375 6.70356 6.09375C6.99333 6.09375 7.25469 6.15483 7.48765 6.27699C7.72344 6.39631 7.99333 6.58239 8.29731 6.83523C8.50185 7.00568 8.66662 7.12642 8.79162 7.19744C8.91662 7.26847 9.05299 7.30398 9.20072 7.30398C9.43651 7.30398 9.62117 7.21875 9.75469 7.0483C9.89106 6.87784 9.9564 6.62784 9.95072 6.2983H11.0288C11.0374 6.78693 10.9607 7.18608 10.7987 7.49574C10.6396 7.80256 10.4251 8.02983 10.1553 8.17756C9.88822 8.32244 9.5956 8.39489 9.27742 8.39489C8.99617 8.39489 8.73623 8.33665 8.49759 8.22017C8.25895 8.10369 7.98481 7.91193 7.67515 7.64489C7.47628 7.47443 7.31719 7.35511 7.19787 7.28693C7.07856 7.21875 6.94503 7.18466 6.79731 7.18466C6.57287 7.18466 6.38964 7.26278 6.24759 7.41903C6.10554 7.57244 6.03736 7.82528 6.04304 8.17756H4.96492ZM4.96492 10.8196C4.96208 10.3253 5.03878 9.92614 5.19503 9.62216C5.35412 9.31534 5.56577 9.09091 5.82998 8.94886C6.09702 8.80682 6.38822 8.7358 6.70356 8.7358C6.99333 8.7358 7.25469 8.79687 7.48765 8.91903C7.72344 9.03835 7.99333 9.22443 8.29731 9.47727C8.50185 9.64773 8.66662 9.76847 8.79162 9.83949C8.91662 9.91051 9.05299 9.94602 9.20072 9.94602C9.43651 9.94602 9.62117 9.8608 9.75469 9.69034C9.89106 9.51989 9.9564 9.26989 9.95072 8.94034H11.0288C11.0374 9.42898 10.9607 9.82812 10.7987 10.1378C10.6396 10.4446 10.4251 10.6719 10.1553 10.8196C9.88822 10.9645 9.5956 11.0369 9.27742 11.0369C8.99617 11.0369 8.73623 10.9787 8.49759 10.8622C8.25895 10.7457 7.98481 10.554 7.67515 10.2869C7.47628 10.1165 7.31719 9.99716 7.19787 9.92898C7.07856 9.8608 6.94503 9.8267 6.79731 9.8267C6.57287 9.8267 6.38964 9.90483 6.24759 10.0611C6.10554 10.2145 6.03736 10.4673 6.04304 10.8196H4.96492Z" fill="currentColor"/>
</svg>
