<svg width="28" height="28" viewBox="0 0 28 28" fill="none" xmlns="http://www.w3.org/2000/svg">
<rect width="28" height="28" rx="4" fill="white"/>
<rect x="2" y="2" width="24" height="24" rx="4" fill="white"/>
<path d="M12 6C12 4.89543 12.8954 4 14 4C15.1046 4 16 4.89543 16 6C16 7.10457 15.1046 8 14 8C12.8954 8 12 7.10457 12 6Z" fill="#333333"/>
<path d="M18.2426 6.92894C19.0237 6.14789 20.29 6.14789 21.0711 6.92894C21.8521 7.70999 21.8521 8.97632 21.0711 9.75737C20.29 10.5384 19.0237 10.5384 18.2426 9.75737C17.4616 8.97632 17.4616 7.70999 18.2426 6.92894Z" fill="#333333"/>
<path d="M22 12.0002C23.1046 12.0002 24 12.8957 24 14.0002C24 15.1048 23.1046 16.0002 22 16.0002C20.8954 16.0002 20 15.1048 20 14.0002C20 12.8957 20.8954 12.0002 22 12.0002Z" fill="#333333"/>
<path d="M21.0709 18.2428C21.8519 19.0239 21.8519 20.2902 21.0709 21.0712C20.2898 21.8523 19.0235 21.8523 18.2425 21.0712C17.4614 20.2902 17.4614 19.0239 18.2425 18.2428C19.0235 17.4618 20.2898 17.4618 21.0709 18.2428Z" fill="#333333"/>
<path d="M12 22C12 20.8954 12.8954 20 14 20C15.1046 20 16 20.8954 16 22C16 23.1046 15.1046 24 14 24C12.8954 24 12 23.1046 12 22Z" fill="#333333"/>
<path d="M6.92893 18.2426C7.70997 17.4616 8.9763 17.4616 9.75735 18.2426C10.5384 19.0237 10.5384 20.29 9.75735 21.0711C8.9763 21.8521 7.70997 21.8521 6.92893 21.0711C6.14788 20.29 6.14788 19.0237 6.92893 18.2426Z" fill="#333333"/>
<path d="M6 12.0002C7.10457 12.0002 8 12.8957 8 14.0002C8 15.1048 7.10457 16.0002 6 16.0002C4.89543 16.0002 4 15.1048 4 14.0002C4 12.8957 4.89543 12.0002 6 12.0002Z" fill="#333333"/>
<path d="M9.75717 6.92911C10.5382 7.71016 10.5382 8.97649 9.75717 9.75754C8.97612 10.5386 7.70979 10.5386 6.92875 9.75754C6.1477 8.97649 6.1477 7.71016 6.92875 6.92911C7.70979 6.14806 8.97612 6.14806 9.75717 6.92911Z" fill="#333333"/>
<circle cx="14" cy="14.0002" r="8" stroke="#333333"/>
</svg>
