<svg width="48" height="48" viewBox="0 0 48 48" fill="none" xmlns="http://www.w3.org/2000/svg">
<path fill-rule="evenodd" clip-rule="evenodd" d="M10.0818 24C8.77581 22.0557 7.71901 20.1401 6.94971 18.3273C6.06454 16.2415 5.51847 14.1948 5.47624 12.3414C5.43385 10.481 5.90387 8.6318 7.26722 7.26844C8.63058 5.90509 10.4798 5.43507 12.3401 5.47746C14.1935 5.51969 16.2403 6.06576 18.3261 6.95093C20.1389 7.72023 22.0545 8.77703 23.9988 10.0831C25.9431 8.77704 27.8587 7.72025 29.6715 6.95095C31.7573 6.06578 33.804 5.51971 35.6574 5.47748C37.5178 5.43508 39.367 5.90511 40.7303 7.26846C42.0937 8.63182 42.5637 10.4811 42.5213 12.3414C42.4791 14.1948 41.933 16.2416 41.0479 18.3273C40.2786 20.1401 39.2218 22.0557 37.9157 24C39.2218 25.9443 40.2786 27.8599 41.0479 29.6727C41.933 31.7585 42.4791 33.8053 42.5213 35.6586C42.5637 37.519 42.0937 39.3682 40.7303 40.7316C39.367 42.0949 37.5178 42.5649 35.6574 42.5226C33.804 42.4803 31.7573 41.9342 29.6715 41.0491C27.8587 40.2798 25.9431 39.223 23.9988 37.917C22.0545 39.223 20.1389 40.2798 18.3261 41.0491C16.2403 41.9343 14.1935 42.4803 12.3401 42.5226C10.4798 42.565 8.63058 42.0949 7.26722 40.7316C5.90387 39.3682 5.43385 37.519 5.47624 35.6587C5.51847 33.8053 6.06454 31.7585 6.94971 29.6727C7.71901 27.86 8.77581 25.9443 10.0818 24ZM12.6271 20.5672C11.81 19.2436 11.1411 17.9646 10.6319 16.7647C9.8653 14.9584 9.50204 13.4282 9.4752 12.2502C9.44852 11.0792 9.74968 10.4428 10.0957 10.0969C10.4416 9.7509 11.078 9.44974 12.249 9.47642C13.427 9.50326 14.9572 9.86652 16.7635 10.6331C17.9634 11.1423 19.2424 11.8113 20.5659 12.6284C19.1584 13.7711 17.7587 15.0317 16.3946 16.3958C15.0304 17.7599 13.7698 19.1597 12.6271 20.5672ZM20.5659 35.3717C19.2424 36.1888 17.9634 36.8577 16.7635 37.367C14.9572 38.1335 13.427 38.4968 12.249 38.5236C11.078 38.5503 10.4416 38.2491 10.0957 37.9032C9.74968 37.5572 9.44852 36.9208 9.4752 35.7498C9.50204 34.5718 9.8653 33.0416 10.6319 31.2353C11.1411 30.0354 11.81 28.7564 12.6271 27.4329C13.7698 28.8404 15.0304 30.2401 16.3946 31.6042C17.7587 32.9684 19.1584 34.229 20.5659 35.3717ZM23.9988 32.9877C22.4097 31.7628 20.8 30.3528 19.223 28.7758C17.646 27.1988 16.236 25.5891 15.0111 24C16.236 22.4109 17.646 20.8012 19.223 19.2242C20.8 17.6472 22.4097 16.2373 23.9988 15.0123C25.5879 16.2373 27.1976 17.6472 28.7746 19.2242C30.3516 20.8012 31.7615 22.4109 32.9865 24C31.7615 25.5891 30.3516 27.1988 28.7746 28.7758C27.1976 30.3528 25.5879 31.7628 23.9988 32.9877ZM27.4316 35.3717C28.7552 36.1888 30.0342 36.8577 31.2341 37.3669C33.0404 38.1335 34.5706 38.4967 35.7485 38.5236C36.9195 38.5503 37.556 38.2491 37.9019 37.9031C38.2479 37.5572 38.5491 36.9208 38.5224 35.7498C38.4955 34.5718 38.1323 33.0416 37.3657 31.2353C36.8565 30.0354 36.1875 28.7564 35.3705 27.4329C34.2277 28.8404 32.9671 30.2401 31.603 31.6042C30.2389 32.9684 28.8391 34.229 27.4316 35.3717ZM35.3705 20.5672C36.1875 19.2436 36.8565 17.9646 37.3657 16.7647C38.1323 14.9584 38.4955 13.4282 38.5224 12.2503C38.5491 11.0793 38.2479 10.4429 37.9019 10.0969C37.556 9.75092 36.9195 9.44975 35.7485 9.47644C34.5706 9.50328 33.0404 9.86654 31.2341 10.6331C30.0342 11.1423 28.7552 11.8113 27.4316 12.6284C28.8391 13.7711 30.2389 15.0316 31.603 16.3958C32.9671 17.7599 34.2277 19.1597 35.3705 20.5672Z" fill="#231F20"/>
<path d="M23.998 25.998C25.1026 25.998 25.998 25.1026 25.998 23.998C25.998 22.8935 25.1026 21.998 23.998 21.998C22.8935 21.998 21.998 22.8935 21.998 23.998C21.998 25.1026 22.8935 25.998 23.998 25.998Z" fill="#231F20"/>
</svg>
