<svg width="48" height="48" viewBox="0 0 48 48" fill="none" xmlns="http://www.w3.org/2000/svg">
<path fill-rule="evenodd" clip-rule="evenodd" d="M27.326 8.30951C27.7239 8.04455 28.2537 8.09828 28.5903 8.43772L39.3183 19.2557C39.7072 19.6479 39.7045 20.281 39.3124 20.6699C38.9202 21.0588 38.2871 21.0562 37.8982 20.664L30.7587 13.4647L34.5677 22.6342C34.7367 23.0411 34.6195 23.5107 34.2792 23.7904C33.9388 24.0702 33.4554 24.0942 33.089 23.8496L26.0595 19.1566L29.0178 25.8011C29.1854 26.1776 29.1049 26.6183 28.815 26.9112C28.5252 27.2042 28.0853 27.2893 27.7071 27.1256L21.787 24.564L23.2543 29.4735C23.3582 29.8209 23.2658 30.1974 23.0129 30.4573C22.76 30.7171 22.3863 30.8198 22.0361 30.7254L17.442 29.4878L14.0735 35.3557C13.7985 35.8347 13.1873 36.0001 12.7084 35.7251C12.2294 35.4502 12.064 34.839 12.339 34.36L16.091 27.824C16.317 27.4303 16.7799 27.2382 17.2183 27.3563L20.8245 28.3277L19.2561 23.0802C19.1448 22.7078 19.2594 22.3045 19.55 22.0463C19.8406 21.7881 20.2546 21.7217 20.6113 21.8761L26.1475 24.2716L22.8267 16.8126C22.6456 16.4058 22.7552 15.9284 23.0956 15.6413C23.436 15.3543 23.9252 15.327 24.2955 15.5742L31.4547 20.3538L26.9567 9.52548C26.7733 9.084 26.9281 8.57447 27.326 8.30951Z" fill="#231F20"/>
</svg>
