<svg width="48" height="48" viewBox="0 0 48 48" fill="none" xmlns="http://www.w3.org/2000/svg">
<path fill-rule="evenodd" clip-rule="evenodd" d="M24 6.04395C25.1045 6.04395 26 6.93938 26 8.04395V20.5358L36.818 14.2899C37.7745 13.7376 38.9977 14.0653 39.55 15.0219C40.1023 15.9785 39.7746 17.2017 38.818 17.754L27.9999 23.9999L38.818 30.2459C39.7746 30.7982 40.1023 32.0214 39.55 32.978C38.9977 33.9345 37.7745 34.2623 36.818 33.71L26 27.4641V39.9559C26 41.0605 25.1045 41.9559 24 41.9559C22.8954 41.9559 22 41.0605 22 39.9559V27.4641L11.182 33.71C10.2254 34.2623 9.00223 33.9345 8.44993 32.978C7.89764 32.0214 8.22538 30.7982 9.18196 30.2459L20 23.9999L9.18196 17.754C8.22538 17.2017 7.89764 15.9785 8.44993 15.0219C9.00223 14.0653 10.2254 13.7376 11.182 14.2899L22 20.5358V8.04395C22 6.93938 22.8954 6.04395 24 6.04395Z" fill="#FFFFFF"/>
</svg>
