<svg width="48" height="48" viewBox="0 0 48 48" fill="none" xmlns="http://www.w3.org/2000/svg">
<path fill-rule="evenodd" clip-rule="evenodd" d="M36.9162 17.3142C37.6916 18.1009 37.6823 19.3672 36.8956 20.1425L17.2896 39.4645C16.5029 40.2398 15.2366 40.2306 14.4612 39.4439C13.6859 38.6571 13.6952 37.3909 14.4819 36.6155L34.0879 17.2935C34.8746 16.5182 36.1409 16.5274 36.9162 17.3142Z" fill="currentColor"/>
<path fill-rule="evenodd" clip-rule="evenodd" d="M33.5383 8.5561C34.3136 9.34283 34.3044 10.6091 33.5177 11.3845L13.9117 30.7065C13.1249 31.4818 11.8586 31.4725 11.0833 30.6858C10.308 29.8991 10.3172 28.6328 11.104 27.8575L30.71 8.53547C31.4967 7.76014 32.763 7.76938 33.5383 8.5561Z" fill="currentColor"/>
</svg>
