<svg width="48" height="48" viewBox="0 0 48 48" fill="none" xmlns="http://www.w3.org/2000/svg">
<path d="M15.8863 40.0398C15.4899 40.0389 15.1027 39.9203 14.7739 39.699C14.4451 39.4777 14.1894 39.1636 14.0394 38.7967C13.8894 38.4299 13.8518 38.0267 13.9313 37.6384C14.0109 37.25 14.2041 36.8941 14.4863 36.6158L34.0863 17.2918C34.4697 16.95 34.9699 16.7688 35.4833 16.7858C35.9967 16.8027 36.4839 17.0166 36.8439 17.383C37.2039 17.7494 37.4091 18.2403 37.417 18.7539C37.4249 19.2675 37.2348 19.7645 36.8863 20.1418L17.2863 39.4638C16.9131 39.8318 16.4104 40.0387 15.8863 40.0398Z" fill="currentColor"/>
<path d="M17.4555 27.2141L13.9115 30.708C13.7277 30.907 13.5055 31.0665 13.2582 31.1769C13.011 31.2874 12.7439 31.3465 12.4731 31.3507C12.2023 31.3548 11.9336 31.304 11.683 31.2011C11.4325 31.0983 11.2055 30.9457 11.0157 30.7525C10.8259 30.5594 10.6774 30.3297 10.579 30.0774C10.4806 29.8251 10.4345 29.5554 10.4435 29.2848C10.4524 29.0141 10.5162 28.7481 10.6311 28.5029C10.7459 28.2576 10.9093 28.0383 11.1115 27.858L14.6555 24.364C14.8392 24.1651 15.0614 24.0056 15.3087 23.8952C15.5559 23.7847 15.823 23.7256 16.0938 23.7214C16.3646 23.7173 16.6333 23.7681 16.8839 23.8709C17.1344 23.9738 17.3614 24.1264 17.5512 24.3195C17.741 24.5127 17.8895 24.7424 17.9879 24.9947C18.0863 25.247 18.1324 25.5167 18.1234 25.7873C18.1145 26.058 18.0507 26.324 17.9358 26.5692C17.821 26.8145 17.6576 27.0338 17.4555 27.2141Z" fill="currentColor"/>
<path d="M28.5679 15.4541C28.1715 15.4532 27.7844 15.3346 27.4555 15.1133C27.1267 14.892 26.871 14.5779 26.721 14.211C26.571 13.8441 26.5334 13.4409 26.613 13.0526C26.6925 12.6643 26.8857 12.3084 27.1679 12.0301L30.7139 8.53609C31.0978 8.19834 31.5964 8.02043 32.1074 8.03891C32.6183 8.05739 33.1028 8.27086 33.4613 8.63545C33.8197 9.00005 34.0249 9.48809 34.0347 9.99929C34.0445 10.5105 33.8581 11.006 33.5139 11.3841L29.9719 14.8781C29.5978 15.2471 29.0934 15.454 28.5679 15.4541Z" fill="currentColor"/>
<path d="M20.5386 23.3681C20.1422 23.3673 19.7551 23.2487 19.4262 23.0273C19.0974 22.806 18.8418 22.492 18.6917 22.1251C18.5417 21.7582 18.5041 21.355 18.5837 20.9667C18.6632 20.5784 18.8564 20.2225 19.1386 19.9441L22.6806 16.4501C22.8637 16.2491 23.0859 16.0874 23.3336 15.9751C23.5813 15.8628 23.8492 15.8022 24.1211 15.797C24.3931 15.7918 24.6632 15.8421 24.915 15.9448C25.1668 16.0476 25.395 16.2006 25.5856 16.3945C25.7763 16.5884 25.9254 16.8192 26.0238 17.0727C26.1223 17.3262 26.168 17.5971 26.1582 17.8689C26.1483 18.1407 26.0832 18.4076 25.9667 18.6534C25.8502 18.8991 25.6848 19.1185 25.4806 19.2981L21.9426 22.8001C21.5672 23.1662 21.063 23.3702 20.5386 23.3681Z" fill="currentColor"/>
</svg>
