<svg width="48" height="48" viewBox="0 0 48 48" fill="none" xmlns="http://www.w3.org/2000/svg">
<path d="M17.5717 27.342L14.0277 30.836C13.8439 31.0349 13.6217 31.1944 13.3744 31.3049C13.1272 31.4153 12.8601 31.4744 12.5893 31.4786C12.3186 31.4828 12.0498 31.4319 11.7993 31.3291C11.5487 31.2263 11.3217 31.0736 11.1319 30.8805C10.9421 30.6873 10.7936 30.4576 10.6952 30.2053C10.5968 29.953 10.5507 29.6834 10.5597 29.4127C10.5686 29.1421 10.6325 28.8761 10.7473 28.6308C10.8621 28.3856 11.0255 28.1662 11.2277 27.986L14.7717 24.492C14.9554 24.2931 15.1777 24.1335 15.4249 24.0231C15.6721 23.9126 15.9392 23.8535 16.21 23.8494C16.4808 23.8452 16.7496 23.8961 17.0001 23.9989C17.2506 24.1017 17.4776 24.2543 17.6674 24.4475C17.8572 24.6406 18.0058 24.8703 18.1041 25.1226C18.2025 25.3749 18.2486 25.6446 18.2396 25.9152C18.2307 26.1859 18.1669 26.4519 18.052 26.6971C17.9372 26.9424 17.7738 27.1618 17.5717 27.342Z" fill="currentColor"/>
<path d="M24.4273 19.5998C24.0309 19.599 23.6437 19.4804 23.3149 19.259C22.9861 19.0377 22.7304 18.7237 22.5804 18.3568C22.4304 17.9899 22.3928 17.5867 22.4723 17.1984C22.5519 16.8101 22.7451 16.4542 23.0273 16.1758L26.5713 12.6818C26.9551 12.3441 27.4538 12.1662 27.9647 12.1847C28.4757 12.2031 28.9602 12.4166 29.3186 12.7812C29.6771 13.1458 29.8823 13.6338 29.8921 14.145C29.9019 14.6562 29.7155 15.1518 29.3713 15.5298L25.8313 19.0318C25.4558 19.3979 24.9517 19.6019 24.4273 19.5998Z" fill="currentColor"/>
<path d="M32.1016 11.96C33.2061 11.96 34.1016 11.0645 34.1016 9.95996C34.1016 8.85539 33.2061 7.95996 32.1016 7.95996C30.997 7.95996 30.1016 8.85539 30.1016 9.95996C30.1016 11.0645 30.997 11.96 32.1016 11.96Z" fill="currentColor"/>
<path d="M20.2979 23.762C21.4024 23.762 22.2979 22.8665 22.2979 21.762C22.2979 20.6574 21.4024 19.762 20.2979 19.762C19.1933 19.762 18.2979 20.6574 18.2979 21.762C18.2979 22.8665 19.1933 23.762 20.2979 23.762Z" fill="currentColor"/>
<path d="M20.8881 36.0361L17.3441 39.5301C17.1603 39.729 16.9381 39.8885 16.6908 39.999C16.4436 40.1094 16.1765 40.1685 15.9057 40.1727C15.635 40.1768 15.3662 40.126 15.1157 40.0232C14.8651 39.9204 14.6381 39.7677 14.4483 39.5746C14.2585 39.3814 14.11 39.1517 14.0116 38.8994C13.9132 38.6471 13.8671 38.3775 13.8761 38.1068C13.885 37.8362 13.9489 37.5701 14.0637 37.3249C14.1785 37.0797 14.3419 36.8603 14.5441 36.6801L18.0801 33.1861C18.2638 32.9872 18.4861 32.8276 18.7333 32.7172C18.9805 32.6067 19.2476 32.5476 19.5184 32.5434C19.7892 32.5393 20.058 32.5902 20.3085 32.693C20.559 32.7958 20.786 32.9484 20.9758 33.1416C21.1656 33.3347 21.3142 33.5644 21.4125 33.8167C21.5109 34.069 21.557 34.3387 21.548 34.6093C21.5391 34.88 21.4753 35.146 21.3604 35.3912C21.2456 35.6365 21.0822 35.8559 20.8801 36.0361H20.8881Z" fill="currentColor"/>
<path d="M27.7437 28.302C27.3473 28.3011 26.9601 28.1825 26.6313 27.9612C26.3025 27.7398 26.0468 27.4258 25.8968 27.0589C25.7468 26.692 25.7092 26.2888 25.7888 25.9005C25.8683 25.5122 26.0615 25.1563 26.3437 24.878L29.8877 21.384C30.0708 21.1829 30.293 21.0213 30.5406 20.909C30.7883 20.7967 31.0563 20.736 31.3282 20.7308C31.6001 20.7256 31.8702 20.7759 32.122 20.8787C32.3738 20.9814 32.6021 21.1344 32.7927 21.3283C32.9834 21.5223 33.1325 21.753 33.2309 22.0065C33.3294 22.2601 33.3751 22.531 33.3652 22.8028C33.3554 23.0745 33.2902 23.3415 33.1737 23.5872C33.0573 23.8329 32.8919 24.0523 32.6877 24.232L29.1437 27.726C28.7705 28.094 28.2678 28.3008 27.7437 28.302Z" fill="currentColor"/>
<path d="M35.418 20.6541C36.5225 20.6541 37.418 19.7586 37.418 18.6541C37.418 17.5495 36.5225 16.6541 35.418 16.6541C34.3134 16.6541 33.418 17.5495 33.418 18.6541C33.418 19.7586 34.3134 20.6541 35.418 20.6541Z" fill="currentColor"/>
<path d="M23.6143 32.4561C24.7188 32.4561 25.6143 31.5606 25.6143 30.4561C25.6143 29.3515 24.7188 28.4561 23.6143 28.4561C22.5097 28.4561 21.6143 29.3515 21.6143 30.4561C21.6143 31.5606 22.5097 32.4561 23.6143 32.4561Z" fill="currentColor"/>
</svg>
