<svg width="48" height="48" viewBox="0 0 48 48" fill="none" xmlns="http://www.w3.org/2000/svg">
<path d="M14.5315 35.1779L13.3995 35.8359C13.2347 35.9307 13.0432 35.9687 12.8547 35.9439C12.6661 35.9191 12.491 35.8329 12.3562 35.6987C12.2215 35.5644 12.1348 35.3896 12.1093 35.2011C12.0839 35.0126 12.1212 34.821 12.2155 34.6559L12.8715 33.5159L14.5315 35.1779Z" fill="#231F20"/>
<path d="M17.8964 33.2301L16.1064 34.2681L13.7764 31.9381L14.8084 30.1421L17.8964 33.2301Z" fill="#231F20"/>
<path d="M21.1464 31.348L19.3564 32.386L15.6504 28.68L16.6824 26.884L21.1464 31.348Z" fill="#231F20"/>
<path d="M24.3975 29.468L22.6055 30.504L17.5215 25.422L18.5535 23.624L24.3975 29.468Z" fill="#231F20"/>
<path d="M27.6475 27.586L25.8555 28.622L19.3955 22.162L20.4275 20.366L27.6475 27.586Z" fill="#231F20"/>
<path d="M30.8966 25.7039L29.1046 26.7419L21.2686 18.9039L22.3006 17.1079L30.8966 25.7039Z" fill="#231F20"/>
<path d="M34.1466 23.8221L32.3546 24.8601L23.1426 15.6461L24.1746 13.8501L34.1466 23.8221Z" fill="#231F20"/>
<path d="M37.3937 21.94L35.6037 22.978L25.0137 12.388L26.0457 10.592L37.3937 21.94Z" fill="#231F20"/>
<path d="M39.4197 20.7681L38.8537 21.0961L26.8877 9.13006L27.2117 8.56406C27.2781 8.44903 27.37 8.35081 27.4804 8.27699C27.5908 8.20317 27.7167 8.15572 27.8483 8.13832C27.98 8.12093 28.1139 8.13404 28.2397 8.17665C28.3654 8.21926 28.4797 8.29022 28.5737 8.38406L39.5997 19.4001C39.6951 19.4938 39.7674 19.6085 39.8109 19.735C39.8545 19.8614 39.8681 19.9963 39.8506 20.1289C39.8332 20.2615 39.7852 20.3883 39.7104 20.4992C39.6356 20.6101 39.5361 20.7022 39.4197 20.7681Z" fill="#231F20"/>
<path d="M37.3937 21.94L35.6037 22.978L25.0137 12.388L26.0457 10.592L37.3937 21.94Z" fill="#231F20"/>
<path d="M39.4197 20.7681L38.8537 21.0961L26.8877 9.13006L27.2117 8.56406C27.2781 8.44903 27.37 8.35081 27.4804 8.27699C27.5908 8.20317 27.7167 8.15572 27.8483 8.13832C27.98 8.12093 28.1139 8.13404 28.2397 8.17665C28.3654 8.21926 28.4797 8.29022 28.5737 8.38406L39.5997 19.4001C39.6951 19.4938 39.7674 19.6085 39.8109 19.735C39.8545 19.8614 39.8681 19.9963 39.8506 20.1289C39.8332 20.2615 39.7852 20.3883 39.7104 20.4992C39.6356 20.6101 39.5361 20.7022 39.4197 20.7681Z" fill="#231F20"/>
<path d="M34.1466 23.8221L32.3546 24.8601L23.1426 15.6461L24.1746 13.8501L34.1466 23.8221Z" fill="#231F20"/>
<path d="M30.8966 25.7039L29.1046 26.7419L21.2686 18.9039L22.3006 17.1079L30.8966 25.7039Z" fill="#231F20"/>
<path d="M27.6475 27.586L25.8555 28.622L19.3955 22.162L20.4275 20.366L27.6475 27.586Z" fill="#231F20"/>
<path d="M24.3975 29.468L22.6055 30.504L17.5215 25.422L18.5535 23.624L24.3975 29.468Z" fill="#231F20"/>
<path d="M21.1464 31.348L19.3564 32.386L15.6504 28.68L16.6824 26.884L21.1464 31.348Z" fill="#231F20"/>
<path d="M17.8964 33.2301L16.1064 34.2681L13.7764 31.9381L14.8084 30.1421L17.8964 33.2301Z" fill="#231F20"/>
<path d="M14.5315 35.1779L13.3995 35.8359C13.2347 35.9307 13.0432 35.9687 12.8547 35.9439C12.6661 35.9191 12.491 35.8329 12.3562 35.6987C12.2215 35.5644 12.1348 35.3896 12.1093 35.2011C12.0839 35.0126 12.1212 34.821 12.2155 34.6559L12.8715 33.5159L14.5315 35.1779Z" fill="#231F20"/>
</svg>
