<svg xmlns="http://www.w3.org/2000/svg" width="24" height="24" viewBox="0 0 24 24" fill="none">
<path d="M17.3106 11.9541L18.9033 11.0172C19.1852 10.8514 19.2346 10.464 19.0033 10.2327L12.9171 4.14649C12.6859 3.91521 12.2985 3.96461 12.1326 4.24654L11.1957 5.83928L17.3106 11.9541Z" fill="#333333"/>
<path d="M9.34387 8.98742L10.3914 7.20656L15.9433 12.7584L14.1624 13.806L9.34387 8.98742Z" fill="#333333"/>
<path d="M7.49201 12.1356L8.53958 10.3547L12.7951 14.6102L11.0143 15.6578L7.49201 12.1356Z" fill="#333333"/>
<path d="M5.64016 15.2837L6.68773 13.5029L9.64697 16.4621L7.86611 17.5097L5.64016 15.2837Z" fill="#333333"/>
<path d="M6.49882 18.314L5.28615 19.0273C4.53026 19.4719 3.6779 18.6196 4.12254 17.8637L4.83588 16.651L6.49882 18.314Z" fill="#333333"/>
</svg>