<svg width="48" height="48" viewBox="0 0 48 48" fill="none" xmlns="http://www.w3.org/2000/svg">
<path d="M15.8863 40.04C15.4899 40.0392 15.1027 39.9205 14.7739 39.6992C14.4451 39.4779 14.1894 39.1639 14.0394 38.797C13.8894 38.4301 13.8518 38.0269 13.9313 37.6386C14.0109 37.2503 14.2041 36.8944 14.4863 36.616L34.0863 17.292C34.27 17.0931 34.4923 16.9336 34.7395 16.8231C34.9867 16.7127 35.2538 16.6536 35.5246 16.6494C35.7954 16.6452 36.0642 16.6961 36.3147 16.7989C36.5652 16.9017 36.7922 17.0544 36.982 17.2475C37.1718 17.4407 37.3204 17.6704 37.4187 17.9227C37.5171 18.175 37.5632 18.4446 37.5543 18.7153C37.5453 18.9859 37.4815 19.2519 37.3667 19.4972C37.2518 19.7424 37.0884 19.9618 36.8863 20.142L17.2863 39.464C16.9131 39.8321 16.4104 40.0389 15.8863 40.04Z" fill="currentColor"/>
<path d="M17.5844 27.342L14.0404 30.836C13.8566 31.0349 13.6344 31.1944 13.3871 31.3049C13.1399 31.4153 12.8728 31.4744 12.602 31.4786C12.3313 31.4828 12.0625 31.4319 11.8119 31.3291C11.5614 31.2263 11.3344 31.0736 11.1446 30.8805C10.9548 30.6873 10.8063 30.4576 10.7079 30.2053C10.6095 29.953 10.5634 29.6834 10.5724 29.4127C10.5813 29.1421 10.6452 28.8761 10.76 28.6308C10.8748 28.3856 11.0382 28.1662 11.2404 27.986L14.7844 24.492C14.9681 24.2931 15.1903 24.1335 15.4376 24.0231C15.6848 23.9126 15.9519 23.8535 16.2227 23.8494C16.4935 23.8452 16.7622 23.8961 17.0128 23.9989C17.2633 24.1017 17.4903 24.2543 17.6801 24.4475C17.8699 24.6406 18.0185 24.8703 18.1168 25.1226C18.2152 25.3749 18.2613 25.6446 18.2523 25.9152C18.2434 26.1859 18.1796 26.4519 18.0647 26.6971C17.9499 26.9424 17.7865 27.1618 17.5844 27.342Z" fill="currentColor"/>
<path d="M24.441 19.6001C24.0446 19.5993 23.6574 19.4806 23.3286 19.2593C22.9997 19.038 22.7441 18.724 22.5941 18.3571C22.4441 17.9902 22.4065 17.587 22.486 17.1987C22.5656 16.8104 22.7587 16.4545 23.041 16.1761L26.581 12.6901C26.764 12.489 26.9862 12.3274 27.2339 12.2151C27.4816 12.1028 27.7496 12.0422 28.0215 12.037C28.2934 12.0318 28.5635 12.0821 28.8153 12.1848C29.0671 12.2875 29.2953 12.4405 29.486 12.6345C29.6766 12.8284 29.8257 13.0592 29.9242 13.3127C30.0226 13.5662 30.0683 13.8371 30.0585 14.1089C30.0487 14.3807 29.9835 14.6476 29.867 14.8933C29.7505 15.1391 29.5851 15.3585 29.381 15.5381L25.845 19.0321C25.4695 19.3982 24.9653 19.6022 24.441 19.6001Z" fill="currentColor"/>
<path d="M32.1133 11.96C33.2179 11.96 34.1133 11.0645 34.1133 9.95996C34.1133 8.85539 33.2179 7.95996 32.1133 7.95996C31.0087 7.95996 30.1133 8.85539 30.1133 9.95996C30.1133 11.0645 31.0087 11.96 32.1133 11.96Z" fill="currentColor"/>
<path d="M20.3105 23.762C21.4151 23.762 22.3105 22.8665 22.3105 21.762C22.3105 20.6574 21.4151 19.762 20.3105 19.762C19.206 19.762 18.3105 20.6574 18.3105 21.762C18.3105 22.8665 19.206 23.762 20.3105 23.762Z" fill="currentColor"/>
</svg>
