<svg xmlns="http://www.w3.org/2000/svg" width="24" height="24" viewBox="0 0 24 24" fill="none">
<path d="M18.7631 10.8294L4.70145 18.9724C4.61237 19.0237 4.50889 19.0442 4.40699 19.0308C4.30509 19.0174 4.21043 18.9708 4.13764 18.8983C4.06484 18.8257 4.01795 18.7312 4.0042 18.6294C3.99046 18.5275 4.01063 18.424 4.06159 18.3347L12.1679 4.23411C12.2037 4.17195 12.2534 4.11887 12.3131 4.07897C12.3727 4.03908 12.4408 4.01344 12.5119 4.00403C12.5831 3.99463 12.6554 4.00172 12.7234 4.02474C12.7914 4.04777 12.8531 4.08612 12.9039 4.13683L18.8604 10.0901C18.912 10.1408 18.951 10.2027 18.9746 10.2711C18.9981 10.3394 19.0054 10.4123 18.996 10.484C18.9866 10.5556 18.9606 10.6241 18.9202 10.6841C18.8798 10.744 18.826 10.7938 18.7631 10.8294Z" fill="#333333"/>
</svg>
