<svg width="48" height="48" viewBox="0 0 48 48" fill="none" xmlns="http://www.w3.org/2000/svg">
<path fill-rule="evenodd" clip-rule="evenodd" d="M15.9424 32.0782C16.7178 32.8648 16.7087 34.1311 15.9221 34.9065L12.2761 38.5005C11.4895 39.2759 10.2232 39.2668 9.44774 38.4802C8.67232 37.6936 8.68141 36.4273 9.46805 35.6518L13.114 32.0578C13.9007 31.2824 15.167 31.2915 15.9424 32.0782Z" fill="#231F20"/>
<path fill-rule="evenodd" clip-rule="evenodd" d="M23.4574 24.5383C24.2326 25.3251 24.2232 26.5914 23.4363 27.3666L19.7903 30.9586C19.0035 31.7338 17.7372 31.7244 16.962 30.9375C16.1868 30.1507 16.1962 28.8844 16.9831 28.1092L20.6291 24.5172C21.416 23.742 22.6822 23.7514 23.4574 24.5383Z" fill="#231F20"/>
<path fill-rule="evenodd" clip-rule="evenodd" d="M31.0131 17.0363C31.7883 17.8232 31.7789 19.0895 30.992 19.8647L27.346 23.4567C26.5592 24.2319 25.2929 24.2224 24.5177 23.4356C23.7425 22.6487 23.7519 21.3824 24.5388 20.6072L28.1848 17.0152C28.9716 16.24 30.2379 16.2495 31.0131 17.0363Z" fill="#231F20"/>
<path fill-rule="evenodd" clip-rule="evenodd" d="M38.5528 9.52005C39.3282 10.3067 39.3191 11.573 38.5324 12.3484L34.8864 15.9424C34.0998 16.7178 32.8335 16.7087 32.0581 15.9221C31.2827 15.1355 31.2918 13.8692 32.0784 13.0937L35.7244 9.49974C36.511 8.72432 37.7773 8.73341 38.5528 9.52005Z" fill="#231F20"/>
</svg>
