<svg width="48" height="48" viewBox="0 0 48 48" fill="none" xmlns="http://www.w3.org/2000/svg">
<path d="M14.2613 35.7262C13.8649 35.7253 13.4777 35.6067 13.1489 35.3854C12.8201 35.1641 12.5644 34.85 12.4144 34.4831C12.2644 34.1162 12.2268 33.713 12.3063 33.3247C12.3859 32.9364 12.5791 32.5805 12.8613 32.3022L13.8733 31.3022C14.0564 31.1011 14.2785 30.9395 14.5262 30.8272C14.7739 30.7149 15.0419 30.6543 15.3138 30.649C15.5857 30.6438 15.8558 30.6941 16.1076 30.7969C16.3594 30.8996 16.5876 31.0526 16.7783 31.2465C16.969 31.4405 17.1181 31.6712 17.2165 31.9248C17.3149 32.1783 17.3606 32.4492 17.3508 32.721C17.341 32.9927 17.2758 33.2597 17.1593 33.5054C17.0428 33.7511 16.8774 33.9705 16.6733 34.1502L15.6613 35.1502C15.2881 35.5182 14.7854 35.7251 14.2613 35.7262Z" fill="#231F20"/>
<path d="M18.8746 31.1079C18.4782 31.107 18.091 30.9884 17.7622 30.7671C17.4333 30.5458 17.1777 30.2317 17.0277 29.8648C16.8777 29.4979 16.84 29.0948 16.9196 28.7064C16.9992 28.3181 17.1923 27.9622 17.4746 27.6839L18.4866 26.6839C18.87 26.3421 19.3702 26.1609 19.8836 26.1779C20.397 26.1948 20.8842 26.4087 21.2442 26.7751C21.6041 27.1415 21.8094 27.6324 21.8172 28.146C21.8251 28.6596 21.6351 29.1566 21.2866 29.5339L20.2866 30.5339C19.9101 30.9041 19.4025 31.1104 18.8746 31.1079Z" fill="#231F20"/>
<path d="M23.486 26.4899C23.0892 26.4895 22.7015 26.371 22.3722 26.1496C22.043 25.9281 21.787 25.6138 21.6369 25.2465C21.4868 24.8792 21.4494 24.4755 21.5293 24.0869C21.6093 23.6982 21.803 23.3421 22.086 23.0639L23.086 22.0639C23.4698 21.7262 23.9684 21.5483 24.4794 21.5667C24.9904 21.5852 25.4748 21.7987 25.8333 22.1633C26.1917 22.5279 26.397 23.0159 26.4067 23.5271C26.4165 24.0383 26.2302 24.5339 25.886 24.9119L24.886 25.9119C24.5131 26.2807 24.0104 26.4882 23.486 26.4899V26.4899Z" fill="#231F20"/>
<path d="M28.1119 21.8859C27.7151 21.8854 27.3275 21.767 26.9982 21.5455C26.6689 21.3241 26.413 21.0098 26.2629 20.6425C26.1128 20.2752 26.0753 19.8715 26.1553 19.4829C26.2353 19.0942 26.429 18.7381 26.7119 18.4599L27.7219 17.4599C27.905 17.2588 28.1272 17.0972 28.3749 16.9849C28.6226 16.8726 28.8906 16.812 29.1625 16.8068C29.4344 16.8016 29.7045 16.8519 29.9563 16.9546C30.2081 17.0573 30.4363 17.2103 30.627 17.4043C30.8176 17.5982 30.9667 17.829 31.0652 18.0825C31.1636 18.336 31.2093 18.6069 31.1995 18.8787C31.1896 19.1505 31.1245 19.4174 31.008 19.6631C30.8915 19.9089 30.7261 20.1283 30.5219 20.3079L29.5219 21.3079C29.1466 21.6791 28.6398 21.8869 28.1119 21.8859V21.8859Z" fill="#231F20"/>
<path d="M32.7261 17.27C32.3297 17.2691 31.9426 17.1505 31.6137 16.9292C31.2849 16.7079 31.0293 16.3938 30.8792 16.0269C30.7292 15.6601 30.6916 15.2569 30.7712 14.8686C30.8507 14.4802 31.0439 14.1243 31.3261 13.846L32.3381 12.846C32.7215 12.5042 33.2218 12.323 33.7352 12.34C34.2486 12.3569 34.7357 12.5708 35.0957 12.9372C35.4557 13.3036 35.6609 13.7945 35.6688 14.3081C35.6767 14.8217 35.4867 15.3187 35.1381 15.696L34.1261 16.696C33.7526 17.0633 33.2499 17.2694 32.7261 17.27Z" fill="#231F20"/>
</svg>
