<svg width="48" height="48" viewBox="0 0 48 48" fill="none" xmlns="http://www.w3.org/2000/svg">
<path fill-rule="evenodd" clip-rule="evenodd" d="M35.1584 12.9282C35.9338 13.7149 35.9245 14.9812 35.1378 15.7565L15.5318 35.0785C14.7451 35.8539 13.4788 35.8446 12.7034 35.0579C11.9281 34.2712 11.9373 33.0049 12.7241 32.2295L32.3301 12.9075C33.1168 12.1322 34.3831 12.1414 35.1584 12.9282Z" fill="currentColor"/>
<path fill-rule="evenodd" clip-rule="evenodd" d="M31.3059 5.49018C32.0812 6.27691 32.072 7.54321 31.2852 8.31854L11.6792 27.6405C10.8925 28.4159 9.62623 28.4066 8.8509 27.6199C8.07557 26.8332 8.08481 25.5669 8.87153 24.7915L28.4775 5.46955C29.2643 4.69422 30.5306 4.70346 31.3059 5.49018Z" fill="currentColor"/>
<path fill-rule="evenodd" clip-rule="evenodd" d="M39.0129 20.3662C39.7882 21.1529 39.779 22.4192 38.9923 23.1945L19.3863 42.5165C18.5996 43.2918 17.3333 43.2826 16.5579 42.4959C15.7826 41.7092 15.7918 40.4429 16.5786 39.6675L36.1846 20.3455C36.9713 19.5702 38.2376 19.5794 39.0129 20.3662Z" fill="currentColor"/>
</svg>
