<svg width="24" height="24" viewBox="0 0 24 24" fill="none" xmlns="http://www.w3.org/2000/svg">
<path d="M21.5 6.499V8.499H17.5V12.5H15.5V8.499H11.5V6.499H15.5V2.5H17.5V6.499H21.5Z" fill="currentColor"/>
<path d="M5.81933 19.3202C5.68199 19.7265 5.30087 20 4.87199 20H4.42109C3.72897 20 3.24613 19.3138 3.47981 18.6624L6.70812 9.66236C6.85064 9.26504 7.22729 9 7.6494 9H9.35585C9.77812 9 10.1549 9.26525 10.2973 9.66279L13.521 18.6628C13.7543 19.3142 13.2715 20 12.5796 20H12.1285C11.6994 20 11.3181 19.7262 11.1809 19.3197L8.56171 11.556C8.55318 11.5307 8.52947 11.5137 8.50278 11.5137C8.4761 11.5137 8.45239 11.5307 8.44385 11.556L5.81933 19.3202ZM5.4277 16.584C5.4277 16.0827 5.8341 15.6763 6.33542 15.6763H10.6367C11.138 15.6763 11.5444 16.0827 11.5444 16.584C11.5444 17.0853 11.138 17.4917 10.6367 17.4917H6.33542C5.8341 17.4917 5.4277 17.0853 5.4277 16.584Z" fill="currentColor"/>
</svg>
