<svg width="24" height="24" viewBox="0 0 24 24" xmlns="http://www.w3.org/2000/svg">
<path d="M12 5C13.3845 5 14.7379 5.41054 15.889 6.17971C17.0401 6.94888 17.9373 8.04213 18.4672 9.32122C18.997 10.6003 19.1356 12.0078 18.8655 13.3656C18.5954 14.7235 17.9287 15.9708 16.9498 16.9497C15.9708 17.9287 14.7235 18.5954 13.3656 18.8655C12.0078 19.1356 10.6003 18.997 9.32122 18.4672C8.04214 17.9373 6.94889 17.0401 6.17972 15.889C5.41055 14.7378 5 13.3845 5 12C5.00212 10.1441 5.7403 8.36489 7.05259 7.05259C8.36489 5.74029 10.1441 5.00212 12 5ZM12 3C10.22 3 8.47991 3.52784 6.99987 4.51677C5.51983 5.50571 4.36628 6.91131 3.68509 8.55585C3.0039 10.2004 2.82567 12.01 3.17294 13.7558C3.5202 15.5016 4.37737 17.1053 5.63604 18.364C6.89472 19.6226 8.49836 20.4798 10.2442 20.8271C11.99 21.1743 13.7996 20.9961 15.4442 20.3149C17.0887 19.6337 18.4943 18.4802 19.4832 17.0001C20.4722 15.5201 21 13.78 21 12C21 9.61305 20.0518 7.32387 18.364 5.63604C16.6761 3.94821 14.387 3 12 3Z" fill="currentcolor"/>
<path fill-rule="evenodd" clip-rule="evenodd" d="M16.7301 9.55498L10.8924 15.3915L7.57812 11.8523L9.03797 10.4853L10.9397 12.5161L15.316 8.14062L16.7301 9.55498Z" fill="currentcolor"/>
</svg>
