<svg width="18" height="18" viewBox="0 0 18 18" fill="none" xmlns="http://www.w3.org/2000/svg">
<path d="M8.99994 0C11.3869 0 13.6764 0.947916 15.3642 2.63574C17.052 4.32357 17.9999 6.61305 17.9999 9C17.9999 10.78 17.4722 12.52 16.4833 14C15.4945 15.4799 14.0887 16.6332 12.4443 17.3145C10.7997 17.9956 8.98991 18.1744 7.24409 17.8271C5.49827 17.4799 3.89435 16.6229 2.63569 15.3643C1.37702 14.1056 0.520066 12.5017 0.172796 10.7559C-0.174471 9.01003 0.00430272 7.2002 0.685491 5.55566C1.3667 3.91127 2.52 2.50547 3.99994 1.5166C5.47995 0.527742 7.21998 5.71585e-07 8.99994 0ZM7.54096 11.1221L4.87397 8.01465L3.49994 9.5L7.49994 14L14.4999 6.5L13.1533 5L7.54096 11.1221Z" fill="currentColor"/>
</svg>
