<svg id="Layer_1" data-name="Layer 1" xmlns="http://www.w3.org/2000/svg" viewBox="0 -5 70 35">
  <title>Chiral Btn</title>
  <path d="M0,25H69V0H0ZM68,1V24H1V1Z"/>
  <path d="M21,18.14a3.85,3.85,0,0,0,2.71-.93,3.07,3.07,0,0,0,1-2.43v0H23.1a2.09,2.09,0,0,1-.53,1.54,2.09,2.09,0,0,1-1.55.53,1.94,1.94,0,0,1-1.64-.8,3.31,3.31,0,0,1-.6-2V12.07a3.33,3.33,0,0,1,.59-2,1.89,1.89,0,0,1,1.6-.8,2.18,2.18,0,0,1,1.59.53,2,2,0,0,1,.54,1.53h1.61v0a3,3,0,0,0-1-2.45A4,4,0,0,0,21,7.9a3.58,3.58,0,0,0-2.78,1.18,4.3,4.3,0,0,0-1.07,3V14a4.25,4.25,0,0,0,1.08,3A3.65,3.65,0,0,0,21,18.14Z"/>
  <path d="M27.77,12.54a1.67,1.67,0,0,1,.64-.52,2.09,2.09,0,0,1,.92-.19,1.26,1.26,0,0,1,1,.39,1.91,1.91,0,0,1,.34,1.26V18h1.66V13.49a3.36,3.36,0,0,0-.66-2.29,2.33,2.33,0,0,0-1.84-.74,2.42,2.42,0,0,0-1.17.29,2.63,2.63,0,0,0-.9.81V7.34H26.11V18h1.66Z"/>
  <rect x="34.16" y="7.34" width="1.66" height="1.46"/>
  <rect x="34.16" y="10.6" width="1.66" height="7.4"/>
  <path d="M39.32,12.86a1.35,1.35,0,0,1,.5-.58,1.49,1.49,0,0,1,.81-.21l.71,0,.2-1.55-.24-.06-.28,0a1.68,1.68,0,0,0-1,.32,2.38,2.38,0,0,0-.72.89l-.11-1.07H37.66V18h1.66Z"/>
  <path d="M45.49,13.65a4.08,4.08,0,0,0-2.39.6,1.93,1.93,0,0,0-.85,1.67,2.16,2.16,0,0,0,.62,1.63,2.46,2.46,0,0,0,1.77.59,2.3,2.3,0,0,0,1.25-.35,2.85,2.85,0,0,0,.9-.87,4,4,0,0,0,.08.53q.06.27.15.55H48.7a4.59,4.59,0,0,1-.2-.82,6,6,0,0,1-.06-.88V13a2.31,2.31,0,0,0-.79-1.89,3.17,3.17,0,0,0-2.08-.66,3.32,3.32,0,0,0-2.16.68,1.83,1.83,0,0,0-.78,1.55v0h1.6a.86.86,0,0,1,.33-.7,1.39,1.39,0,0,1,.9-.27,1.35,1.35,0,0,1,1,.33,1.21,1.21,0,0,1,.34.91v.65Zm1.29,2.13a1.59,1.59,0,0,1-.67.72,2.07,2.07,0,0,1-1.12.31,1.15,1.15,0,0,1-.8-.25.86.86,0,0,1-.28-.67,1.09,1.09,0,0,1,.41-.84,1.67,1.67,0,0,1,1.13-.36h1.32Z"/>
  <rect x="50.27" y="7.34" width="1.66" height="10.66"/>
</svg>
