<svg width="24" height="24" viewBox="0 0 24 24" xmlns="http://www.w3.org/2000/svg">
<path d="M11.9978 19.2706L4.60681 7.9476C4.54887 7.85924 4.51169 7.75891 4.49805 7.65413C4.4844 7.54935 4.49466 7.44284 4.52805 7.34259C4.56143 7.24234 4.61708 7.15095 4.69081 7.07527C4.76455 6.99959 4.85446 6.94158 4.95381 6.9056L9.44681 5.2706C9.54587 5.23461 9.65177 5.22145 9.75663 5.2321C9.86148 5.24276 9.96258 5.27695 10.0524 5.33214C10.1422 5.38732 10.2183 5.46207 10.2752 5.5508C10.3321 5.63953 10.3682 5.73996 10.3808 5.8446L11.9978 19.2706ZM5.64981 7.7166L10.4978 15.1356L9.43781 6.3356L5.64981 7.7166Z" fill="currentcolor"/>
<path d="M19.392 7.94695L12 19.2709L13.617 5.84495C13.6296 5.74019 13.6657 5.63964 13.7226 5.55081C13.7796 5.46197 13.8558 5.38716 13.9458 5.33196C14.0357 5.27676 14.1369 5.2426 14.2419 5.23203C14.3469 5.22147 14.4529 5.23477 14.552 5.27095L19.045 6.90595C19.1442 6.94196 19.234 6.99995 19.3076 7.07555C19.3812 7.15116 19.4368 7.24244 19.4702 7.34256C19.5035 7.44267 19.5138 7.54904 19.5003 7.65371C19.4868 7.75837 19.4497 7.85861 19.392 7.94695Z" fill="currentcolor"/>
</svg>
