<svg width="24" height="24" viewBox="0 0 24 24" fill="none" xmlns="http://www.w3.org/2000/svg">
<path d="M17.25 18.75H9V8.25H17.25V13.5V18.75ZM17.25 6.75H9C8.60217 6.75 8.22064 6.90803 7.93934 7.18934C7.65803 7.47064 7.5 7.85217 7.5 8.25V18.75C7.5 19.1478 7.65803 19.5294 7.93934 19.8107C8.22064 20.092 8.60217 20.25 9 20.25H17.25C17.6478 20.25 18.0294 20.092 18.3107 19.8107C18.592 19.5294 18.75 19.1478 18.75 18.75V8.25C18.75 7.85217 18.592 7.47064 18.3107 7.18934C18.0294 6.90803 17.6478 6.75 17.25 6.75ZM15 3.75H6C5.60217 3.75 5.22064 3.90804 4.93934 4.18934C4.65804 4.47064 4.5 4.85217 4.5 5.25V15.75H6V5.25H15V3.75Z" fill="currentColor"/>
<path d="M11.3 16.3182C11.1343 16.3182 11 16.1839 11 16.0182V10.8C11 10.6343 11.1343 10.5 11.3 10.5H11.9301C12.0958 10.5 12.2301 10.6343 12.2301 10.8V13.0133C12.2301 13.0421 12.2534 13.0653 12.2821 13.0653C12.2978 13.0653 12.3125 13.0583 12.3224 13.0462L14.3105 10.6103C14.3675 10.5405 14.4528 10.5 14.543 10.5H15.2367C15.4907 10.5 15.6298 10.7959 15.4677 10.9914L13.8598 12.9315C13.7746 13.0343 13.7676 13.1811 13.8427 13.2916L15.5819 15.8495C15.7173 16.0487 15.5747 16.3182 15.3338 16.3182H14.5896C14.4893 16.3182 14.3956 16.268 14.3399 16.1845L13.06 14.2635C12.9482 14.0957 12.7061 14.0838 12.5783 14.2398L12.298 14.5819C12.2541 14.6355 12.2301 14.7027 12.2301 14.772V16.0182C12.2301 16.1839 12.0958 16.3182 11.9301 16.3182H11.3Z" fill="currentColor"/>
</svg>
