<svg width="24" height="24" viewBox="0 0 24 24" fill="none" xmlns="http://www.w3.org/2000/svg">
<path d="M17.25 18.75H9V8.25H17.25V13.5V18.75ZM17.25 6.75H9C8.60217 6.75 8.22064 6.90803 7.93934 7.18934C7.65803 7.47064 7.5 7.85217 7.5 8.25V18.75C7.5 19.1478 7.65803 19.5294 7.93934 19.8107C8.22064 20.092 8.60217 20.25 9 20.25H17.25C17.6478 20.25 18.0294 20.092 18.3107 19.8107C18.592 19.5294 18.75 19.1478 18.75 18.75V8.25C18.75 7.85217 18.592 7.47064 18.3107 7.18934C18.0294 6.90803 17.6478 6.75 17.25 6.75ZM15 3.75H6C5.60217 3.75 5.22064 3.90804 4.93934 4.18934C4.65804 4.47064 4.5 4.85217 4.5 5.25V15.75H6V5.25H15V3.75Z" fill="currentColor"/>
<path fill-rule="evenodd" clip-rule="evenodd" d="M10.1992 10C10.1992 9.72386 10.4231 9.5 10.6992 9.5H15.6992C15.9754 9.5 16.1992 9.72386 16.1992 10V12.4688C16.1992 12.767 15.9394 12.9965 15.6412 13.0004C15.3002 13.0048 14.9595 13.0479 14.6259 13.1299C13.9291 13.301 13.2834 13.6363 12.7425 14.1077C12.2016 14.5791 11.7813 15.173 11.5167 15.8398C11.3683 16.2136 11.2712 16.6042 11.227 17.001C11.1963 17.2755 10.9754 17.5 10.6992 17.5C10.4231 17.5 10.1992 17.2761 10.1992 17V10ZM13.1992 11.5C13.1992 12.0523 12.7515 12.5 12.1992 12.5C11.6469 12.5 11.1992 12.0523 11.1992 11.5C11.1992 10.9477 11.6469 10.5 12.1992 10.5C12.7515 10.5 13.1992 10.9477 13.1992 11.5Z" fill="currentColor"/>
<path d="M11.8553 17.0014C11.8198 17.2752 12.0469 17.5 12.3231 17.5H15.6992C15.9754 17.5 16.1992 17.2761 16.1992 17V14.0954C16.1992 13.8442 16.0126 13.6284 15.7614 13.6244C15.4303 13.6191 15.0986 13.6562 14.7747 13.7357C14.1745 13.8832 13.6183 14.1719 13.1524 14.578C12.6865 14.984 12.3245 15.4956 12.0965 16.07C11.9773 16.3703 11.8966 16.6832 11.8553 17.0014Z" fill="currentColor"/>
</svg>
