<svg width="24" height="24" viewBox="0 0 24 24" fill="none" xmlns="http://www.w3.org/2000/svg">
<path d="M17.25 18.75H9V8.25H17.25V13.5V18.75ZM17.25 6.75H9C8.60217 6.75 8.22064 6.90803 7.93934 7.18934C7.65803 7.47064 7.5 7.85217 7.5 8.25V18.75C7.5 19.1478 7.65803 19.5294 7.93934 19.8107C8.22064 20.092 8.60217 20.25 9 20.25H17.25C17.6478 20.25 18.0294 20.092 18.3107 19.8107C18.592 19.5294 18.75 19.1478 18.75 18.75V8.25C18.75 7.85217 18.592 7.47064 18.3107 7.18934C18.0294 6.90803 17.6478 6.75 17.25 6.75ZM15 3.75H6C5.60217 3.75 5.22064 3.90804 4.93934 4.18934C4.65804 4.47064 4.5 4.85217 4.5 5.25V15.75H6V5.25H15V3.75Z" fill="currentColor"/>
<path d="M10 11C10 10.7239 10.2239 10.5 10.5 10.5H11.1816C11.3845 10.5 11.5673 10.6226 11.6443 10.8104L13.1064 14.3775C13.1142 14.3966 13.1328 14.4091 13.1534 14.4091V14.4091C13.174 14.4091 13.1926 14.3966 13.2004 14.3775L14.6626 10.8104C14.7395 10.6226 14.9223 10.5 15.1252 10.5H15.8068C16.083 10.5 16.3068 10.7239 16.3068 11V15.8182C16.3068 16.0943 16.083 16.3182 15.8068 16.3182H15.6136C15.3375 16.3182 15.1136 16.0943 15.1136 15.8182V12.5601C15.1136 12.5441 15.1007 12.5312 15.0848 12.5312V12.5312C15.0731 12.5312 15.0625 12.5384 15.0581 12.5493L13.6855 15.9757C13.6095 16.1654 13.4257 16.2898 13.2213 16.2898H13.086C12.8814 16.2898 12.6974 16.1651 12.6216 15.9751L11.2487 12.5352C11.2443 12.5242 11.2338 12.517 11.222 12.517V12.517C11.2061 12.517 11.1932 12.5299 11.1932 12.5458V15.8182C11.1932 16.0943 10.9693 16.3182 10.6932 16.3182H10.5C10.2239 16.3182 10 16.0943 10 15.8182V11Z" fill="currentColor"/>
</svg>
