<svg width="20" height="12" viewBox="0 0 20 12" fill="none" xmlns="http://www.w3.org/2000/svg">
    <path fill-rule="evenodd" clip-rule="evenodd" d="M12.1611 0.5C12.6858 0.500079 13.1761 0.749062 13.4912 1.16406L13.6152 1.35156L15.7754 5.14844C15.8033 5.19749 15.8259 5.24882 15.8486 5.2998H16.1289C16.413 4.54108 17.1421 4 18 4C19.1046 4 20 4.89543 20 6C20 7.10457 19.1046 8 18 8C17.1421 8 16.413 7.45892 16.1289 6.7002H15.8486C15.8259 6.75118 15.8033 6.80251 15.7754 6.85156L13.6152 10.6484C13.3154 11.1752 12.7607 11.4999 12.1611 11.5H7.83887L7.61719 11.4844C7.10526 11.415 6.64714 11.1095 6.38477 10.6484L4.22559 6.85156L4.15137 6.7002H3.87109C3.58704 7.45892 2.85787 8 2 8C0.89543 8 2.44343e-08 7.10457 0 6C-2.44343e-08 4.89543 0.89543 4 2 4C2.85787 4 3.58704 4.54108 3.87109 5.2998H4.15039C4.17321 5.24857 4.19754 5.19773 4.22559 5.14844L6.38477 1.35156C6.64714 0.890524 7.10526 0.584973 7.61719 0.515625L7.83887 0.5H12.1611ZM7.83887 1.98242C7.76118 1.98262 7.68925 2.02449 7.65039 2.09277L5.48926 5.88965C5.45064 5.95787 5.45064 6.04213 5.48926 6.11035L7.65039 9.90723C7.68925 9.97551 7.76118 10.0174 7.83887 10.0176H12.1611C12.2389 10.0175 12.3107 9.97555 12.3496 9.90723L14.5107 6.11035C14.5495 6.04206 14.5495 5.95794 14.5107 5.88965L12.3496 2.09277C12.3107 2.02445 12.2389 1.98251 12.1611 1.98242H7.83887ZM2 5.40039C1.66863 5.40039 1.40039 5.66863 1.40039 6C1.40039 6.33137 1.66863 6.59961 2 6.59961C2.33137 6.59961 2.59961 6.33137 2.59961 6C2.59961 5.66863 2.33137 5.40039 2 5.40039ZM18 5.40039C17.6686 5.40039 17.4004 5.66863 17.4004 6C17.4004 6.33137 17.6686 6.59961 18 6.59961C18.3314 6.59961 18.5996 6.33137 18.5996 6C18.5996 5.66863 18.3314 5.40039 18 5.40039Z" fill="currentColor"/>
</svg>
