<svg width="24" height="24" viewBox="0 0 24 24" fill="none" xmlns="http://www.w3.org/2000/svg">
<path d="M17.25 5.25L12.75 9.75L14.25 11.25L19.5 6V5.25H17.25ZM12 12.375C11.9005 12.375 11.8052 12.3355 11.7348 12.2652C11.6645 12.1948 11.625 12.0995 11.625 12C11.625 11.9005 11.6645 11.8052 11.7348 11.7348C11.8052 11.6645 11.9005 11.625 12 11.625C12.0995 11.625 12.1948 11.6645 12.2652 11.7348C12.3355 11.8052 12.375 11.9005 12.375 12C12.375 12.0995 12.3355 12.1948 12.2652 12.2652C12.1948 12.3355 12.0995 12.375 12 12.375ZM7.5 18C7.10217 18 6.72064 17.842 6.43934 17.5607C6.15803 17.2794 6 16.8978 6 16.5C6 15.6675 6.675 15 7.5 15C7.89782 15 8.27935 15.158 8.56066 15.4393C8.84196 15.7206 9 16.1022 9 16.5C9 17.3325 8.325 18 7.5 18ZM7.5 9C7.10217 9 6.72064 8.84196 6.43934 8.56066C6.15803 8.27935 6 7.89782 6 7.5C6 6.6675 6.675 6 7.5 6C7.89782 6 8.27935 6.15803 8.56066 6.43934C8.84196 6.72064 9 7.10217 9 7.5C9 8.3325 8.325 9 7.5 9ZM10.23 8.73C10.4025 8.355 10.5 7.9425 10.5 7.5C10.5 6.70435 10.1839 5.94129 9.62132 5.37868C9.05871 4.81607 8.29565 4.5 7.5 4.5C6.70435 4.5 5.94129 4.81607 5.37868 5.37868C4.81607 5.94129 4.5 6.70435 4.5 7.5C4.5 8.29565 4.81607 9.05871 5.37868 9.62132C5.94129 10.1839 6.70435 10.5 7.5 10.5C7.9425 10.5 8.355 10.4025 8.73 10.23L10.5 12L8.73 13.77C8.355 13.5975 7.9425 13.5 7.5 13.5C6.70435 13.5 5.94129 13.8161 5.37868 14.3787C4.81607 14.9413 4.5 15.7043 4.5 16.5C4.5 17.2956 4.81607 18.0587 5.37868 18.6213C5.94129 19.1839 6.70435 19.5 7.5 19.5C8.29565 19.5 9.05871 19.1839 9.62132 18.6213C10.1839 18.0587 10.5 17.2956 10.5 16.5C10.5 16.0575 10.4025 15.645 10.23 15.27L12 13.5L17.25 18.75H19.5V18L10.23 8.73Z" fill="currentcolor"/>
</svg>
