<svg width="24" height="24" viewBox="0 0 24 24" xmlns="http://www.w3.org/2000/svg">
<path fill-rule="evenodd" clip-rule="evenodd" d="M11.5304 3.62563C11.821 3.45812 12.179 3.45812 12.4696 3.62563L19.0305 7.40737C19.321 7.57484 19.5 7.8843 19.5 8.2192V15.7808C19.5 16.1157 19.321 16.4252 19.0305 16.5926L12.4696 20.3744C12.179 20.5419 11.821 20.5419 11.5304 20.3744L4.96952 16.5926C4.67898 16.4252 4.5 16.1157 4.5 15.7808V8.2192C4.5 7.8843 4.67898 7.57484 4.96952 7.40736L11.5304 3.62563ZM6.37829 8.76041V15.2396L12 18.48L17.6217 15.2396V8.76041L12 5.52L6.37829 8.76041Z" fill="currentcolor"/>
<path d="M15.5645 9.81195V14.1748L16.5 14.7438V9.24289L15.5645 9.81195ZM11.9982 6.5C10.5 7.41177 9.0006 8.32543 7.5 9.24099L8.43369 9.81005L11.9982 7.63813V6.5ZM7.5 14.7514L11.9982 17.5V16.3619L8.43369 14.171L7.5 14.7514Z" fill="currentcolor"/>
</svg>
