<svg width="24" height="24" viewBox="0 0 24 24" fill="none" xmlns="http://www.w3.org/2000/svg">
<path fill-rule="evenodd" clip-rule="evenodd" d="M12.2568 14.1153L9.98962 15.4242L6.02687 13.1363V8.56055L9.98962 6.27266L13.9524 8.56055V12.2411H15.9524V7.40585L9.98962 3.96326L4.02687 7.40585V14.291L9.98962 17.7336L12.2568 16.4247V14.1153ZM13.8869 13.886L19.4117 13.886V15.386L16.4415 15.386L20.6642 19.6087L19.6035 20.6693L15.3869 16.4527L15.3869 19.4108H13.8869L13.8869 13.886ZM10.2385 8.47162V7.22958L9.85857 7.46082C8.99387 7.98705 8.12848 8.51438 7.2624 9.0428L6.91243 9.25633L7.93143 9.87739L10.2385 8.47162ZM12.8365 12.8766V8.81261L11.7967 9.44518V12.2441L12.8365 12.8766ZM10.2385 13.2259L7.9307 11.8074L6.91614 12.4381L10.2385 14.4683V13.2259Z" fill="#333333"/>
</svg>
