<svg width="24" height="24" viewBox="0 0 24 24" fill="none" xmlns="http://www.w3.org/2000/svg">
<path fill-rule="evenodd" clip-rule="evenodd" d="M8.61309 7.54726L4.39649 3.33066L3.33583 4.39132L7.55855 8.61403L4.58825 8.61403L4.58825 10.114L10.1131 10.114L10.1131 4.58919L8.61309 4.58919L8.61309 7.54726ZM8.04762 16.5941V11.7589H10.0476V15.4394L14.0104 17.7273L17.9731 15.4394V10.8636L14.0104 8.57575L11.7432 9.88472V7.57532L14.0104 6.26635L19.9731 9.70894V16.5941L14.0104 20.0367L8.04762 16.5941ZM12.9201 13.1516C12.9201 12.5494 13.4082 12.0613 14.0104 12.0613C14.6126 12.0613 15.1007 12.5494 15.1007 13.1516C15.1007 13.7537 14.6126 14.2419 14.0104 14.2419C13.4082 14.2419 12.9201 13.7537 12.9201 13.1516ZM14.0104 10.5613C12.5798 10.5613 11.4201 11.721 11.4201 13.1516C11.4201 14.5821 12.5798 15.7419 14.0104 15.7419C15.441 15.7419 16.6007 14.5821 16.6007 13.1516C16.6007 11.721 15.441 10.5613 14.0104 10.5613Z" fill="#333333"/>
</svg>
