<svg width="16" height="16" viewBox="0 0 16 16" fill="currentColor" xmlns="http://www.w3.org/2000/svg">
<path d="M4.27841 8.01571C3.97064 8.01571 3.6901 7.94114 3.43679 7.79199C3.18584 7.64048 2.98461 7.43806 2.8331 7.18475C2.68395 6.93143 2.60938 6.65089 2.60938 6.34313C2.60938 6.03536 2.68395 5.75601 2.8331 5.50506C2.98461 5.25175 3.18584 5.05052 3.43679 4.90137C3.6901 4.74985 3.97064 4.67409 4.27841 4.67409C4.58617 4.67409 4.86671 4.74985 5.12003 4.90137C5.37334 5.05052 5.57457 5.25175 5.72372 5.50506C5.87524 5.75601 5.95099 6.03536 5.95099 6.34313C5.95099 6.65089 5.87524 6.93143 5.72372 7.18475C5.57457 7.43806 5.37334 7.64048 5.12003 7.79199C4.86671 7.94114 4.58617 8.01571 4.27841 8.01571ZM4.27841 7.20605C4.43939 7.20605 4.58499 7.16699 4.7152 7.08887C4.84541 7.01074 4.94839 6.90658 5.02415 6.77637C5.10227 6.64616 5.14134 6.50175 5.14134 6.34313C5.14134 6.18451 5.10227 6.0401 5.02415 5.90989C4.94839 5.77968 4.84541 5.6767 4.7152 5.60094C4.58499 5.52282 4.43939 5.48375 4.27841 5.48375C4.11979 5.48375 3.97538 5.52282 3.84517 5.60094C3.71496 5.6767 3.6108 5.77968 3.53267 5.90989C3.45691 6.0401 3.41903 6.18451 3.41903 6.34313C3.41903 6.50175 3.45691 6.64616 3.53267 6.77637C3.6108 6.90658 3.71496 7.01074 3.84517 7.08887C3.97538 7.16699 4.11979 7.20605 4.27841 7.20605ZM13.2628 7.09242H12.1548C12.1122 6.85568 12.0329 6.64734 11.9169 6.46742C11.8009 6.28749 11.6589 6.1348 11.4908 6.00932C11.3227 5.88385 11.1345 5.78915 10.9261 5.72523C10.7202 5.66131 10.5012 5.62935 10.2692 5.62935C9.85014 5.62935 9.47491 5.7347 9.14347 5.9454C8.81439 6.1561 8.55398 6.46505 8.36222 6.87225C8.17282 7.27945 8.07812 7.7766 8.07812 8.36373C8.07812 8.95558 8.17282 9.45511 8.36222 9.86231C8.55398 10.2695 8.81558 10.5773 9.14702 10.7856C9.47846 10.9939 9.85133 11.0981 10.2656 11.0981C10.4953 11.0981 10.7131 11.0673 10.919 11.0058C11.1274 10.9419 11.3156 10.8483 11.4837 10.7252C11.6518 10.6021 11.7938 10.4518 11.9098 10.2742C12.0282 10.0943 12.1098 9.88835 12.1548 9.65634L13.2628 9.65989C13.2036 10.0174 13.0888 10.3464 12.9183 10.6471C12.7502 10.9454 12.5336 11.2035 12.2685 11.4213C12.0057 11.6367 11.705 11.8036 11.3665 11.922C11.0279 12.0403 10.6586 12.0995 10.2585 12.0995C9.62879 12.0995 9.06771 11.9504 8.57528 11.6521C8.08286 11.3514 7.6946 10.9217 7.41051 10.363C7.12879 9.8043 6.98793 9.13787 6.98793 8.36373C6.98793 7.58721 7.12997 6.92078 7.41406 6.36444C7.69815 5.80572 8.08641 5.37722 8.57884 5.07892C9.07126 4.77826 9.63116 4.62793 10.2585 4.62793C10.6444 4.62793 11.0043 4.68356 11.3381 4.79483C11.6742 4.90373 11.9761 5.06472 12.2436 5.27779C12.5111 5.48849 12.7325 5.74654 12.9077 6.05194C13.0829 6.35497 13.2012 6.70179 13.2628 7.09242Z" fill="currentColor"/>
</svg>
