<svg width="16" height="16" viewBox="0 0 16 16" fill="currentColor" xmlns="http://www.w3.org/2000/svg">
<path d="M7.73722 8.21893C7.3679 8.21893 7.03125 8.12944 6.72727 7.95046C6.42614 7.76864 6.18466 7.52575 6.00284 7.22177C5.82386 6.91779 5.73438 6.58114 5.73438 6.21182C5.73438 5.84251 5.82386 5.50728 6.00284 5.20614C6.18466 4.90217 6.42614 4.66069 6.72727 4.48171C7.03125 4.29989 7.3679 4.20898 7.73722 4.20898C8.10653 4.20898 8.44318 4.29989 8.74716 4.48171C9.05114 4.66069 9.29261 4.90217 9.47159 5.20614C9.65341 5.50728 9.74432 5.84251 9.74432 6.21182C9.74432 6.58114 9.65341 6.91779 9.47159 7.22177C9.29261 7.52575 9.05114 7.76864 8.74716 7.95046C8.44318 8.12944 8.10653 8.21893 7.73722 8.21893ZM7.73722 7.24734C7.9304 7.24734 8.10511 7.20046 8.26136 7.10671C8.41761 7.01296 8.54119 6.88796 8.6321 6.73171C8.72585 6.57546 8.77273 6.40217 8.77273 6.21182C8.77273 6.02148 8.72585 5.84819 8.6321 5.69194C8.54119 5.53569 8.41761 5.41211 8.26136 5.3212C8.10511 5.22745 7.9304 5.18057 7.73722 5.18057C7.54688 5.18057 7.37358 5.22745 7.21733 5.3212C7.06108 5.41211 6.93608 5.53569 6.84233 5.69194C6.75142 5.84819 6.70597 6.02148 6.70597 6.21182C6.70597 6.40217 6.75142 6.57546 6.84233 6.73171C6.93608 6.88796 7.06108 7.01296 7.21733 7.10671C7.37358 7.20046 7.54688 7.24734 7.73722 7.24734Z" fill="currentColor"/>
</svg>
