<svg width="16" height="16" viewBox="0 0 16 16" fill="currentColor" xmlns="http://www.w3.org/2000/svg">
<path d="M5.27841 8.01545C4.97064 8.01545 4.6901 7.94087 4.43679 7.79173C4.18584 7.64021 3.98461 7.4378 3.8331 7.18448C3.68395 6.93117 3.60938 6.65063 3.60938 6.34286C3.60938 6.0351 3.68395 5.75574 3.8331 5.50479C3.98461 5.25148 4.18584 5.05025 4.43679 4.9011C4.6901 4.74959 4.97064 4.67383 5.27841 4.67383C5.58617 4.67383 5.86671 4.74959 6.12003 4.9011C6.37334 5.05025 6.57457 5.25148 6.72372 5.50479C6.87524 5.75574 6.95099 6.0351 6.95099 6.34286C6.95099 6.65063 6.87524 6.93117 6.72372 7.18448C6.57457 7.4378 6.37334 7.64021 6.12003 7.79173C5.86671 7.94087 5.58617 8.01545 5.27841 8.01545ZM5.27841 7.20579C5.43939 7.20579 5.58499 7.16673 5.7152 7.0886C5.84541 7.01048 5.94839 6.90631 6.02415 6.7761C6.10227 6.64589 6.14134 6.50148 6.14134 6.34286C6.14134 6.18425 6.10227 6.03983 6.02415 5.90962C5.94839 5.77942 5.84541 5.67643 5.7152 5.60067C5.58499 5.52255 5.43939 5.48349 5.27841 5.48349C5.11979 5.48349 4.97538 5.52255 4.84517 5.60067C4.71496 5.67643 4.6108 5.77942 4.53267 5.90962C4.45691 6.03983 4.41903 6.18425 4.41903 6.34286C4.41903 6.50148 4.45691 6.64589 4.53267 6.7761C4.6108 6.90631 4.71496 7.01048 4.84517 7.0886C4.97538 7.16673 5.11979 7.20579 5.27841 7.20579ZM8.3608 11.9998V4.7271H12.8707V5.6717H9.4581V7.88761H12.5476V8.82866H9.4581V11.9998H8.3608Z" fill="currentColor"/>
</svg>
