<svg width="10" height="12" viewBox="0 0 10 12" fill="none" xmlns="http://www.w3.org/2000/svg">
<path d="M4.03516 5C4.3113 5 4.53516 5.22386 4.53516 5.5V8.5C4.53516 8.77614 4.3113 9 4.03516 9C3.75914 8.99985 3.53516 8.77605 3.53516 8.5V5.5C3.53516 5.22395 3.75914 5.00015 4.03516 5Z" fill="#333333"/>
<path d="M6.00879 5C6.28493 5 6.50879 5.22386 6.50879 5.5V8.5C6.50879 8.77614 6.28493 9 6.00879 9C5.73283 8.99979 5.50879 8.77601 5.50879 8.5V5.5C5.50879 5.22399 5.73283 5.00021 6.00879 5Z" fill="#333333"/>
<path fill-rule="evenodd" clip-rule="evenodd" d="M9.5 2C9.77614 2 10 2.22386 10 2.5C10 2.77614 9.77614 3 9.5 3H9V10C9 11.1046 8.10457 12 7 12H3C1.96435 12 1.113 11.2128 1.01074 10.2041L1 10V3H0.5C0.223858 3 0 2.77614 0 2.5C0 2.22386 0.223858 2 0.5 2H9.5ZM2 10C2 10.5523 2.44772 11 3 11H7C7.55228 11 8 10.5523 8 10V3H2V10Z" fill="#333333"/>
<path d="M6.33984 0C6.71027 0 7.0695 0.238081 7.2428 0.56543C7.34695 0.762643 7.20405 0.999834 6.98108 1H3.05726C2.83429 0.999834 2.69139 0.762643 2.79554 0.56543C2.96884 0.238081 3.28973 0 3.66016 0H6.33984Z" fill="#333333"/>
</svg>
