<svg width="16" height="16" viewBox="0 0 16 16" fill="none" xmlns="http://www.w3.org/2000/svg">
<g clip-path="url(#clip0_4320_1072)">
<path d="M10.59 2.30261C10.9944 1.8988 11.6495 1.89879 12.0539 2.30261L13.6965 3.94617C14.1009 4.35064 14.1009 5.00556 13.6965 5.41003L5.41132 13.6962L5.33514 13.7655C5.17712 13.895 4.98378 13.9748 4.78046 13.995L4.67889 13.9999H3.03632C2.46429 13.9999 2.00018 13.5358 2.00018 12.9637V11.3212C2.00031 11.0809 2.08359 10.8491 2.23456 10.6649L2.30389 10.5897L10.59 2.30261ZM3.03632 11.3212V12.9637H4.67889L10.7414 6.90125L9.09784 5.25769L3.03632 11.3212ZM9.83026 4.52625L11.4728 6.16882L12.965 4.67761L11.3215 3.03503L9.83026 4.52625Z" fill="#333333"/>
</g>
<defs>
<clipPath id="clip0_4320_1072">
<rect width="16" height="16" fill="white"/>
</clipPath>
</defs>
</svg>
