<svg width="18" height="15" viewBox="0 0 18 15" fill="none" xmlns="http://www.w3.org/2000/svg">
<path d="M16.2 2.5789H8.705L7.026 0.899902H0.768C0.564314 0.899902 0.36897 0.980816 0.224942 1.12484C0.0809141 1.26887 0 1.46422 0 1.6679V12.8749C0 13.3523 0.189642 13.8101 0.527208 14.1477C0.864773 14.4853 1.32261 14.6749 1.8 14.6749H16.2C16.6774 14.6749 17.1352 14.4853 17.4728 14.1477C17.8104 13.8101 18 13.3523 18 12.8749V4.3749C17.9989 3.89821 17.8088 3.4414 17.4714 3.1047C17.1339 2.76799 16.6767 2.5789 16.2 2.5789ZM16 12.6789H2V4.5789H16V12.6789Z" fill="currentcolor"/>
</svg>
