<svg width="48" height="48" viewBox="0 0 48 48" fill="none" xmlns="http://www.w3.org/2000/svg">
<path d="M40.2844 18.4577L30.3704 8.54566C29.9954 8.17071 29.4868 7.96008 28.9564 7.96008C28.4261 7.96008 27.9175 8.17071 27.5424 8.54566L7.71643 28.3717C7.34149 28.7467 7.13086 29.2553 7.13086 29.7857C7.13086 30.316 7.34149 30.8246 7.71643 31.1997L14.8004 38.2817C15.3576 38.8392 16.0192 39.2815 16.7474 39.5833C17.4756 39.8851 18.2562 40.0404 19.0444 40.0404C19.8327 40.0404 20.6132 39.8851 21.3414 39.5833C22.0696 39.2815 22.7312 38.8392 23.2884 38.2817L40.2884 21.2817C40.6634 20.9066 40.874 20.398 40.874 19.8677C40.874 19.3373 40.6634 18.8287 40.2884 18.4537L40.2844 18.4577ZM20.4604 35.4577C20.2747 35.6439 20.0539 35.7917 19.811 35.8925C19.568 35.9933 19.3075 36.0452 19.0444 36.0452C18.7814 36.0452 18.5209 35.9933 18.2779 35.8925C18.0349 35.7917 17.8142 35.6439 17.6284 35.4577L11.9584 29.7857L19.7824 21.9617L26.8664 29.0477L20.4604 35.4577Z" fill="currentColor"/>
</svg>
