<svg width="16" height="16" viewBox="0 0 16 16" fill="none" xmlns="http://www.w3.org/2000/svg">
<path d="M2.66406 3.33073C2.66406 2.96254 2.96254 2.66406 3.33073 2.66406H8.08333C8.45152 2.66406 8.75 2.96254 8.75 3.33073C8.75 3.69892 8.45152 3.9974 8.08333 3.9974H3.9974V12.0034H12.0034V8.16667C12.0034 7.79848 12.3019 7.5 12.6701 7.5C13.0383 7.5 13.3367 7.79848 13.3367 8.16667V12.6701C13.3367 13.0383 13.0383 13.3367 12.6701 13.3367H3.33073C2.96254 13.3367 2.66406 13.0383 2.66406 12.6701V3.33073Z" fill="#333333"/>
<path d="M6.71216 8.18535L10.1053 4.79218C10.1274 4.77008 10.1505 4.74977 10.1746 4.73107L10.7477 4.15795L9.81156 3.22176C9.58271 2.99292 9.74397 2.59243 10.0716 2.59765L12.9686 2.60284C13.1714 2.60808 13.3326 2.76931 13.3378 2.97211L13.343 5.86909C13.3483 6.19672 12.953 6.36317 12.7189 6.12912L11.7879 5.19815L7.75236 9.22649C7.46492 9.51342 6.99935 9.51321 6.71216 9.22602C6.42479 8.93864 6.42479 8.47272 6.71216 8.18535Z" fill="#333333"/>
</svg>

