<svg width="24" height="24" viewBox="0 0 24 24" fill="none" xmlns="http://www.w3.org/2000/svg">
<path d="M7.44474 15.5H4.14632C3.78937 15.5 3.5 15.7686 3.5 16.1V19.162C3.5 19.4934 3.78937 19.762 4.14632 19.762H7.44474C7.80169 19.762 8.09106 19.4934 8.09106 19.162V16.1C8.09106 15.7686 7.80169 15.5 7.44474 15.5Z" fill="currentColor"/>
<path d="M13.6518 15.5H10.3534C9.9964 15.5 9.70703 15.7686 9.70703 16.1V19.162C9.70703 19.4934 9.9964 19.762 10.3534 19.762H13.6518C14.0087 19.762 14.2981 19.4934 14.2981 19.162V16.1C14.2981 15.7686 14.0087 15.5 13.6518 15.5Z" fill="currentColor"/>
<path d="M19.8549 15.5H16.5565C16.1995 15.5 15.9102 15.7686 15.9102 16.1V19.162C15.9102 19.4934 16.1995 19.762 16.5565 19.762H19.8549C20.2119 19.762 20.5012 19.4934 20.5012 19.162V16.1C20.5012 15.7686 20.2119 15.5 19.8549 15.5Z" fill="currentColor"/>
<path d="M5 13.5C4.72386 13.5 4.5 13.2761 4.5 13V5C4.5 4.72386 4.72386 4.5 5 4.5H10.2963C10.5724 4.5 10.7963 4.72386 10.7963 5V5.7666C10.7963 6.04274 10.5724 6.2666 10.2963 6.2666H7.18254C6.9064 6.2666 6.68254 6.49046 6.68254 6.7666V7.6123C6.68254 7.88845 6.9064 8.1123 7.18254 8.1123H9.97443C10.2506 8.1123 10.4744 8.33616 10.4744 8.6123V9.3833C10.4744 9.65944 10.2506 9.8833 9.97443 9.8833H7.18254C6.9064 9.8833 6.68254 10.1072 6.68254 10.3833V11.2334C6.68254 11.5095 6.9064 11.7334 7.18254 11.7334H10.2963C10.5724 11.7334 10.7963 11.9573 10.7963 12.2334V13C10.7963 13.2761 10.5724 13.5 10.2963 13.5H5Z" fill="currentColor"/>
<path d="M12.3677 6.2666C12.0916 6.2666 11.8677 6.04274 11.8677 5.7666V5C11.8677 4.72386 12.0916 4.5 12.3677 4.5H19C19.2761 4.5 19.5 4.72386 19.5 5V5.7666C19.5 6.04274 19.2761 6.2666 19 6.2666H17.2619C16.9858 6.2666 16.7619 6.49046 16.7619 6.7666V13C16.7619 13.2761 16.538 13.5 16.2619 13.5H15.1102C14.8341 13.5 14.6102 13.2761 14.6102 13V6.7666C14.6102 6.49046 14.3864 6.2666 14.1102 6.2666H12.3677Z" fill="currentColor"/>
</svg>
