<svg width="24" height="24" viewBox="0 0 24 24" fill="none" xmlns="http://www.w3.org/2000/svg">
<path d="M4 5.5C4 5.22386 4.22386 5 4.5 5H19.5C19.7761 5 20 5.22386 20 5.5V6.79289C20 6.92551 19.9473 7.05268 19.8536 7.14645L14.1464 12.8536C14.0527 12.9473 14 13.0745 14 13.2071V18.382C14 18.5713 13.893 18.7445 13.7236 18.8292L10.7236 20.3292C10.391 20.4955 10 20.2538 10 19.882V13.2071C10 13.0745 9.94732 12.9473 9.85355 12.8536L4.14645 7.14645C4.05268 7.05268 4 6.92551 4 6.79289V5.5Z" stroke="currentcolor" stroke-width="1.5" stroke-linejoin="round"/>
</svg>

