<svg width="24" height="24" viewBox="0 0 24 24" fill="none" xmlns="http://www.w3.org/2000/svg">
<path d="M20.4338 7.67261C20.3338 7.07261 19.7208 5.94161 18.1138 5.94161C17.9877 5.9414 17.8618 5.94908 17.7368 5.96461V5.17461C17.737 5.07291 17.7218 4.97176 17.6918 4.87461C17.5148 4.31061 16.8158 3.24361 15.4298 3.24361C15.2016 3.24249 14.9743 3.27141 14.7538 3.32961C14.7095 3.25021 14.6608 3.17342 14.6078 3.09961C14.1548 2.45461 13.4218 2.09961 12.5448 2.09961C11.6678 2.09961 10.9608 2.46061 10.5198 3.11661C10.3468 3.37494 10.2243 3.66369 10.1588 3.96761C10.0237 3.94716 9.88733 3.93713 9.75076 3.93761C8.27676 3.93761 7.62676 5.08761 7.48876 5.69361C7.47277 5.76653 7.46472 5.84096 7.46476 5.91561V11.0996L7.33576 10.9996C6.74676 10.4996 5.30076 9.87861 3.94376 11.0286C2.58676 12.1786 2.92876 13.6926 3.51276 14.4806C3.96576 15.2536 8.02476 21.9056 13.7358 21.9056C16.9868 21.9056 18.6458 20.3936 19.4648 19.1246C20.0103 18.2829 20.3467 17.3228 20.4458 16.3246C20.4458 16.3036 20.4458 16.2826 20.4458 16.2616V7.83761C20.4462 7.78238 20.4422 7.72719 20.4338 7.67261ZM18.4478 16.2146C18.3608 16.8886 18.1214 17.534 17.7478 18.1016C16.9428 19.3016 15.5948 19.9016 13.7398 19.9016C8.97176 19.9016 5.25576 13.4896 5.21976 13.4256C5.19504 13.3803 5.16518 13.338 5.13076 13.2996C4.83576 12.8916 5.13076 12.6446 5.23676 12.5516C5.50376 12.3246 5.77676 12.3146 6.04776 12.5206L7.81676 13.9726C7.96236 14.0952 8.13991 14.1736 8.32855 14.1988C8.5172 14.224 8.70911 14.1948 8.88174 14.1147C9.05437 14.0345 9.20056 13.9068 9.30312 13.7465C9.40569 13.5862 9.46037 13.3999 9.46076 13.2096V6.08061C9.48827 6.02928 9.53075 5.98754 9.58255 5.96093C9.63435 5.93432 9.69301 5.92409 9.75076 5.93161C9.82113 5.92666 9.89166 5.9387 9.9564 5.96672C10.0211 5.99474 10.0782 6.03792 10.1228 6.09261V10.7926C10.1228 11.0578 10.2281 11.3122 10.4157 11.4997C10.6032 11.6873 10.8575 11.7926 11.1228 11.7926C11.388 11.7926 11.6423 11.6873 11.8299 11.4997C12.0174 11.3122 12.1228 11.0578 12.1228 10.7926V4.34161C12.1908 4.09361 12.4228 4.09361 12.5448 4.09361C12.7448 4.09361 12.9588 4.12561 13.0268 4.34861V10.7896C13.0268 11.0548 13.1321 11.3092 13.3197 11.4967C13.5072 11.6843 13.7615 11.7896 14.0268 11.7896C14.292 11.7896 14.5463 11.6843 14.7339 11.4967C14.9214 11.3092 15.0268 11.0548 15.0268 10.7896V5.58961C15.0427 5.52323 15.0676 5.45932 15.1008 5.39961C15.1498 5.31761 15.2088 5.24961 15.4258 5.24961C15.4855 5.24639 15.545 5.25848 15.5987 5.28473C15.6525 5.31098 15.6986 5.35053 15.7328 5.39961V10.7896C15.7328 11.0548 15.8381 11.3092 16.0257 11.4967C16.2132 11.6843 16.4675 11.7896 16.7328 11.7896C16.998 11.7896 17.2523 11.6843 17.4399 11.4967C17.6274 11.3092 17.7328 11.0548 17.7328 10.7896V8.04561C17.8432 7.96998 17.9763 7.93467 18.1098 7.94561C18.1748 7.94561 18.3678 7.95161 18.4438 8.02361L18.4478 16.2146Z" fill="currentcolor"/>
</svg>
