<svg width="24" height="24" viewBox="0 0 24 24" xmlns="http://www.w3.org/2000/svg">
<path d="M17.814 16.5374C18.088 16.031 18.231 15.4642 18.23 14.8884C18.2289 13.9637 17.8611 13.0771 17.2072 12.4232C16.5533 11.7693 15.6668 11.4015 14.742 11.4004C14.1691 11.3987 13.6049 11.5396 13.1 11.8104C12.9397 11.8955 12.7865 11.9935 12.642 12.1034C12.3803 12.3001 12.1477 12.5327 11.951 12.7944C11.8497 12.9281 11.7584 13.0692 11.678 13.2164C11.3963 13.7286 11.249 14.3039 11.25 14.8884C11.2511 15.8132 11.6189 16.6997 12.2728 17.3536C12.9267 18.0075 13.8133 18.3753 14.738 18.3764C15.318 18.3773 15.8888 18.2321 16.398 17.9544L18.726 20.2914L20.143 18.8794L17.814 16.5374ZM16.228 14.9454C16.2137 15.3147 16.0624 15.6655 15.8036 15.9293C15.5448 16.1931 15.197 16.3511 14.828 16.3724C14.8 16.3724 14.772 16.3724 14.743 16.3724C14.3484 16.3721 13.9701 16.2153 13.6911 15.9363C13.4121 15.6573 13.2553 15.279 13.255 14.8844C13.255 14.8544 13.255 14.8244 13.255 14.7944C13.2771 14.4248 13.436 14.0768 13.7007 13.818C13.9655 13.5591 14.317 13.4082 14.687 13.3944H14.74C15.1346 13.3947 15.5129 13.5515 15.7919 13.8305C16.0709 14.1095 16.2277 14.4878 16.228 14.8824C16.2292 14.9034 16.2292 14.9244 16.228 14.9454Z" fill="currentcolor"/>
<path d="M11.047 20H5.8C5.32261 20 4.86477 19.8104 4.52721 19.4728C4.18964 19.1352 4 18.6774 4 18.2V5.8C4 5.32261 4.18964 4.86477 4.52721 4.52721C4.86477 4.18964 5.32261 4 5.8 4H18.2C18.6774 4 19.1352 4.18964 19.4728 4.52721C19.8104 4.86477 20 5.32261 20 5.8V11.4H18V6H6V18H11.047V20Z" fill="currentcolor"/>
<path d="M16.798 8.01025H7.20703V10.0103H16.798V8.01025Z" fill="currentcolor"/>
<path d="M10.654 11.772H7.20703V13.772H10.654V11.772Z" fill="currentcolor"/>
</svg>
