<svg width="16" height="16" viewBox="0 0 16 16" fill="currentColor" xmlns="http://www.w3.org/2000/svg">
<path d="M5.0419 5.84229C5.36577 5.84229 5.66122 5.88916 5.92827 5.98291C6.19815 6.07666 6.44105 6.19882 6.65696 6.34939C6.87571 6.49712 7.06747 6.65052 7.23224 6.80962C7.32315 6.89484 7.40554 6.97865 7.4794 7.06104C7.55327 7.14342 7.62429 7.22581 7.69247 7.30819C7.75497 7.22581 7.81889 7.14626 7.88423 7.06956C7.95241 6.99001 8.03764 6.90337 8.13991 6.80962C8.38707 6.56814 8.69389 6.34655 9.06037 6.14484C9.42969 5.94314 9.85724 5.84229 10.343 5.84229C10.7976 5.84229 11.2109 5.95308 11.5831 6.17467C11.9581 6.39342 12.255 6.68746 12.4737 7.05677C12.6953 7.42609 12.8061 7.83518 12.8061 8.28405C12.8061 8.62496 12.7422 8.94456 12.6143 9.24285C12.4865 9.53831 12.3104 9.79825 12.0859 10.0227C11.8615 10.2443 11.6001 10.419 11.3018 10.5468C11.0036 10.6718 10.6839 10.7343 10.343 10.7343C10.0192 10.7343 9.72088 10.6889 9.44815 10.598C9.17827 10.5042 8.93395 10.3849 8.7152 10.24C8.49929 10.0951 8.30895 9.94598 8.14418 9.79257C8.05043 9.69882 7.96662 9.61075 7.89276 9.52837C7.82173 9.44314 7.75497 9.35933 7.69247 9.27695C7.62145 9.35933 7.54901 9.44314 7.47514 9.52837C7.40128 9.61359 7.31889 9.70166 7.22798 9.79257C7.06605 9.94598 6.87571 10.0951 6.65696 10.24C6.44105 10.3821 6.19815 10.5 5.92827 10.5937C5.66122 10.6875 5.36577 10.7343 5.0419 10.7343C4.58168 10.7343 4.16548 10.625 3.79332 10.4062C3.42116 10.1875 3.12429 9.89342 2.9027 9.5241C2.68111 9.15195 2.57031 8.73859 2.57031 8.28405C2.57031 7.94598 2.63281 7.63064 2.75781 7.33802C2.88565 7.04257 3.06179 6.78263 3.28622 6.55819C3.51349 6.33376 3.77628 6.15905 4.07457 6.03405C4.37571 5.90621 4.69815 5.84229 5.0419 5.84229ZM3.74645 8.28405C3.74645 8.51984 3.80469 8.73433 3.92116 8.92751C4.03764 9.12069 4.19389 9.2741 4.38991 9.38774C4.58594 9.50138 4.80327 9.5582 5.0419 9.5582C5.30895 9.5582 5.55469 9.49854 5.77912 9.37922C6.00355 9.2599 6.21236 9.10933 6.40554 8.92751C6.5277 8.81104 6.63281 8.69882 6.72088 8.59087C6.80895 8.48291 6.88565 8.38064 6.95099 8.28405C6.88281 8.19314 6.80185 8.09229 6.7081 7.98149C6.61719 7.86785 6.51634 7.7599 6.40554 7.65763C6.22372 7.47865 6.01776 7.32808 5.78764 7.20592C5.55753 7.08092 5.30895 7.01842 5.0419 7.01842C4.80327 7.01842 4.58594 7.07666 4.38991 7.19314C4.19389 7.30677 4.03764 7.46018 3.92116 7.65337C3.80469 7.84371 3.74645 8.05393 3.74645 8.28405ZM11.6214 8.28405C11.6214 8.05393 11.5632 7.84371 11.4467 7.65337C11.3331 7.46018 11.1797 7.30677 10.9865 7.19314C10.7933 7.07666 10.5788 7.01842 10.343 7.01842C10.1612 7.01842 9.98793 7.04683 9.82315 7.10365C9.65838 7.16047 9.50355 7.23717 9.35866 7.33376C9.21662 7.43035 9.08594 7.53831 8.96662 7.65763C8.83878 7.77694 8.72656 7.8991 8.62997 8.0241C8.53338 8.14626 8.46378 8.23291 8.42116 8.28405C8.49219 8.38348 8.57173 8.48717 8.6598 8.59513C8.74787 8.70024 8.85014 8.81104 8.96662 8.92751C9.15696 9.10933 9.36435 9.2599 9.58878 9.37922C9.81605 9.49854 10.0675 9.5582 10.343 9.5582C10.5788 9.5582 10.7933 9.50138 10.9865 9.38774C11.1797 9.2741 11.3331 9.12069 11.4467 8.92751C11.5632 8.73433 11.6214 8.51984 11.6214 8.28405Z" fill="currentColor"/>
</svg>
