<svg width="16" height="16" viewBox="0 0 16 16" fill="currentColor" xmlns="http://www.w3.org/2000/svg">
<path d="M8.34908 12.4729C8.34908 13.1462 8.17862 13.6618 7.83771 14.0198C7.4968 14.3778 7.00533 14.5567 6.36328 14.5567C6.22692 14.5567 6.09766 14.5482 5.9755 14.5312C5.85334 14.517 5.7326 14.4928 5.61328 14.4587L5.71129 13.3891C5.77663 13.4062 5.87038 13.4218 5.99254 13.436C6.1147 13.4502 6.21413 13.4573 6.29084 13.4573C6.56925 13.4573 6.77379 13.3792 6.90447 13.2229C7.03516 13.0695 7.1005 12.8309 7.1005 12.507V5.11355C7.1005 4.39196 7.27947 3.83798 7.63743 3.45162C7.99822 3.06525 8.51669 2.87207 9.19283 2.87207C9.33771 2.87207 9.4826 2.88343 9.62749 2.90616C9.77521 2.92889 9.9272 2.95872 10.0835 2.99565L9.94283 4.03116C9.86896 4.01412 9.75959 4.00133 9.6147 3.99281C9.46982 3.98429 9.33771 3.98003 9.2184 3.98003C8.9201 3.98003 8.69993 4.06667 8.55788 4.23997C8.41868 4.41042 8.34908 4.67889 8.34908 5.04537V12.4729Z" fill="currentColor"/>
</svg>
