<svg width="24" height="24" viewBox="0 0 24 24" xmlns="http://www.w3.org/2000/svg">
<path d="M20.0546 15.0566C20.0608 15.3433 20.0097 15.6284 19.9042 15.8951C19.7988 16.1617 19.6411 16.4047 19.4406 16.6096C19.24 16.8146 19.0005 16.9774 18.7361 17.0886C18.4718 17.1998 18.1879 17.257 17.9011 17.257C17.6144 17.257 17.3305 17.1998 17.0661 17.0886C16.8018 16.9774 16.5623 16.8146 16.3617 16.6096C16.1611 16.4047 16.0035 16.1617 15.898 15.8951C15.7926 15.6284 15.7414 15.3433 15.7476 15.0566C15.7474 14.9424 15.7567 14.8283 15.7756 14.7156L14.0196 13.6996L13.1356 13.1886L12.2526 13.6986L10.7616 14.5596C10.8008 14.7213 10.8202 14.8872 10.8196 15.0536C10.8205 15.5239 10.6673 15.9816 10.3833 16.3566C10.0994 16.7316 9.70051 17.0032 9.24758 17.13C8.79466 17.2567 8.31267 17.2316 7.87537 17.0584C7.43808 16.8853 7.06955 16.5736 6.82616 16.1712C6.58278 15.7687 6.47795 15.2976 6.5277 14.8299C6.57746 14.3622 6.77907 13.9237 7.10168 13.5815C7.42429 13.2392 7.85014 13.0121 8.31408 12.9348C8.77802 12.8576 9.2545 12.9344 9.67062 13.1536L11.3706 12.1736L12.2546 11.6636V8.73761C11.8052 8.53548 11.4386 8.18534 11.2161 7.74562C10.9937 7.3059 10.9287 6.80318 11.032 6.32134C11.1354 5.8395 11.4009 5.40767 11.7841 5.0979C12.1674 4.78812 12.6453 4.61914 13.1381 4.61914C13.6309 4.61914 14.1088 4.78812 14.4921 5.0979C14.8754 5.40767 15.1408 5.8395 15.2442 6.32134C15.3476 6.80318 15.2826 7.3059 15.0601 7.74562C14.8376 8.18534 14.4711 8.53548 14.0216 8.73761V11.6626L14.9046 12.1716L16.7516 13.2386C17.077 13.0334 17.4515 12.9191 17.836 12.9078C18.2205 12.8964 18.6011 12.9883 18.938 13.1739C19.275 13.3596 19.556 13.6321 19.7519 13.9632C19.9477 14.2944 20.0512 14.6719 20.0516 15.0566H20.0546Z" fill="currentcolor"/>
<path fill-rule="evenodd" clip-rule="evenodd" d="M4 3C4.55228 3 5 3.44772 5 4V19H20C20.5523 19 21 19.4477 21 20C21 20.5523 20.5523 21 20 21H4C3.44772 21 3 20.5523 3 20V4C3 3.44772 3.44772 3 4 3Z" fill="currentcolor"/>
</svg>
