<svg width="25" height="26" viewBox="0 0 25 26" fill="none" xmlns="http://www.w3.org/2000/svg">
<g clip-path="url(#clip0_5577_88421)">
<path d="M6.20858 19.7966C6.20858 19.7966 2.67568 9.82541 12.4942 12.9271C22.3127 16.0288 18.6553 6.08487 18.6553 6.08487" stroke="#333333" stroke-width="1.25" stroke-linecap="round"/>
<path fill-rule="evenodd" clip-rule="evenodd" d="M13.0151 6.3925C12.8581 6.08507 12.9801 5.70861 13.2876 5.55168C13.9398 5.21873 14.6618 5.07523 15.3407 5.03061C15.6851 5.00797 15.9827 5.26884 16.0053 5.61328C16.028 5.95771 15.7671 6.25528 15.4227 6.27792C14.8513 6.31548 14.3098 6.43328 13.8559 6.66501C13.5485 6.82195 13.172 6.69994 13.0151 6.3925ZM12.2859 7.25006C12.6124 7.36209 12.7862 7.71758 12.6742 8.04407C12.5313 8.46066 12.4505 8.99274 12.4758 9.67165C12.4887 10.0166 12.2194 10.3066 11.8745 10.3195C11.5296 10.3323 11.2395 10.0631 11.2267 9.71817C11.1969 8.91794 11.2896 8.22799 11.4919 7.63837C11.6039 7.31188 11.9594 7.13802 12.2859 7.25006ZM17.1055 5.71299C17.1727 5.37442 17.5016 5.15442 17.8402 5.22161C18.131 5.27932 18.3715 5.33854 18.5408 5.38379C18.6256 5.40644 18.6927 5.42566 18.7397 5.43953C18.7632 5.44647 18.7817 5.45208 18.7948 5.45612L18.8104 5.46098L18.8151 5.46248L18.8167 5.46298L18.8177 5.46328C18.8177 5.46328 18.8178 5.46332 18.6271 6.05853L18.8177 5.46328C19.1464 5.56857 19.3276 5.92044 19.2224 6.24917C19.1171 6.57777 18.7655 6.75889 18.4369 6.65387L18.4356 6.65346L18.4266 6.65067C18.418 6.64802 18.4042 6.64383 18.3856 6.63832C18.3483 6.62731 18.2916 6.61106 18.2181 6.5914C18.0708 6.55205 17.8571 6.49933 17.5969 6.4477C17.2583 6.38051 17.0383 6.05157 17.1055 5.71299ZM6.4214 19.2453L6.42236 19.2456L6.43144 19.2483C6.44014 19.2509 6.45408 19.255 6.47293 19.2603C6.51065 19.2711 6.56796 19.2869 6.6423 19.306C6.79116 19.3442 7.0073 19.3953 7.27044 19.4449C7.60964 19.5088 7.83278 19.8356 7.76883 20.1748C7.70489 20.5141 7.37807 20.7372 7.03887 20.6732C6.7452 20.6179 6.50236 20.5606 6.33143 20.5167C6.24588 20.4947 6.1781 20.4761 6.1307 20.4626C6.10699 20.4558 6.08836 20.4504 6.07514 20.4464L6.05939 20.4417L6.05462 20.4403L6.05207 20.4395C6.05207 20.4395 6.05197 20.4394 6.23668 19.8424L6.05207 20.4395C5.72231 20.3375 5.53759 19.9874 5.6396 19.6576C5.74157 19.328 6.09178 19.1436 6.4214 19.2453ZM13.0908 15.5391C13.4358 15.5286 13.724 15.7998 13.7345 16.1448C13.7591 16.9512 13.6582 17.6459 13.4457 18.239C13.3292 18.564 12.9714 18.733 12.6465 18.6165C12.3215 18.5001 12.1525 18.1422 12.269 17.8173C12.4189 17.3989 12.5059 16.8648 12.4851 16.1829C12.4746 15.8379 12.7457 15.5497 13.0908 15.5391ZM8.88831 20.2661C8.86347 19.9218 9.12244 19.6225 9.46672 19.5977C10.0428 19.5562 10.5912 19.4354 11.0536 19.2015C11.3617 19.0458 11.7376 19.1692 11.8934 19.4773C12.0492 19.7853 11.9257 20.1613 11.6177 20.317C10.9621 20.6485 10.2383 20.7953 9.55665 20.8445C9.21237 20.8693 8.91314 20.6103 8.88831 20.2661Z" fill="#333333"/>
<path d="M8.01151 14.9802L10.6146 17.2122" stroke="#333333" stroke-linecap="round"/>
<path d="M14.4435 8.60693L17.0466 10.8389" stroke="#333333" stroke-linecap="round"/>
</g>
<defs>
<clipPath id="clip0_5577_88421">
<rect width="22" height="13" fill="white" transform="translate(0.105164 16.1704) rotate(-45)"/>
</clipPath>
</defs>
</svg>
