<svg width="24" height="24" viewBox="0 0 24 24" xmlns="http://www.w3.org/2000/svg">
<path d="M19.7022 7.24627L19.2382 6.97827L18.9702 6.82327L12.7362 3.22327L12.2722 2.95527C12.1907 2.90812 12.0983 2.8833 12.0042 2.8833C11.91 2.8833 11.8176 2.90812 11.7362 2.95527L11.2722 3.22327L5.03816 6.82327L4.77016 6.97827L4.30216 7.24627C4.22096 7.2935 4.15357 7.3612 4.10671 7.44262C4.05986 7.52404 4.03519 7.61633 4.03516 7.71027V16.2903C4.03519 16.3842 4.05986 16.4765 4.10671 16.5579C4.15357 16.6393 4.22096 16.707 4.30216 16.7543L4.76716 17.0223L11.0012 20.6223L11.2692 20.7773L11.7332 21.0453C11.8146 21.0924 11.907 21.1172 12.0012 21.1172C12.0953 21.1172 12.1877 21.0924 12.2692 21.0453L12.7332 20.7773L13.0012 20.6223L19.2352 17.0223L19.7002 16.7543C19.7814 16.707 19.8487 16.6393 19.8956 16.5579C19.9424 16.4765 19.9671 16.3842 19.9672 16.2903V7.71027C19.9673 7.61652 19.943 7.52437 19.8965 7.44297C19.85 7.36156 19.783 7.29375 19.7022 7.24627ZM11.0022 18.3123L6.03616 15.4453V9.71027L11.0022 12.5773V18.3123ZM12.0022 10.8453L7.03616 7.97827L12.0022 5.11127L16.9682 7.97827L12.0022 10.8453ZM13.0022 12.5773L17.9682 9.71027V15.4453L13.0022 18.3123V12.5773Z" fill="currentcolor"/>
</svg>
