<svg width="24" height="24" viewBox="0 0 24 24" fill="none" xmlns="http://www.w3.org/2000/svg">
<path d="M3.99609 4.99609C3.99609 4.44381 4.44381 3.99609 4.99609 3.99609H12.125C12.6773 3.99609 13.125 4.44381 13.125 4.99609C13.125 5.54838 12.6773 5.99609 12.125 5.99609H5.99609V18.0051H18.0051V12.25C18.0051 11.6977 18.4528 11.25 19.0051 11.25C19.5574 11.25 20.0051 11.6977 20.0051 12.25V19.0051C20.0051 19.5574 19.5574 20.0051 19.0051 20.0051H4.99609C4.44381 20.0051 3.99609 19.5574 3.99609 19.0051V4.99609Z" fill="#585858"/>
<path d="M19.0945 6.38467L14.0047 11.4744C13.9716 11.5076 13.9369 11.538 13.9008 11.5661L13.0411 12.4258L14.4454 13.83C14.7887 14.1733 14.5468 14.774 14.0554 14.7662L9.70989 14.7584C9.40567 14.7506 9.16383 14.5087 9.15599 14.2045L9.14821 9.85906C9.14035 9.3676 9.7333 9.11793 10.0844 9.469L11.4808 10.8655L17.5342 4.82296C17.9654 4.39256 18.6637 4.39288 19.0945 4.82366C19.5256 5.25472 19.5256 5.95361 19.0945 6.38467Z" fill="#585858"/>
</svg>
