<svg width="13" height="13" viewBox="0 0 13 13" xmlns="http://www.w3.org/2000/svg">
    <path fill-rule="evenodd" clip-rule="evenodd" d="M10.9498 0.25C12.082 0.25 13 1.14543 13 2.25V10.25L12.9893 10.4541C12.8845 11.4628 12.0114 12.25 10.9498 12.25H4.7838L4.65549 12.2461C4.06143 12.2098 3.51195 11.9232 3.15164 11.4609L3.07777 11.3594L0.344217 7.35938C-0.0859929 6.72959 -0.112997 5.92063 0.263533 5.26855L0.344217 5.14062L3.07777 1.14062C3.43415 0.619086 4.01912 0.292734 4.65549 0.253906L4.7838 0.25H10.9498ZM4.7838 1.25C4.46416 1.25009 4.17134 1.38688 3.97599 1.60742L3.89822 1.70703L1.16467 5.70703C0.939221 6.03752 0.939221 6.46248 1.16467 6.79297L3.89822 10.793L3.97599 10.8926C4.17134 11.1131 4.46416 11.2499 4.7838 11.25H10.9498C11.5599 11.25 12.0046 10.7749 12.0046 10.25V2.25C12.0046 1.7251 11.5599 1.25 10.9498 1.25H4.7838Z" fill="currentColor"/>
    <path d="M7.46109 5.74512H9.95453V6.74512H7.46109V9.25H6.46566V6.74512H3.98194V5.74512H6.46566V3.25H7.46109V5.74512Z" fill="currentColor"/>
</svg>
