<svg width="85" height="85" viewBox="0 0 85 85" fill="none" xmlns="http://www.w3.org/2000/svg">
<path d="M33.4937 4.80184e-07C39.7658 -0.00106928 45.9084 1.78529 51.2017 5.1498C56.495 8.51431 60.7199 13.3176 63.3814 18.997C66.0429 24.6764 67.0308 30.9967 66.2294 37.2174C65.4279 43.438 62.8703 49.3015 58.8561 54.1208L83.6185 78.8772C84.15 79.4063 84.4641 80.1154 84.4987 80.8646C84.5334 81.6138 84.2862 82.3488 83.8059 82.9248C83.3255 83.5007 82.6468 83.8759 81.9036 83.9763C81.1603 84.0767 80.4064 83.8951 79.7905 83.4673L79.3705 83.1253L54.6141 58.3629C50.5412 61.7535 45.7117 64.1133 40.534 65.2428C35.3563 66.3723 29.9827 66.2382 24.8678 64.8519C19.7529 63.4656 15.047 60.8678 11.1483 57.2783C7.24961 53.6889 4.2727 49.2132 2.46938 44.23C0.66606 39.2468 0.0893783 33.9026 0.788108 28.6494C1.48684 23.3962 3.44043 18.3886 6.48364 14.05C9.52685 9.71143 13.5702 6.16957 18.2716 3.724C22.973 1.27843 28.1943 0.001086 33.4937 4.80184e-07ZM33.4937 6.00009C26.3328 6.00009 19.4651 8.84477 14.4016 13.9083C9.33802 18.9719 6.49334 25.8396 6.49334 33.0005C6.49334 40.1615 9.33802 47.0291 14.4016 52.0927C19.4651 57.1562 26.3328 60.0009 33.4937 60.0009C40.6547 60.0009 47.5224 57.1562 52.5859 52.0927C57.6495 47.0291 60.4942 40.1615 60.4942 33.0005C60.4942 25.8396 57.6495 18.9719 52.5859 13.9083C47.5224 8.84477 40.6547 6.00009 33.4937 6.00009Z" fill="#525252" fill-opacity="0.4"/>
<line x1="22.2426" y1="22.5577" x2="44.3551" y2="44.6702" stroke="#005662" stroke-width="6" stroke-linecap="round"/>
<line x1="45.1914" y1="22.2426" x2="23.079" y2="44.3551" stroke="#005662" stroke-width="6" stroke-linecap="round"/>
</svg>
