<svg width="40" height="40" viewBox="0 0 40 40" fill="none" xmlns="http://www.w3.org/2000/svg">
<path d="M33.9729 40H6.02712C4.42863 40 2.89561 39.365 1.7653 38.2347C0.634999 37.1044 0 35.5714 0 33.9729V6.02712C0 4.42863 0.634999 2.89561 1.7653 1.7653C2.89561 0.634999 4.42863 0 6.02712 0H33.9729C35.5714 0 37.1044 0.634999 38.2347 1.7653C39.365 2.89561 40 4.42863 40 6.02712V33.9729C40 35.5714 39.365 37.1044 38.2347 38.2347C37.1044 39.365 35.5714 40 33.9729 40Z" fill="#EFF2F5"/>
<path d="M12.8349 18.125L10.3585 27.625V15.75H30.4057C30.4057 15.1201 30.1572 14.516 29.7149 14.0706C29.2726 13.6252 28.6727 13.375 28.0472 13.375H19.7925L17.434 11H10.3585C9.73298 11 9.13309 11.2502 8.69079 11.6956C8.24848 12.141 8 12.7451 8 13.375V27.625C8 28.2549 8.24848 28.859 8.69079 29.3044C9.13309 29.7498 9.73298 30 10.3585 30H28.0472C29.1085 30 30.0519 29.2875 30.2877 28.2188L33 18.125H12.8349ZM28.0472 27.625H12.717L14.6038 20.5H29.934L28.0472 27.625Z" fill="#167782"/>
</svg>
