<svg xmlns="http://www.w3.org/2000/svg" width="24" height="24" viewBox="0 0 24 24" fill="none">
<path d="M7.07502 9.5L5.5 17.5L5.50002 8H18.25C18.25 7.60217 18.092 7.22064 17.8107 6.93934C17.5294 6.65803 17.1478 6.5 16.75 6.5H11.5L10 5H5.50002C5.1022 5 4.72067 5.15804 4.43936 5.43934C4.15806 5.72064 4.00002 6.10217 4.00002 6.5L4 17.5C4 17.8978 4.15804 18.2794 4.43934 18.5607C4.72064 18.842 5.10218 19 5.5 19H16.75C17.425 19 18.025 18.55 18.175 17.875L19.9 9.5H7.07502ZM16.75 17.5H7L8.20002 11H17.95L16.75 17.5Z" fill="#333333"/>
</svg>
