<svg width="40" height="40" viewBox="0 0 40 40" fill="none" xmlns="http://www.w3.org/2000/svg">
<path d="M33.9729 40H6.02712C4.42863 40 2.89561 39.365 1.7653 38.2347C0.634999 37.1044 0 35.5714 0 33.9729V6.02712C0 4.42863 0.634999 2.89561 1.7653 1.7653C2.89561 0.634999 4.42863 0 6.02712 0H33.9729C35.5714 0 37.1044 0.634999 38.2347 1.7653C39.365 2.89561 40 4.42863 40 6.02712V33.9729C40 35.5714 39.365 37.1044 38.2347 38.2347C37.1044 39.365 35.5714 40 33.9729 40Z" fill="#EFF2F5"/>
<path d="M28.5556 30.6364H11.4444V11.7273H13.8889V15.2727H26.1111V11.7273H28.5556V30.6364ZM20 9.36364C20.3242 9.36364 20.635 9.48815 20.8642 9.70978C21.0935 9.93142 21.2222 10.232 21.2222 10.5455C21.2222 10.8589 21.0935 11.1595 20.8642 11.3811C20.635 11.6028 20.3242 11.7273 20 11.7273C19.6758 11.7273 19.365 11.6028 19.1358 11.3811C18.9065 11.1595 18.7778 10.8589 18.7778 10.5455C18.7778 10.232 18.9065 9.93142 19.1358 9.70978C19.365 9.48815 19.6758 9.36364 20 9.36364ZM28.5556 9.36364H23.4467C22.9333 7.99273 21.5889 7 20 7C18.4111 7 17.0667 7.99273 16.5533 9.36364H11.4444C10.7961 9.36364 10.1744 9.61266 9.71596 10.0559C9.25754 10.4992 9 11.1004 9 11.7273V30.6364C9 31.2632 9.25754 31.8644 9.71596 32.3077C10.1744 32.751 10.7961 33 11.4444 33H28.5556C29.2039 33 29.8256 32.751 30.284 32.3077C30.7425 31.8644 31 31.2632 31 30.6364V11.7273C31 11.1004 30.7425 10.4992 30.284 10.0559C29.8256 9.61266 29.2039 9.36364 28.5556 9.36364Z" fill="#167782"/>
<path fill-rule="evenodd" clip-rule="evenodd" d="M15 20H25C25.55 20 26 19.55 26 19C26 18.45 25.55 18 25 18H15C14.45 18 14 18.45 14 19C14 19.55 14.45 20 15 20ZM25 24H15C14.45 24 14 23.55 14 23C14 22.45 14.45 22 15 22H25C25.55 22 26 22.45 26 23C26 23.55 25.55 24 25 24ZM25 28H15C14.45 28 14 27.55 14 27C14 26.45 14.45 26 15 26H25C25.55 26 26 26.45 26 27C26 27.55 25.55 28 25 28Z" fill="#167782"/>
</svg>
