<svg width="17" height="16" viewBox="0 0 17 16" fill="none" xmlns="http://www.w3.org/2000/svg">
<path d="M8.5 1C9.23993 1 9.88454 1.40267 10.2305 2H10.5C11.0523 2 11.5 2.44772 11.5 3L11.7041 3.01074C12.7128 3.113 13.5 3.96435 13.5 5V12L13.4893 12.2041C13.3938 13.1457 12.6457 13.8938 11.7041 13.9893L11.5 14H5.5L5.2959 13.9893C4.35435 13.8938 3.6062 13.1457 3.51074 12.2041L3.5 12V5C3.5 3.96435 4.28722 3.113 5.2959 3.01074L5.5 3C5.5 2.44772 5.94772 2 6.5 2H6.76953C7.11546 1.40267 7.76007 1 8.5 1ZM11.5 5C11.5 5.55228 11.0523 6 10.5 6H6.5C5.94772 6 5.5 5.55228 5.5 5V4C4.94772 4 4.5 4.44772 4.5 5V12C4.5 12.5523 4.94772 13 5.5 13H11.5C12.0523 13 12.5 12.5523 12.5 12V5C12.5 4.44772 12.0523 4 11.5 4V5ZM8.5 3C7.94772 3 7.5 3.44772 7.5 4C7.5 4.55228 7.94772 5 8.5 5C9.05228 5 9.5 4.55228 9.5 4C9.5 3.44772 9.05228 3 8.5 3Z" fill="#333333"/>
</svg>
