<svg width="24" height="24" viewBox="0 0 24 24" fill="none" xmlns="http://www.w3.org/2000/svg">
<path d="M7.44474 15.5H4.14632C3.78937 15.5 3.5 15.7686 3.5 16.1V19.162C3.5 19.4934 3.78937 19.762 4.14632 19.762H7.44474C7.80169 19.762 8.09106 19.4934 8.09106 19.162V16.1C8.09106 15.7686 7.80169 15.5 7.44474 15.5Z" fill="currentColor"/>
<path d="M13.6518 15.5H10.3534C9.9964 15.5 9.70703 15.7686 9.70703 16.1V19.162C9.70703 19.4934 9.9964 19.762 10.3534 19.762H13.6518C14.0087 19.762 14.2981 19.4934 14.2981 19.162V16.1C14.2981 15.7686 14.0087 15.5 13.6518 15.5Z" fill="currentColor"/>
<path d="M19.8549 15.5H16.5565C16.1995 15.5 15.9102 15.7686 15.9102 16.1V19.162C15.9102 19.4934 16.1995 19.762 16.5565 19.762H19.8549C20.2119 19.762 20.5012 19.4934 20.5012 19.162V16.1C20.5012 15.7686 20.2119 15.5 19.8549 15.5Z" fill="currentColor"/>
<path d="M5 13.5C4.72386 13.5 4.5 13.2761 4.5 13V5C4.5 4.72386 4.72386 4.5 5 4.5H8.12468C8.78163 4.5 9.34861 4.63184 9.82562 4.89551C10.3055 5.15625 10.6754 5.521 10.9353 5.98975C11.1952 6.45557 11.3252 6.99756 11.3252 7.61572C11.3252 8.23682 11.1924 8.78027 10.9267 9.24609C10.664 9.70898 10.2883 10.0679 9.79991 10.3228C9.31148 10.5776 8.73165 10.7051 8.06041 10.7051H6.32391C6.04777 10.7051 5.82391 10.4812 5.82391 10.2051V9.49121C5.82391 9.21507 6.04777 8.99121 6.32391 8.99121H7.66624C7.98615 8.99121 8.25321 8.93408 8.46744 8.81982C8.68452 8.70557 8.84876 8.5459 8.96015 8.34082C9.07155 8.13281 9.12725 7.89111 9.12725 7.61572C9.12725 7.3374 9.07155 7.09717 8.96015 6.89502C8.84876 6.68994 8.68452 6.53174 8.46744 6.42041C8.25036 6.30908 7.98329 6.25342 7.66624 6.25342H7.12082C6.84468 6.25342 6.62082 6.47728 6.62082 6.75342V13C6.62082 13.2761 6.39697 13.5 6.12082 13.5H5Z" fill="currentColor"/>
<path d="M12.5835 6.2666C12.3074 6.2666 12.0835 6.04274 12.0835 5.7666V5C12.0835 4.72386 12.3074 4.5 12.5835 4.5H19C19.2761 4.5 19.5 4.72386 19.5 5V5.7666C19.5 6.04274 19.2761 6.2666 19 6.2666H17.3393C17.0632 6.2666 16.8393 6.49046 16.8393 6.7666V13C16.8393 13.2761 16.6155 13.5 16.3393 13.5H15.2485C14.9724 13.5 14.7485 13.2761 14.7485 13V6.7666C14.7485 6.49046 14.5246 6.2666 14.2485 6.2666H12.5835Z" fill="currentColor"/>
</svg>
