<svg width="16" height="16" viewBox="0 0 16 16" fill="currentColor" xmlns="http://www.w3.org/2000/svg">
<path d="M6.13068 9.11386V13.0002H4.85653V4.27295H6.11364V7.52011H6.1946C6.34801 7.16784 6.58239 6.88801 6.89773 6.68062C7.21307 6.47323 7.625 6.36954 8.13352 6.36954C8.58239 6.36954 8.97443 6.46187 9.30966 6.64653C9.64773 6.83119 9.90909 7.10676 10.0938 7.47323C10.2812 7.83687 10.375 8.29142 10.375 8.83687V13.0002H9.10085V8.99028C9.10085 8.51017 8.97727 8.13801 8.73011 7.8738C8.48295 7.60676 8.1392 7.47323 7.69886 7.47323C7.39773 7.47323 7.12784 7.53715 6.8892 7.66499C6.65341 7.79284 6.46733 7.98034 6.33097 8.22749C6.19744 8.47181 6.13068 8.76727 6.13068 9.11386ZM3.53125 5.83261V4.95051H7.44744V5.83261H3.53125Z" fill="currentColor"/>
</svg>
