<svg width="12" height="12" viewBox="0 0 12 12" fill="none" xmlns="http://www.w3.org/2000/svg">
<path d="M6.5625 1.3125C6.5625 1.10539 6.73039 0.9375 6.9375 0.9375L10.3125 0.937501C10.5196 0.937501 10.6875 1.10539 10.6875 1.3125L10.6875 4.6875C10.6875 4.89461 10.5196 5.0625 10.3125 5.0625L6.9375 5.0625C6.73039 5.0625 6.5625 4.8946 6.5625 4.6875L6.5625 1.3125Z" fill="#CAD3DD"/>
<path d="M8.3862 6.26516C8.53264 6.11871 8.77008 6.11871 8.91653 6.26516L11.0378 8.38648C11.1843 8.53293 11.1843 8.77036 11.0378 8.91681L8.91653 11.0381C8.77008 11.1846 8.53264 11.1846 8.3862 11.0381L6.26488 8.91681C6.11843 8.77036 6.11843 8.53293 6.26488 8.38648L8.3862 6.26516Z" fill="#CAD3DD"/>
<path d="M5.25 3C5.25 4.24264 4.24264 5.25 3 5.25C1.75736 5.25 0.75 4.24264 0.75 3C0.75 1.75736 1.75736 0.75 3 0.75C4.24264 0.75 5.25 1.75736 5.25 3Z" fill="#167782"/>
</svg>
