<svg width="12" height="12" viewBox="0 0 12 12" fill="none" xmlns="http://www.w3.org/2000/svg">
<path d="M1.31247 1.3125C1.31247 1.10539 1.48036 0.9375 1.68747 0.9375H5.06246C5.26957 0.9375 5.43746 1.10539 5.43746 1.3125V4.6875C5.43746 4.8946 5.26957 5.0625 5.06246 5.0625H1.68747C1.48036 5.0625 1.31247 4.8946 1.31247 4.6875V1.3125Z" fill="#CAD3DD"/>
<path d="M3.11006 6.23851C3.25651 6.09206 3.49394 6.09206 3.64039 6.23851L5.76171 8.35983C5.90816 8.50628 5.90816 8.74371 5.76171 8.89016L3.64039 11.0115C3.49394 11.1579 3.25651 11.1579 3.11006 11.0115L0.988741 8.89016C0.842295 8.74371 0.842295 8.50628 0.988741 8.35983L3.11006 6.23851Z" fill="#CAD3DD"/>
<path d="M11.25 3C11.25 4.24264 10.2426 5.25 8.99996 5.25C7.75732 5.25 6.74996 4.24264 6.74996 3C6.74996 1.75736 7.75732 0.75 8.99996 0.75C10.2426 0.75 11.25 1.75736 11.25 3Z" fill="#167782"/>
</svg>
