<svg width="16" height="16" viewBox="0 0 16 16" fill="currentColor" xmlns="http://www.w3.org/2000/svg">
<path d="M7.39737 11.3636V10.9034C7.39737 10.5795 7.47124 10.2855 7.61896 10.0213C7.76953 9.7571 7.98118 9.54545 8.25391 9.38636C8.52663 9.22727 8.84908 9.14773 9.22124 9.14773C9.56499 9.14773 9.86186 9.22727 10.1119 9.38636C10.3619 9.54545 10.5536 9.7571 10.6871 10.0213C10.8235 10.2855 10.8917 10.5795 10.8917 10.9034V11.3636C10.8917 11.6875 10.8235 11.9815 10.6871 12.2457C10.5536 12.5099 10.3619 12.7216 10.1119 12.8807C9.86186 13.0398 9.56499 13.1193 9.22124 13.1193C8.84908 13.1193 8.52663 13.0398 8.25391 12.8807C7.98118 12.7216 7.76953 12.5099 7.61896 12.2457C7.47124 11.9815 7.39737 11.6875 7.39737 11.3636ZM8.37322 10.9034V11.3636C8.37322 11.608 8.44425 11.8239 8.58629 12.0114C8.72834 12.1989 8.93999 12.2926 9.22124 12.2926C9.50249 12.2926 9.71129 12.1989 9.84766 12.0114C9.98402 11.8239 10.0522 11.608 10.0522 11.3636V10.9034C10.0522 10.6591 9.9826 10.4432 9.8434 10.2557C9.70419 10.0682 9.4968 9.97443 9.22124 9.97443C8.93999 9.97443 8.72834 10.0682 8.58629 10.2557C8.44425 10.4432 8.37322 10.6591 8.37322 10.9034ZM10.2227 11.3636V10.9034C10.2227 10.5795 10.2908 10.2855 10.4272 10.0213C10.5664 9.7571 10.761 9.54545 11.011 9.38636C11.2639 9.22727 11.5621 9.14773 11.9059 9.14773C12.2809 9.14773 12.6048 9.22727 12.8775 9.38636C13.1502 9.54545 13.3604 9.7571 13.5082 10.0213C13.6559 10.2855 13.7298 10.5795 13.7298 10.9034V11.3636C13.7298 11.6875 13.6559 11.9815 13.5082 12.2457C13.3633 12.5099 13.1545 12.7216 12.8817 12.8807C12.6119 13.0398 12.2923 13.1193 11.9229 13.1193C11.5763 13.1193 11.2752 13.0398 11.0195 12.8807C10.7667 12.7216 10.5707 12.5099 10.4315 12.2457C10.2951 11.9815 10.2255 11.6875 10.2227 11.3636ZM11.0579 10.9034V11.3636C11.0579 11.608 11.1317 11.8239 11.2795 12.0114C11.4272 12.1989 11.6417 12.2926 11.9229 12.2926C12.1985 12.2926 12.4059 12.1989 12.5451 12.0114C12.6843 11.8239 12.7539 11.608 12.7539 11.3636V10.9034C12.7539 10.6591 12.6829 10.4432 12.5408 10.2557C12.4016 10.0682 12.19 9.97443 11.9059 9.97443C11.6332 9.97443 11.4244 10.0682 11.2795 10.2557C11.1346 10.4432 11.0607 10.6591 11.0579 10.9034ZM3.00391 6.36932V5.90909C3.00391 5.57955 3.07209 5.27699 3.20845 5.00142C3.34766 4.72585 3.54936 4.50568 3.81357 4.34091C4.08061 4.17614 4.40305 4.09375 4.78089 4.09375C5.16726 4.09375 5.49112 4.17614 5.75249 4.34091C6.01385 4.50568 6.21129 4.72585 6.34482 5.00142C6.47834 5.27699 6.5451 5.57955 6.5451 5.90909V6.36932C6.5451 6.69886 6.47692 7.00142 6.34055 7.27699C6.20703 7.54972 6.00817 7.76989 5.74396 7.9375C5.4826 8.10227 5.16158 8.18466 4.78089 8.18466C4.39453 8.18466 4.06925 8.10227 3.80504 7.9375C3.54368 7.76989 3.34482 7.54972 3.20845 7.27699C3.07209 7.00142 3.00391 6.69886 3.00391 6.36932ZM4.00107 5.90909V6.36932C4.00107 6.61364 4.05788 6.83523 4.17152 7.03409C4.288 7.23295 4.49112 7.33239 4.78089 7.33239C5.06499 7.33239 5.26385 7.23295 5.37749 7.03409C5.49396 6.83523 5.5522 6.61364 5.5522 6.36932V5.90909C5.5522 5.66477 5.4968 5.44318 5.38601 5.24432C5.27521 5.04545 5.07351 4.94602 4.78089 4.94602C4.4968 4.94602 4.2951 5.04545 4.17578 5.24432C4.0593 5.44318 4.00107 5.66477 4.00107 5.90909ZM3.42578 13L9.42578 4.27273H10.4442L4.44425 13H3.42578Z" fill="currentColor"/>
</svg>
