<svg width="16" height="26" viewBox="0 0 16 26" fill="none" xmlns="http://www.w3.org/2000/svg">
    <path opacity="0.5" d="M6.32564 17.7969C5.77336 17.7969 5.32564 17.3492 5.32564 16.7969V16.483C5.34784 15.3997 5.47053 14.867 5.73616 14.0057C6.00983 13.1444 6.39619 12.4522 6.89525 11.929C7.3943 11.3977 8.00202 10.9107 8.7184 10.468C9.2094 10.1622 9.64809 9.82813 10.0345 9.46591C10.4289 9.09564 10.7388 8.68513 10.9641 8.23438C11.1895 7.77557 11.3022 7.26444 11.3022 6.70099C11.3022 6.06511 11.1533 5.51373 10.8555 5.04688C10.5577 4.58002 10.1552 4.2178 9.64809 3.96023C9.14903 3.70265 8.58961 3.57386 7.96982 3.57386C7.39832 3.57386 6.855 3.69863 6.33985 3.94815C5.83275 4.18963 5.41016 4.5599 5.07209 5.05895C4.88976 5.33022 4.75166 5.64203 4.65778 5.99438C4.5209 6.5081 4.10012 6.9304 3.56847 6.9304H1.24506C0.682474 6.9304 0.223374 6.46472 0.299555 5.90731C0.44799 4.82124 0.791203 3.88244 1.32919 3.09091C2.03753 2.06061 2.97124 1.28788 4.13033 0.772727C5.29747 0.257576 6.58535 0 7.99397 0C9.53137 0 10.8836 0.26965 12.0508 0.808949C13.226 1.34825 14.1396 2.11695 14.7916 3.11506C15.4516 4.10511 15.7816 5.2803 15.7816 6.64062C15.7816 7.55824 15.6327 8.37926 15.3349 9.10369C15.0451 9.82812 14.6306 10.4721 14.0913 11.0355C13.552 11.599 12.9121 12.102 12.1715 12.5447C11.5195 12.9472 10.9843 13.3658 10.5657 13.8004C10.1552 14.2351 9.83529 14.5515 9.63406 15.1391C9.49159 15.4657 9.38729 15.9478 9.34624 16.483V16.7969C9.34624 17.3492 8.89852 17.7969 8.34624 17.7969H6.32564ZM7.4265 25.331C6.70206 25.331 6.07825 25.0734 5.55505 24.5582C5.03185 24.0431 4.77025 23.4152 4.77025 22.6747C4.77025 21.9503 5.03185 21.3305 5.55505 20.8153C6.07825 20.3002 6.70206 20.0426 7.4265 20.0426C8.14288 20.0426 8.76267 20.3002 9.28587 20.8153C9.81712 21.3305 10.0827 21.9503 10.0827 22.6747C10.0827 23.1657 9.95798 23.6125 9.70846 24.0149C9.46698 24.4174 9.14501 24.7393 8.74255 24.9808C8.34813 25.2143 7.90945 25.331 7.4265 25.331Z" fill="currentColor"/>
</svg>
