<svg width="48" height="48" viewBox="0 0 48 48" fill="none" xmlns="http://www.w3.org/2000/svg">
<path d="M39.764 27.6821L34.512 32.9341L34.112 33.3341L33.8 33.6461L32.672 34.7741L31.2 33.6981L31.044 33.5841L30.532 33.2121L24.518 28.8461L25.692 27.2281L30.358 30.6141C29.794 24.5601 27.866 14.8961 22.978 14.8961H22.912C20.964 14.9301 18.242 16.5101 16.34 23.8461C15.5394 27.0902 15.0492 30.4032 14.876 33.7401L10.876 33.5981C11.0535 29.9689 11.5854 26.3658 12.464 22.8401C13.856 17.4521 16.8 11.0001 22.834 10.8981C28.95 10.7881 31.8 17.2861 33.12 22.7541C33.6977 25.2346 34.0987 27.7529 34.32 30.2901L38.342 26.2681L39.764 27.6821Z" fill="currentColor"/>
</svg>
