<svg width="48" height="48" viewBox="0 0 48 48" fill="none" xmlns="http://www.w3.org/2000/svg">
<path d="M34.742 18.9179L12.364 41.2939H6.70801V35.6379L29.084 13.2599L34.742 18.9179Z" fill="#231F20"/>
<path d="M36.7671 7.84158L40.1612 11.2357C40.4613 11.5357 40.6299 11.9427 40.6299 12.3671C40.6299 12.7914 40.4613 13.1984 40.1612 13.4984L36.5126 17.1471L30.8557 11.4902L34.5044 7.84158C34.8044 7.54152 35.2114 7.37295 35.6357 7.37295C36.0601 7.37295 36.4671 7.54152 36.7671 7.84158Z" fill="#231F20"/>
<path d="M22.8279 8.702L25.5299 10.178L22.8279 11.656L21.3519 14.358L19.8739 11.656L17.1719 10.178L19.8739 8.702L21.3519 6L22.8279 8.702Z" fill="#231F20"/>
<path d="M11.3181 17.1259L12.4481 13.2599L13.5801 17.1259L17.4441 18.2559L13.5801 19.3859L12.4481 23.2519L11.3181 19.3859L7.4541 18.2559L11.3181 17.1259Z" fill="#231F20"/>
</svg>
