<svg width="15" height="12" viewBox="0 0 15 12" fill="none" xmlns="http://www.w3.org/2000/svg">
<path d="M8.66602 0C5.35268 0 2.66602 2.68667 2.66602 6H0.666016L3.33268 8.66L5.99935 6H3.99935C3.99935 3.42 6.08602 1.33333 8.66602 1.33333C11.246 1.33333 13.3327 3.42 13.3327 6C13.3327 8.58 11.246 10.6667 8.66602 10.6667C7.37935 10.6667 6.21268 10.14 5.37268 9.29333L4.42602 10.24C5.51268 11.3267 7.00602 12 8.66602 12C11.9793 12 14.666 9.31333 14.666 6C14.666 2.68667 11.9793 0 8.66602 0ZM7.99935 3.33333V6.66667L10.8327 8.34667L11.346 7.49333L8.99935 6.1V3.33333H7.99935Z" fill="currentcolor"/>
</svg>
