<svg width="32" height="32" viewBox="0 0 32 32" fill="none" xmlns="http://www.w3.org/2000/svg">
<path d="M24.2674 19.8014H22.2674V13.412H20.9834V11.412H24.2674V19.8014Z" fill="currentColor"/>
<path d="M19.1154 16.292C19.9674 15.8347 20.5008 15.0387 20.5008 14.0894C20.5127 13.6346 20.3986 13.1854 20.171 12.7914C19.9435 12.3975 19.6113 12.0742 19.2114 11.8574C18.8859 11.6772 18.5333 11.5511 18.1674 11.484C17.9249 11.4372 17.6785 11.4131 17.4314 11.412H14.0381V19.8014H16.0381V16.7174C16.3994 16.7174 16.7941 16.7174 17.1048 16.7174L18.5634 19.8027H20.7741L19.1154 16.292ZM16.0381 14.716V13.412H17.4314C17.7091 13.4105 17.9831 13.4744 18.2314 13.5987C18.3227 13.6414 18.3983 13.7118 18.4473 13.7999C18.4964 13.8879 18.5165 13.9892 18.5048 14.0894C18.5048 14.524 17.8488 14.6987 17.4088 14.7107C17.1221 14.7187 16.5488 14.7187 16.0381 14.716Z" fill="currentColor"/>
<path d="M5.17049 19.5146L3.28516 17.6293L5.23182 15.6813L3.28516 13.7333L5.17049 11.8479L9.00382 15.6813L5.17049 19.5146Z" fill="currentColor"/>
<path d="M14.6454 25.2H12.1734C11.5815 25.1989 11.0142 24.9633 10.5958 24.5446C10.1775 24.126 9.94211 23.5585 9.94141 22.9667V9.03334C9.94176 8.44136 10.177 7.87371 10.5955 7.45499C11.0139 7.03628 11.5814 6.80071 12.1734 6.8H14.6454V9.46667H12.6081V22.5333H14.6454V25.2Z" fill="currentColor"/>
<path d="M26.2347 25.2H23.7627V22.5333H25.8V9.46667H23.7627V6.8H26.2347C26.8267 6.80071 27.3942 7.03628 27.8126 7.45499C28.2311 7.87371 28.4663 8.44136 28.4667 9.03334V22.9667C28.466 23.5585 28.2307 24.126 27.8123 24.5446C27.3939 24.9633 26.8266 25.1989 26.2347 25.2Z" fill="currentColor"/>
</svg>
