<svg width="32" height="32" viewBox="0 0 32 32" fill="none" xmlns="http://www.w3.org/2000/svg">
<path d="M24.9626 13.3347H23.3626V9.07468H22.5986V7.47334H24.9626V13.3347Z" fill="currentColor"/>
<path d="M21.4667 10.9787C21.7432 10.8234 21.9736 10.5976 22.1343 10.3242C22.295 10.0509 22.3802 9.73977 22.3814 9.42268C22.3814 8.48934 21.6867 7.47334 20.1641 7.47334H17.7334V13.34H19.3334V11.3333C19.5187 11.3333 19.7107 11.3333 19.8761 11.3333L20.8201 13.3333H22.5894L21.4667 10.9787ZM19.3334 9.73334V9.06668H20.1734C20.3174 9.06668 20.7907 9.09201 20.7907 9.41601C20.7907 9.61868 20.4174 9.71868 20.1521 9.72668C19.9734 9.73334 19.6427 9.73334 19.3334 9.73334Z" fill="currentColor"/>
<path d="M18.2586 17.1187H16.5652C16.1368 17.118 15.7262 16.9475 15.4233 16.6446C15.1204 16.3417 14.9499 15.9311 14.9492 15.5027V5.95871C14.9499 5.53046 15.1204 5.11997 15.4234 4.81727C15.7263 4.51458 16.137 4.34439 16.5652 4.34404H18.2586V6.34404H16.9492V15.1187H18.2586V17.1187Z" fill="currentColor"/>
<path d="M26.1963 17.1187H24.5029V15.1187H25.8123V6.34404H24.5029V4.34404H26.1963C26.6245 4.34439 27.0351 4.51458 27.3381 4.81727C27.641 5.11997 27.8116 5.53046 27.8123 5.95871V15.5027C27.8116 15.9311 27.6411 16.3417 27.3382 16.6446C27.0353 16.9475 26.6246 17.118 26.1963 17.1187Z" fill="currentColor"/>
<path d="M13.88 16.7557L7.85547 22.7803L9.26968 24.1945L15.2942 18.1699L13.88 16.7557Z" fill="currentColor"/>
<path d="M11.4794 25.0853L5.31543 26.7373L6.9661 20.572L11.4794 25.0853Z" fill="currentColor"/>
</svg>
