<svg xmlns="http://www.w3.org/2000/svg" width="24" height="24" viewBox="0 0 24 24" fill="none">
<path d="M17.8333 18.2083H18.2083V17.8333V8.525V8.36967L18.0985 8.25983L15.7402 5.9015L15.6303 5.79167H15.475H6.16667H5.79167V6.16667V17.8333V18.2083H6.16667H17.8333ZM6.16667 4.875H16.0113L19.125 7.98866V17.8333C19.125 18.5429 18.5429 19.125 17.8333 19.125H6.16667C5.44999 19.125 4.875 18.5441 4.875 17.8333V6.16667C4.875 5.45588 5.44999 4.875 6.16667 4.875ZM7.79167 7.79167H13.7083V9.54167H7.79167V7.79167ZM13.2917 14.5C13.2917 15.2134 12.7134 15.7917 12 15.7917C11.2866 15.7917 10.7083 15.2134 10.7083 14.5C10.7083 13.7866 11.2866 13.2083 12 13.2083C12.7134 13.2083 13.2917 13.7866 13.2917 14.5Z" fill="#333333" stroke="#333333" stroke-width="0.75"/>
</svg>