<svg width="24" height="24" viewBox="0 0 24 24" fill="none" xmlns="http://www.w3.org/2000/svg">
<path d="M17.25 17.625H17.625V17.25V8.8725V8.71717L17.5152 8.60733L15.3927 6.48483L15.2828 6.375H15.1275H6.75H6.375V6.75V17.25V17.625H6.75H17.25ZM6.75 5.625H15.5947L18.375 8.40533V17.25C18.375 17.8679 17.8679 18.375 17.25 18.375H6.75C6.12583 18.375 5.625 17.8691 5.625 17.25V6.75C5.625 6.13088 6.12583 5.625 6.75 5.625ZM8.25 8.25H13.5V9.75H8.25V8.25ZM13.125 14.25C13.125 14.8713 12.6213 15.375 12 15.375C11.3787 15.375 10.875 14.8713 10.875 14.25C10.875 13.6287 11.3787 13.125 12 13.125C12.6213 13.125 13.125 13.6287 13.125 14.25Z" fill="currentcolor" stroke="currentcolor" stroke-width="0.75"/>
</svg>
