<svg width="28" height="28" viewBox="0 0 28 28" fill="none" xmlns="http://www.w3.org/2000/svg">
<path d="M22.6974 21.4921L17.0165 15.8112C17.8981 14.6715 18.3749 13.2781 18.3749 11.8125C18.3749 10.0581 17.6903 8.41311 16.4521 7.1728C15.214 5.9325 13.5647 5.25 11.8125 5.25C10.0603 5.25 8.41092 5.93468 7.1728 7.1728C5.9325 8.41092 5.25 10.0581 5.25 11.8125C5.25 13.5647 5.93468 15.214 7.1728 16.4521C8.41092 17.6924 10.0581 18.3749 11.8125 18.3749C13.2781 18.3749 14.6693 17.8981 15.809 17.0187L21.4899 22.6974C21.5066 22.7141 21.5264 22.7273 21.5481 22.7363C21.5699 22.7454 21.5932 22.75 21.6168 22.75C21.6404 22.75 21.6637 22.7454 21.6855 22.7363C21.7072 22.7273 21.727 22.7141 21.7437 22.6974L22.6974 21.7459C22.7141 21.7292 22.7273 21.7094 22.7363 21.6877C22.7454 21.6659 22.75 21.6426 22.75 21.619C22.75 21.5954 22.7454 21.5721 22.7363 21.5503C22.7273 21.5286 22.7141 21.5088 22.6974 21.4921ZM15.2775 15.2775C14.35 16.2028 13.1206 16.7125 11.8125 16.7125C10.5044 16.7125 9.27498 16.2028 8.34749 15.2775C7.42218 14.35 6.91249 13.1206 6.91249 11.8125C6.91249 10.5044 7.42218 9.2728 8.34749 8.34749C9.27498 7.42218 10.5044 6.91249 11.8125 6.91249C13.1206 6.91249 14.3521 7.41999 15.2775 8.34749C16.2028 9.27498 16.7125 10.5044 16.7125 11.8125C16.7125 13.1206 16.2028 14.3521 15.2775 15.2775Z" fill="currentColor"/>
</svg>
