<svg width="48" height="48" viewBox="0 0 48 48" fill="none" xmlns="http://www.w3.org/2000/svg">
<path d="M36.209 42.2438C36.1025 42.2983 35.9858 42.3296 35.8664 42.3359C35.747 42.3421 35.6276 42.3231 35.516 42.2801C35.4045 42.2371 35.3032 42.171 35.219 42.0861C35.1347 42.0013 35.0693 41.8997 35.027 41.7878L33.089 37.1878L30.859 39.1498C30.7086 39.2883 30.5114 39.3647 30.307 39.3638C30.1883 39.363 30.071 39.3373 29.9629 39.2884C29.8547 39.2394 29.758 39.1684 29.679 39.0798C29.5101 38.8906 29.4174 38.6455 29.419 38.3918V23.8118C29.4178 23.5583 29.5104 23.3133 29.679 23.1238C29.758 23.0353 29.8547 22.9643 29.9629 22.9153C30.071 22.8664 30.1883 22.8407 30.307 22.8398C30.5179 22.8426 30.7206 22.9222 30.877 23.0638V23.0638L41.089 32.4298C41.2725 32.6045 41.3856 32.8404 41.407 33.0928C41.4284 33.3453 41.3565 33.5968 41.205 33.7998C41.0811 33.9668 40.9016 34.0838 40.699 34.1298L37.899 34.7298L39.855 39.3298C39.963 39.5572 39.979 39.8176 39.8996 40.0565C39.8202 40.2954 39.6516 40.4943 39.429 40.6118L36.209 42.2438Z" fill="currentColor"/>
<path d="M30.6734 8.50393C30.4277 8.03388 30.0054 7.68066 29.4994 7.52193C28.264 7.13666 26.9971 6.86093 25.7134 6.69793C25.3334 6.64993 24.9374 6.60993 24.5394 6.57993C24.0113 6.5446 23.4906 6.71875 23.09 7.06465C22.6895 7.41056 22.4413 7.90036 22.3994 8.42793C22.3994 8.47793 22.3994 8.52993 22.3994 8.58193C22.4011 9.08594 22.593 9.57073 22.9367 9.93933C23.2805 10.3079 23.7507 10.5331 24.2534 10.5699C24.5694 10.5919 24.8934 10.6259 25.2154 10.6659C26.2653 10.7987 27.3013 11.0243 28.3114 11.3399C28.5056 11.4005 28.7079 11.4315 28.9114 11.4319C29.2555 11.432 29.5938 11.3432 29.8937 11.1743C30.1935 11.0053 30.4446 10.7619 30.6228 10.4674C30.8009 10.173 30.9001 9.83762 30.9108 9.49364C30.9214 9.14967 30.8431 8.80878 30.6834 8.50393H30.6734ZM18.5934 8.90393C18.4528 8.51883 18.1972 8.18625 17.8613 7.95122C17.5254 7.71619 17.1254 7.59007 16.7154 7.58993C16.4812 7.5902 16.2489 7.63219 16.0294 7.71393C14.3808 8.30305 12.8383 9.15469 11.4614 10.2359C11.137 10.4945 10.901 10.8476 10.7861 11.2462C10.6713 11.6449 10.6832 12.0694 10.8203 12.4609C10.9574 12.8525 11.2129 13.1917 11.5514 13.4316C11.8898 13.6715 12.2945 13.8002 12.7094 13.7999C13.1618 13.8016 13.601 13.6477 13.9534 13.3639C14.9922 12.5492 16.1559 11.9076 17.3994 11.4639C17.6469 11.3746 17.8744 11.2373 18.0687 11.0598C18.2631 10.8824 18.4205 10.6684 18.532 10.43C18.6434 10.1916 18.7068 9.93358 18.7184 9.67068C18.7299 9.40778 18.6895 9.14518 18.5994 8.89793L18.5934 8.90393ZM40.1034 16.1559C39.3434 14.5377 38.2857 13.0769 36.9854 11.8499C36.7976 11.6605 36.5738 11.5105 36.3271 11.4088C36.0805 11.3072 35.816 11.2559 35.5492 11.258C35.2824 11.2601 35.0188 11.3155 34.7738 11.4211C34.5288 11.5266 34.3073 11.6801 34.1225 11.8725C33.9377 12.0649 33.7933 12.2923 33.6977 12.5414C33.6021 12.7905 33.5574 13.0561 33.566 13.3228C33.5747 13.5894 33.6366 13.8516 33.7481 14.094C33.8596 14.3363 34.0185 14.5539 34.2154 14.7339C35.1537 15.6151 35.9183 16.6646 36.4694 17.8279C36.5792 18.0665 36.7349 18.2812 36.9276 18.4596C37.1204 18.6381 37.3464 18.7768 37.5927 18.8679C37.8391 18.959 38.101 19.0007 38.3634 18.9905C38.6259 18.9804 38.8838 18.9187 39.1224 18.8089C39.361 18.6991 39.5756 18.5434 39.7541 18.3507C39.9325 18.158 40.0712 17.932 40.1623 17.6856C40.2534 17.4393 40.2951 17.1774 40.285 16.9149C40.2749 16.6524 40.2132 16.3945 40.1034 16.1559V16.1559ZM11.3634 22.1199C11.0077 21.2472 10.8224 20.3144 10.8174 19.3719C10.817 19.1086 10.8317 18.8455 10.8614 18.5839C10.8915 18.323 10.8699 18.0587 10.7978 17.8061C10.7257 17.5535 10.6046 17.3176 10.4414 17.1118C10.2781 16.906 10.0759 16.7344 9.84637 16.6068C9.6168 16.4791 9.36433 16.398 9.10338 16.3679C9.02631 16.3599 8.94887 16.3559 8.87138 16.3559C8.38129 16.3571 7.9087 16.5383 7.54333 16.8649C7.17796 17.1916 6.94525 17.641 6.88938 18.1279C6.84125 18.5408 6.81721 18.9562 6.81738 19.3719C6.82223 20.8217 7.10535 22.257 7.65138 23.5999C7.85612 24.0814 8.2414 24.4636 8.7246 24.6643C9.20779 24.865 9.75041 24.8684 10.2361 24.6737C10.7217 24.4791 11.1118 24.1018 11.3225 23.6229C11.5333 23.144 11.5479 22.6015 11.3634 22.1119V22.1199ZM39.2294 22.7199C38.9774 22.6087 38.7049 22.5515 38.4294 22.5519C38.0401 22.5517 37.6592 22.6652 37.3334 22.8783C37.0076 23.0915 36.7511 23.3951 36.5954 23.7519C36.3513 24.3081 36.0418 24.8331 35.6734 25.3159L38.6294 28.0279C39.2913 27.2134 39.8403 26.3133 40.2614 25.3519C40.3726 25.0999 40.4298 24.8274 40.4294 24.5519C40.4292 24.163 40.3156 23.7825 40.1024 23.4571C39.8893 23.1317 39.5859 22.8755 39.2294 22.7199ZM17.4734 28.1199C16.2551 27.5431 15.124 26.7978 14.1134 25.9059C13.9189 25.7229 13.6898 25.5807 13.4395 25.4877C13.1893 25.3946 12.9229 25.3527 12.6561 25.3642C12.3894 25.3758 12.1276 25.4406 11.8863 25.555C11.645 25.6693 11.4291 25.8308 11.2512 26.0299C11.0733 26.229 10.9371 26.4618 10.8505 26.7144C10.764 26.967 10.729 27.2344 10.7475 27.5007C10.7659 27.7671 10.8376 28.0271 10.9581 28.2653C11.0787 28.5036 11.2457 28.7153 11.4494 28.8879C12.7398 30.0306 14.1846 30.986 15.7414 31.7259C16.0104 31.8575 16.3059 31.9259 16.6054 31.9259C16.9815 31.9242 17.3495 31.8171 17.6677 31.6166C17.9859 31.4161 18.2415 31.1304 18.4054 30.7919C18.537 30.5215 18.6054 30.2247 18.6054 29.9239C18.6045 29.5471 18.498 29.1782 18.2979 28.8589C18.0978 28.5397 17.8121 28.2829 17.4734 28.1179V28.1199Z" fill="currentColor"/>
<path d="M27.6912 29.6101V36.8541C26.3612 38.0881 24.1972 38.8801 22.0012 38.7421C20.9132 38.6741 19.7092 38.2841 18.4372 37.8721C17.1652 37.4601 15.7112 36.9861 14.8652 37.0541C13.3652 37.1701 11.8112 38.4201 11.3412 38.8901C10.9662 39.2654 10.4574 39.4763 9.92689 39.4765C9.39635 39.4767 8.88747 39.2661 8.51219 38.8911C8.1369 38.5161 7.92597 38.0074 7.92578 37.4768C7.92559 36.9463 8.13617 36.4374 8.51119 36.0621C8.79319 35.7821 11.3452 33.3141 14.5572 33.0621C16.1912 32.9361 17.9572 33.5081 19.6692 34.0621C20.6512 34.3801 21.6692 34.7101 22.2512 34.7461C23.6232 34.8321 24.6772 34.2361 25.0132 33.8921C25.0132 33.8661 25.0132 33.8381 24.9992 33.8081C24.6812 33.8081 24.3552 33.7981 24.0312 33.7821C23.5016 33.7567 23.0038 33.5221 22.6471 33.1298C22.2905 32.7375 22.1042 32.2197 22.1292 31.6901C22.1534 31.1761 22.3747 30.6913 22.7472 30.3363C23.1197 29.9813 23.6146 29.7835 24.1292 29.7841H24.2252C24.5132 29.7961 24.7992 29.8041 25.0752 29.8041C25.9509 29.8072 26.8255 29.7424 27.6912 29.6101V29.6101Z" fill="currentColor"/>
</svg>
