<svg width="48" height="48" viewBox="0 0 48 48" fill="none" xmlns="http://www.w3.org/2000/svg">
<path d="M36.2109 42.2441C36.1045 42.2985 35.9877 42.3299 35.8683 42.3361C35.7489 42.3424 35.6295 42.3234 35.518 42.2803C35.4064 42.2373 35.3052 42.1712 35.2209 42.0864C35.1367 42.0016 35.0712 41.8999 35.0289 41.7881L33.0909 37.1881L30.8609 39.1501C30.7105 39.2885 30.5133 39.365 30.3089 39.3641C30.1902 39.3632 30.073 39.3375 29.9648 39.2886C29.8567 39.2397 29.76 39.1687 29.6809 39.0801C29.512 38.8909 29.4194 38.6457 29.4209 38.3921V23.8121C29.4198 23.5585 29.5124 23.3135 29.6809 23.1241C29.76 23.0355 29.8567 22.9645 29.9648 22.9156C30.073 22.8667 30.1902 22.8409 30.3089 22.8401C30.5199 22.8428 30.7225 22.9225 30.8789 23.0641L41.0909 32.4301C41.2744 32.6048 41.3876 32.8406 41.4089 33.0931C41.4303 33.3455 41.3584 33.597 41.2069 33.8001C41.0831 33.967 40.9036 34.0841 40.7009 34.1301L37.9009 34.7301L39.8569 39.3301C39.9649 39.5575 39.9809 39.8178 39.9016 40.0567C39.8222 40.2956 39.6536 40.4946 39.4309 40.6121L36.2109 42.2441Z" fill="currentColor"/>
<path d="M8.56055 20.1022V25.5802H12.5605V20.1022H8.56055ZM19.9405 32.9622V36.9622H25.4205V32.9622H19.9405ZM31.5265 8.72021H29.4205V12.7202H31.5265C31.6943 12.7205 31.8603 12.7538 32.0152 12.8183C32.17 12.8828 32.3106 12.9772 32.4289 13.0961C32.5473 13.215 32.641 13.356 32.7048 13.5111C32.7685 13.6663 32.8011 13.8325 32.8005 14.0002V16.1022H36.8005V14.0002C36.8 12.6011 36.2444 11.2593 35.2556 10.2694C34.2668 9.27949 32.9257 8.72233 31.5265 8.72021ZM13.8365 8.72021C12.4371 8.7218 11.0954 9.27873 10.1062 10.2687C9.11698 11.2587 8.56108 12.6007 8.56055 14.0002V16.1022H12.5605V14.0002C12.5605 13.6618 12.695 13.3372 12.9343 13.0979C13.1736 12.8586 13.4981 12.7242 13.8365 12.7242H15.9405V8.72421L13.8365 8.72021ZM19.9405 8.72021V12.7202H25.4205V8.72021H19.9405ZM32.8005 20.1022V21.8002L36.8005 25.4682V20.1022H32.8005ZM13.8365 32.9622C13.4981 32.9622 13.1736 32.8278 12.9343 32.5885C12.695 32.3492 12.5605 32.0246 12.5605 31.6862V29.5802H8.56055V31.6862C8.56213 33.085 9.11851 34.4261 10.1076 35.4152C11.0967 36.4043 12.4378 36.9606 13.8365 36.9622H15.9405V32.9622H13.8365Z" fill="currentColor"/>
</svg>
