<svg width="48" height="48" viewBox="0 0 48 48" fill="none" xmlns="http://www.w3.org/2000/svg">
<path d="M36.085 41.8959C35.9784 41.9503 35.8615 41.9816 35.742 41.9877C35.6225 41.9938 35.5031 41.9746 35.3915 41.9314C35.2799 41.8882 35.1787 41.8219 35.0946 41.7368C35.0104 41.6518 34.9451 41.5499 34.903 41.4379L32.965 36.8379L30.733 38.7999C30.5836 38.9388 30.3869 39.0153 30.183 39.0139C30.0643 39.0131 29.9471 38.9874 29.8389 38.9385C29.7308 38.8895 29.634 38.8185 29.555 38.7299C29.3851 38.5412 29.2916 38.2959 29.293 38.0419V23.4639C29.2912 23.2099 29.3847 22.9645 29.555 22.7759C29.634 22.6874 29.7308 22.6163 29.8389 22.5674C29.9471 22.5185 30.0643 22.4928 30.183 22.4919C30.3934 22.4946 30.5954 22.5743 30.751 22.7159H30.761L40.973 32.0819C41.1561 32.2568 41.269 32.4927 41.2903 32.745C41.3117 32.9973 41.2401 33.2487 41.089 33.4519C40.9648 33.6194 40.7845 33.7365 40.581 33.7819L37.781 34.3819L39.737 38.9819C39.845 39.2099 39.8607 39.4707 39.781 39.7099C39.7012 39.9492 39.5321 40.1484 39.309 40.2659L36.085 41.8959Z" fill="currentColor"/>
<path d="M34.3705 14.8379L21.0665 8.23792C20.6874 8.05115 20.2589 7.98925 19.8424 8.06111C19.426 8.13298 19.043 8.3349 18.7485 8.63792L8.34845 19.2519C8.05316 19.5539 7.86103 19.9415 7.7996 20.3594C7.73816 20.7772 7.81057 21.2038 8.00645 21.5779L14.8885 34.7419C15.0602 35.0636 15.3166 35.3322 15.63 35.5187C15.9434 35.7052 16.3018 35.8024 16.6665 35.7999C16.7784 35.8005 16.8902 35.7911 17.0005 35.7719L27.2905 34.0299V29.9759L17.7665 31.5879L12.2305 20.9999L20.5885 12.4639L31.2905 17.7759L30.9485 20.0879L34.5105 23.3539L35.4605 16.9219C35.5222 16.5039 35.45 16.0772 35.2541 15.7028C35.0583 15.3284 34.749 15.0256 34.3705 14.8379Z" fill="currentColor"/>
</svg>
