<svg width="24" height="24" viewBox="0 0 24 24" fill="none" xmlns="http://www.w3.org/2000/svg">
    <path d="M13.5425 5.85918C15.1992 5.85924 16.5423 7.18584 16.5423 8.82228C16.5422 10.4586 15.1991 11.7853 13.5425 11.7854C13.046 11.7854 12.579 11.6635 12.1665 11.4526L10.7975 13.1425C10.9445 13.2349 11.096 13.3207 11.2515 13.3981L10.5318 14.8102C10.2771 14.6834 10.0306 14.5403 9.7936 14.3829L8.20285 16.3468C8.70076 16.9439 8.99969 17.709 8.99969 18.543C8.99969 20.4523 7.43276 22 5.49985 22C3.56693 22 2 20.4523 2 18.543C2 16.6338 3.56693 15.0861 5.49985 15.0861C6.0093 15.0861 6.49285 15.1947 6.92947 15.388L10.9908 10.3733C10.7088 9.92167 10.5426 9.39183 10.5426 8.82228C10.5426 7.1858 11.8857 5.85918 13.5425 5.85918Z" fill="currentColor"/>
    <path d="M15.4447 12.123C15.5498 12.1244 15.6512 12.164 15.7289 12.2339H15.7338L20.839 16.8589C20.9306 16.9453 20.9875 17.0623 20.9982 17.1869C21.0087 17.3113 20.9731 17.4358 20.8976 17.536C20.8355 17.6187 20.7444 17.6757 20.6427 17.6981L19.2434 17.9952L20.2209 20.2667C20.2749 20.3793 20.2832 20.5083 20.2433 20.6265C20.2034 20.7445 20.1185 20.8424 20.007 20.9004L18.3958 21.7058C18.3425 21.7327 18.2836 21.7481 18.2239 21.7511C18.1641 21.7542 18.1039 21.7445 18.0481 21.7232C17.9925 21.7018 17.9417 21.6686 17.8997 21.6267C17.8578 21.5848 17.825 21.5343 17.804 21.4791L16.8353 19.2076L15.7191 20.177C15.6446 20.2453 15.5464 20.2827 15.4447 20.2821C15.3856 20.2817 15.3268 20.2695 15.2729 20.2455C15.2188 20.2213 15.1698 20.186 15.1303 20.1423C15.0454 20.0492 14.9988 19.928 14.9994 19.8027V12.6033C14.9986 12.4779 15.0451 12.3559 15.1303 12.2628C15.1698 12.2192 15.2188 12.1847 15.2729 12.1606C15.3269 12.1365 15.3855 12.1234 15.4447 12.123Z" fill="currentColor"/>
    <path d="M12.9702 13.9113C13.2652 13.946 13.5659 13.9563 13.8686 13.9392L13.9604 15.5163C13.5628 15.5388 13.1681 15.5262 12.7808 15.4806L12.9702 13.9113Z" fill="currentColor"/>
    <path d="M19.8752 11.2886C19.6982 11.7288 19.4748 12.1487 19.2102 12.5416L17.8782 11.6658C18.081 11.3646 18.2531 11.0427 18.3889 10.7051L19.8752 11.2886Z" fill="currentColor"/>
    <path d="M8.35909 9.01326C8.37744 9.34509 8.42754 9.68148 8.51338 10.0174L8.5749 10.2354C8.64016 10.4516 8.71832 10.6605 8.80829 10.8613L7.34449 11.5008C7.18823 11.152 7.06018 10.7856 6.96267 10.4041C6.85151 9.96919 6.78542 9.53195 6.76151 9.09911L8.35909 9.01326Z" fill="currentColor"/>
    <path d="M19.6984 5.87268C19.8854 6.26489 20.0365 6.681 20.1476 7.11599L20.2287 7.46612C20.2988 7.81608 20.3403 8.16618 20.3547 8.51362L18.7551 8.57825C18.7405 8.22297 18.689 7.86297 18.5969 7.50277C18.5111 7.16681 18.3946 6.84667 18.2512 6.54594L19.6984 5.87268Z" fill="currentColor"/>
    <path d="M9.68032 5.27948C9.22528 5.78447 8.87237 6.37622 8.64521 7.0176L7.89036 6.75621L7.13551 6.49578C7.43153 5.66003 7.89045 4.88791 8.48506 4.22812L9.68032 5.27948Z" fill="currentColor"/>
    <path d="M15.8402 2.3945C16.6807 2.69648 17.4562 3.16051 18.1184 3.75742L17.5784 4.34L17.0403 4.92452C16.5321 4.46641 15.9367 4.11105 15.2934 3.87991L15.8402 2.3945Z" fill="currentColor"/>
    <path d="M13.2817 3.57801C12.9469 3.59438 12.6077 3.64403 12.2691 3.72848C11.9306 3.81291 11.6087 3.92837 11.3062 4.07089L10.6178 2.64529C11.0151 2.45804 11.4368 2.30689 11.8785 2.19677C12.32 2.0867 12.763 2.02148 13.2026 2L13.2817 3.57801Z" fill="currentColor"/>
</svg>
