<svg width="24" height="24" viewBox="0 0 24 24" fill="none" xmlns="http://www.w3.org/2000/svg">
<path fill-rule="evenodd" clip-rule="evenodd" d="M10.1717 12.69H15.0727L15.555 13.9202H15.0629C14.5774 13.9202 14.2296 14.0153 14.0197 14.2056C13.8163 14.3893 13.7146 14.6288 13.7146 14.924C13.7146 15.2258 13.8163 15.4718 14.0197 15.6621C14.2296 15.8458 14.5774 15.9377 15.0629 15.9377H17.7791C18.2646 15.9377 18.6091 15.8458 18.8125 15.6621C19.0159 15.4718 19.1176 15.2291 19.1176 14.9338C19.1176 14.5796 18.9667 14.2941 18.6649 14.0776C18.5139 13.9727 18.2023 13.9202 17.7299 13.9202L13.7146 4.00984L9.35485 4C8.86934 4 8.5216 4.09513 8.31165 4.2854C8.10826 4.46911 8.00657 4.71186 8.00657 5.01367C8.00657 5.31547 8.10826 5.56151 8.31165 5.75178C8.5216 5.93548 8.86934 6.02734 9.35485 6.02734H10.6736L7.50465 13.9202C7.00602 13.9071 6.64845 13.9956 6.43194 14.1859C6.21543 14.3762 6.10717 14.6222 6.10717 14.924C6.10717 15.2258 6.21215 15.4718 6.4221 15.6621C6.62549 15.8458 6.96994 15.9377 7.45545 15.9377H10.1717C10.6572 15.9377 11.0016 15.8458 11.205 15.6621C11.415 15.4718 11.52 15.2291 11.52 14.9338C11.52 14.632 11.415 14.3893 11.205 14.2056C11.0016 14.0153 10.6572 13.9202 10.1717 13.9202H9.67961L10.1717 12.69ZM12.6124 6.67687L14.2362 10.6725H10.9787L12.6124 6.67687ZM6 17.737C5.44772 17.737 5 18.1847 5 18.737C5 19.2893 5.44772 19.737 6 19.737H19.9967C20.549 19.737 20.9967 19.2893 20.9967 18.737C20.9967 18.1847 20.549 17.737 19.9967 17.737H6Z" fill="currentColor"/>
</svg>
