<svg width="48" height="48" viewBox="0 0 48 48" fill="none" xmlns="http://www.w3.org/2000/svg">
<path d="M40.718 13.8217V17.8217H35.9V22.6396H31.9V17.8217H27.082V13.8217H31.9V9.00366H35.9V13.8217H40.718Z" fill="currentColor"/>
<path fill-rule="evenodd" clip-rule="evenodd" d="M14.0739 17.8976C11.609 19.6211 10.3418 21.8095 10.3418 23.9997C10.3418 26.191 11.6076 28.3793 14.0704 30.1022C16.5272 31.8207 20.03 32.9477 23.9998 32.9477C27.9696 32.9477 31.4724 31.8207 33.9291 30.1022C36.392 28.3793 37.6578 26.191 37.6578 23.9997H41.6578C41.6578 27.8545 39.4235 31.1402 36.2219 33.3798C33.0142 35.6237 28.688 36.9477 23.9998 36.9477C19.3116 36.9477 14.9854 35.6237 11.7776 33.3798C8.57603 31.1402 6.3418 27.8545 6.3418 23.9997C6.3418 20.144 8.57962 16.8584 11.7817 14.6194C14.9903 12.3759 19.3162 11.0518 23.9998 11.0518V15.0518C20.0353 15.0518 16.5323 16.1786 14.0739 17.8976Z" fill="currentColor"/>
</svg>
