<svg width="16" height="16" viewBox="0 0 16 16" fill="none" xmlns="http://www.w3.org/2000/svg">
<path d="M6.26877 3.23315L8.00212 4.23316M8.00212 4.23316L9.7688 3.23315M8.00212 4.23316V5.4665M2.96875 9.4332L4.50209 10.2999M4.50209 10.2999L5.56877 9.66653M4.50209 10.2999V12.0666" stroke="white" stroke-width="0.666671" stroke-linecap="round" stroke-linejoin="round"/>
<path d="M8.00106 6.3849L9.63073 7.32579V9.20757L8.00106 10.1485L6.37139 9.20757L6.37139 7.32579L8.00106 6.3849Z" stroke="white" stroke-width="0.666671" stroke-linejoin="round"/>
<path d="M9.60067 9.18495L11.2303 10.1258V12.0076L9.60067 12.9485L7.971 12.0076L7.971 10.1258L9.60067 9.18495Z" stroke="white" stroke-width="0.666671" stroke-linejoin="round"/>
<path d="M8.13477 7.46655L8.80144 7.84953V8.66656" stroke="white" stroke-width="0.666671" stroke-linecap="round" stroke-linejoin="round"/>
<path d="M9.80078 10.2666L10.4675 10.6496V11.4666" stroke="white" stroke-width="0.666671" stroke-linecap="round" stroke-linejoin="round"/>
<path d="M11.2324 10.1666L12.9658 9.1333" stroke="white" stroke-width="0.666671" stroke-linecap="round" stroke-linejoin="round"/>
<circle cx="5.26797" cy="2.6" r="0.600004" fill="white"/>
<circle cx="10.7348" cy="2.6" r="0.600004" fill="white"/>
<circle cx="1.93399" cy="8.79996" r="0.600004" fill="white"/>
<circle cx="4.46719" cy="13.3334" r="0.600004" fill="white"/>
<circle cx="14.0668" cy="8.53335" r="0.600004" fill="white"/>
</svg>
