<svg width="32" height="32" viewBox="0 0 32 32" fill="none" xmlns="http://www.w3.org/2000/svg">
<path fill-rule="evenodd" clip-rule="evenodd" d="M15.2157 5.41598C15.683 5.07643 16.3159 5.07643 16.7832 5.41598L25.9365 12.0666C26.4038 12.4062 26.5994 13.008 26.4209 13.5573L22.9249 24.3173C22.7464 24.8667 22.2344 25.2386 21.6568 25.2386H10.3421C9.76448 25.2386 9.25253 24.8667 9.07404 24.3173L5.57804 13.5573C5.39955 13.008 5.59508 12.4062 6.06238 12.0666L15.2157 5.41598ZM8.41353 13.6546L11.3109 22.572H20.6881L23.5854 13.6546L15.9995 8.14277L8.41353 13.6546Z" fill="currentColor"/>
<path fill-rule="evenodd" clip-rule="evenodd" d="M22.3492 14.6101L20.1665 21.3274L18.8984 20.9154L21.0811 14.1981L22.3492 14.6101Z" fill="currentColor"/>
<path fill-rule="evenodd" clip-rule="evenodd" d="M11.834 21.3274L9.65137 14.6101L10.9194 14.1981L13.1021 20.9154L11.834 21.3274Z" fill="currentColor"/>
</svg>
