<svg width="18" height="18" viewBox="0 0 18 18" fill="none" xmlns="http://www.w3.org/2000/svg">
<path d="M3.67467 12.1015L9.01975 15.1875L9.02368 15.1852V14.3914L9.01975 14.3936L4.36217 11.7046L3.67467 12.1015Z" fill="currentColor"/>
<path d="M13.6908 11.6897V6.3104L14.3783 5.91347V12.0866L13.6908 11.6897Z" fill="currentColor"/>
<path d="M9.02369 2.8148L9.01972 2.8125L3.66158 5.90602L4.34908 6.30295L9.01972 3.60636L9.02369 3.60865V2.8148Z" fill="currentColor"/>
<path fill-rule="evenodd" clip-rule="evenodd" d="M9.01971 0.75L16.1644 4.875V13.125L9.01971 17.25L1.875 13.125V4.875L9.01971 0.75ZM2.5625 5.27193L9.01971 1.54386L15.4769 5.27193V12.7281L9.01971 16.4561L2.5625 12.7281V5.27193Z" fill="currentColor"/>
</svg>
