<svg xmlns="http://www.w3.org/2000/svg" width="24" height="24" viewBox="0 0 24 24" fill="none">
<path d="M7.44474 15.5H4.14632C3.78937 15.5 3.5 15.7686 3.5 16.1V19.162C3.5 19.4934 3.78937 19.762 4.14632 19.762H7.44474C7.80169 19.762 8.09106 19.4934 8.09106 19.162V16.1C8.09106 15.7686 7.80169 15.5 7.44474 15.5Z" fill="#333333"/>
<path d="M13.6518 15.5H10.3534C9.9964 15.5 9.70703 15.7686 9.70703 16.1V19.162C9.70703 19.4934 9.9964 19.762 10.3534 19.762H13.6518C14.0087 19.762 14.2981 19.4934 14.2981 19.162V16.1C14.2981 15.7686 14.0087 15.5 13.6518 15.5Z" fill="#333333"/>
<path d="M19.8549 15.5H16.5565C16.1995 15.5 15.9102 15.7686 15.9102 16.1V19.162C15.9102 19.4934 16.1995 19.762 16.5565 19.762H19.8549C20.2119 19.762 20.5012 19.4934 20.5012 19.162V16.1C20.5012 15.7686 20.2119 15.5 19.8549 15.5Z" fill="#333333"/>
<path d="M10.8048 7.00003C10.5441 7.00003 10.3455 6.78614 10.2145 6.56077C10.1647 6.47523 10.1011 6.40006 10.0236 6.33526C9.83609 6.17617 9.55058 6.09662 9.16705 6.09662C8.92273 6.09662 8.72245 6.12645 8.5662 6.18611C8.41279 6.24293 8.29916 6.32106 8.22529 6.42049C8.15143 6.51992 8.11308 6.63356 8.11023 6.7614C8.10455 6.86651 8.12302 6.96168 8.16563 7.04691C8.21109 7.12929 8.28211 7.20458 8.3787 7.27276C8.47529 7.3381 8.59887 7.39776 8.74944 7.45174C8.90001 7.50572 9.07899 7.55401 9.28637 7.59662L10.0023 7.75003C10.4852 7.85231 10.8986 7.98725 11.2423 8.15486C11.5861 8.32248 11.8673 8.51992 12.0861 8.74719C12.3048 8.97162 12.4653 9.22447 12.5676 9.50572C12.6727 9.78697 12.7267 10.0938 12.7296 10.4262C12.7267 11 12.5832 11.4858 12.2992 11.8836C12.0151 12.2813 11.6088 12.5838 11.0804 12.7912C10.5548 12.9986 9.92274 13.1023 9.1841 13.1023C8.42558 13.1023 7.76364 12.9901 7.1983 12.7657C6.6358 12.5412 6.1983 12.1961 5.8858 11.7301C5.65013 11.3734 5.50332 10.941 5.44537 10.4328C5.41399 10.1577 5.6421 9.93185 5.919 9.93185H7.19294C7.45876 9.93185 7.66417 10.1468 7.7599 10.3948C7.78906 10.4703 7.82487 10.5404 7.86734 10.6051C7.98666 10.787 8.15427 10.9247 8.37018 11.0185C8.58893 11.1122 8.84887 11.1591 9.15001 11.1591C9.40285 11.1591 9.6145 11.1279 9.78495 11.0654C9.95541 11.0029 10.0847 10.9162 10.1727 10.8054C10.2608 10.6946 10.3063 10.5682 10.3091 10.4262C10.3063 10.2926 10.2622 10.1762 10.177 10.0767C10.0946 9.97447 9.95825 9.88356 9.76791 9.80401C9.57756 9.72162 9.32046 9.64492 8.9966 9.5739L8.12728 9.3864C7.35455 9.21878 6.74518 8.93895 6.29916 8.54691C5.85597 8.15202 5.6358 7.61367 5.63864 6.93185C5.6358 6.37787 5.78353 5.8935 6.08183 5.47873C6.38296 5.06111 6.79916 4.73583 7.33041 4.50287C7.8645 4.26992 8.47671 4.15344 9.16705 4.15344C9.8716 4.15344 10.481 4.27134 10.9952 4.50714C11.5094 4.74293 11.9057 5.07532 12.1841 5.5043C12.3799 5.80099 12.5083 6.1328 12.5691 6.49972C12.6145 6.7731 12.3849 7.00003 12.1077 7.00003H10.8048Z" fill="#333333"/>
<path d="M14.1308 13C13.8547 13 13.6308 12.7762 13.6308 12.5V4.77276C13.6308 4.49662 13.8547 4.27276 14.1308 4.27276H15.5001C15.7763 4.27276 16.0001 4.49662 16.0001 4.77276V10.5909C16.0001 10.8671 16.224 11.0909 16.5001 11.0909H19.0286C19.3047 11.0909 19.5286 11.3148 19.5286 11.5909V12.5C19.5286 12.7762 19.3047 13 19.0286 13H14.1308Z" fill="#333333"/>
</svg>
