<svg width="24" height="24" viewBox="0 0 24 24" fill="currentColor" xmlns="http://www.w3.org/2000/svg">
<path d="M7.02979 17.6152C6.34326 17.6152 6 17.5101 6 17.2998C6 17.1947 6.05257 17.0586 6.15771 16.8916L9.5625 11.5664L6.53809 6.73291C6.43294 6.54118 6.38037 6.40202 6.38037 6.31543C6.38037 6.22266 6.46696 6.14844 6.64014 6.09277C6.8195 6.03092 7.08236 6 7.42871 6H8.10596C8.63786 6 8.96566 6.10514 9.08936 6.31543L10.9727 9.38623L12.9487 6.31543C13.0415 6.19173 13.1652 6.10824 13.3198 6.06494C13.4806 6.02165 13.694 6 13.96 6H14.6001C15.2928 6 15.6392 6.10514 15.6392 6.31543C15.6392 6.43294 15.5866 6.5721 15.4814 6.73291L12.3643 11.6035L15.6577 16.8916C15.7567 17.0462 15.8062 17.1823 15.8062 17.2998C15.8062 17.5101 15.4598 17.6152 14.7671 17.6152H14.127C13.861 17.6152 13.6476 17.5936 13.4868 17.5503C13.326 17.507 13.2116 17.4235 13.1436 17.2998L10.9448 13.7559L8.6626 17.2998C8.57601 17.4421 8.4585 17.5317 8.31006 17.5688C8.16781 17.5998 7.95133 17.6152 7.66064 17.6152H7.02979Z" fill="currentColor"/>
<path d="M16.6504 9.14746C16.5885 9.14746 16.5316 9.05631 16.4795 8.87402C16.4307 8.69173 16.4062 8.52734 16.4062 8.38086C16.4062 8.32552 16.4144 8.28158 16.4307 8.24902L18.6279 5.56348C18.8493 5.28678 18.96 5.00846 18.96 4.72852C18.96 4.50391 18.8851 4.33138 18.7354 4.21094C18.5856 4.08724 18.3903 4.02539 18.1494 4.02539C17.9899 4.02539 17.8483 4.0498 17.7246 4.09863C17.6042 4.14746 17.4805 4.21257 17.3535 4.29395C17.3112 4.32324 17.2705 4.34766 17.2314 4.36719C17.1924 4.38672 17.1598 4.39648 17.1338 4.39648C17.0492 4.39648 16.9678 4.36393 16.8896 4.29883C16.8148 4.23372 16.7546 4.15397 16.709 4.05957C16.6634 3.96517 16.6406 3.87891 16.6406 3.80078C16.6406 3.63802 16.7253 3.49642 16.8945 3.37598C17.0638 3.25228 17.2803 3.15951 17.5439 3.09766C17.8109 3.03255 18.0859 3 18.3691 3C18.7663 3 19.1064 3.07324 19.3896 3.21973C19.6761 3.36296 19.8926 3.56315 20.0391 3.82031C20.1855 4.07422 20.2588 4.36719 20.2588 4.69922C20.2588 4.96615 20.2116 5.21842 20.1172 5.45605C20.026 5.69368 19.8975 5.91341 19.7314 6.11523L18.1006 8.13184H20.1025C20.1937 8.13184 20.2604 8.16764 20.3027 8.23926C20.3451 8.30762 20.3662 8.41667 20.3662 8.56641V8.71289C20.3662 8.86263 20.3451 8.97331 20.3027 9.04492C20.2604 9.11328 20.1937 9.14746 20.1025 9.14746H16.6504Z" fill="currentColor"/>
</svg>
