<svg width="24" height="24" viewBox="0 0 24 24" fill="currentColor" xmlns="http://www.w3.org/2000/svg">
<path d="M8.06557 18.87C7.50575 18.87 7.07808 18.3703 7.1645 17.8172C7.23386 17.3733 7.61624 17.046 8.06557 17.046H10.097L11.712 6.824H9.97658C9.41302 6.824 8.98434 6.31796 9.07699 5.76207C9.15028 5.32231 9.53076 5 9.97658 5H15.8144C16.3742 5 16.8019 5.49969 16.7155 6.05279C16.6461 6.49673 16.2638 6.824 15.8144 6.824H13.783L12.168 17.046H13.9034C14.467 17.046 14.8957 17.552 14.803 18.1079C14.7297 18.5477 14.3492 18.87 13.9034 18.87H8.06557Z" fill="currentColor"/>
</svg>
