<svg width="48" height="48" viewBox="0 0 48 48" fill="none" xmlns="http://www.w3.org/2000/svg">
<path d="M22.001 6L22.001 42H26.001V6H22.001Z" fill="currentColor"/>
<path d="M18.271 40H11.601C10.6462 40 9.73052 39.6207 9.05539 38.9456C8.38026 38.2705 8.00098 37.3548 8.00098 36.4V11.6C8.00098 10.6452 8.38026 9.72955 9.05539 9.05442C9.73052 8.37928 10.6462 8 11.601 8H18.271V12H12.001V36H18.271V40Z" fill="currentColor"/>
<path d="M36.001 8H36.401C37.3558 8 38.2714 8.37928 38.9466 9.05442C39.6217 9.72955 40.001 10.6452 40.001 11.6V12H36.001V8Z" fill="currentColor"/>
<path d="M40.001 36V36.4C40.001 37.3548 39.6217 38.2705 38.9466 38.9456C38.2714 39.6207 37.3558 40 36.401 40H36.001V36H40.001Z" fill="currentColor"/>
<path d="M34.535 36H30.001V40H34.535V36Z" fill="currentColor"/>
<path d="M34.535 8H30.001V12H34.535V8Z" fill="currentColor"/>
<path d="M36.001 14.5981V19.1321H40.001V14.5981H36.001Z" fill="currentColor"/>
<path d="M36.001 21.732V26.266H40.001V21.732H36.001Z" fill="currentColor"/>
<path d="M36.001 28.866V33.4H40.001V28.866H36.001Z" fill="currentColor"/>
</svg>
