<svg width="48" height="48" viewBox="0 0 48 48" fill="none" xmlns="http://www.w3.org/2000/svg">
<path d="M30.4892 35.5656L22.5518 42.2926L21.9292 38.8543C19.5112 38.5171 17.2121 37.5949 15.2315 36.1676C13.2509 34.7403 11.6485 32.8512 10.5636 30.6642C9.47864 28.4772 8.94391 26.0584 9.0058 23.6179C9.06769 21.1773 9.72433 18.7888 10.9187 16.6595L13.95 18.3639C13.0814 19.9136 12.5829 21.6432 12.4934 23.4174C12.4038 25.1917 12.7258 26.9627 13.434 28.5919C14.1422 30.2212 15.2175 31.6647 16.576 32.8095C17.9344 33.9544 19.5391 34.7697 21.2648 35.1917L20.6961 32.0613L30.4892 35.5656Z" fill="#231F20"/>
<path d="M37.0822 31.3413L34.0509 29.637C34.9195 28.0873 35.418 26.3577 35.5075 24.5834C35.597 22.8091 35.2751 21.0382 34.5669 19.4089C33.8587 17.7797 32.7834 16.3362 31.4249 15.1913C30.0665 14.0464 28.4618 13.2311 26.7361 12.8091L27.3048 15.9483L17.5117 12.4352L25.4491 5.70825L26.0717 9.14652C28.4897 9.48372 30.7887 10.406 32.7694 11.8333C34.75 13.2605 36.3524 15.1497 37.4373 17.3367C38.5222 19.5237 39.057 21.9425 38.9951 24.383C38.9332 26.8236 38.2766 29.2121 37.0822 31.3413Z" fill="#231F20"/>
</svg>
