<svg width="18" height="18" viewBox="0 0 18 18" fill="none" xmlns="http://www.w3.org/2000/svg">
<path fill-rule="evenodd" clip-rule="evenodd" d="M3.99987 1.51677C5.47991 0.527841 7.21997 0 9 0C11.387 0 13.6761 0.948211 15.364 2.63604C17.0518 4.32387 18 6.61305 18 9C18 10.78 17.4722 12.5201 16.4832 14.0001C15.4943 15.4802 14.0887 16.6337 12.4442 17.3149C10.7996 17.9961 8.99002 18.1743 7.24419 17.8271C5.49836 17.4798 3.89472 16.6226 2.63604 15.364C1.37737 14.1053 0.520203 12.5016 0.172937 10.7558C-0.17433 9.00998 0.00389957 7.20038 0.685088 5.55585C1.36628 3.91131 2.51983 2.50571 3.99987 1.51677ZM10 3H8V11.5H10V3ZM10 13.8333C10 14.3856 9.55229 14.8333 9 14.8333C8.44771 14.8333 8 14.3856 8 13.8333C8 13.2811 8.44771 12.8333 9 12.8333C9.55229 12.8333 10 13.2811 10 13.8333Z" fill="currentColor"/>
</svg>
