<?xml version="1.0" standalone="no"?><!DOCTYPE svg PUBLIC "-//W3C//DTD SVG 1.1//EN" "http://www.w3.org/Graphics/SVG/1.1/DTD/svg11.dtd"><svg t="1697079816856" class="icon" viewBox="0 0 1024 1024" version="1.1" xmlns="http://www.w3.org/2000/svg" p-id="4263" xmlns:xlink="http://www.w3.org/1999/xlink" width="16" height="16"><path d="M921.728 654.4a428.352 428.352 0 1 0-647.04 203.264c3.2 2.24 7.488 1.856 10.24-0.896l43.2-43.2a8 8 0 0 0-1.28-12.352 352.256 352.256 0 1 1 462.592-67.968l-70.4-69.76a8 8 0 0 0-13.632 4.608l-27.904 219.776a8 8 0 0 0 9.024 8.96l219.52-29.952a8 8 0 0 0 4.48-13.632l-67.008-66.368a431.36 431.36 0 0 0 78.208-132.48z" fill="currentcolor" p-id="4264"></path></svg>