<svg width="16" height="16" viewBox="0 0 16 16" fill="currentColor" xmlns="http://www.w3.org/2000/svg">
<path d="M7.74432 11.1362C7.19886 11.1305 6.72017 10.9828 6.30824 10.693C5.89631 10.4032 5.57528 10.0027 5.34517 9.4913C5.11506 8.97994 5 8.39187 5 7.7271C5 7.068 5.12074 6.48704 5.36222 5.9842C5.60369 5.47852 5.93466 5.08363 6.35511 4.79954C6.77841 4.51261 7.25994 4.36914 7.79972 4.36914C8.18324 4.36914 8.51989 4.44158 8.80966 4.58647C9.09943 4.72852 9.34659 4.92738 9.55114 5.18306C9.75852 5.43874 9.92898 5.73562 10.0625 6.07369H10.5057L10.7571 7.71005L11.5923 10.9998H10.5014L9.71733 7.71005C9.67472 7.49982 9.6108 7.26545 9.52557 7.00692C9.44034 6.7484 9.32812 6.50124 9.18892 6.26545C9.04972 6.02965 8.87358 5.83505 8.66051 5.68164C8.45028 5.52823 8.19602 5.45153 7.89773 5.45153C7.57102 5.45153 7.28409 5.54954 7.03693 5.74556C6.78977 5.93874 6.59801 6.20721 6.46165 6.55096C6.32528 6.89471 6.2571 7.28959 6.2571 7.73562C6.2571 8.17312 6.32244 8.56658 6.45312 8.91602C6.58665 9.26545 6.77131 9.54102 7.0071 9.74272C7.2429 9.94158 7.51847 10.041 7.83381 10.041C8.12074 10.041 8.37216 9.96289 8.58807 9.80664C8.80398 9.65039 8.98722 9.45153 9.13778 9.21005C9.28835 8.96857 9.41051 8.71715 9.50426 8.45579C9.60085 8.19158 9.67188 7.95437 9.71733 7.74414L10.4205 4.45437H11.5071L10.7571 7.74414L10.5057 9.40181H10.1009C9.96449 9.73988 9.78835 10.041 9.57244 10.3052C9.35937 10.5666 9.10085 10.7711 8.79688 10.9189C8.49574 11.0666 8.14489 11.139 7.74432 11.1362Z" fill="currentColor"/>
</svg>
