<svg width="16" height="16" viewBox="0 0 16 16" fill="currentColor" xmlns="http://www.w3.org/2000/svg">
<path d="M7.23722 6.95446H8.0767C8.67614 6.95446 9.17045 7.07804 9.55966 7.3252C9.9517 7.56951 10.2429 7.88627 10.4332 8.27548C10.6236 8.66184 10.7188 9.06951 10.7188 9.49849C10.7188 9.99565 10.6023 10.4417 10.3693 10.8366C10.1364 11.2314 9.81818 11.5425 9.41477 11.7698C9.01136 11.9971 8.55256 12.1107 8.03835 12.1107C7.73153 12.1107 7.42756 12.0581 7.12642 11.953C6.82813 11.8451 6.55824 11.6448 6.31676 11.3522L6.25284 11.382V9.50701C6.25284 9.77122 6.31676 10.0155 6.4446 10.24C6.57244 10.4644 6.75426 10.6434 6.99006 10.7769C7.22585 10.9104 7.5071 10.9772 7.83381 10.9772C8.17188 10.9772 8.46165 10.9076 8.70312 10.7684C8.94744 10.6263 9.13636 10.4403 9.26989 10.2101C9.40341 9.97718 9.47017 9.72292 9.47017 9.44735C9.47017 9.17463 9.40625 8.92463 9.27841 8.69735C9.15341 8.47008 8.97869 8.28684 8.75426 8.14764C8.52983 8.00843 8.27131 7.93883 7.97869 7.93883H7.23722V6.95446ZM7.7017 3.15332C8.09943 3.15332 8.46023 3.21582 8.78409 3.34082C9.10795 3.46298 9.38636 3.63201 9.61932 3.84792C9.85227 4.06099 10.0313 4.30673 10.1563 4.58514C10.2813 4.86355 10.3438 5.15758 10.3438 5.46724C10.3438 5.84224 10.2486 6.21156 10.0582 6.5752C9.87074 6.93883 9.58665 7.23997 9.20597 7.4786C8.82813 7.71724 8.35369 7.83656 7.78267 7.83656H7.23722V6.87775H7.6804C7.99574 6.87775 8.25852 6.81383 8.46875 6.68599C8.67898 6.55531 8.83665 6.39054 8.94176 6.19167C9.04688 5.98997 9.09943 5.78116 9.09943 5.56525C9.09943 5.20162 8.96591 4.90048 8.69886 4.66184C8.43466 4.42321 8.10227 4.30389 7.7017 4.30389C7.43466 4.30389 7.19176 4.35929 6.97301 4.47008C6.75426 4.58088 6.57955 4.73855 6.44886 4.94309C6.31818 5.1448 6.25284 5.38059 6.25284 5.65048V14.4545H5V5.61639C5 5.13343 5.1179 4.7073 5.35369 4.33798C5.58949 3.96582 5.91051 3.67605 6.31676 3.46866C6.72585 3.25843 7.1875 3.15332 7.7017 3.15332Z" fill="currentColor"/>
</svg>
