<svg width="16" height="16" viewBox="0 0 16 16" fill="currentColor" xmlns="http://www.w3.org/2000/svg">
<path d="M6.27131 4.58514C6.26847 4.06809 6.47301 3.65332 6.88494 3.34082C7.29972 3.02832 7.8679 2.87207 8.58949 2.87207C8.88778 2.87207 9.15909 2.89764 9.40341 2.94877C9.64773 2.99707 9.90483 3.06951 10.1747 3.1661V4.28684C10.0043 4.21866 9.77841 4.14906 9.49716 4.07804C9.21591 4.00701 8.93324 3.9715 8.64915 3.9715C8.31676 3.9715 8.06392 4.02832 7.89062 4.14196C7.72017 4.25559 7.63494 4.40474 7.63494 4.5894C7.63494 4.68315 7.66619 4.78258 7.72869 4.8877C7.79119 4.99281 7.90625 5.10218 8.07386 5.21582C8.24148 5.32662 8.48438 5.43883 8.80256 5.55247C9.70028 5.86497 10.358 6.29679 10.7756 6.84792C11.1932 7.39906 11.402 8.07093 11.402 8.86355V8.98287C11.402 9.5823 11.2841 10.1192 11.0483 10.5937C10.8153 11.0653 10.4801 11.4374 10.0426 11.7101C9.60795 11.9829 9.08949 12.1192 8.48722 12.1192C7.87074 12.1192 7.34233 11.9843 6.90199 11.7144C6.46449 11.4445 6.12926 11.0752 5.89631 10.6064C5.66335 10.1377 5.54688 9.60787 5.54688 9.01696V8.89764C5.54688 8.45446 5.6321 8.04679 5.80256 7.67463C5.97301 7.30247 6.2017 6.98855 6.48864 6.73287C6.77841 6.47718 7.09801 6.30673 7.44744 6.2215L7.44318 6.18741C7.0767 6.02548 6.78977 5.80957 6.58239 5.53968C6.375 5.26696 6.27131 4.94877 6.27131 4.58514ZM6.9233 8.83798V8.94877C6.9233 9.3323 6.97869 9.68031 7.08949 9.99281C7.20313 10.3053 7.375 10.5553 7.60511 10.7428C7.83807 10.9275 8.1321 11.0198 8.48722 11.0198C8.83665 11.0198 9.125 10.9275 9.35227 10.7428C9.57955 10.5553 9.74858 10.3053 9.85938 9.99281C9.97017 9.68031 10.0256 9.3323 10.0256 8.94877V8.83798C10.0256 8.53116 9.96165 8.23145 9.83381 7.93883C9.70597 7.64622 9.52557 7.39338 9.29261 7.18031C9.0625 6.96724 8.79403 6.82946 8.48722 6.76696C8.1321 6.76696 7.83949 6.86213 7.60938 7.05247C7.37926 7.23997 7.20739 7.48997 7.09375 7.80247C6.98011 8.11497 6.9233 8.46014 6.9233 8.83798Z" fill="currentColor"/>
</svg>
