<svg width="16" height="16" viewBox="0 0 16 16" fill="currentColor" xmlns="http://www.w3.org/2000/svg">
<path d="M8.05966 8.58221H9.08665V9.13192H8.25568C7.98011 9.13192 7.7358 9.17454 7.52273 9.25977C7.3125 9.34499 7.14631 9.46289 7.02415 9.61346C6.90483 9.76119 6.84517 9.93448 6.84517 10.1333C6.84517 10.4032 6.98011 10.6262 7.25 10.8024C7.51989 10.9757 7.88494 11.0623 8.34517 11.0623C8.79688 11.0623 9.14205 10.9828 9.38068 10.8237C9.61932 10.6646 9.77273 10.4231 9.84091 10.0993H11.1236C11.0952 10.4118 11.0057 10.693 10.8551 10.943C10.7074 11.193 10.5099 11.4061 10.2628 11.5822C10.0185 11.7555 9.73295 11.889 9.40625 11.9828C9.08239 12.0737 8.72727 12.1191 8.34091 12.1191C7.8125 12.1191 7.33807 12.041 6.91761 11.8848C6.5 11.7285 6.16903 11.5083 5.92472 11.2243C5.68324 10.9402 5.5625 10.6064 5.5625 10.2228C5.5625 10.0297 5.60085 9.83647 5.67756 9.64329C5.7571 9.45011 5.8892 9.27397 6.07386 9.11488C6.26136 8.95579 6.51562 8.82795 6.83665 8.73136C7.16051 8.63192 7.56818 8.58221 8.05966 8.58221ZM9.08665 8.85067H8.05966C7.58807 8.85067 7.19744 8.8038 6.88778 8.71005C6.57813 8.6163 6.33523 8.49414 6.15909 8.34357C5.98295 8.19016 5.85795 8.02113 5.78409 7.83647C5.71307 7.64897 5.67756 7.46431 5.67756 7.28249C5.67756 6.87908 5.78977 6.53533 6.0142 6.25124C6.23864 5.96431 6.54972 5.74556 6.94744 5.59499C7.34517 5.44442 7.8054 5.36914 8.32812 5.36914C8.83097 5.36914 9.27557 5.44585 9.66193 5.59925C10.0511 5.74982 10.3622 5.96857 10.5952 6.2555C10.8281 6.53959 10.9659 6.88192 11.0085 7.28249H9.72159C9.66477 7.01261 9.51278 6.80096 9.26562 6.64755C9.02131 6.4913 8.69886 6.41317 8.2983 6.41317C7.87784 6.41317 7.54688 6.49982 7.3054 6.67312C7.06392 6.84641 6.94176 7.06516 6.93892 7.32937C6.94176 7.57653 7.05398 7.77539 7.27557 7.92596C7.49716 8.07369 7.82386 8.14755 8.25568 8.14755H9.08665V8.85067Z" fill="currentColor"/>
</svg>
