<svg width="16" height="16" viewBox="0 0 16 16" fill="currentColor" xmlns="http://www.w3.org/2000/svg">
<path d="M10.0394 3.27295H10.7511V4.10818L8.68857 6.74596C8.39027 7.13232 8.13317 7.47181 7.91726 7.76443C7.70419 8.0542 7.53942 8.34397 7.42294 8.63374C7.3093 8.92352 7.25249 9.26159 7.25249 9.64795C7.25249 9.9292 7.33771 10.1735 7.50817 10.3809C7.67862 10.5854 7.91584 10.7318 8.21982 10.8198L8.89737 11.0244C9.41158 11.1778 9.81072 11.3781 10.0948 11.6252C10.3789 11.8695 10.521 12.1394 10.521 12.4349C10.521 12.7303 10.4158 13.0386 10.2056 13.3596C9.99538 13.6806 9.70703 13.9818 9.34055 14.263L8.62891 13.6835C8.80504 13.4931 8.93857 13.3085 9.02947 13.1295C9.12322 12.9505 9.17152 12.7971 9.17436 12.6693C9.1772 12.5556 9.10618 12.4448 8.96129 12.3369C8.81925 12.2318 8.62038 12.1437 8.3647 12.0727L7.86612 11.932C7.26669 11.7673 6.80078 11.4931 6.46839 11.1096C6.13601 10.7261 5.96982 10.2744 5.96982 9.75448C5.96982 9.38801 6.00675 9.0542 6.08061 8.75306C6.15732 8.44909 6.26669 8.15931 6.40874 7.88374C6.55078 7.60818 6.72408 7.33403 6.92862 7.0613C7.13317 6.78573 7.36612 6.49312 7.62749 6.18346L10.0394 3.27295ZM5.53516 3.27295H10.244V4.40221H5.53516V3.27295Z" fill="currentColor"/>
</svg>
