<svg width="16" height="16" viewBox="0 0 16 16" fill="currentColor" xmlns="http://www.w3.org/2000/svg">
<path d="M6.12962 7.11346V10.9998H4.85547V4.45437H6.07848V5.51971H6.15945C6.31286 5.17028 6.55007 4.89187 6.87109 4.68448C7.19212 4.47425 7.59837 4.36914 8.08984 4.36914C8.53871 4.36914 8.92933 4.46289 9.26172 4.65039C9.59695 4.83505 9.85689 5.11062 10.0415 5.4771C10.2262 5.84357 10.3185 6.2967 10.3185 6.83647V13.4544H9.04439V6.98988C9.04439 6.51545 8.92081 6.14471 8.67365 5.87766C8.42933 5.60778 8.08984 5.47283 7.65518 5.47283C7.36257 5.47283 7.10121 5.53675 6.87109 5.6646C6.64098 5.79244 6.45916 5.97994 6.32564 6.2271C6.19496 6.47141 6.12962 6.76687 6.12962 7.11346Z" fill="currentColor"/>
</svg>
