<svg width="16" height="16" viewBox="0 0 16 16" fill="currentColor" xmlns="http://www.w3.org/2000/svg">
<path d="M10.6112 7.17165V8.25404H6.38814V7.17165H10.6112ZM11.2717 7.08216V8.27535C11.2717 9.15319 11.1552 9.8762 10.9222 10.4444C10.6921 11.0126 10.3683 11.4344 9.95064 11.71C9.53303 11.9827 9.04439 12.1191 8.48473 12.1191C7.92507 12.1191 7.43359 11.9827 7.0103 11.71C6.587 11.4344 6.25746 11.0126 6.02166 10.4444C5.78587 9.8762 5.66797 9.15319 5.66797 8.27535V7.08216C5.66797 6.21285 5.78445 5.49836 6.0174 4.9387C6.25036 4.37904 6.57706 3.96427 6.99751 3.69438C7.41797 3.42449 7.90803 3.28955 8.46768 3.28955C9.03303 3.28955 9.5245 3.42449 9.94212 3.69438C10.3626 3.96427 10.6893 4.37904 10.9222 4.9387C11.1552 5.49836 11.2717 6.21285 11.2717 7.08216ZM10.0018 8.47989V6.87336C10.0018 6.32222 9.93786 5.86199 9.81001 5.49268C9.68217 5.12052 9.5032 4.84211 9.27308 4.65745C9.04297 4.46995 8.7745 4.3762 8.46768 4.3762C8.00746 4.3762 7.6353 4.58927 7.35121 5.0154C7.06712 5.44154 6.92507 6.06086 6.92507 6.87336V8.47989C6.92507 9.29807 7.06854 9.92734 7.35547 10.3677C7.64524 10.808 8.02166 11.0282 8.48473 11.0282C8.79155 11.0282 9.05717 10.9316 9.28161 10.7384C9.50888 10.5452 9.68501 10.2597 9.81001 9.88188C9.93786 9.5012 10.0018 9.03387 10.0018 8.47989Z" fill="currentColor"/>
</svg>
