<svg width="16" height="16" viewBox="0 0 16 16" fill="currentColor" xmlns="http://www.w3.org/2000/svg">
<path d="M10.1793 12.0937C9.8299 12.0937 9.52308 11.9971 9.25888 11.8039C8.99751 11.6079 8.79439 11.3124 8.6495 10.9175L7.23473 6.87349L6.79155 5.79963L6.54013 5.1519C6.42933 4.87065 6.31286 4.66042 6.1907 4.52122C6.06854 4.38201 5.91939 4.30105 5.74325 4.27832C5.56712 4.25559 5.34268 4.27974 5.06996 4.35076L4.76314 3.28968C4.84837 3.25559 4.96058 3.22434 5.09979 3.19593C5.24183 3.16752 5.40092 3.15332 5.57706 3.15332C6.06854 3.15332 6.48473 3.28116 6.82564 3.53684C7.16655 3.78968 7.43217 4.16895 7.62251 4.67463L9.7745 10.4488C9.83416 10.605 9.89808 10.7371 9.96626 10.8451C10.0344 10.953 10.1523 11.007 10.32 11.007C10.3512 11.007 10.3896 11.0056 10.435 11.0028C10.4805 10.9971 10.5146 10.9928 10.5373 10.99L10.7418 12.0255C10.6594 12.0482 10.5671 12.0653 10.4648 12.0766C10.3654 12.0908 10.2702 12.0965 10.1793 12.0937ZM4.37109 11.9999L6.9407 5.08372L7.59268 7.35076H7.32848L5.72195 11.9999H4.37109Z" fill="currentColor"/>
</svg>
