<svg width="16" height="16" viewBox="0 0 16 16" fill="currentColor" xmlns="http://www.w3.org/2000/svg">
<path d="M4.85547 14.429V5.45459H6.12962V9.28556C6.12962 9.60942 6.19922 9.89493 6.33842 10.1421C6.48047 10.3892 6.67791 10.5824 6.93075 10.7216C7.18643 10.858 7.48331 10.9262 7.82138 10.9262C8.15945 10.9262 8.4549 10.8566 8.70774 10.7174C8.96342 10.5782 9.16087 10.3864 9.30007 10.1421C9.44212 9.89493 9.51314 9.60942 9.51314 9.28556V5.45459H10.7873V12H9.53445V11.0412H9.48331C9.32422 11.3651 9.09553 11.6137 8.79723 11.787C8.49893 11.9574 8.17365 12.0427 7.82138 12.0427C7.46911 12.0427 7.14382 11.9574 6.84553 11.787C6.55007 11.6137 6.31996 11.3651 6.15518 11.0412H6.10405V14.429H4.85547Z" fill="currentColor"/>
</svg>
