<svg width="16" height="16" viewBox="0 0 16 16" fill="currentColor" xmlns="http://www.w3.org/2000/svg">
<path d="M10.6353 3.41752L10.4308 4.49139C9.91371 4.34366 9.462 4.2698 9.07564 4.2698C8.75178 4.2698 8.47479 4.31099 8.24467 4.39338C8.01456 4.47576 7.83842 4.59792 7.71626 4.75985C7.59695 4.91895 7.53729 5.11355 7.53729 5.34366C7.53729 5.70446 7.68359 5.98003 7.97621 6.17037C8.26882 6.36071 8.68359 6.45588 9.22053 6.45588H10.0813V7.26127H9.1907C8.56286 7.26127 8.02166 7.18173 7.56712 7.02264C7.11541 6.86071 6.7674 6.63059 6.52308 6.3323C6.27876 6.03116 6.15661 5.67037 6.15661 5.24991C6.15661 4.82946 6.27592 4.46298 6.51456 4.15048C6.75604 3.83514 7.09126 3.59082 7.52024 3.41752C7.95206 3.24139 8.45348 3.15332 9.0245 3.15332C9.32564 3.15332 9.61541 3.17605 9.89382 3.2215C10.1751 3.26696 10.4222 3.3323 10.6353 3.41752ZM9.20348 6.784H10.0813V7.57662H9.23757C8.78018 7.57662 8.3924 7.64196 8.07422 7.77264C7.75888 7.90048 7.52024 8.09224 7.35831 8.34792C7.19638 8.60076 7.11541 8.91895 7.11541 9.30247C7.11541 9.72292 7.24183 10.0724 7.49467 10.3508C7.75036 10.6292 8.1282 10.8266 8.6282 10.9431L9.30575 11.0965C9.87393 11.2272 10.2802 11.3948 10.5245 11.5993C10.7688 11.8039 10.891 12.0667 10.891 12.3877C10.8853 12.5979 10.8327 12.8167 10.7333 13.0439C10.6367 13.2712 10.5018 13.4928 10.3285 13.7087C10.1552 13.9275 9.95348 14.1292 9.72337 14.3138L8.96484 13.7471C9.20348 13.4942 9.35973 13.2883 9.43359 13.1292C9.50746 12.9729 9.54439 12.8422 9.54439 12.7371C9.54439 12.5724 9.48331 12.4431 9.36115 12.3493C9.23899 12.2556 9.03161 12.176 8.73899 12.1107L8.16371 11.9445C7.3228 11.7513 6.70632 11.4545 6.31428 11.0539C5.92507 10.6533 5.73047 10.1164 5.73047 9.44309C5.73047 8.57093 6.02734 7.91042 6.62109 7.46156C7.21768 7.00985 8.07848 6.784 9.20348 6.784Z" fill="currentColor"/>
</svg>
