<svg width="16" height="16" viewBox="0 0 16 16" fill="currentColor" xmlns="http://www.w3.org/2000/svg">
<path d="M7.61364 12.1319C7 12.1319 6.46449 11.9913 6.0071 11.71C5.54972 11.4288 5.1946 11.0353 4.94176 10.5297C4.68892 10.024 4.5625 9.43306 4.5625 8.75692C4.5625 8.07795 4.68892 7.4842 4.94176 6.97567C5.1946 6.46715 5.54972 6.07227 6.0071 5.79102C6.46449 5.50977 7 5.36914 7.61364 5.36914C8.22727 5.36914 8.76278 5.50977 9.22017 5.79102C9.67756 6.07227 10.0327 6.46715 10.2855 6.97567C10.5384 7.4842 10.6648 8.07795 10.6648 8.75692C10.6648 9.43306 10.5384 10.024 10.2855 10.5297C10.0327 11.0353 9.67756 11.4288 9.22017 11.71C8.76278 11.9913 8.22727 12.1319 7.61364 12.1319ZM7.6179 11.0623C8.01563 11.0623 8.34517 10.9572 8.60653 10.747C8.8679 10.5368 9.06108 10.2569 9.18608 9.90749C9.31392 9.55806 9.37784 9.17312 9.37784 8.75266C9.37784 8.33505 9.31392 7.95153 9.18608 7.6021C9.06108 7.24982 8.8679 6.96715 8.60653 6.75408C8.34517 6.54102 8.01563 6.43448 7.6179 6.43448C7.21733 6.43448 6.88494 6.54102 6.62074 6.75408C6.35938 6.96715 6.16477 7.24982 6.03693 7.6021C5.91193 7.95153 5.84943 8.33505 5.84943 8.75266C5.84943 9.17312 5.91193 9.55806 6.03693 9.90749C6.16477 10.2569 6.35938 10.5368 6.62074 10.747C6.88494 10.9572 7.21733 11.0623 7.6179 11.0623Z" fill="currentColor"/>
</svg>
