<svg width="16" height="16" viewBox="0 0 16 16" fill="currentColor" xmlns="http://www.w3.org/2000/svg">
<path d="M11.2511 5.45459V6.52419H4.53516V5.45459H11.2511ZM6.79368 5.45459V12H5.53658V5.45459H6.79368ZM9.01811 5.45459H10.2752V10.2358C10.2752 10.4319 10.3079 10.5796 10.3732 10.679C10.4414 10.7785 10.5295 10.8466 10.6374 10.8836C10.7482 10.9177 10.8675 10.9347 10.9954 10.9347C11.0891 10.9347 11.1829 10.9262 11.2766 10.9091C11.3732 10.8921 11.4499 10.8779 11.5067 10.8665V11.9361C11.3988 11.9674 11.2667 11.9986 11.1104 12.0299C10.9542 12.064 10.7724 12.081 10.565 12.081C10.1076 12.081 9.73544 11.9475 9.44851 11.6804C9.16442 11.4134 9.02095 10.956 9.01811 10.3083V5.45459Z" fill="currentColor"/>
</svg>
