<svg width="16" height="16" viewBox="0 0 16 16" fill="currentColor" xmlns="http://www.w3.org/2000/svg">
<path d="M5.80469 14.4373V8.60778C5.80469 7.89187 5.92116 7.29386 6.15412 6.81374C6.38991 6.33363 6.7152 5.97283 7.12997 5.73136C7.54474 5.48988 8.01918 5.36914 8.55327 5.36914C9.02202 5.36914 9.43111 5.45579 9.78054 5.62908C10.13 5.79954 10.4226 6.04244 10.6584 6.35778C10.8942 6.67312 11.0703 7.0467 11.1868 7.47852C11.3061 7.90749 11.3658 8.3805 11.3658 8.89755V9.01687C11.3658 9.62482 11.2592 10.1618 11.0462 10.6277C10.8331 11.0936 10.5291 11.4586 10.1342 11.7228C9.74219 11.987 9.27344 12.1191 8.72798 12.1191C8.26207 12.1191 7.87571 12.0197 7.56889 11.8208C7.26491 11.622 7.01491 11.3422 6.81889 10.9814C6.62287 10.6177 6.45668 10.193 6.32031 9.70721L7.03622 9.0467C7.03622 9.25124 7.06037 9.46857 7.10866 9.69869C7.15696 9.9288 7.23935 10.1447 7.35582 10.3464C7.4723 10.5481 7.62855 10.7143 7.82457 10.845C8.02344 10.9728 8.27202 11.0368 8.57031 11.0368C8.92827 11.0368 9.21804 10.9416 9.43963 10.7512C9.66406 10.5609 9.82741 10.3123 9.92969 10.0055C10.032 9.69869 10.0831 9.36914 10.0831 9.01687V8.89755C10.0831 8.44869 10.0291 8.04244 9.92116 7.6788C9.81605 7.31516 9.64986 7.02681 9.42259 6.81374C9.19531 6.60067 8.89986 6.49414 8.53622 6.49414C8.17827 6.49414 7.88707 6.60067 7.66264 6.81374C7.44105 7.02397 7.28054 7.29386 7.18111 7.6234C7.08168 7.95295 7.03338 8.29528 7.03622 8.65039L7.06179 14.4373H5.80469Z" fill="currentColor"/>
</svg>
