<svg width="16" height="16" viewBox="0 0 16 16" fill="currentColor" xmlns="http://www.w3.org/2000/svg">
<path d="M4.71484 8.89782V8.76145C4.71484 8.17623 4.8299 7.64924 5.06001 7.18049C5.29013 6.71174 5.62251 6.341 6.05717 6.06827C6.49183 5.79554 7.01598 5.65918 7.62962 5.65918C7.74325 5.68475 7.84837 5.74441 7.94496 5.83816C8.04439 5.92907 8.15945 6.02992 8.29013 6.14071C8.42081 6.24867 8.59126 6.341 8.80149 6.4177C9.13672 6.54838 9.43359 6.73873 9.69212 6.98873C9.95348 7.23873 10.158 7.53702 10.3058 7.88361C10.4535 8.22736 10.5273 8.6052 10.5273 9.01713V9.13645C10.5273 9.66486 10.4137 10.1563 10.1864 10.6109C9.962 11.0626 9.6353 11.4276 9.20632 11.7061C8.77734 11.9816 8.25746 12.1194 7.64666 12.1194C7.02734 12.1194 6.49893 11.9774 6.06143 11.6933C5.62678 11.4092 5.29297 11.0242 5.06001 10.5384C4.8299 10.0526 4.71484 9.50577 4.71484 8.89782ZM6.09979 8.76145V8.89782C6.09979 9.28134 6.15092 9.63361 6.2532 9.95463C6.35831 10.2757 6.5245 10.5342 6.75178 10.7302C6.97905 10.9234 7.27734 11.02 7.64666 11.02C8.00178 11.02 8.28871 10.9234 8.50746 10.7302C8.72905 10.5342 8.88956 10.2757 8.98899 9.95463C9.09126 9.63361 9.1424 9.28134 9.1424 8.89782V8.76145C9.1424 8.4035 9.09126 8.07253 8.98899 7.76856C8.88956 7.46458 8.72763 7.22026 8.5032 7.0356C8.28161 6.85094 7.99041 6.75861 7.62962 6.75861C7.26882 6.75861 6.97621 6.85094 6.75178 7.0356C6.52734 7.22026 6.36257 7.46458 6.25746 7.76856C6.15234 8.07253 6.09979 8.4035 6.09979 8.76145ZM11.0131 5.65918V6.75861H7.62962V5.65918H11.0131Z" fill="currentColor"/>
</svg>
