<svg width="16" height="16" viewBox="0 0 16 16" fill="currentColor" xmlns="http://www.w3.org/2000/svg">
<path d="M10.7688 5.45459V6.55402H5.24609V5.45459H10.7688ZM7.31286 5.45459H8.56996V10.2827C8.56996 10.5071 8.60121 10.6705 8.66371 10.7728C8.72621 10.8722 8.80433 10.9361 8.89808 10.9645C8.99467 10.9901 9.09268 11.0029 9.19212 11.0029C9.30575 11.0029 9.40803 10.9858 9.49893 10.9517C9.58984 10.9177 9.67081 10.8836 9.74183 10.8495L9.98473 11.8296C9.79155 11.9517 9.60689 12.0299 9.43075 12.064C9.25746 12.1009 9.06996 12.1194 8.86825 12.1194C8.36541 12.1194 7.98047 11.9716 7.71342 11.6762C7.44638 11.3807 7.31286 10.9035 7.31286 10.2444V5.45459Z" fill="currentColor"/>
</svg>
