<svg width="16" height="16" viewBox="0 0 16 16" fill="currentColor" xmlns="http://www.w3.org/2000/svg">
<path d="M4.85547 5.45459H6.11257V9.51141C6.11257 9.88925 6.16655 10.189 6.2745 10.4106C6.38246 10.6321 6.52308 10.7912 6.69638 10.8878C6.87251 10.9844 7.05859 11.0327 7.25462 11.0327C7.58984 11.0327 7.88388 10.9248 8.13672 10.7089C8.38956 10.4929 8.587 10.2074 8.72905 9.85232C8.87109 9.49436 8.94212 9.10232 8.94212 8.67618C8.93643 8.34379 8.90092 7.99152 8.83558 7.61936C8.77024 7.24436 8.68501 6.87078 8.5799 6.49862C8.47479 6.12647 8.35973 5.77845 8.23473 5.45459H9.49609C9.61825 5.69323 9.73047 5.9901 9.83274 6.34521C9.93786 6.69749 10.0217 7.07675 10.0842 7.483C10.1467 7.88641 10.1779 8.28414 10.1779 8.67618C10.1779 9.13357 10.1225 9.56965 10.0117 9.98442C9.90376 10.3992 9.73331 10.7671 9.50036 11.0881C9.2674 11.4063 8.96768 11.6577 8.60121 11.8424C8.23757 12.027 7.80291 12.1194 7.29723 12.1194C6.56996 12.1194 5.98047 11.9091 5.52876 11.4887C5.0799 11.0682 4.85547 10.4035 4.85547 9.49436V5.45459Z" fill="currentColor"/>
</svg>
