<svg width="16" height="16" viewBox="0 0 16 16" fill="currentColor" xmlns="http://www.w3.org/2000/svg">
<path d="M6.9446 13.4544V5.86062C6.9446 5.35778 7.08807 4.9842 7.375 4.73988C7.66477 4.49272 8.06818 4.36914 8.58523 4.36914C9.14489 4.36914 9.64773 4.51119 10.0938 4.79528C10.5426 5.07937 10.8977 5.46999 11.1591 5.96715C11.4205 6.46431 11.5511 7.03249 11.5511 7.6717C11.5511 8.1234 11.4801 8.55664 11.3381 8.97141C11.1989 9.38335 10.9744 9.75124 10.6648 10.0751C10.3551 10.399 9.94744 10.6547 9.44176 10.8422C8.93608 11.0268 8.31818 11.1191 7.58807 11.1191C6.86364 11.1191 6.25142 11.024 5.75142 10.8336C5.25142 10.6404 4.84801 10.3777 4.54119 10.0453C4.23438 9.71005 4.01278 9.32511 3.87642 8.89045C3.74006 8.45579 3.67188 7.99698 3.67188 7.51403C3.67188 7.05664 3.72727 6.6305 3.83807 6.23562C3.9517 5.83789 4.11506 5.48136 4.32812 5.16602C4.54403 4.85067 4.80398 4.58505 5.10795 4.36914L5.91335 5.18306C5.70597 5.37908 5.52983 5.59357 5.38494 5.82653C5.2429 6.05948 5.13352 6.31516 5.05682 6.59357C4.98011 6.87198 4.9375 7.1788 4.92898 7.51403C4.92898 7.95153 5.01562 8.36204 5.18892 8.74556C5.36222 9.12624 5.64347 9.43448 6.03267 9.67028C6.42188 9.90323 6.94034 10.0197 7.58807 10.0197C8.23011 10.0197 8.75 9.91033 9.14773 9.69158C9.54545 9.46999 9.83665 9.18022 10.0213 8.82227C10.2088 8.46431 10.3026 8.08079 10.3026 7.6717C10.2912 7.26261 10.2173 6.88903 10.081 6.55096C9.94744 6.21289 9.7571 5.94442 9.50994 5.74556C9.26278 5.54386 8.96875 5.443 8.62784 5.443C8.47727 5.443 8.36506 5.48988 8.29119 5.58363C8.21733 5.67454 8.1804 5.78817 8.1804 5.92454V13.4544H6.9446Z" fill="currentColor"/>
</svg>
