<svg width="16" height="16" viewBox="0 0 16 16" fill="currentColor" xmlns="http://www.w3.org/2000/svg">
<path d="M3.85547 4.45459H5.10405V7.52703C5.10405 8.13783 5.21911 8.62647 5.44922 8.99294C5.68217 9.35658 5.99183 9.61936 6.3782 9.78129C6.76456 9.94039 7.18786 10.0199 7.64808 10.0199C8.29297 10.0199 8.8157 9.90487 9.21626 9.67476C9.61683 9.44181 9.90945 9.14209 10.0941 8.77561C10.2816 8.40629 10.3754 8.01709 10.3754 7.608C10.3697 7.35516 10.3484 7.09379 10.3114 6.82391C10.2745 6.55402 10.2248 6.28272 10.1623 6.00999C10.0998 5.73726 10.0259 5.46879 9.9407 5.20459C9.85831 4.94039 9.76882 4.69039 9.67223 4.45459H10.9165C11.0075 4.63073 11.0955 4.83527 11.1808 5.06823C11.266 5.29834 11.3413 5.55118 11.4066 5.82675C11.4719 6.09948 11.5231 6.38641 11.56 6.68754C11.5998 6.98584 11.6197 7.29266 11.6197 7.608C11.6197 8.06823 11.5515 8.50857 11.4151 8.92902C11.2788 9.34948 11.0586 9.72448 10.7546 10.054C10.4535 10.3836 10.0515 10.6435 9.54865 10.8339C9.04865 11.0242 8.43359 11.1194 7.70348 11.1194C6.92223 11.1194 6.24325 10.9944 5.66655 10.7444C5.08984 10.4915 4.64382 10.1009 4.32848 9.57249C4.01314 9.04124 3.85547 8.35658 3.85547 7.51851V4.45459ZM7.10263 4.45459H8.34695V13.7955H7.10263V4.45459Z" fill="currentColor"/>
</svg>
