<svg width="16" height="16" viewBox="0 0 16 16" fill="currentColor" xmlns="http://www.w3.org/2000/svg">
<path d="M4.69964 5.45459H6.02492C5.76356 5.90914 5.56185 6.32107 5.41981 6.69039C5.27776 7.0597 5.17833 7.41056 5.12151 7.74294C5.06753 8.07533 5.04054 8.4134 5.04054 8.75715C5.04054 9.46737 5.14992 10.0214 5.36867 10.4191C5.58742 10.8168 5.8914 11.0157 6.2806 11.0157C6.62151 11.0157 6.89424 10.8608 7.09878 10.5512C7.30333 10.2387 7.4056 9.78556 7.4056 9.19181V7.11226H8.38145V9.13215C8.38145 9.75715 8.29765 10.2927 8.13003 10.7387C7.96526 11.1847 7.7181 11.527 7.38856 11.7657C7.06185 12.0015 6.65844 12.1194 6.17833 12.1194C5.67265 12.1194 5.23799 11.9873 4.87435 11.7231C4.51356 11.456 4.23657 11.0682 4.04339 10.5597C3.8502 10.0512 3.75503 9.43186 3.75787 8.70175C3.75787 8.108 3.836 7.53982 3.99225 6.9972C4.15134 6.45459 4.38714 5.94039 4.69964 5.45459ZM10.2053 5.45459H11.5306C11.8403 5.94039 12.0746 6.45459 12.2337 6.9972C12.3928 7.53982 12.4724 8.108 12.4724 8.70175C12.4752 9.43186 12.3786 10.0512 12.1826 10.5597C11.9894 11.0682 11.711 11.456 11.3474 11.7231C10.9866 11.9873 10.5533 12.1194 10.0476 12.1194C9.57037 12.1194 9.16697 12.0015 8.83742 11.7657C8.51072 11.527 8.26356 11.1847 8.09594 10.7387C7.93117 10.2927 7.84878 9.75715 7.84878 9.13215V7.11226H8.82037V9.19181C8.82037 9.78556 8.92407 10.2387 9.13145 10.5512C9.33884 10.8608 9.61157 11.0157 9.94964 11.0157C10.2082 11.0157 10.4297 10.9262 10.6144 10.7472C10.7991 10.5682 10.9411 10.3111 11.0405 9.9759C11.14 9.63783 11.1897 9.23158 11.1897 8.75715C11.1897 8.4134 11.1613 8.07533 11.1045 7.74294C11.0505 7.41056 10.9525 7.0597 10.8104 6.69039C10.6684 6.32107 10.4667 5.90914 10.2053 5.45459Z" fill="currentColor"/>
</svg>
