<?xml version="1.0" encoding="UTF-8" standalone="no"?>
<svg
   xmlns:dc="http://purl.org/dc/elements/1.1/"
   xmlns:cc="http://creativecommons.org/ns#"
   xmlns:rdf="http://www.w3.org/1999/02/22-rdf-syntax-ns#"
   xmlns:svg="http://www.w3.org/2000/svg"
   xmlns="http://www.w3.org/2000/svg"
   xmlns:sodipodi="http://sodipodi.sourceforge.net/DTD/sodipodi-0.dtd"
   xmlns:inkscape="http://www.inkscape.org/namespaces/inkscape"
   width="1000px"
   height="1000px"
   viewBox="0 0 1000 1000"
   version="1.1"
   id="svg2"
   inkscape:version="0.48.4 r9939"
   sodipodi:docname="edit-copy.svg">
  <metadata
     id="metadata23">
    <rdf:RDF>
      <cc:Work
         rdf:about="">
        <dc:format>image/svg+xml</dc:format>
        <dc:type
           rdf:resource="http://purl.org/dc/dcmitype/StillImage" />
      </cc:Work>
    </rdf:RDF>
  </metadata>
  <defs
     id="defs21" />
  <sodipodi:namedview
     pagecolor="#ffffff"
     bordercolor="#666666"
     borderopacity="1"
     objecttolerance="10"
     gridtolerance="10"
     guidetolerance="10"
     inkscape:pageopacity="0"
     inkscape:pageshadow="2"
     inkscape:window-width="1280"
     inkscape:window-height="985"
     id="namedview19"
     showgrid="false"
     inkscape:zoom="0.5"
     inkscape:cx="509.29134"
     inkscape:cy="504.35593"
     inkscape:window-x="-2"
     inkscape:window-y="16"
     inkscape:window-maximized="1"
     inkscape:current-layer="svg2" />
  <path
     id="path7"
     d="m 233.625,137.25 c -15.75121,0 -27.46875,13.86495 -27.46875,29.0625 l 0,779.71875 C 206.15625,961.24737 217.87649,975 233.625,975 l 586.625,0 5.03125,0 3.6875,-3.40625 130.6875,-121.0625 4.125,-3.78125 0,-5.625 0,-674.8125 c 0,-15.29536 -11.72232,-29.0625 -27.46875,-29.0625 z m 0,25.6875 702.6875,0 c 0.27519,0 1.78125,0.69738 1.78125,3.375 l 0,669.21875 L 815.25,949.3125 l -581.625,0 c -0.37583,0 -1.8125,-0.72981 -1.8125,-3.28125 l 0,-779.71875 c 0,-2.77543 1.33667,-3.375 1.8125,-3.375 z m 124.77366,606.9652 472.74052,0 0,21.36216 -472.74052,0 z m 0,-113.53784 472.74052,0 0,21.41352 -472.74052,0 z m 0,-113.58918 472.74052,0 0,21.41351 -472.74052,0 z m 0,-113.53784 472.74052,0 0,21.41352 -472.74052,0 z m 0,-113.53783 472.74052,0 0,21.36216 -472.74052,0 z M 63.6875,25 C 47.882118,25 36.21875,38.927445 36.21875,54.125 l 0,779.59375 c 0,15.23108 11.611217,29.125 27.46875,29.125 l 142.46875,0 0,-25.65625 -142.46875,0 c -0.266791,0 -1.78125,-0.82957 -1.78125,-3.46875 l 0,-779.59375 c 0,-2.775417 1.359606,-3.4375 1.78125,-3.4375 l 702.6875,0 c 0.22033,0 1.8125,0.7599 1.8125,3.4375 l 0,83.125 25.65625,0 0,-83.125 C 793.84375,38.829628 782.17629,25 766.375,25 z"
     inkscape:connector-curvature="0"
     sodipodi:nodetypes="ssssccccccssssssccsssscccccccccccccccccccccccccssssccssssssccsss" />
</svg>
