<?xml version="1.0" encoding="UTF-8" standalone="no"?>
<svg
   xmlns:dc="http://purl.org/dc/elements/1.1/"
   xmlns:cc="http://creativecommons.org/ns#"
   xmlns:rdf="http://www.w3.org/1999/02/22-rdf-syntax-ns#"
   xmlns:svg="http://www.w3.org/2000/svg"
   xmlns="http://www.w3.org/2000/svg"
   xmlns:sodipodi="http://sodipodi.sourceforge.net/DTD/sodipodi-0.dtd"
   xmlns:inkscape="http://www.inkscape.org/namespaces/inkscape"
   id="svg2"
   version="1.1"
   inkscape:version="0.91 r13725"
   sodipodi:docname="sgroup-special.svg"
   width="1000"
   height="1000">
  <defs
     id="defs10" />
  <sodipodi:namedview
     pagecolor="#ffffff"
     bordercolor="#666666"
     borderopacity="1"
     objecttolerance="10"
     gridtolerance="10"
     guidetolerance="10"
     inkscape:pageopacity="0"
     inkscape:pageshadow="2"
     inkscape:window-width="1272"
     inkscape:window-height="869"
     id="namedview8"
     showgrid="false"
     inkscape:zoom="0.2085965"
     inkscape:cx="-500.15062"
     inkscape:cy="223.34557"
     inkscape:window-x="338"
     inkscape:window-y="65"
     inkscape:window-maximized="0"
     inkscape:current-layer="svg2" />
  <metadata
     id="metadata4">Copyright (C) 2016 by original authors @ fontello.com<rdf:RDF>
  <cc:Work
     rdf:about="">
    <dc:format>image/svg+xml</dc:format>
    <dc:type
       rdf:resource="http://purl.org/dc/dcmitype/StillImage" />
    <dc:title></dc:title>
  </cc:Work>
</rdf:RDF>
</metadata>
  <path
     d="m 976.99604,677.42894 q 0,-57.42868 -22.28577,-110.57165 -22.28576,-53.14297 -63.42869,-94.28592 L 507.28075,91.999125 454.13778,144.28495 838.1386,524.85719 q 63.42871,61.71442 63.42871,152.57175 0,76.28588 -49.71439,126.85742 -49.71439,50.57154 -126.85742,49.71439 -87.42875,0 -154.28604,-64.28585 L 148.13712,370.57114 Q 97.565586,319.99961 97.565586,256.5709 q 0,-48.85725 31.714354,-80.5716 31.71435,-31.71435 80.5716,-30.85721 64.28586,0 114.85739,50.57154 l 323.14355,318.85783 q 45.42867,47.14296 45.42867,83.14304 0,18.00004 -13.71431,28.28577 -13.71432,10.28574 -32.5715,10.28574 -41.14295,0 -73.71445,-34.28579 L 281.8517,313.99959 229.56587,366.28542 520.13792,654.28604 q 56.57155,56.57155 126.85742,56.57155 49.71439,0 85.71447,-31.71436 36.00007,-31.71434 36.00007,-80.57159 0,-66.85728 -67.71443,-136.28601 L 377.8519,143.4278 Q 305.85175,71.427655 209.85154,71.427655 q -79.71445,0 -132.857426,52.285815 -53.142971,52.28583 -54.000116,132.85743 0,94.28592 72.000154,166.28607 L 517.56649,842.00073 q 89.14305,86.57161 207.42901,86.57161 107.14309,0 180.00039,-72.00015 72.85729,-72.00016 72.00015,-179.14325 z"
     horiz-adv-x="1113"
     id="path6"
     inkscape:connector-curvature="0" />
</svg>
