<?xml version="1.0" encoding="UTF-8" standalone="no"?>
<!-- Created with Inkscape (http://www.inkscape.org/) -->

<svg
   xmlns:dc="http://purl.org/dc/elements/1.1/"
   xmlns:cc="http://creativecommons.org/ns#"
   xmlns:rdf="http://www.w3.org/1999/02/22-rdf-syntax-ns#"
   xmlns:svg="http://www.w3.org/2000/svg"
   xmlns="http://www.w3.org/2000/svg"
   xmlns:sodipodi="http://sodipodi.sourceforge.net/DTD/sodipodi-0.dtd"
   xmlns:inkscape="http://www.inkscape.org/namespaces/inkscape"
   id="svg3049"
   version="1.1"
   inkscape:version="0.48.4 r9939"
   width="1000"
   height="1000"
   sodipodi:docname="nopic.svg">
  <metadata
     id="metadata3055">
    <rdf:RDF>
      <cc:Work
         rdf:about="">
        <dc:format>image/svg+xml</dc:format>
        <dc:type
           rdf:resource="http://purl.org/dc/dcmitype/StillImage" />
        <dc:title />
      </cc:Work>
    </rdf:RDF>
  </metadata>
  <defs
     id="defs3053" />
  <sodipodi:namedview
     pagecolor="#ffffff"
     bordercolor="#666666"
     borderopacity="1"
     objecttolerance="10"
     gridtolerance="10"
     guidetolerance="10"
     inkscape:pageopacity="0"
     inkscape:pageshadow="2"
     inkscape:window-width="1280"
     inkscape:window-height="985"
     id="namedview3051"
     showgrid="true"
     inkscape:snap-bbox="true"
     inkscape:snap-grids="false"
     inkscape:zoom="0.5"
     inkscape:cx="237.98425"
     inkscape:cy="465.87797"
     inkscape:window-x="-2"
     inkscape:window-y="16"
     inkscape:window-maximized="1"
     inkscape:current-layer="svg3049">
    <inkscape:grid
       type="xygrid"
       id="grid3063"
       empspacing="5"
       visible="true"
       enabled="true"
       snapvisiblegridlinesonly="true" />
  </sodipodi:namedview>
  <path
     id="path3025"
     style="font-size:116.07102203px;font-style:normal;font-variant:normal;font-weight:bold;font-stretch:normal;text-align:center;line-height:125%;letter-spacing:0px;word-spacing:0px;writing-mode:lr-tb;text-anchor:middle;fill:#000000;fill-opacity:1;stroke:none;font-family:Droid Sans;-inkscape-font-specification:Droid Sans Bold"
     d="m 633.50797,869.32094 c -4e-5,4.68518 -0.34009,9.29477 -1.02016,13.82877 -0.68014,4.53404 -1.71918,8.93582 -3.11714,13.20535 -1.39802,4.23175 -3.17385,8.29348 -5.32748,12.18519 -2.1159,3.89169 -4.6474,7.5378 -7.59449,10.93833 l -14.05548,0 c 2.60706,-3.55167 4.91186,-7.33001 6.91439,-11.33506 2.00252,-4.00506 3.68388,-8.14235 5.0441,-12.41189 1.36019,-4.26953 2.38035,-8.63352 3.06047,-13.092 0.68008,-4.45843 1.02014,-8.93577 1.02015,-13.43204 -10e-6,-9.21914 -1.36022,-18.19272 -4.08062,-26.92077 -2.72042,-8.72793 -6.74437,-16.73803 -12.07184,-24.03033 l 14.16883,0 c 2.94709,3.51395 5.47859,7.27341 7.59449,11.27839 2.15363,3.96733 3.92946,8.12352 5.32748,12.46856 1.39796,4.30738 2.437,8.76583 3.11714,13.37537 0.68007,4.57185 1.02012,9.21922 1.02016,13.94213 m -43.29994,18.30612 0.85013,1.30353 c -0.529,2.04032 -1.17132,4.21288 -1.92696,6.51766 -0.71791,2.3048 -1.53026,4.62849 -2.43704,6.97107 -0.86904,2.34257 -1.79474,4.66626 -2.77709,6.97106 -0.94461,2.34257 -1.8892,4.57179 -2.83377,6.68768 l -12.46856,0 c 0.56674,-2.3048 1.11461,-4.70406 1.64358,-7.19776 0.56675,-2.49372 1.09572,-4.98743 1.58691,-7.48114 0.52896,-2.45593 1.00125,-4.85518 1.41688,-7.19776 0.41561,-2.38036 0.77455,-4.5718 1.07683,-6.57434 l 15.86909,0 M 571.6752,846.19741 c 0,-1.77577 0.24559,-3.26821 0.73678,-4.47734 0.52896,-1.2468 1.24685,-2.24806 2.15366,-3.0038 0.9068,-0.7556 1.96473,-1.30346 3.17382,-1.64358 1.20906,-0.33999 2.51259,-0.51001 3.9106,-0.51008 1.3224,7e-5 2.56926,0.17009 3.74057,0.51008 1.20905,0.34012 2.26699,0.88798 3.17381,1.64358 0.90678,0.75574 1.62467,1.757 2.15366,3.0038 0.52895,1.20913 0.79343,2.70157 0.79346,4.47734 -3e-5,1.70032 -0.26451,3.17387 -0.79346,4.42068 -0.52899,1.20912 -1.24688,2.21038 -2.15366,3.00379 -0.90682,0.75572 -1.96476,1.32247 -3.17381,1.70026 -1.17131,0.3401 -2.41817,0.51012 -3.74057,0.51008 -1.39801,4e-5 -2.70154,-0.16998 -3.9106,-0.51008 -1.20909,-0.37779 -2.26702,-0.94454 -3.17382,-1.70026 -0.90681,-0.79341 -1.6247,-1.79467 -2.15366,-3.00379 -0.49119,-1.24681 -0.73678,-2.72036 -0.73678,-4.42068 m -19.89303,42.27978 c 1.70023,1e-5 3.30603,-0.1889 4.81741,-0.56675 1.54908,-0.37782 3.11709,-0.85012 4.70405,-1.41688 l 0,12.86529 c -1.62474,0.83124 -3.64616,1.51134 -6.06426,2.04031 -2.3804,0.56675 -4.98746,0.85013 -7.82119,0.85013 -2.75823,0 -5.32751,-0.32116 -7.70785,-0.96348 -2.38038,-0.64232 -4.43958,-1.75693 -6.1776,-3.34384 -1.73806,-1.62469 -3.11716,-3.77835 -4.1373,-6.46099 -0.98238,-2.7204 -1.47357,-6.12091 -1.47356,-10.20155 l 0,-30.54799 -8.27459,0 0,-7.31112 9.52145,-5.78088 4.98742,-13.37537 11.05169,0 0,13.48872 15.41568,0 0,12.97865 -15.41568,0 0,30.54799 c -3e-5,2.45594 0.60451,4.26955 1.81361,5.44083 1.20904,1.1713 2.79595,1.75694 4.76072,1.75693 m -67.67031,-39.61604 c -3.0605,6e-5 -5.61088,1.07689 -7.65116,3.2305 -2.00256,2.1537 -3.15495,5.53533 -3.4572,10.14488 l 22.0467,0 c -0.0378,-1.92692 -0.28343,-3.70275 -0.73678,-5.32748 -0.45345,-1.62465 -1.13355,-3.02264 -2.04031,-4.19398 -0.90685,-1.20902 -2.04036,-2.15361 -3.40052,-2.83376 -1.36025,-0.68005 -2.94715,-1.0201 -4.76073,-1.02016 m 2.21034,53.38814 c -4.53406,0 -8.70913,-0.66121 -12.52524,-1.98364 -3.81616,-1.32242 -7.10332,-3.30605 -9.86151,-5.9509 -2.75821,-2.68262 -4.91186,-6.04536 -6.46098,-10.08821 -1.51135,-4.0806 -2.26702,-8.86021 -2.26701,-14.33885 -1e-5,-5.55414 0.69899,-10.40932 2.09698,-14.56555 1.39799,-4.15614 3.34384,-7.61333 5.83756,-10.37158 2.53148,-2.79592 5.55416,-4.89291 9.06805,-6.29096 3.55162,-1.39793 7.48111,-2.09692 11.78846,-2.09699 4.19394,7e-5 7.97229,0.64239 11.33506,1.92696 3.40047,1.24692 6.27202,3.09831 8.61465,5.55418 2.3803,2.45599 4.19391,5.47867 5.44083,9.06805 1.28458,3.5517 1.9269,7.63232 1.92696,12.24187 l 0,8.38794 -38.65256,0 c 0.0755,2.41817 0.45338,4.60962 1.13351,6.57434 0.71786,1.92698 1.70023,3.57056 2.94711,4.93075 1.28461,1.32244 2.81485,2.34259 4.5907,3.06047 1.81358,0.71789 3.87278,1.07684 6.17761,1.07683 1.92692,10e-6 3.74053,-0.0945 5.44083,-0.28338 1.738,-0.22669 3.41936,-0.54785 5.0441,-0.96348 1.62464,-0.41561 3.23044,-0.92568 4.8174,-1.53023 1.58686,-0.64231 3.21155,-1.37909 4.87408,-2.21034 l 0,13.37537 c -1.5114,0.79346 -3.04163,1.47356 -4.5907,2.04031 -1.51139,0.52897 -3.11719,0.98237 -4.8174,1.36021 -1.70031,0.37783 -3.53281,0.64232 -5.49751,0.79345 -1.96478,0.18892 -4.11844,0.28338 -6.46098,0.28338 m -99.46516,-64.4965 18.92955,0 10.20156,35.64877 c 0.60451,1.96477 1.03902,4.06175 1.30353,6.29096 0.30224,2.22925 0.49116,4.23177 0.56675,6.00758 l 0.34006,0 c 0.0755,-0.869 0.16999,-1.83248 0.28337,-2.89044 0.1511,-1.05792 0.32113,-2.13475 0.51008,-3.23049 0.18889,-1.0957 0.39669,-2.17253 0.62343,-3.23049 0.26445,-1.0957 0.52893,-2.07807 0.79345,-2.94712 l 9.97486,-35.64877 19.0429,0 -25.05049,71.46756 c -2.34261,6.68767 -5.53532,11.6562 -9.57812,14.90561 -4.04286,3.24935 -9.10585,4.87405 -15.18898,4.87407 -1.96476,-2e-5 -3.66502,-0.11338 -5.10078,-0.34005 -1.43578,-0.18894 -2.66375,-0.39675 -3.6839,-0.62343 l 0,-13.71542 c 0.79345,0.1889 1.79472,0.35893 3.00379,0.51008 1.20907,0.15112 2.47482,0.22668 3.79725,0.2267 1.8136,-2e-5 3.36272,-0.24561 4.64738,-0.73678 1.28462,-0.4912 2.38034,-1.19019 3.28716,-2.09699 0.94457,-0.86903 1.73802,-1.92697 2.38037,-3.17381 0.68008,-1.24687 1.26572,-2.64486 1.75693,-4.19398 l 1.07683,-3.17381 -23.91698,-63.92975 m 372.94881,-86.69803 c -20.76385,-10e-6 -39.53768,-2.85502 -56.32155,-8.56503 -16.61105,-5.71001 -30.88608,-14.53457 -42.82513,-26.47372 -11.76615,-12.11212 -20.85026,-27.51185 -27.25236,-46.19924 -6.22914,-18.86027 -9.3437,-41.35426 -9.34367,-67.48203 -3e-5,-28.89598 3.20104,-53.03376 9.60321,-72.41341 6.57513,-19.55226 15.74576,-35.21153 27.51191,-46.97788 11.93905,-11.76582 26.21408,-20.15781 42.82514,-25.17599 16.78386,-5.0176 35.38466,-7.52655 55.80245,-7.52684 14.88047,2.9e-4 29.67459,1.81712 44.38241,5.45047 14.7074,3.63393 28.54985,8.73834 41.5274,15.31323 l -22.84007,60.21474 c -11.42025,-5.01768 -22.4077,-9.0839 -32.96238,-12.19868 -10.55506,-3.28735 -20.59084,-4.93115 -30.10736,-4.93138 -19.20657,2.3e-4 -33.13554,7.35404 -41.78696,22.06144 -8.65165,14.53478 -12.97742,36.42316 -12.97731,65.66521 -1.1e-4,29.06929 4.32566,50.5251 12.97731,64.36747 8.65142,13.84254 22.23433,20.76376 40.74877,20.76371 15.05351,5e-5 28.72293,-1.90328 41.00831,-5.71002 12.28498,-3.97964 24.8297,-8.99753 37.63421,-15.05369 l 0,65.92476 c -6.40237,3.11456 -12.63148,5.88305 -18.68733,8.30548 -6.05629,2.42243 -12.19888,4.41229 -18.42779,5.96956 -6.05627,1.55728 -12.45841,2.68198 -19.20642,3.3741 -6.57535,0.86515 -13.66961,1.29773 -21.28279,1.29774 M 473.78584,380.68221 c -3e-5,-7.43995 1.12467,-13.58254 3.37411,-18.42778 2.24935,-5.01751 5.27739,-8.99721 9.08412,-11.93913 3.97965,-3.11416 8.56496,-5.27704 13.75595,-6.48866 5.36389,-1.21081 10.98738,-1.81642 16.87051,-1.81682 5.88296,4e-4 11.41994,0.60601 16.61096,1.81682 5.19082,1.21162 9.68962,3.3745 13.49641,6.48866 3.97959,2.94192 7.09414,6.92162 9.34366,11.93913 2.42231,4.84524 3.63353,10.98783 3.63365,18.42778 -1.2e-4,7.26766 -1.21134,13.41025 -3.63365,18.42779 -2.24952,5.01824 -5.36407,9.08446 -9.34366,12.19868 -3.80679,2.94185 -8.30559,5.10474 -13.49641,6.48865 -5.19102,1.21155 -10.728,1.81715 -16.61096,1.81683 -5.88313,3.2e-4 -11.50662,-0.60528 -16.87051,-1.81683 -5.19099,-1.38391 -9.7763,-3.5468 -13.75595,-6.48865 -3.80673,-3.11422 -6.83477,-7.18044 -9.08412,-12.19868 -2.24944,-5.01754 -3.37414,-11.16013 -3.37411,-18.42779 m 82.53572,365.18162 -79.16161,0 0,-290.17274 79.16161,0 0,290.17274 m -249.42398,5.19093 c -9.51688,-10e-6 -18.0819,-1.03819 -25.69508,-3.11456 -7.44049,-2.07637 -14.10217,-4.84486 -19.98507,-8.30548 -5.88319,-3.46061 -11.07411,-7.3538 -15.57277,-11.67958 -4.49893,-4.49878 -8.56515,-9.17061 -12.19868,-14.0155 l -4.15274,0 c 0.69201,6.0561 1.38413,11.76612 2.07637,17.13005 0.51898,4.49882 0.95155,9.17064 1.29773,14.0155 0.51898,4.67183 0.77852,8.30548 0.77864,10.90095 l 0,117.57446 -79.16161,0 0,-417.86951 64.36747,0 11.16049,37.63421 3.63365,0 c 3.63353,-5.88279 7.78626,-11.41977 12.45822,-16.61096 4.6717,-5.19065 10.03565,-9.68945 16.09187,-13.49641 6.22896,-3.97942 13.2367,-7.09397 21.02325,-9.34366 7.78621,-2.42214 16.43775,-3.63336 25.95463,-3.63365 15.05347,2.9e-4 28.7229,3.20136 41.00831,9.60321 12.28494,6.40242 22.83981,15.91911 31.66465,28.55009 8.82429,12.6315 15.65901,28.29077 20.50415,46.97788 4.84457,18.68752 7.267,40.31636 7.2673,64.88657 -3e-4,24.74353 -2.50924,46.5454 -7.52684,65.40566 -5.01818,18.68739 -12.11244,34.43319 -21.2828,47.23742 -8.99786,12.63128 -19.81228,22.14796 -32.44328,28.55009 -12.45845,6.40214 -26.21439,9.60321 -41.26786,9.60322 m -24.6569,-237.48485 c -8.82473,2.3e-4 -16.35157,1.64402 -22.58052,4.93138 -6.05622,3.11478 -10.9876,7.87312 -14.79414,14.27504 -3.80681,6.40235 -6.5753,14.5348 -8.30548,24.39736 -1.73043,9.6899 -2.76862,21.02341 -3.11456,34.00056 l 0,8.56503 c -1.2e-4,14.01563 0.77852,26.47384 2.33592,37.37466 1.73018,10.90104 4.49867,20.07167 8.30548,27.51191 3.80654,7.26736 8.82443,12.80435 15.05368,16.61096 6.40199,3.80674 14.27489,5.71007 23.61872,5.71002 15.74562,5e-5 27.25216,-7.44027 34.51965,-22.32098 7.44012,-15.05359 11.16027,-36.85546 11.16049,-65.40567 -2.2e-4,-28.54991 -3.72037,-49.9192 -11.16049,-64.10793 -7.26749,-14.36133 -18.94706,-21.54211 -35.03875,-21.54234 M 602.78033,175.01774 c -1.1e-4,28.89627 4.06611,50.69813 12.19868,65.40566 8.13232,14.53466 21.36917,21.80194 39.71058,21.80189 18.16806,5e-5 31.31839,-7.35375 39.45103,-22.06144 8.13224,-14.70752 12.19847,-36.42288 12.19868,-65.14611 -2.1e-4,-28.89598 -4.06644,-50.4383 -12.19868,-64.62703 -8.13264,-14.361333 -21.456,-21.542107 -39.97013,-21.542338 -18.16838,2.31e-4 -31.31871,7.181005 -39.45103,21.542338 -7.95953,14.18873 -11.93924,35.73105 -11.93913,64.62703 m 184.27786,0 c -2.9e-4,24.22444 -3.11484,45.68024 -9.34367,64.36747 -6.05635,18.6874 -14.88092,34.43319 -26.47372,47.23743 -11.42028,12.8043 -25.43576,22.58053 -42.04649,29.32873 -16.43813,6.57517 -34.95242,9.86275 -55.54291,9.86276 -19.20656,-10e-6 -36.85569,-3.28759 -52.94744,-9.86276 -16.09196,-6.7482 -30.02093,-16.52443 -41.78695,-29.32873 -11.59312,-12.80424 -20.67723,-28.55003 -27.25236,-47.23743 -6.5752,-18.68723 -9.86279,-40.14303 -9.86276,-64.36747 -3e-5,-24.05112 3.02801,-45.42041 9.08412,-64.10793 6.22907,-18.687108 15.05363,-34.346385 26.47372,-46.977881 11.593,-12.804014 25.60848,-22.493732 42.0465,-29.069184 16.43781,-6.57488 35.03861,-9.862463 55.80245,-9.862758 19.20624,2.95e-4 36.85537,3.287878 52.94744,9.862758 16.09164,6.575452 29.9341,16.26517 41.52741,29.069184 11.76583,12.631496 20.93645,28.290773 27.5119,46.977881 6.57488,18.68752 9.86247,40.05681 9.86276,64.10793 m -331.70014,145.60546 -79.16161,0 0,-169.48372 c -2.2e-4,-20.93654 -3.20129,-36.59582 -9.60322,-46.97788 -6.22931,-10.554653 -16.26508,-15.832089 -30.10736,-15.832321 -10.38202,2.32e-4 -19.03355,2.0766 -25.95463,6.229111 -6.92138,4.152962 -12.45836,10.29555 -16.61096,18.42779 -3.97984,8.13265 -6.83485,18.16842 -8.56503,30.10736 -1.73043,11.9393 -2.59559,25.60872 -2.59546,41.00832 l 0,136.52134 -79.16162,0 0,-290.172741 60.47428,0 10.6414,37.115118 4.41229,0 c 4.15262,-7.440067 9.17051,-13.842202 15.05368,-19.206425 6.05594,-5.363679 12.63111,-9.775961 19.72552,-13.23686 7.0941,-3.460329 14.62094,-5.969273 22.58053,-7.526843 7.95923,-1.730013 16.09167,-2.595167 24.39735,-2.595462 14.18831,2.95e-4 27.0791,2.076663 38.67239,6.22911 11.59282,3.979995 21.54208,10.295615 29.84782,18.946879 8.30521,8.651804 14.70734,19.725768 19.20643,33.221924 4.49851,13.323599 6.74791,29.32894 6.7482,48.01606 l 0,189.20924"
     inkscape:connector-curvature="0"
     sodipodi:nodetypes="ccccccsssssccccccccccccccccccccccccccccccccccccccccssccsccccccccccccccccccccccsccssccccccccccccscscccccccccccccccccccccccccccccccccccccsccccccccccscsccccccccccccccccccccccccccccccccccccccccccccccccccccccccccsccscccsccccccsccccccccccsccssccccccccccccccccsccccccccccccccc" />
</svg>
