<?xml version="1.0" encoding="UTF-8" standalone="no"?>
<svg
   xmlns:dc="http://purl.org/dc/elements/1.1/"
   xmlns:cc="http://creativecommons.org/ns#"
   xmlns:rdf="http://www.w3.org/1999/02/22-rdf-syntax-ns#"
   xmlns:svg="http://www.w3.org/2000/svg"
   xmlns="http://www.w3.org/2000/svg"
   xmlns:sodipodi="http://sodipodi.sourceforge.net/DTD/sodipodi-0.dtd"
   xmlns:inkscape="http://www.inkscape.org/namespaces/inkscape"
   height="1000"
   width="1000.0"
   id="svg2"
   version="1.1"
   inkscape:version="0.48.4 r9939"
   sodipodi:docname="stripped.svg">
  <metadata
     id="metadata10">
    <rdf:RDF>
      <cc:Work
         rdf:about="">
        <dc:format>image/svg+xml</dc:format>
        <dc:type
           rdf:resource="http://purl.org/dc/dcmitype/StillImage" />
        <dc:title></dc:title>
      </cc:Work>
    </rdf:RDF>
  </metadata>
  <defs
     id="defs8" />
  <sodipodi:namedview
     pagecolor="#ffffff"
     bordercolor="#666666"
     borderopacity="1"
     objecttolerance="10"
     gridtolerance="10"
     guidetolerance="10"
     inkscape:pageopacity="0"
     inkscape:pageshadow="2"
     inkscape:window-width="1280"
     inkscape:window-height="985"
     id="namedview6"
     showgrid="true"
     inkscape:snap-bbox="true"
     inkscape:zoom="0.788"
     inkscape:cx="466.37536"
     inkscape:cy="573.8246"
     inkscape:window-x="-2"
     inkscape:window-y="16"
     inkscape:window-maximized="1"
     inkscape:current-layer="svg2"
     inkscape:snap-grids="true"
     inkscape:snap-to-guides="false"
     inkscape:snap-page="true">
    <inkscape:grid
       type="xygrid"
       id="grid4649"
       empspacing="5"
       visible="true"
       enabled="true"
       snapvisiblegridlinesonly="true"
       spacingx="15.6px"
       dotted="false"
       spacingy="15.6px"
       originx="7.8px"
       originy="7.8px" />
  </sodipodi:namedview>
  <path
     id="rect4653-3-1-7-0-7-4-6-3-2-3-0-7-1-2-1-7-8-1-7-0-1-3-9-7-2-9-1-8-0-1-6"
     style="fill-opacity:1;fill-rule:evenodd;stroke:none;opacity:0.57466063;fill:#000000"
     d="m 975,9.3999996 15.6,0 0,1000.0000004 -15.6,0 z m -31.20001,0 15.6,0 0,1000.0000004 -15.6,0 z m -31.20001,0 15.6,0 0,1000.0000004 -15.6,0 z m -31.19996,0 15.60001,0 0,1000.0000004 -15.60001,0 z m -31.20001,0 15.6,0 0,1000.0000004 -15.6,0 z m -31.20001,0 15.6,0 0,1000.0000004 -15.6,0 z m -31.20001,0 15.6,0 0,1000.0000004 -15.6,0 z m -31.20001,0 15.6,0 0,1000.0000004 -15.6,0 z m -31.19996,0 15.60001,0 0,1000.0000004 -15.60001,0 z m -31.20001,0 15.6,0 0,1000.0000004 -15.6,0 z m -31.20001,0 15.6,0 0,1000.0000004 -15.6,0 z m -31.20001,0 15.6,0 0,1000.0000004 -15.6,0 z m -31.20001,0 15.6,0 0,1000.0000004 -15.6,0 z m -31.19996,0 15.60001,0 0,1000.0000004 -15.60001,0 z m -31.20001,0 15.6,0 0,1000.0000004 -15.6,0 z m -31.20001,0 15.6,0 0,1000.0000004 -15.6,0 z m -31.20001,0 15.6,0 0,1000.0000004 -15.6,0 z m -31.19998,0 15.6,0 0,1000.0000004 -15.6,0 z m -31.20002,0 15.60001,0 0,1000.0000004 -15.60001,0 z m -31.19998,0 15.6,0 0,1000.0000004 -15.6,0 z m -31.20001,0 15.6,0 0,1000.0000004 -15.6,0 z m -31.20001,0 15.6,0 0,1000.0000004 -15.6,0 z m -31.19998,0 15.6,0 0,1000.0000004 -15.6,0 z m -31.20002,0 15.60001,0 0,1000.0000004 -15.60001,0 z m -31.19999,0 15.6,0 0,1000.0000004 -15.6,0 z m -31.2,0 15.6,0 0,1000.0000004 -15.6,0 z m -31.2,0 15.6,0 0,1000.0000004 -15.6,0 z m -31.19999,0 15.6,0 0,1000.0000004 -15.6,0 z m -31.20001,0 15.6,0 0,1000.0000004 -15.6,0 z m -31.200003,0 15.600001,0 0,1000.0000004 -15.600001,0 z m -31.199997,0 15.600001,0 0,1000.0000004 L 39,1009.4 z m -31.1999998,0 15.6000018,0 0,1000.0000004 -15.6000018,0 z" />
</svg>
