<?xml version="1.0" encoding="UTF-8" standalone="no"?>
<!-- Generated by IcoMoon.io -->

<svg
   xmlns:dc="http://purl.org/dc/elements/1.1/"
   xmlns:cc="http://creativecommons.org/ns#"
   xmlns:rdf="http://www.w3.org/1999/02/22-rdf-syntax-ns#"
   xmlns:svg="http://www.w3.org/2000/svg"
   xmlns="http://www.w3.org/2000/svg"
   xmlns:sodipodi="http://sodipodi.sourceforge.net/DTD/sodipodi-0.dtd"
   xmlns:inkscape="http://www.inkscape.org/namespaces/inkscape"
   version="1.1"
   width="1000"
   height="1000"
   viewBox="0 0 1000 1000"
   id="svg2"
   inkscape:version="0.91 r13725"
   sodipodi:docname="about.svg">
  <metadata
     id="metadata11">
    <rdf:RDF>
      <cc:Work
         rdf:about="">
        <dc:format>image/svg+xml</dc:format>
        <dc:type
           rdf:resource="http://purl.org/dc/dcmitype/StillImage" />
        <dc:title></dc:title>
      </cc:Work>
    </rdf:RDF>
  </metadata>
  <defs
     id="defs9" />
  <sodipodi:namedview
     pagecolor="#ffffff"
     bordercolor="#666666"
     borderopacity="1"
     objecttolerance="10"
     gridtolerance="10"
     guidetolerance="10"
     inkscape:pageopacity="0"
     inkscape:pageshadow="2"
     inkscape:window-width="1280"
     inkscape:window-height="974"
     id="namedview7"
     showgrid="false"
     inkscape:zoom="0.52678571"
     inkscape:cx="708.89624"
     inkscape:cy="375.86441"
     inkscape:window-x="0"
     inkscape:window-y="23"
     inkscape:window-maximized="1"
     inkscape:current-layer="svg2" />
  <g
     id="icomoon-ignore"
     transform="translate(0,552)" />
  <path
     d="m 666.66667,812.5 0,-104.16667 c 0,-11.71875 -9.11459,-20.83333 -20.83334,-20.83333 l -62.5,0 0,-333.33333 c 0,-11.71875 -9.11458,-20.83334 -20.83333,-20.83334 l -208.33333,0 c -11.71875,0 -20.83334,9.11459 -20.83334,20.83334 l 0,104.16666 c 0,11.71875 9.11459,20.83334 20.83334,20.83334 l 62.5,0 0,208.33333 -62.5,0 c -11.71875,0 -20.83334,9.11458 -20.83334,20.83333 l 0,104.16667 c 0,11.71875 9.11459,20.83333 20.83334,20.83333 l 291.66666,0 c 11.71875,0 20.83334,-9.11458 20.83334,-20.83333 z m -83.33334,-583.33333 0,-104.16667 c 0,-11.71875 -9.11458,-20.83333 -20.83333,-20.83333 l -125,0 c -11.71875,0 -20.83333,9.11458 -20.83333,20.83333 l 0,104.16667 C 416.66667,240.88542 425.78125,250 437.5,250 l 125,0 c 11.71875,0 20.83333,-9.11458 20.83333,-20.83333 z M 1000,500 c 0,276.04167 -223.95833,500 -500,500 C 223.95833,1000 0,776.04167 0,500 0,223.95833 223.95833,0 500,0 c 276.04167,0 500,223.95833 500,500 z"
     id="path5"
     inkscape:connector-curvature="0" />
</svg>
