<svg id="Layer_1" data-name="Layer 1" xmlns="http://www.w3.org/2000/svg" viewBox="0 0 18.04 18"><defs><style>.cls-1{fill:#757575;fill-rule:evenodd;}</style></defs><title>Icons</title><path class="cls-1" d="M14.09,6.62,13.88,7h-.42s-.6,0-.76.84l-.17.84h1.15l-.21.42h-1l-.6,2.94c-.25,1.26-1.15,1.26-1.15,1.26H9.42l.17-.42H10s.64,0,.81-.84l.6-2.94h-.93l.21-.42h.81l.17-.84c.25-1.26,1.15-1.26,1.15-1.26Zm0,4.49L13.28,10l-.29.18-.29.19.83,1.27-1.39,1.34.24.24.24.24,1.3-1.25.89,1.35.29-.19.29-.18-1-1.46,1.38-1.33-.24-.24-.24-.25Zm4-.56a5.53,5.53,0,0,1-3.35,5.06,2.72,2.72,0,0,1-.34.92A2.87,2.87,0,0,1,12.09,18H2.65A2.85,2.85,0,0,1,.4,16.54a3,3,0,0,1-.11-2.77L4.64,5.19a1,1,0,0,0,.14-.42V1.91a.84.84,0,0,1-.59-.84C4.18.37,4.72,0,5.42,0h3.9a1,1,0,0,1,1.17,1.06.82.82,0,0,1-.67.85V4.76c0,.15.13.29.2.42l.19.3A5.59,5.59,0,0,1,18,10.55M2.11,15.49c.12.19.32.51.55.51h8.88a5.55,5.55,0,0,1-4.67-5.45A5.49,5.49,0,0,1,8.53,6.62l-.3-.54A3.07,3.07,0,0,1,7.8,4.76V2h-1V4.76a3.2,3.2,0,0,1-.35,1.37L2.08,14.76a.83.83,0,0,0,0,.72m10.35-.4a4.53,4.53,0,1,0-4.58-4.53,4.56,4.56,0,0,0,4.58,4.53"/></svg>