<svg id="Layer_1" data-name="Layer 1" xmlns="http://www.w3.org/2000/svg" viewBox="0 0 20.05 16.02"><defs><style>.cls-1{fill:#757575;fill-rule:evenodd;}</style></defs><title>Icons</title><path class="cls-1" d="M1.15,11.86,0,10.18l1.53-1,1.12,1.68ZM11.57,5.24,10.45,3.56l-1.53,1L10,6.23ZM8.3,7.32,7.18,5.64,3.3,8.11,4.42,9.79Zm8.89-5.64L16.07,0,12.19,2.47l1.12,1.68ZM5.55,15,4.42,13.35l-1.53,1L4,16Zm8.89-5.64L13.31,7.81l-1.53,1,1.12,1.58Zm-3.27,2.08L10,9.79,6.16,12.26l1.12,1.68Zm8.89-5.64L18.93,4.25,15,6.62,16.17,8.3Z"/></svg>