<?xml version="1.0" encoding="UTF-8" standalone="no"?>
<svg
   xmlns:dc="http://purl.org/dc/elements/1.1/"
   xmlns:cc="http://creativecommons.org/ns#"
   xmlns:rdf="http://www.w3.org/1999/02/22-rdf-syntax-ns#"
   xmlns:svg="http://www.w3.org/2000/svg"
   xmlns="http://www.w3.org/2000/svg"
   xmlns:sodipodi="http://sodipodi.sourceforge.net/DTD/sodipodi-0.dtd"
   xmlns:inkscape="http://www.inkscape.org/namespaces/inkscape"
   width="1000px"
   height="1000px"
   viewBox="0 0 1000 1000"
   version="1.1"
   id="svg4889"
   inkscape:version="0.48.4 r9939"
   sodipodi:docname="charge_minus.svg">
  <metadata
     id="metadata4900">
    <rdf:RDF>
      <cc:Work
         rdf:about="">
        <dc:format>image/svg+xml</dc:format>
        <dc:type
           rdf:resource="http://purl.org/dc/dcmitype/StillImage" />
      </cc:Work>
    </rdf:RDF>
  </metadata>
  <defs
     id="defs4898" />
  <sodipodi:namedview
     pagecolor="#ffffff"
     bordercolor="#666666"
     borderopacity="1"
     objecttolerance="10"
     gridtolerance="10"
     guidetolerance="10"
     inkscape:pageopacity="0"
     inkscape:pageshadow="2"
     inkscape:window-width="1280"
     inkscape:window-height="985"
     id="namedview4896"
     showgrid="false"
     inkscape:zoom="0.5"
     inkscape:cx="500"
     inkscape:cy="500"
     inkscape:window-x="-2"
     inkscape:window-y="16"
     inkscape:window-maximized="1"
     inkscape:current-layer="svg4889" />
  <path
     id="path4894"
     d="m 620.54621,105.63025 c 0,43.64146 0,87.28291 0,130.92437 118.15127,0 236.30253,0 354.4538,0 0,-43.64146 0,-87.28291 0,-130.92437 -118.15127,0 -236.30253,0 -354.4538,0 z m 25.54622,25.54622 c 101.12045,0 202.24091,0 303.36136,0 0,26.61064 0,53.22129 0,79.83193 -101.12045,0 -202.24091,0 -303.36136,0 0,-26.61064 0,-53.22129 0,-79.83193 z M 315.58824,54.537816 C 217.79313,351.16839 121.28736,648.31607 24.999992,945.46219 c 46.302518,0 92.605048,0 138.907568,0 25.11444,-91.08472 55.76881,-180.85288 83.02521,-271.42857 91.54061,0 183.08124,0 274.62185,0 28.95815,90.55854 60.41705,180.46029 87.81513,271.42857 46.83473,0 93.66948,0 140.50421,0 C 654.06097,648.33488 558.18172,351.15654 460.88235,54.537816 c -48.43137,0 -96.86275,0 -145.29411,0 z m 17.56301,25.546219 c 36.7227,0 73.44539,0 110.16808,0 90.47619,279.943985 180.95238,559.887945 271.42857,839.831935 -28.73949,0 -57.47899,0 -86.21848,0 -29.46157,-90.40782 -57.41319,-181.35939 -87.81513,-271.42857 -103.78151,0 -207.56304,0 -311.34455,0 -29.51432,90.01363 -56.19751,181.02919 -84.62184,271.42857 -27.67507,0 -55.350149,0 -83.025214,0 C 152.19887,639.97198 242.67506,360.02802 333.15125,80.084035 z m 38.31933,73.445375 c -31.05302,145.82339 -82.74123,286.1567 -127.65132,428.07896 5.08436,10.53393 37.95757,1.60379 53.78908,4.61012 76.2454,0 152.4908,0 228.7362,0 -42.85341,-144.44483 -99.19133,-285.09212 -130.92438,-432.68908 -7.98319,0 -15.96639,0 -23.94958,0 z m 12.77311,54.28572 c 27.14928,120.23798 71.64827,235.46632 108.57143,352.85714 -71.84874,0 -143.69747,0 -215.54621,0 36.63565,-117.31388 81.094,-232.46281 106.97478,-352.85714 z"
     inkscape:connector-curvature="0"
     sodipodi:nodetypes="cccccccccccccccccccccccccccccccccccccc" />
</svg>
