<svg xmlns="http://www.w3.org/2000/svg" width="1000" height="1000" viewBox="-125 -125 1000 1000"><path d="M750 625c.598 49.754-28.371 95.125-73.758 115.52-45.383 20.394-98.543 11.925-135.347-21.555-36.81-33.485-50.25-85.61-34.227-132.715L375 447.918 243.332 586.25c16.805 51.543-1.527 108.04-45.394 139.895-43.864 31.855-103.266 31.8-147.075-.13C7.055 694.083-11.18 637.552 5.72 586.04 22.613 534.527 70.789 499.777 125 500a125.019 125.019 0 0 1 64.582 18.75L333.332 375V242.5c-57.394-20.293-91.828-78.984-81.531-138.988C262.094 43.508 314.12-.352 375-.352s112.906 43.86 123.2 103.864c10.296 60.004-24.137 118.695-81.532 138.988V375l143.75 143.75c38.488-23.227 86.48-24 125.695-2.02C725.328 538.707 749.723 580.047 750 625zm0 0"/></svg>
