<?xml version="1.0" encoding="UTF-8" standalone="no"?>
<!-- Generated by IcoMoon.io -->

<svg
   xmlns:dc="http://purl.org/dc/elements/1.1/"
   xmlns:cc="http://creativecommons.org/ns#"
   xmlns:rdf="http://www.w3.org/1999/02/22-rdf-syntax-ns#"
   xmlns:svg="http://www.w3.org/2000/svg"
   xmlns="http://www.w3.org/2000/svg"
   xmlns:sodipodi="http://sodipodi.sourceforge.net/DTD/sodipodi-0.dtd"
   xmlns:inkscape="http://www.inkscape.org/namespaces/inkscape"
   version="1.1"
   width="1000"
   height="1000"
   viewBox="0 0 1000 1000"
   id="svg2"
   inkscape:version="0.91 r13725"
   sodipodi:docname="help.svg">
  <metadata
     id="metadata11">
    <rdf:RDF>
      <cc:Work
         rdf:about="">
        <dc:format>image/svg+xml</dc:format>
        <dc:type
           rdf:resource="http://purl.org/dc/dcmitype/StillImage" />
        <dc:title></dc:title>
      </cc:Work>
    </rdf:RDF>
  </metadata>
  <defs
     id="defs9" />
  <sodipodi:namedview
     pagecolor="#ffffff"
     bordercolor="#666666"
     borderopacity="1"
     objecttolerance="10"
     gridtolerance="10"
     guidetolerance="10"
     inkscape:pageopacity="0"
     inkscape:pageshadow="2"
     inkscape:window-width="1280"
     inkscape:window-height="974"
     id="namedview7"
     showgrid="false"
     inkscape:zoom="0.52678571"
     inkscape:cx="192"
     inkscape:cy="224"
     inkscape:window-x="0"
     inkscape:window-y="23"
     inkscape:window-maximized="1"
     inkscape:current-layer="svg2" />
  <g
     id="icomoon-ignore"
     transform="translate(0,552)" />
  <path
     d="m 583.33333,812.5 0,-125 c 0,-11.71875 -9.11458,-20.83333 -20.83333,-20.83333 l -125,0 c -11.71875,0 -20.83333,9.11458 -20.83333,20.83333 l 0,125 c 0,11.71875 9.11458,20.83333 20.83333,20.83333 l 125,0 c 11.71875,0 20.83333,-9.11458 20.83333,-20.83333 z M 750,375 C 750,255.85938 625,166.66667 513.02083,166.66667 c -106.11979,0 -185.54687,45.57291 -241.53646,138.67187 -5.85937,9.11459 -3.2552,20.83334 5.20834,27.34375 l 85.9375,65.10417 c 3.25521,2.60417 7.8125,3.90625 12.36979,3.90625 5.85937,0 12.36979,-2.60417 16.27604,-7.8125 30.59896,-39.0625 43.61979,-50.78125 55.98958,-59.89583 11.06771,-7.8125 32.55209,-15.625 55.98959,-15.625 41.66666,0 80.07812,26.6927 80.07812,55.33854 0,33.85416 -17.57812,50.78125 -57.29166,69.01041 -46.22396,20.83334 -109.375,74.8698 -109.375,138.02084 l 0,23.4375 C 416.66667,615.88542 425.78125,625 437.5,625 l 125,0 c 11.71875,0 20.83333,-9.11458 20.83333,-20.83333 l 0,0 c 0,-14.97396 18.88021,-46.875 49.47917,-64.45313 C 682.29167,511.71875 750,473.95833 750,375 Z m 250,125 c 0,276.04167 -223.95833,500 -500,500 C 223.95833,1000 0,776.04167 0,500 0,223.95833 223.95833,0 500,0 c 276.04167,0 500,223.95833 500,500 z"
     id="path5"
     inkscape:connector-curvature="0" />
</svg>
