<svg id="Layer_1" data-name="Layer 1" xmlns="http://www.w3.org/2000/svg" viewBox="0 0 20 18.11"><defs><style>.cls-1{fill:#757575;fill-rule:evenodd;}</style></defs><title>Icons</title><path class="cls-1" d="M2,16.11H20v2H2a2,2,0,0,1-2-2v-9H0v-5H2ZM15.55,9.38a1.85,1.85,0,0,0-1.07.35L11.94,7V4.55a2.11,2.11,0,0,0,1.42-2.2A2.4,2.4,0,0,0,10.94,0,2.44,2.44,0,0,0,8.48,2.34a2.14,2.14,0,0,0,1.45,2.2V7L7.32,9.72a2.2,2.2,0,0,0-1.18-.35A2.37,2.37,0,1,0,8.39,11L10.86,8.4,13.33,11a2.34,2.34,0,1,0,2.22-1.62"/></svg>