<?xml version="1.0" encoding="UTF-8" standalone="no"?>
<svg
   xmlns:dc="http://purl.org/dc/elements/1.1/"
   xmlns:cc="http://creativecommons.org/ns#"
   xmlns:rdf="http://www.w3.org/1999/02/22-rdf-syntax-ns#"
   xmlns:svg="http://www.w3.org/2000/svg"
   xmlns="http://www.w3.org/2000/svg"
   xmlns:sodipodi="http://sodipodi.sourceforge.net/DTD/sodipodi-0.dtd"
   xmlns:inkscape="http://www.inkscape.org/namespaces/inkscape"
   width="1000px"
   height="1000px"
   viewBox="0 0 1000 1000"
   version="1.1"
   id="svg2"
   inkscape:version="0.48.4 r9939"
   sodipodi:docname="cleanup.svg">
  <metadata
     id="metadata23">
    <rdf:RDF>
      <cc:Work
         rdf:about="">
        <dc:format>image/svg+xml</dc:format>
        <dc:type
           rdf:resource="http://purl.org/dc/dcmitype/StillImage" />
      </cc:Work>
    </rdf:RDF>
  </metadata>
  <defs
     id="defs21" />
  <sodipodi:namedview
     pagecolor="#ffffff"
     bordercolor="#666666"
     borderopacity="1"
     objecttolerance="10"
     gridtolerance="10"
     guidetolerance="10"
     inkscape:pageopacity="0"
     inkscape:pageshadow="2"
     inkscape:window-width="1280"
     inkscape:window-height="985"
     id="namedview19"
     showgrid="false"
     inkscape:zoom="0.5"
     inkscape:cx="179.125"
     inkscape:cy="463.75"
     inkscape:window-x="-2"
     inkscape:window-y="16"
     inkscape:window-maximized="1"
     inkscape:current-layer="svg2" />
  <path
     inkscape:connector-curvature="0"
     d="m 526.23056,637.11667 c 0,-25.28056 -0.73889,-46.55 -1.58334,-64.70556 l 52.03889,0 2.74445,26.86389 0.84444,0 c 14.25,-20.16111 36.31111,-31.19166 64.23056,-31.19166 42.22222,0 80.01111,36.68055 80.01111,98.16666 0,70.08889 -44.54445,103.12778 -87.50556,103.12778 -23.16944,0 -41.325,-9.39444 -49.98055,-22.00833 l -0.84445,0 0,95.73889 -59.90278,0 0,-205.99167 z m 59.90278,45.23055 c 0,4.80278 0.475,8.65556 1.21388,12.61389 3.95834,16.20278 17.73334,28.39445 35.04445,28.39445 26.01944,0 41.325,-21.69167 41.325,-54.41389 0,-30.71667 -13.775,-53.88611 -40.58611,-53.88611 -16.94167,0 -31.87778,12.56111 -35.83611,30.29444 -0.79167,3.21945 -1.21389,7.125 -1.21389,10.60834 l 0,26.38888 z M 478.04445,703.3 c 0,25.22778 0.79166,45.65278 1.58333,61.85556 l -51.98611,0 -2.74445,-27.23333 -1.16111,0 c -7.49444,11.875 -25.59722,31.50833 -60.325,31.50833 -39.37222,0 -67.76667,-24.38333 -67.76667,-83.91667 l 0,-113.10278 59.90278,0 0,103.65556 c 0,27.97222 9.025,44.96667 30.29445,44.96667 16.57222,0 26.38889,-11.45278 29.97778,-20.9 1.58333,-3.58889 2.32222,-7.86389 2.32222,-12.98334 l 0,-114.73889 59.90278,0 z M 792.17778,305.40833 c 0,-24.06666 -0.84444,-44.12222 -1.58333,-61.48611 l 52.03889,0 2.74444,26.81111 1.10833,0 c 7.86389,-12.66666 27.23334,-31.08611 59.53334,-31.08611 39.37222,0 68.98055,26.33611 68.98055,83.125 l 0,113.89445 -59.90277,0 0,-106.76945 c 0,-24.85833 -8.65556,-41.8 -30.34723,-41.8 -16.57222,0 -26.44166,11.45278 -30.76944,22.43056 -1.53056,3.95833 -1.9,9.44722 -1.9,14.98889 l 0,111.15 -59.90278,0 z m -47.81667,84.70834 c 0,18.15555 0.84445,35.88889 3.16667,46.55 l -53.93889,0 -3.48333,-19.36945 -1.21389,0 c -12.61389,15.41111 -32.3,23.69723 -55.15278,23.69723 -38.95,0 -62.27778,-28.39445 -62.27778,-59.11112 0,-50.08611 44.91389,-73.67777 113.10278,-73.67777 l 0,-2.375 c 0,-10.23889 -5.48889,-24.80556 -35.04444,-24.80556 -19.68611,0 -40.58611,6.70278 -53.2,14.19722 L 585.28889,257.01111 C 598.74722,249.51667 625.03056,239.7 660.12778,239.7 c 64.23056,0 84.33889,37.78889 84.33889,83.125 l 0,67.29167 z m -57.95,-44.49167 c -31.50833,0 -55.94444,7.54722 -55.94444,30.34722 0,15.35834 10.23889,22.90556 23.64444,22.90556 14.51389,0 27.18056,-9.92222 31.08611,-22.11389 0.84445,-3.11389 1.16112,-6.65 1.16112,-10.18611 l 0,-20.95278 z m -264.46944,13.40556 c 1.95278,25.22777 26.38889,37.05 54.36111,37.05 20.53055,0 37.05,-2.74445 53.2,-8.28611 l 7.86389,40.53333 c -19.68611,8.28611 -43.75278,12.24444 -69.71945,12.24444 -65.39166,0 -102.75833,-37.84166 -102.75833,-98.53611 0,-48.87222 30.71667,-102.81111 97.32222,-102.81111 62.27778,0 85.86945,48.45 85.86945,96.10833 0,10.23889 -1.16111,19.31667 -2.00556,24.06667 z M 492.50556,318.075 c 0,-14.25 -6.33334,-39.00278 -33.51389,-39.00278 -25.59722,0 -35.88889,23.22222 -37.41945,39.00278 z m -224.675,-161.18333 59.90277,0 0,279.775 -59.90277,0 z m -35.99445,272.65 c -10.60833,5.11944 -35.88889,11.45278 -67.76667,11.45278 -91.727775,0 -139.069442,-57.52778 -139.069442,-133.58056 0,-90.67222 64.600001,-140.70556 144.980552,-140.70556 31.13889,0 54.83612,6.33334 65.44445,11.82222 l -12.56111,47.28889 C 211.04167,220.7 194.1,215.95 172.35555,215.95 c -47.28888,0 -84.338885,28.76389 -84.338885,88.24444 0,53.20001 31.508335,86.66112 84.708335,86.66112 18.525,0 38.26389,-3.48334 50.45555,-8.70834 z"
     style="fill:#262323;fill-opacity:1;fill-rule:nonzero;stroke:none"
     id="path17" />
</svg>
