<?xml version="1.0" encoding="UTF-8" standalone="no"?>
<!-- Created with Inkscape (http://www.inkscape.org/) -->

<svg
   xmlns:dc="http://purl.org/dc/elements/1.1/"
   xmlns:cc="http://creativecommons.org/ns#"
   xmlns:rdf="http://www.w3.org/1999/02/22-rdf-syntax-ns#"
   xmlns:svg="http://www.w3.org/2000/svg"
   xmlns="http://www.w3.org/2000/svg"
   xmlns:sodipodi="http://sodipodi.sourceforge.net/DTD/sodipodi-0.dtd"
   xmlns:inkscape="http://www.inkscape.org/namespaces/inkscape"
   id="svg3049"
   version="1.1"
   inkscape:version="0.48.4 r9939"
   width="1000"
   height="1000"
   sodipodi:docname="favicon.ico">
  <metadata
     id="metadata3055">
    <rdf:RDF>
      <cc:Work
         rdf:about="">
        <dc:format>image/svg+xml</dc:format>
        <dc:type
           rdf:resource="http://purl.org/dc/dcmitype/StillImage" />
        <dc:title></dc:title>
      </cc:Work>
    </rdf:RDF>
  </metadata>
  <defs
     id="defs3053" />
  <sodipodi:namedview
     pagecolor="#ffffff"
     bordercolor="#666666"
     borderopacity="1"
     objecttolerance="10"
     gridtolerance="10"
     guidetolerance="10"
     inkscape:pageopacity="0"
     inkscape:pageshadow="2"
     inkscape:window-width="1280"
     inkscape:window-height="985"
     id="namedview3051"
     showgrid="true"
     inkscape:snap-bbox="true"
     inkscape:snap-grids="false"
     inkscape:zoom="0.5"
     inkscape:cx="286.29921"
     inkscape:cy="464.87797"
     inkscape:window-x="-2"
     inkscape:window-y="16"
     inkscape:window-maximized="1"
     inkscape:current-layer="svg3049">
    <inkscape:grid
       type="xygrid"
       id="grid3063"
       empspacing="5"
       visible="true"
       enabled="true"
       snapvisiblegridlinesonly="true" />
  </sodipodi:namedview>
  <path
     d="m 26.773229,102.74366 c 60.584851,0 121.169701,0 181.754551,0 -0.0738,123.90063 -8.79236,247.6135 -8.86608,371.51414 89.98443,-124.1932 181.42198,-247.32095 271.40641,-371.51414 73.8571,0 147.71414,0 221.57124,0 -101.65223,137.55481 -248.16793,239.83669 -328.95525,392.98879 77.74052,155.67596 224.31704,259.5429 320.49267,402.07553 -71.79997,0 -143.5999,0 -215.39987,0 C 398.67194,796.25535 351.04539,673.85244 249.06433,598.38549 c -39.12193,-14.84624 -40.08701,60.14039 -46.23816,87.25225 -5.73667,70.54585 -2.16646,141.44976 -3.16448,212.17024 -58.22056,0 -116.441127,0 -174.661688,0 0.0068,-265.02287 1.766441,-530.04141 1.773209,-795.06432 z M 451.01494,495.73245 C 553.87011,354.46171 692.82846,244.01439 795.68363,102.74366 c 59.76866,-0.74232 119.55051,-1.2663 179.31637,0 -102.60701,136.99589 -255.25207,231.02937 -342.67452,380.18609 -7.76568,45.89672 45.96746,88.28275 71.4692,126.58169 86.44457,99.16417 194.62233,178.71384 269.43212,288.07384 -63.0348,-0.013 -126.06858,0.4367 -189.10337,0.4367 C 683.17225,755.7513 552.07306,637.91143 451.01494,495.73245 z"
     id="path3061"
     inkscape:connector-curvature="0" />
</svg>
