<svg id="Layer_1" data-name="Layer 1" xmlns="http://www.w3.org/2000/svg" viewBox="0 0 23.89 24"><defs><style>.cls-1{fill:#757575;fill-rule:evenodd;}</style></defs><title>Icons</title><path class="cls-1" d="M11.29,0,15.1,3.84l1.33-1.33a10.47,10.47,0,0,1,6,8.48h1.5A12,12,0,0,0,11.95,0ZM16.52,12.2a4.37,4.37,0,0,1-.14,1.13,2.43,2.43,0,0,1-.43.85,1.87,1.87,0,0,1-.71.53,2.57,2.57,0,0,1-1,.18h-.91V9.12h1a2,2,0,0,1,1.64.69,3,3,0,0,1,.57,2ZM16.91,9a3.33,3.33,0,0,0-1.14-.77A3.76,3.76,0,0,0,14.31,8H11.95v8h2.3a4.06,4.06,0,0,0,1.51-.27A3.29,3.29,0,0,0,16.92,15a3.37,3.37,0,0,0,.74-1.19,4.57,4.57,0,0,0,.26-1.57v-.4a4.57,4.57,0,0,0-.26-1.57A3.49,3.49,0,0,0,16.91,9ZM8.36,15a1.67,1.67,0,0,1-.52-.08,1.07,1.07,0,0,1-.4-.24,1,1,0,0,1-.26-.37,1.19,1.19,0,0,1-.09-.47H5.79a2,2,0,0,0,.21.95,2.21,2.21,0,0,0,.56.69,2.53,2.53,0,0,0,.82.41,3,3,0,0,0,1,.15,3.37,3.37,0,0,0,1-.15,2.44,2.44,0,0,0,.83-.44,2,2,0,0,0,.55-.72,2.34,2.34,0,0,0,.2-1,2.1,2.1,0,0,0-.07-.56,1.67,1.67,0,0,0-.23-.51,1.8,1.8,0,0,0-.4-.43,2.06,2.06,0,0,0-.61-.31,2.1,2.1,0,0,0,.52-.33,2.07,2.07,0,0,0,.37-.42,1.76,1.76,0,0,0,.22-.46,1.59,1.59,0,0,0,.07-.48,2.42,2.42,0,0,0-.18-1,1.78,1.78,0,0,0-.51-.69,2.06,2.06,0,0,0-.77-.43,3.64,3.64,0,0,0-1-.14,3,3,0,0,0-1,.16,2.54,2.54,0,0,0-.79.45A2.25,2.25,0,0,0,6,9.28a2,2,0,0,0-.18.85h1.3a1.06,1.06,0,0,1,.09-.45.94.94,0,0,1,.25-.34,1.19,1.19,0,0,1,.38-.22A1.46,1.46,0,0,1,8.36,9a1.15,1.15,0,0,1,.89.31,1.21,1.21,0,0,1,.29.86,1.53,1.53,0,0,1-.08.49.87.87,0,0,1-.25.37,1.27,1.27,0,0,1-.41.24,1.68,1.68,0,0,1-.58.09H7.45v1h.77a2.25,2.25,0,0,1,.6.07,1.2,1.2,0,0,1,.45.23,1.18,1.18,0,0,1,.29.4,1.42,1.42,0,0,1,.1.57,1.2,1.2,0,0,1-.35.93A1.28,1.28,0,0,1,8.36,15Zm-.89,6.52A10.49,10.49,0,0,1,1.5,13H0A12,12,0,0,0,11.95,24l.66,0L8.8,20.16Z"/></svg>