<?xml version="1.0" encoding="UTF-8" standalone="no"?>
<svg
   xmlns:dc="http://purl.org/dc/elements/1.1/"
   xmlns:cc="http://creativecommons.org/ns#"
   xmlns:rdf="http://www.w3.org/1999/02/22-rdf-syntax-ns#"
   xmlns:svg="http://www.w3.org/2000/svg"
   xmlns="http://www.w3.org/2000/svg"
   xmlns:sodipodi="http://sodipodi.sourceforge.net/DTD/sodipodi-0.dtd"
   xmlns:inkscape="http://www.inkscape.org/namespaces/inkscape"
   width="1000px"
   height="1000px"
   viewBox="0 0 1000 1000"
   version="1.1"
   id="svg2"
   inkscape:version="0.48.4 r9939"
   sodipodi:docname="document-new_.svg">
  <metadata
     id="metadata21">
    <rdf:RDF>
      <cc:Work
         rdf:about="">
        <dc:format>image/svg+xml</dc:format>
        <dc:type
           rdf:resource="http://purl.org/dc/dcmitype/StillImage" />
      </cc:Work>
    </rdf:RDF>
  </metadata>
  <defs
     id="defs19" />
  <sodipodi:namedview
     pagecolor="#ffffff"
     bordercolor="#666666"
     borderopacity="1"
     objecttolerance="10"
     gridtolerance="10"
     guidetolerance="10"
     inkscape:pageopacity="0"
     inkscape:pageshadow="2"
     inkscape:window-width="1280"
     inkscape:window-height="985"
     id="namedview17"
     showgrid="false"
     inkscape:zoom="0.5"
     inkscape:cx="500"
     inkscape:cy="500"
     inkscape:window-x="-2"
     inkscape:window-y="16"
     inkscape:window-maximized="1"
     inkscape:current-layer="svg2" />
  <path
     id="path15"
     d="m 825.5,171.5625 c -47.25566,0 -83.46386,9.78822 -106.71875,32.4375 -23.34123,22.73339 -33.46875,58.86548 -33.46875,106.21875 0,52.56337 18.53489,125.27098 54.90625,220.3125 10.7829,28.22126 17.0134,44.05117 21.6875,52.25 l 0.0937,0.15625 0.0937,0.15625 c 12.60971,20.70339 31.90678,33.39596 53.90625,33.34375 0.0105,-2e-5 0.0207,3e-5 0.0313,0 24.38116,-0.009 45.45667,-10.86681 57.78125,-30.4375 l 0,-0.0625 0.0313,-0.0313 c 6.06835,-9.80911 11.64705,-26.34858 21.46875,-55.96875 l 0,-0.0313 c 18.83845,-57.44184 33.0019,-103.73009 42.5,-139.0625 9.4981,-35.33241 14.53125,-58.90252 14.53125,-74.71875 0,-45.76101 -9.87847,-82.03383 -31.65625,-107.1875 -21.77778,-25.15367 -54.73825,-37.375 -95.1875,-37.375 z m 0,25.6875 c 35.50146,0 59.54516,9.71582 75.78125,28.46875 16.23609,18.75293 25.375,48.35405 25.375,90.40625 0,9.44932 -4.35924,33.44689 -13.65625,68.03125 -9.29305,34.56965 -23.32272,80.54385 -42.0625,137.6875 -0.008,0.0243 -0.0233,0.0382 -0.0313,0.0625 -9.65087,29.09672 -17.38229,48.00569 -18.84375,50.40625 C 843.95404,585.18825 833.7146,590.75 816,590.75 l -0.0313,0 c -13.02015,0.0381 -22.3523,-5.39592 -31.75,-20.6875 -0.005,-0.008 -0.0263,-0.0851 -0.0313,-0.0937 -1.62309,-2.87344 -9.31842,-20.71946 -19.96875,-48.59375 l 0,-0.0313 c -35.8306,-93.62848 -53.25,-164.78297 -53.25,-211.125 0,-43.64381 9.62106,-72.13403 25.71875,-87.8125 C 752.87153,206.64369 781.86128,197.25 825.5,197.25 z M 820,636.875 c -25.87159,0 -49.42171,9.63955 -68.125,27.9375 l -0.0313,0.0313 c -18.63674,18.2884 -28.625,41.78224 -28.625,67.75 0,25.9661 9.90901,49.48654 28.6875,67.75 l 0,0.0313 c 18.69886,18.2277 42.22996,27.875 68.09375,27.875 25.84458,0 49.41475,-9.57836 68.125,-27.875 l 0,-0.0313 c 18.64112,-18.24273 28.6875,-41.74556 28.6875,-67.75 0,-25.92342 -10.03441,-49.41822 -28.65625,-67.75 l 0,-0.0313 -0.0313,0 C 869.43315,646.5836 845.89083,636.875 820,636.875 z m 0,25.65625 c 19.79834,0 35.68292,6.52354 50.15625,20.625 0.0108,0.0105 0.0204,0.0207 0.0313,0.0313 14.32429,14.11484 20.9375,29.74319 20.9375,49.40625 0,19.79452 -6.62078,35.40172 -20.9375,49.40625 -14.46092,14.14751 -30.3359,20.59375 -50.1875,20.59375 -19.83235,0 -35.7152,-6.4799 -50.1875,-20.59375 l -0.0313,-0.0313 c -14.38461,-13.98382 -20.90625,-29.5421 -20.90625,-49.375 0,-19.72135 6.62815,-35.35063 20.9375,-49.40625 0.0108,-0.0105 0.0205,-0.0207 0.0313,-0.0313 14.46192,-14.13502 30.33866,-20.625 50.15625,-20.625 z M 75.84375,25 c -16.82451,0 -28.1875,15.321091 -28.1875,31.28125 l 0,885.8125 c 0,15.9292 11.399827,31.26166 28.15625,31.28125 l 0.03125,0 c 0.0312,9e-5 180.95012,0.54427 362.40625,1 90.73589,0.22788 181.58778,0.42291 250.03125,0.53125 34.22173,0.0542 62.83075,0.0987 83.03125,0.0937 10.10025,-0.002 18.0996,-0.0103 23.65625,-0.0313 2.77832,-0.0105 4.95567,-0.0151 6.5,-0.0313 0.77217,-0.008 1.3724,-0.02 1.875,-0.0313 0.2513,-0.006 0.46084,-0.0207 0.71875,-0.0313 0.24893,-0.0102 0.03,0.11265 1.71875,-0.15625 0.0233,-0.004 0.0392,-0.0276 0.0625,-0.0313 21.2812,-3.38303 33.39745,-23.02685 33.46875,-41.65625 l 0,-0.0313 0,-0.0313 c 0,-0.8663 0.17118,-83.60322 0.21875,-106.625 C 833.20039,827.60842 826.67931,828.25 820,828.25 c -2.06772,0 -4.11963,-0.0647 -6.15625,-0.1875 -0.0488,22.42251 -0.21872,103.54827 -0.21875,104.84375 l 0,0.0625 c -0.0528,7.96053 -4.27058,14.87085 -11.40625,16.25 -0.30636,0.005 -0.56666,0.0263 -1.03125,0.0313 -1.43569,0.0149 -3.56376,0.0208 -6.3125,0.0313 -5.49748,0.0208 -13.47771,0.0287 -23.5625,0.0313 -20.16958,0.005 -48.78617,-0.008 -83,-0.0625 -68.42766,-0.10831 -159.26811,-0.33463 -250,-0.5625 -181.46378,-0.45604 -362.4375,-0.9689 -362.4375,-0.9689 l -0.03125,0 c -0.27512,0 -2.5,-1.126 -2.5,-5.625 l 0,-885.8125 c 0,-4.375531 2.378102,-5.59375 2.5,-5.59375 l 737.1875,0 c 0.12155,0 2.48657,1.217028 2.5,5.5625 4e-5,0.01229 0,0.01891 0,0.03125 -2e-5,0.0083 -0.19325,88.91169 -0.25,115.4375 3.35081,-0.10682 6.748,-0.15625 10.21875,-0.15625 5.28697,0 10.44591,0.20583 15.46875,0.625 0.0604,-26.70899 0.25,-115.875 0.25,-115.875 l 0,-0.03125 C 841.21875,40.321491 829.85576,25 813.03125,25 z M 840,612.59375 c -7.4386,2.528 -15.50588,3.84063 -23.96875,3.84375 -0.0106,3e-5 -0.0208,-2e-5 -0.0313,0 -0.56252,10e-4 -1.12859,-0.016 -1.6875,-0.0313 -0.0208,9.40108 -0.0111,11.54012 -0.0313,20.65625 1.89509,-0.10597 3.79701,-0.1875 5.71875,-0.1875 6.8283,0 13.4818,0.70247 19.9375,2.03125 0.0248,-11.61562 0.0366,-14.23901 0.0625,-26.3125 z M 207.36635,808.84836 c 0,13.0436 -10.57866,23.57091 -23.57091,23.57091 l -24.28985,0 c -12.99224,0 -23.57091,-10.57866 -23.57091,-23.57091 l 0,-27.1656 c 0,-13.0436 10.57867,-23.57092 23.57091,-23.57092 l 24.28985,0 c 12.99225,0 23.57091,10.52732 23.57091,23.57092 z m 0,-196.0648 c 0,12.99225 -10.57866,23.51956 -23.57091,23.51956 l -24.28985,0 c -12.99224,0 -23.57091,-10.57866 -23.57091,-23.51956 l 0,-27.26831 c 0,-12.99224 10.57867,-23.51956 23.57091,-23.51956 l 24.28985,0 c 12.99225,0 23.57091,10.52732 23.57091,23.51956 z m 0,-196.21886 c 0,12.99225 -10.57866,23.51956 -23.57091,23.51956 l -24.28985,0 c -12.99224,0 -23.57091,-10.57866 -23.57091,-23.51956 l 0,-27.26831 c 0,-12.99224 10.57867,-23.57091 23.57091,-23.57091 l 24.28985,0 c 12.99225,0 23.57091,10.57867 23.57091,23.57091 z m 0,-196.1675 c 0,12.94089 -10.57866,23.51956 -23.57091,23.51956 l -24.28985,0 c -12.99224,0 -23.57091,-10.57867 -23.57091,-23.51956 l 0,-27.26831 c 0,-12.99225 10.57867,-23.51956 23.57091,-23.51956 l 24.28985,0 c 12.99225,0 23.57091,10.57867 23.57091,23.51956 z"
     inkscape:connector-curvature="0"
     sodipodi:nodetypes="csscccccccccccsssccsssscccscccccssssccsccsccscccscccscsccsccccsssccsscscccccccscsccccccscscssssscccsccssscccccscccssssssssssssssssssssssssssssssssssss" />
</svg>
