<?xml version="1.0" encoding="UTF-8" standalone="no"?>
<svg
   xmlns:dc="http://purl.org/dc/elements/1.1/"
   xmlns:cc="http://creativecommons.org/ns#"
   xmlns:rdf="http://www.w3.org/1999/02/22-rdf-syntax-ns#"
   xmlns:svg="http://www.w3.org/2000/svg"
   xmlns="http://www.w3.org/2000/svg"
   xmlns:sodipodi="http://sodipodi.sourceforge.net/DTD/sodipodi-0.dtd"
   xmlns:inkscape="http://www.inkscape.org/namespaces/inkscape"
   width="1000px"
   height="1000px"
   viewBox="0 0 1000 1000"
   version="1.1"
   id="svg2"
   inkscape:version="0.48.4 r9939"
   sodipodi:docname="document-open.svg">
  <metadata
     id="metadata13">
    <rdf:RDF>
      <cc:Work
         rdf:about="">
        <dc:format>image/svg+xml</dc:format>
        <dc:type
           rdf:resource="http://purl.org/dc/dcmitype/StillImage" />
      </cc:Work>
    </rdf:RDF>
  </metadata>
  <defs
     id="defs11" />
  <sodipodi:namedview
     pagecolor="#ffffff"
     bordercolor="#666666"
     borderopacity="1"
     objecttolerance="10"
     gridtolerance="10"
     guidetolerance="10"
     inkscape:pageopacity="0"
     inkscape:pageshadow="2"
     inkscape:window-width="1280"
     inkscape:window-height="985"
     id="namedview9"
     showgrid="false"
     inkscape:zoom="0.5"
     inkscape:cx="484.75196"
     inkscape:cy="501"
     inkscape:window-x="-2"
     inkscape:window-y="16"
     inkscape:window-maximized="1"
     inkscape:current-layer="svg2" />
  <path
     id="path7"
     d="m 244.59375,393.59375 c -6.44038,-0.0408 -12.38451,1.56295 -17.65625,4.40625 -5.27174,2.8433 -10.28065,6.92753 -12.90625,13.84375 l -182.5,483.46875 c -2.635618,6.9426 -0.311276,16.2433 4.84375,21.0625 5.155026,4.8192 11.518077,6.42792 17.96875,6.46875 l 0.03125,0 706.15625,3.34375 c 0.0317,4e-4 0.0621,-3.2e-4 0.0937,0 6.44921,0.0656 12.38585,-1.54404 17.65625,-4.375 5.2721,-2.83187 10.34127,-6.8683 12.96875,-13.875 0.0121,-0.0322 0.0193,-0.0615 0.0313,-0.0937 L 973.6875,424.40625 c 2.62799,-6.98661 0.19186,-16.38514 -5.03125,-21.15625 -5.20622,-4.75568 -11.53953,-6.30251 -17.96875,-6.3125 l -0.0625,0 -706.03125,-3.34375 z m -0.15625,25.6875 0.0313,0 702.46875,3.28125 -179.71875,476.3125 0,0.0313 -0.0313,0.0313 c 0.0248,-0.0669 0.009,-0.005 0.0313,-0.0625 0.47559,-1.24725 0.31742,-0.42871 -1.0625,0.3125 -1.44343,0.77533 -3.73637,1.36383 -5.3125,1.34375 l -0.0313,0 -0.0625,0 -702.46875,-3.3125 179.75,-476.28125 c -0.52024,1.37039 -0.32288,0.45156 1.09375,-0.3125 1.41663,-0.76406 3.63954,-1.35434 5.3125,-1.34375 z M 289.90625,73.8125 c -9.18105,0.03673 -18.40514,0.166906 -27.4375,0.34375 -48.1726,0.943167 -90.90625,3.5 -90.90625,3.5 l -1.21875,0.0625 -1.15625,0.3125 c -20.52214,5.162802 -32.50481,21.469029 -35.75,37.375 l -26.625,87.875 -53.375,0 C 38.609785,203.28125 25,214.57457 25,230.09375 l 0,669.34375 c 0,15.46285 13.59565,26.75 28.4375,26.75 l 1.125,0 1.09375,-0.1875 17.5,-3.0625 -18.78125,-0.0937 -0.03125,0 c -6.450673,-0.0409 -12.813724,-1.6496 -17.96875,-6.4688 -5.155026,-4.8192 -7.479368,-14.1199 -4.84375,-21.0625 l 19.15625,-50.75 0,-614.46875 c 0,0.1141 0.426737,-1.125 2.75,-1.125 l 62.875,0 9.5,0 2.78125,-9.125 29.40625,-97 0.25,-0.78125 0.125,-0.8125 c 1.32362,-7.90865 5.45453,-14.98531 16.15625,-18.03125 2.15897,-0.1283 42.14156,-2.49983 88.4375,-3.40625 11.88927,-0.232779 24.0956,-0.376631 36.03125,-0.34375 11.93565,0.03288 23.60054,0.233444 34.375,0.65625 20.95875,0.82245 39.04807,2.82386 47.375,5.15625 -0.79287,-0.11309 2.37797,1.45136 5.5,4.28125 3.61974,3.28103 8.31243,8.06867 13.53125,13.78125 10.43765,11.42515 23.01387,26.49361 35.03125,41.40625 24.03477,29.82528 45.90625,59.0625 45.90625,59.0625 l 3.84375,5.15625 6.4375,0 310.96875,0 c 2.46277,0 2.84375,1.136 2.84375,1.125 l 0,166.15625 25.65625,0.125 0,-166.28125 c 0,-15.51878 -13.70909,-26.8125 -28.5,-26.8125 l -304.59375,0 c -4.95372,-6.58241 -21.5511,-28.55148 -42.5625,-54.625 -12.20067,-15.14009 -24.97638,-30.49002 -36.0625,-42.625 -5.54306,-6.067489 -10.63184,-11.313983 -15.25,-15.5 -4.61816,-4.186017 -7.60592,-7.502621 -14.59375,-9.625 l -0.0313,0 c -13.39867,-4.053378 -32.13002,-5.559669 -54.5,-6.4375 -11.18499,-0.438915 -23.14062,-0.622937 -35.3125,-0.65625 -3.04297,-0.0083 -6.0959,-0.01224 -9.15625,0 z" />
</svg>
