<?xml version="1.0" encoding="UTF-8" standalone="no"?>
<svg
   xmlns:dc="http://purl.org/dc/elements/1.1/"
   xmlns:cc="http://creativecommons.org/ns#"
   xmlns:rdf="http://www.w3.org/1999/02/22-rdf-syntax-ns#"
   xmlns:svg="http://www.w3.org/2000/svg"
   xmlns="http://www.w3.org/2000/svg"
   xmlns:sodipodi="http://sodipodi.sourceforge.net/DTD/sodipodi-0.dtd"
   xmlns:inkscape="http://www.inkscape.org/namespaces/inkscape"
   width="1000px"
   height="1000px"
   viewBox="0 0 1000 1000"
   version="1.1"
   id="svg2"
   inkscape:version="0.48.4 r9939"
   sodipodi:docname="period_table.svg">
  <metadata
     id="metadata21">
    <rdf:RDF>
      <cc:Work
         rdf:about="">
        <dc:format>image/svg+xml</dc:format>
        <dc:type
           rdf:resource="http://purl.org/dc/dcmitype/StillImage" />
      </cc:Work>
    </rdf:RDF>
  </metadata>
  <defs
     id="defs19" />
  <sodipodi:namedview
     pagecolor="#ffffff"
     bordercolor="#666666"
     borderopacity="1"
     objecttolerance="10"
     gridtolerance="10"
     guidetolerance="10"
     inkscape:pageopacity="0"
     inkscape:pageshadow="2"
     inkscape:window-width="1280"
     inkscape:window-height="985"
     id="namedview17"
     showgrid="false"
     inkscape:zoom="0.236"
     inkscape:cx="116.52542"
     inkscape:cy="502.11864"
     inkscape:window-x="-2"
     inkscape:window-y="16"
     inkscape:window-maximized="1"
     inkscape:current-layer="svg2" />
  <path
     id="path15"
     d="m 939.75697,670.74909 -75.17124,0 0,247.11765 c 0,14.21173 -3.17552,24.83149 -9.52655,31.65104 -6.35103,6.92367 -14.52408,10.35948 -24.62327,10.35948 -10.2033,0 -18.48046,-3.48787 -24.93561,-10.46359 -6.45515,-6.97573 -9.68272,-17.49137 -9.68272,-31.54693 l 0,-247.11765 -75.17124,0 c -11.76503,0 -20.51072,-2.60289 -26.23706,-7.75659 -5.67428,-5.20577 -8.58951,-12.02532 -8.58951,-20.56277 0,-8.79775 3.01934,-15.77347 8.95391,-20.87512 5.93458,-5.10165 14.57615,-7.60042 25.87266,-7.60042 l 219.05857,0 c 11.9212,0 20.771,2.60289 26.60146,7.86071 5.7784,5.25782 8.69363,12.12943 8.69363,20.61483 0,8.48539 -2.96729,15.357 -8.79774,20.56277 -5.83046,5.1537 -14.68026,7.75659 -26.44529,7.75659 z m -405.84141,150.811 -63.14593,0 0,96.30665 c 0,13.79527 -3.27963,24.25886 -9.73478,31.39076 -6.50721,7.13189 -14.73231,10.67181 -24.62327,10.67181 -10.35947,0 -18.68869,-3.53992 -25.03973,-10.5677 -6.35103,-7.07984 -9.52654,-17.38725 -9.52654,-31.02636 l 0,-262.21436 c 0,-15.14878 3.48786,-25.97677 10.46358,-32.48397 6.92367,-6.45515 18.01195,-9.73478 33.16072,-9.73478 l 88.44595,0 c 26.13293,0 46.27924,1.97819 60.28275,5.98662 13.95145,3.85227 25.97677,10.30742 36.07595,19.26133 10.15124,9.00598 17.85577,19.99014 23.06154,32.95249 5.30988,13.01442 7.91276,27.64262 7.91276,43.8846 0,34.67039 -10.67182,60.90745 -32.01545,78.81528 -21.29158,17.80371 -53.0988,26.75763 -95.31755,26.75763 z m -16.71051,-155.91265 -46.43542,0 0,103.95912 46.43542,0 c 16.24199,0 29.82903,-1.71791 40.70908,-5.15371 10.93211,-3.38375 19.20927,-8.95391 24.93561,-16.7105 5.67429,-7.70454 8.58952,-17.85578 8.58952,-30.40167 0,-14.9926 -4.4249,-27.17409 -13.2747,-36.64858 -9.78684,-10.04713 -30.14138,-15.04466 -60.95951,-15.04466 z M 520.0625,40.0625 c 0,153.90625 0,307.8125 0,461.71875 87.875,0 175.75,0 263.625,0 0,-153.90625 0,-307.8125 0,-461.71875 -87.875,0 -175.75,0 -263.625,0 z m 26.03125,26.03125 c 70.52083,0 141.04167,0 211.5625,0 0,136.55208 0,273.10417 0,409.65625 -70.52083,0 -141.04167,0 -211.5625,0 0,-136.55208 0,-273.10417 0,-409.65625 z M 25,40.0625 c 0,81.28125 0,162.5625 0,243.84375 252.89583,0 505.79167,0 758.6875,0 0,-81.28125 0,-162.5625 0,-243.84375 -252.89583,0 -505.79167,0 -758.6875,0 z m 26.03125,26.03125 c 235.54167,0 471.08333,0 706.625,0 0,63.92708 0,127.85417 0,191.78125 -235.54167,0 -471.08333,0 -706.625,0 0,-63.92708 0,-127.85417 0,-191.78125 z M 25,40.0625 c 0,252.91667 0,505.83333 0,758.75 87.875,0 175.75,0 263.625,0 0,-252.91667 0,-505.83333 0,-758.75 -87.875,0 -175.75,0 -263.625,0 z m 26.03125,26.03125 c 70.52083,0 141.04167,0 211.5625,0 0,235.5625 0,471.125 0,706.6875 -70.52083,0 -141.04167,0 -211.5625,0 0,-235.5625 0,-471.125 0,-706.6875 z M 25,40.0625 c 0,153.90625 0,307.8125 0,461.71875 252.89583,0 505.79167,0 758.6875,0 0,-153.90625 0,-307.8125 0,-461.71875 -252.89583,0 -505.79167,0 -758.6875,0 z m 26.03125,26.03125 c 235.54167,0 471.08333,0 706.625,0 0,136.55208 0,273.10417 0,409.65625 -235.54167,0 -471.08333,0 -706.625,0 0,-136.55208 0,-273.10417 0,-409.65625 z"
     inkscape:connector-curvature="0"
     sodipodi:nodetypes="scscssscscsssscscsscscscsscsscccscssccsccscscccccccccccccccccccccccccccccccccccccccc" />
</svg>
