<?xml version="1.0" encoding="UTF-8" standalone="no"?>
<svg
   xmlns:dc="http://purl.org/dc/elements/1.1/"
   xmlns:cc="http://creativecommons.org/ns#"
   xmlns:rdf="http://www.w3.org/1999/02/22-rdf-syntax-ns#"
   xmlns:svg="http://www.w3.org/2000/svg"
   xmlns="http://www.w3.org/2000/svg"
   version="1.1"
   id="svg2"
   height="1024px"
   width="1024px">
  <metadata
     id="metadata10">
    <rdf:RDF>
      <cc:Work
         rdf:about="">
        <dc:format>image/svg+xml</dc:format>
        <dc:type
           rdf:resource="http://purl.org/dc/dcmitype/StillImage" />
        <dc:title></dc:title>
      </cc:Work>
    </rdf:RDF>
  </metadata>
  <defs
     id="defs8" />
  <path
     id="path4"
     d="m 709,647.5 167,167 -61,62 -167,-168 z m 255,167 q 0,-15 -10,-25 L 219,54.5 q -10,-10 -25,-10 -15,0 -26,10 l -113,113 q -11,10 -11,26 0,16 11,25 l 735,735 q 10,11 25,11 15,0 26,-11 l 113,-113 q 10,-10 10,-26 z m -772,109 56,-17 -56,-17 -17,-56 -17,56 -56,17 56,17 17,56 z m 200,-93 112,-34 -112,-34 -34,-112 -34,112 -112,34 112,34 34,112 z m 532,-273 56,-17 -56,-17 -17,-56 -17,56 -56,17 56,17 17,56 z m -366,366 56,-17 -56,-17 -17,-56 -17,56 -56,17 56,17 17,56 z" />
</svg>
