<svg xmlns="http://www.w3.org/2000/svg" viewBox="-125 -125 1000 1000" height="1000" width="1000"><path d="M340.91 68h-68.183v68.223h68.183zM136.363 477.332v68.223h68.184v-68.223zm0-136.441v68.218h68.184v-68.218zm0 272.886c2.477 36.606 31.602 65.746 68.184 68.223v-68.223zM204.547 68c-36.582 2.477-65.707 31.617-68.184 68.223h68.184zm409.09 545.777h-68.184V682h68.184zm0-545.777h-68.184v68.223h68.184zm-306.82 545.777h-68.18V682h68.18zm170.456 0H409.09V682h68.183zM204.547 204.445h-68.184v68.223h68.184zM681.817 68v68.223H750C747.527 99.617 718.398 70.477 681.816 68zM750 204.445h-68.184v68.223H750zM477.273 68H409.09v68.223h68.183zM750 613.777h-68.184V682c36.582-2.477 65.711-31.617 68.184-68.223zm0-272.886h-68.184v68.218H750zm0 136.441h-68.184v68.223H750zm-102.273 68.223h-68.18V272.668h-68.184v-68.223h136.364zm-159.204 0l-70.57-124.504c35.586-15.133 57.73-51.11 55.23-89.715a123.191 123.191 0 0 0-34.695-89.508 123.035 123.035 0 0 0-88.375-37.383H238.637l3.41 341.11h64.77V433.328h43.636l58.637 112.227zM306.816 272.668h37.5c38.868 0 60 12.621 60 48.777 0 36.157-21.132 55.262-60 55.262h-37.5zm-170.453 110.52L25.91 493.706 0 467.781l84.203-84.594L0 298.59l25.91-25.922zm0 0"/></svg>
