<svg xmlns="http://www.w3.org/2000/svg" viewBox="-125 -125 1000 1000" height="1000" width="1000"><path d="M750 572.5h-78.95v-316h-78.945v-79H750zm-276.316 0l-68.29-130.746h-50.132V572.5h-75.79l-3.156-395h129.868a142.468 142.468 0 0 1 101.894 42.875 142.625 142.625 0 0 1 40.606 102.879c2.898 44.707-22.746 86.363-63.946 103.887L565.656 572.5zM355.262 375h43.422c45 0 69.472-21.723 69.472-63.988 0-42.266-24.472-54.512-69.472-54.512h-43.422zM30 256.5L0 285.73l97.5 97.961L0 481.254l30 30.023 127.895-127.586zm0 0"/></svg>
