<?xml version="1.0" encoding="UTF-8" standalone="no"?>
<svg
   xmlns:dc="http://purl.org/dc/elements/1.1/"
   xmlns:cc="http://creativecommons.org/ns#"
   xmlns:rdf="http://www.w3.org/1999/02/22-rdf-syntax-ns#"
   xmlns:svg="http://www.w3.org/2000/svg"
   xmlns="http://www.w3.org/2000/svg"
   xmlns:sodipodi="http://sodipodi.sourceforge.net/DTD/sodipodi-0.dtd"
   xmlns:inkscape="http://www.inkscape.org/namespaces/inkscape"
   width="1000px"
   height="1000px"
   viewBox="0 0 1000 1000"
   version="1.1"
   id="svg2"
   inkscape:version="0.48.4 r9939"
   sodipodi:docname="lasso.svg">
  <metadata
     id="metadata53">
    <rdf:RDF>
      <cc:Work
         rdf:about="">
        <dc:format>image/svg+xml</dc:format>
        <dc:type
           rdf:resource="http://purl.org/dc/dcmitype/StillImage" />
      </cc:Work>
    </rdf:RDF>
  </metadata>
  <defs
     id="defs51" />
  <sodipodi:namedview
     pagecolor="#ffffff"
     bordercolor="#666666"
     borderopacity="1"
     objecttolerance="10"
     gridtolerance="10"
     guidetolerance="10"
     inkscape:pageopacity="0"
     inkscape:pageshadow="2"
     inkscape:window-width="1280"
     inkscape:window-height="985"
     id="namedview49"
     showgrid="false"
     inkscape:zoom="0.25"
     inkscape:cx="510.77165"
     inkscape:cy="502.11864"
     inkscape:window-x="-2"
     inkscape:window-y="16"
     inkscape:window-maximized="1"
     inkscape:current-layer="svg2" />
  <path
     id="path43"
     d="M 384.46875,319.84375 526.5625,941.25 637.1875,756.90625 786.0625,920.8125 917.15625,793.78125 l -152.9375,-168 166.625,-51.90625 z m 31.875,38.09375 466.8125,215.71875 -154.375,43.15625 L 880,788.875 783.9375,883.9375 632,716.6875 l -94.9375,168.5 z m 46.8125,57.6875 86.96875,379.6875 74.3125,-132 159.5,174.21875 L 835.40625,787.875 680.125,605.375 811.21875,567.09375 z M 527.59375,59.28125 531.125,85.9375 c 0,0 1.25689,0.03721 3.03125,0.09375 l 0,-26.53125 c -4.01004,-0.149669 -6.5625,-0.20072 -6.5625,-0.21875 z m -55.8125,0.1875 c -4.7055,0.225354 -8.31201,0.406665 -15.625,0.75 l 0,26.46875 15.625,-0.59375 z M 487.375,60 l 0,25.5 6.34375,-0.25 z m 62.40625,0.375 0,26.46875 c 4.80409,0.350172 10.13025,0.872335 15.59375,1.53125 l 0,-26.53125 C 559.95196,61.196354 554.66813,60.733238 549.78125,60.375 z M 440.5625,61.3125 c -7.67501,0.892233 -9.78204,1.130175 -15.59375,1.8125 l 0,26.90625 c 2.77042,-0.300038 8.99736,-0.973756 15.59375,-1.6875 z m 140.40625,2.15625 0,26.5625 c 5.85004,0.707442 11.22281,1.490084 15.59375,2.1875 l 0,-26.6875 c -4.52426,-0.683893 -9.88003,-1.41141 -15.59375,-2.0625 z M 409.375,64.9375 c -0.5179,0.06116 -4.75,0.5625 -4.75,0.5625 l 4.75,9.375 z m -44.4375,7.84375 c 0,0 -2.03294,0.429017 -2.375,0.5 l 0,27.90625 c 1.94066,-0.50401 4.51669,-1.18659 6.21875,-1.625 5.62746,-1.091894 7.925,-1.534825 9.375,-1.8125 l 0,-4.25 z m 285,2.96875 -6.125,25.6875 c 0,0 6.3489,1.52156 15.15625,3.84375 l 0,-27.28125 c -5.20339,-1.316645 -9.03125,-2.25 -9.03125,-2.25 z m -302.96875,1.0625 c -4.76871,1.283476 -10.00353,2.703111 -15.59375,4.21875 l 0,28.21875 c 3.81631,-1.11654 7.85565,-2.1713 11.9375,-3.09375 1.33269,-0.34075 2.33227,-0.59661 3.65625,-0.9375 z m 327.59375,5.28125 0,27.46875 c 2.04231,0.59668 4.09842,1.24274 6.15625,1.875 3.20642,1.10631 6.3219,2.15653 9.4375,3.21875 l 0,-27.96875 c -0.0341,-0.01169 -0.0596,-0.01956 -0.0937,-0.03125 -5.26827,-1.643699 -10.55013,-3.183449 -15.5,-4.5625 z m -358.78125,3.125 c -5.71671,1.649152 -11.08724,3.430038 -15.625,5.125 l 0,20.09375 6.6875,7.0625 c 0,0 3.70828,-1.33221 8.9375,-3.09375 z m 390,6.84375 0,27.90625 c 6.76024,2.14168 11.09375,4.05233 11.09375,4 l 4.5,-8.59375 0,-17.96875 c -1.31957,-0.466266 -2.73015,-0.928888 -4.3125,-1.4375 -3.08855,-1.058931 -7.52851,-2.613904 -11.28125,-3.90625 z m -457.25,18.3125 c -1.09667,0.13597 -5.15291,2.00102 -10.75,4.8125 l 0,32.40625 c 5.38461,-2.8552 10.72343,-5.62115 15.59375,-8.09375 l 0,-25.0625 -4.53125,-4.03125 c -0.0297,-0.0577 -0.14896,-0.0515 -0.3125,-0.0313 z m 519.625,7.15625 0,30.1875 c 4.92108,2.60339 9.94313,5.28832 15.625,8.28125 l 0,-30.0625 c -5.62203,-3.0283 -14.97078,-8.05356 -15.625,-8.40625 z m -546,5.8125 c -5.09564,2.72963 -10.42006,5.62517 -15.59375,8.5 l 0,33.3125 c 2.85034,-1.90925 8.63377,-5.24085 15.59375,-9.09375 z m 46.8125,5.03125 0,3.59375 c 1.58991,-0.67185 2.63132,-1.02515 2.9375,-0.96875 z m 530.40625,5.96875 0,31.625 c 6.26573,4.0782 14.55029,9.47667 15.59375,10.15625 l 0,-31.96875 c -4.05977,-2.66446 -7.56527,-4.97569 -11.90625,-7.8125 -1.84907,-0.99401 -1.85836,-1.01618 -3.6875,-2 z M 752.5625,137 l -1.25,1.8125 c 0,0 1.13565,0.59552 1.25,0.65625 z m -561.59375,3.71875 c -8.2607,4.82316 -14.03626,8.45469 -13.71875,8.96875 l 13.71875,8.59375 z m 639.59375,13.6875 0,11.09375 7.125,-6.40625 c 0,0 -3.99425,-2.62385 -7.125,-4.6875 z M 145,173.21875 c 0,0 -0.6613,0.51625 -0.84375,0.65625 l 0,40.65625 c 0.34559,-0.30859 0.68207,-0.63165 1.03125,-0.9375 4.88918,-5.00467 10.00703,-9.68741 14.59375,-13.625 l 0,-18.96875 z m 724.1875,11.1875 -7.40625,5.34375 0,25.34375 c 3.8603,3.77888 8.05756,7.98063 12.15625,12.34375 1.2507,1.46269 2.19962,2.55568 3.4375,4 l 0,-39.34375 c -4.87038,-4.65594 -8.1875,-7.6875 -8.1875,-7.6875 z m -740.625,2.5625 c -4.45837,3.98453 -9.29873,8.51036 -13.9375,13.375 -0.56009,0.50564 -1.10529,1.01954 -1.65625,1.53125 l 0,37.59375 6.25,2.15625 c 0,0 3.10555,-3.62637 7.75,-9.0625 0.50351,-0.63383 1.0415,-1.30444 1.59375,-1.96875 z m 764.40625,20.65625 0,42.25 c 3.24657,4.29627 5.03125,7.21875 5.03125,7.21875 l 10.5625,-4.5625 0,-27.0625 c -3.39351,-4.01579 -6.42567,-7.60198 -10.09375,-11.96875 -1.82434,-1.99019 -3.66447,-3.95824 -5.5,-5.875 z M 97.375,218.46875 c -0.650549,0.80424 -1.287846,1.60972 -1.875,2.375 l -8.15625,9.75 10.03125,3.46875 z m -33.125,44.625 c 0,0 -3.093049,4.06457 -6.3125,11.03125 -2.003722,3.97662 -4.810414,9.55791 -7.375,14.65625 l 0,51.1875 15.59375,1.75 0,-78.125 z m 17.53125,4.65625 0,32.75 C 85.1658,293.91006 88.628521,287.17161 91.1875,282.21875 94.248617,275.72707 97.25,271.875 97.25,271.875 z m 858,14.125 -15.625,4.9375 0,15.0625 c 2.86991,6.17359 6.1168,13.91282 8.625,22.09375 3.5985,8.58499 5.58191,17.68336 7,24.6875 z M 955.375,302 l 0,57.5625 15.59375,-1.59375 0,-2.09375 c -0.28931,-1.3295 -0.9259,-4.21971 -2.25,-10.53125 -1.47778,-7.60001 -3.58263,-17.67568 -7.59375,-27.28125 -1.6749,-5.62288 -3.71156,-11.10362 -5.75,-16.0625 z M 34.96875,328.90625 c -1.722075,5.39131 -2.706736,8.94279 -2.375,9.03125 l 2.375,0.28125 z m -8.75,48.40625 c 0,0 -2.701312,20.37773 -0.0625,40.75 0.369445,20.53059 7.344446,40.11319 6.5,40.21875 l 2.3125,-0.25 0,-80.375 z m 24.34375,0.9375 0,78.03125 15.59375,-1.75 0,-4.40625 c -1.684093,-6.51158 -5.149249,-19.64817 -5.375,-33.34375 -2.480476,-19.05282 0.0625,-38.15625 0.0625,-38.15625 z m 904.8125,19.90625 0,79.71875 5.46875,1.15625 c 0,0 1.70486,-4.8729 4.34375,-12.15625 1.58443,-7.30878 3.68623,-17.05287 5.78125,-26.8125 l 0,-41.90625 z M 939.78125,447.375 c -1.16449,5.31564 -2.27932,10.36583 -3.15625,14.53125 -2.48056,6.70279 -4.0625,11.21875 -4.0625,11.21875 l 7.21875,1.5 z m -873.625,44.9375 -15.59375,2.875 0,12.3125 c 3.433778,6.8614 8.121275,15.96109 13.21875,24.875 0.862359,1.29757 1.517715,2.27264 2.375,3.5625 z m 15.625,3.46875 0,63.28125 c 3.174388,4.1514 5.457684,6.5625 5.5,6.5625 l 10.09375,-3.5 0,-37.5 c -0.239329,-0.34981 -0.416805,-0.61897 -0.65625,-0.96875 -6.278652,-10.78818 -11.746239,-21.4815 -14.9375,-27.875 z m 842.375,13.625 0,41.0625 c 5.45813,-8.38278 11.31138,-16.44245 15,-23 0.3778,-0.74987 0.276,-0.55766 0.625,-1.25 l 0,-11.875 z M 908.5625,523.5625 c -3.27578,4.9815 -7.25686,10.55066 -11.03125,16.25 -1.40929,2.29937 -2.96591,4.4776 -4.5625,6.5625 l 0,34.21875 4.96875,2.8125 c 0,0 3.32012,-3.91109 8.28125,-9.875 0.73123,-0.89635 1.52539,-1.82165 2.34375,-2.78125 z m -795.59375,23.71875 0,9.46875 6.1875,-2.15625 c 0,0 -2.62695,-2.67297 -6.1875,-7.3125 z m 764.40625,17.5625 c -2.27517,2.65899 -3.96875,4.625 -3.96875,4.625 l 3.96875,2.25 z m -732.78125,17.3125 -0.4375,0.1875 0,40.09375 c 0.0412,0.0321 0.0838,0.0617 0.125,0.0937 5.20417,4.4937 10.58383,8.63057 15.5,12.21875 l 0,-38.3125 c -2.44183,-2.09896 -4.65982,-4.13197 -6.53125,-6.0625 -5.22501,-5.0139 -8.65625,-8.21875 -8.65625,-8.21875 z m -16.03125,6.875 -14.625,6.25 c 0,0 3.6361,3.55416 9.125,8.9375 1.60603,1.68633 3.48196,3.4517 5.5,5.28125 z m 717.59375,6.84375 c -0.55452,0.4982 -3.60733,3.23739 -8.90625,7.1875 -1.8188,1.42784 -4.538,3.51164 -6.6875,5.1875 l 0,33.625 c 3.10905,-2.03369 3.21444,-2.11249 6.4375,-4.21875 3.32248,-2.62758 5.96295,-4.72219 9.15625,-7.25 z m 15.625,10.5625 0,11.59375 c 4.58274,-3.65591 7.39276,-6.21875 7.4375,-6.21875 z m -686.40625,2.4375 0,36.5625 c 0.76642,0.48443 1.84375,1.15625 1.84375,1.15625 l 13.75,-8.625 0,-17.4375 c -4.76421,-3.30461 -10.21146,-7.2821 -15.59375,-11.65625 z m 639.59375,11.3125 -15.59375,10.03125 0,26.78125 2.9375,3.375 c 0,0 8.88735,-5.81246 12.65625,-8.28125 z m -573.25,28.6875 c -1.20626,1.49537 -2.5485,2.9511 -3.9375,4.40625 l 0,34.40625 c 1.70951,1.50829 3.44583,3.08263 5.1875,4.71875 -1.73635,0.48651 -3.46681,1.02534 -5.1875,1.59375 l 0,35.21875 c 4.91605,-2.48677 10.13586,-4.39323 15.59375,-5.84375 l 0,-65.4375 c -3.96512,-3.2891 -7.80865,-6.2832 -11.5,-8.875 -0.0529,-0.10556 -0.10356,-0.082 -0.15625,-0.1875 z m -19.5625,18.375 c -1.69927,1.39322 -3.38891,2.79172 -5.09375,4.1875 1.64902,1.15877 3.48989,2.61191 5.09375,3.8125 z m 46.8125,4.75 0,48.375 c 0.14647,-0.0192 0.29084,-0.0437 0.4375,-0.0625 5.06051,5.97179 10.14691,12.2716 15.15625,18.84375 l 0,-52.90625 c -0.53141,0.0284 -1.06084,0.0622 -1.59375,0.0937 -4.73417,-5.11154 -9.40031,-9.8871 -14,-14.34375 z m 62.40625,13.25 0,32.75 c 5.16592,0.0436 10.36715,0.22775 15.59375,0.53125 l 0,-32.8125 c -5.19998,-0.266 -10.40071,-0.43461 -15.59375,-0.46875 z m -15.59375,0.21875 -9.59375,0.1875 c -1.95021,0.0281 -4.01339,0.0588 -6.03125,0.0937 l 0,75.09375 c 3.20416,4.71784 6.3343,9.51437 9.40625,14.40625 -0.63333,0.31666 -1.09722,0.70486 -1.625,0.96875 -2.62556,1.587 -5.21035,3.00801 -7.78125,4.28125 l 0,35.46875 c 5.20323,-1.74992 10.4135,-3.92876 15.625,-6.5625 l 0,-82.9375 c -2.01024,-2.73602 -4.00326,-5.43868 -6.03125,-8.09375 l 6.03125,-0.15625 0,-32.75 z m 46.78125,1.34375 0,80.40625 c 1.03707,-1.43735 2.09177,-2.89614 3.125,-4.40625 4.53889,-6.49168 7.42569,-13.50277 9.90625,-19.625 0.9075,-2.24422 1.75193,-4.26412 2.5625,-6.09375 l 0,-48.6875 c -5.19376,-0.61134 -10.38911,-1.13516 -15.59375,-1.59375 z m 31.21875,3.625 0,33.125 c 5.20697,0.75493 10.40072,1.52983 15.59375,2.34375 l 0,-33.15625 c -5.1833,-0.80379 -10.3812,-1.58241 -15.59375,-2.3125 z m 31.1875,4.8125 0,33.15625 c 0.54901,0.0892 1.10794,0.16079 1.65625,0.25 4.61568,0.74364 9.27733,1.5241 13.9375,2.28125 l 0,-33.1875 c -2.87701,-0.46645 -5.75534,-0.91011 -8.65625,-1.375 -2.30419,-0.37687 -4.6242,-0.74874 -6.9375,-1.125 z m 31.1875,4.9375 0,6.21875 0.1875,-6.1875 c -0.0626,-0.009 -0.1249,-0.0222 -0.1875,-0.0313 z m -234,0.34375 c -3.61441,1.86078 -7.16103,3.9374 -10.59375,6.28125 -1.76964,1.23619 -3.4231,2.46847 -5,3.71875 l 0,91.1875 c 4.63833,3.3214 9.86088,6.26917 15.59375,8.84375 l 0,-38.34375 c -4.82493,-4.32411 -7.7863,-9.16265 -8.28125,-13.9375 -0.61202,-5.69937 2.30909,-11.87119 8.28125,-17.875 z M 346.96875,726.5 c -0.61326,1.45507 -1.22293,2.89509 -1.78125,4.28125 -2.05834,5.06668 -3.93541,9.81736 -6.46875,13.40625 -1.84722,2.6389 -3.65277,5.11319 -5.5,7.59375 -0.61275,-0.95555 -1.22627,-1.89655 -1.84375,-2.84375 l 0,65.25 c 6.04032,12.27472 11.31749,24.6872 15.59375,36.9375 z m -156,0.28125 c -9.71295,13.95128 -10.48014,27.00268 -9.65625,35.0625 0.9474,8.81303 4.27306,17.13804 9.65625,24.59375 z m 46.8125,54.78125 0,34.8125 c 5.26473,1.59189 10.45298,2.79084 15.59375,3.59375 l 0,-33.40625 c -5.04,-1.12974 -10.21783,-2.80075 -15.59375,-5 z m 46.78125,4.78125 c -5.17541,1.30836 -10.35226,1.98457 -15.59375,2 l 0,32.84375 c 5.23001,-0.007 10.42712,-0.45144 15.59375,-1.3125 z m 78,17.3125 0,129.5625 15.59375,3.25 0,-94.96875 c -4.34563,-12.64812 -9.61665,-25.32276 -15.59375,-37.84375 z"
     inkscape:connector-curvature="0"
     sodipodi:nodetypes="ccccccccccccccccccccccccccccccccccccccccccccccccccccccccccccccccccccccccccccccccccccccccccccccccccccccccccccccccccccccccccccccccccccccccccccccccccccccccccccccccccccccccccccccccccccccccccccccccccccccccccccccccccccccccccccccccccccccccccccccccccccccccccccccccccccccccccccccccccccccccccccccccccccccccccccccccccccccccccccccccccccccccccccccccccccccccccccccccccccccccccccccccccccccccccccccccccccccccccccc" />
</svg>
