<svg id="Layer_1" data-name="Layer 1" xmlns="http://www.w3.org/2000/svg" viewBox="0 0 17.5 20.64"><defs><style>.cls-1{fill:#757575;fill-rule:evenodd;}</style></defs><title>Icons</title><path class="cls-1" d="M15.41,9.1h2A7.91,7.91,0,0,1,15.81,13l-1.42-1.41A5.9,5.9,0,0,0,15.41,9.1ZM3.52,7a5.81,5.81,0,0,1,1-2.47L3.12,3.1A7.91,7.91,0,0,0,1.5,7ZM8.4,2.13V.1A7.92,7.92,0,0,0,4.5,1.71L5.94,3.15A5.79,5.79,0,0,1,8.4,2.13Zm-4.88,7h-2A7.91,7.91,0,0,0,3.12,13l1.42-1.41A5.9,5.9,0,0,1,3.52,9.1ZM13,3.05,14.4,1.61A7.92,7.92,0,0,0,10.5,0V2A5.79,5.79,0,0,1,13,3.05ZM17.43,7.1a7.91,7.91,0,0,0-1.62-3.89L14.39,4.63a5.81,5.81,0,0,1,1,2.47ZM14.88,15a3.51,3.51,0,0,1-3.5,3.43,6.41,6.41,0,0,1-3.78-2L3.14,20.64H.65l5.19-5c-.46-.22-.92-.89-1.34-1.2L5.94,13a6,6,0,0,0,1.41.71c.87-.77,2.61-2.14,4-2.14A3.51,3.51,0,0,1,14.88,15Zm-2,.15a8,8,0,0,1-2.35.67V14a5.12,5.12,0,0,0,1.32-.4,1.55,1.55,0,0,0-.44-.07,5.68,5.68,0,0,0-2.28,1.3,5.76,5.76,0,0,0,2.28,1.55A1.48,1.48,0,0,0,12.85,15.19Z"/></svg>