<?xml version="1.0" encoding="UTF-8" standalone="no"?>
<svg
   xmlns:dc="http://purl.org/dc/elements/1.1/"
   xmlns:cc="http://creativecommons.org/ns#"
   xmlns:rdf="http://www.w3.org/1999/02/22-rdf-syntax-ns#"
   xmlns:svg="http://www.w3.org/2000/svg"
   xmlns="http://www.w3.org/2000/svg"
   xmlns:sodipodi="http://sodipodi.sourceforge.net/DTD/sodipodi-0.dtd"
   xmlns:inkscape="http://www.inkscape.org/namespaces/inkscape"
   width="1000px"
   height="1000px"
   viewBox="0 0 1000 1000"
   version="1.1"
   id="svg2"
   inkscape:version="0.48.4 r9939"
   sodipodi:docname="settings.svg">
  <metadata
     id="metadata57">
    <rdf:RDF>
      <cc:Work
         rdf:about="">
        <dc:format>image/svg+xml</dc:format>
        <dc:type
           rdf:resource="http://purl.org/dc/dcmitype/StillImage" />
      </cc:Work>
    </rdf:RDF>
  </metadata>
  <defs
     id="defs55" />
  <sodipodi:namedview
     pagecolor="#ffffff"
     bordercolor="#666666"
     borderopacity="1"
     objecttolerance="10"
     gridtolerance="10"
     guidetolerance="10"
     inkscape:pageopacity="0"
     inkscape:pageshadow="2"
     inkscape:window-width="1280"
     inkscape:window-height="985"
     id="namedview53"
     showgrid="false"
     inkscape:zoom="0.5"
     inkscape:cx="568.75676"
     inkscape:cy="502.11864"
     inkscape:window-x="-2"
     inkscape:window-y="16"
     inkscape:window-maximized="1"
     inkscape:current-layer="svg2" />
  <path
     inkscape:connector-curvature="0"
     d="m 343.725,343.77777 c 16.25556,-16.25555 34.25278,-29.39722 53.51667,-39.84722 l -76.89722,-76.84444 c -37.83966,25.76394 -69.42143,57.85755 -93.31112,93.25833 l 76.95,76.95 c 10.34445,-19.26389 23.53889,-37.31389 39.74167,-53.51667 z m 0,326.53612 c -20.53055,-20.58334 -36.25833,-44.12223 -47.39444,-69.29723 l -78.26945,78.375 c 27.53762,43.87111 59.79507,78.31783 99.59167,105.66112 l 76.68611,-76.68612 C 376.23611,698.23333 359.08333,685.725 343.725,670.31389 z m 326.53611,0 c -16.25555,16.25555 -34.30555,29.45 -53.51666,39.79444 l 76.89722,76.95 c 37.79756,-25.86999 69.40269,-57.97816 93.31111,-93.36389 l -76.89722,-76.89722 c -10.34445,19.21111 -23.59167,37.31389 -39.79445,53.51667 z m 9.13056,-452.30556 -78.32222,78.32222 c 25.12222,11.18889 48.66111,26.86389 69.24444,47.39445 15.35834,15.41111 27.86667,32.51111 38.10556,50.56111 L 785.10556,317.6 C 756.5649,276.69658 719.16607,242.01939 679.39167,218.00833 z m -461.38334,461.38333 -95.84444,95.84445 102.65278,102.65278 92.83611,-92.83611 C 276.69284,756.65698 241.9339,719.11288 218.00833,679.39166 z M 320.34445,227.08611 210.77778,117.51944 117.46667,210.83055 227.03333,320.39722 c 25.82854,-37.77516 57.89963,-69.48131 93.31112,-93.31111 z m 373.35,559.91944 95.58055,95.58056 93.36389,-93.36389 -95.63333,-95.58056 c -25.80134,37.83434 -57.95228,69.40265 -93.31111,93.36389 z m 81.54167,-664.84167 -95.79167,95.84445 c 43.87069,27.57124 78.19938,59.86547 105.60833,99.59167 l 92.83611,-92.83612 z m -65.18056,494.63334 76.89722,76.89722 c 75.89445,-113.525 75.26111,-263.09722 -1.9,-376.04167 l -76.68611,76.68611 c 38.52778,68.87501 39.21389,153.10834 1.68889,222.45834 z M 394.28611,708.36666 317.6,785.05278 c 112.99722,77.10833 262.51667,77.84722 376.04167,1.95277 l -76.89722,-76.95 c -69.29723,37.525 -153.58334,36.89167 -222.45834,-1.68889 z m -90.35555,-311.07222 -76.95,-76.95 c -72.14723,107.93056 -75.15556,248.425 -9.025,359.04722 l 78.26944,-78.375 c -28.92222,-64.96944 -26.44167,-140.6 7.70556,-203.72222 z M 601.06945,296.33055 679.39167,218.00833 C 568.71667,151.93055 428.275,154.88611 320.34445,227.08611 l 76.89722,76.84444 c 63.12222,-34.14722 138.75278,-36.62778 203.82778,-7.6 z M 500,279.01944 c 22.95834,0 45.07222,3.43056 65.97222,9.71111 l 0,-108.775 c -44.98116,-8.52264 -90.05637,-8.21768 -131.94444,0 l 0,108.775 c 20.9,-6.22778 43.01389,-9.71111 65.97222,-9.71111 z M 269.04445,509.92222 c 0,-29.02778 5.64722,-56.78889 15.46388,-82.43889 l -110.78055,0 c -11.48534,50.45418 -13.1276,97.66403 -4.275,145.13889 l 108.45833,0 c -5.59444,-20.00278 -8.86666,-40.90278 -8.86666,-62.7 z M 500,740.825 c -22.95833,0 -45.07222,-3.43056 -65.97222,-9.71111 l 0,108.775 c 45.01966,8.47022 89.97217,8.05759 131.94444,0 l 0,-108.775 C 545.01945,737.39444 522.90556,740.825 500,740.825 z m 326.16667,-313.34167 -110.72778,0 c 9.86945,25.65 15.41111,53.35833 15.41111,82.43889 0,21.79722 -3.21944,42.75 -8.81389,62.7 l 108.45834,0 c 8.88825,-49.04201 6.87213,-100.16931 -4.32778,-145.13889 z m -652.38611,0 -135.586116,0 0,145.13889 131.258336,0 c -8.91757,-49.06164 -6.79593,-100.12813 4.32778,-145.13889 z m 392.19166,-247.475 0,-155.008336 -131.94444,0 0,154.955556 c 44.986,-8.54982 90.05376,-8.16553 131.94444,0.0528 z m -131.94444,659.88056 0,135.11111 131.94444,0 0,-135.11111 c -45.00838,8.42879 -90.02207,8.12482 -131.94444,0 z m 527.77778,-412.40556 -135.63889,0 c 11.55979,50.43978 13.1798,97.66711 4.32778,145.13889 l 131.25833,0 0,-145.13889 z m -395.83334,303.68333 0,108.77501 C 699.92223,813.28889 805.21389,707.04722 830.54723,572.675 l -108.45834,0 c -21.42778,75.89444 -80.64444,135.95555 -156.11667,158.49166 z m -288.06111,-158.54444 -108.45833,0 c 25.28055,134.425 130.57222,240.66667 264.575,267.26667 l 0,-108.775 C 358.45,708.63055 299.33889,648.56944 277.91111,572.62222 z m 156.11667,-283.89167 0,-108.775 c -127.35278,25.33333 -228.79167,122.49722 -260.3,247.475 l 110.78055,0 c 25.49167,-66.5 80.69723,-118.22222 149.51945,-138.7 z m 281.46389,138.75278 110.72778,0 C 794.71112,302.45277 693.325,205.34166 565.97222,180.00833 l 0,108.775 c 68.82223,20.425 123.97501,72.14722 149.51945,138.7 z"
     style="fill:#262323;fill-opacity:1;fill-rule:nonzero;stroke:none"
     id="path51"
     sodipodi:nodetypes="sccccsccccccsccccsccccccccccccccccccccccccccccccccccccccccccccccsccccssccccssccccsccscccccccccccccccccccccccccccccccccccccccccccc" />
</svg>
