<svg xmlns="http://www.w3.org/2000/svg" viewBox="0 0 750 750" height="1000" width="1000"><path d="M373.41 750.039c-85.692 0-170.653-29.297-240.235-87.156 129.64 105.468 320.8 97.41 441.652-22.707 100.34-101.075 122.313-249.754 66.649-372.07-8.055-21.973-4.395-37.352 8.789-50.536 15.383-15.383 45.41-17.578 62.988 0 2.2 2.195 8.79 10.985 10.988 18.309 52.735 134.765 24.903 294.433-84.23 404.297-73.973 73.242-170.652 109.863-266.602 109.863zM67.256 544.96c-10.984-.73-21.973-4.395-30.027-12.45-2.2-2.199-9.524-10.988-10.989-18.312C-27.224 379.433.61 219.765 110.471 110.637 248.899-28.523 469.36-36.583 616.574 87.199 486.937-18.27 296.507-10.215 175.655 110.637 75.315 210.977 52.61 359.66 109.007 481.972c7.324 21.973 3.66 37.356-9.523 50.54-8.055 8.054-20.508 12.449-32.227 12.449zm0 0"/></svg>