<?xml version="1.0" encoding="UTF-8" standalone="no"?>
<svg
   xmlns:dc="http://purl.org/dc/elements/1.1/"
   xmlns:cc="http://creativecommons.org/ns#"
   xmlns:rdf="http://www.w3.org/1999/02/22-rdf-syntax-ns#"
   xmlns:svg="http://www.w3.org/2000/svg"
   xmlns="http://www.w3.org/2000/svg"
   xmlns:sodipodi="http://sodipodi.sourceforge.net/DTD/sodipodi-0.dtd"
   xmlns:inkscape="http://www.inkscape.org/namespaces/inkscape"
   width="1000px"
   height="1000px"
   viewBox="0 0 1000 1000"
   version="1.1"
   id="svg2"
   inkscape:version="0.48.4 r9939"
   sodipodi:docname="transform-rotate.svg">
  <metadata
     id="metadata11">
    <rdf:RDF>
      <cc:Work
         rdf:about="">
        <dc:format>image/svg+xml</dc:format>
        <dc:type
           rdf:resource="http://purl.org/dc/dcmitype/StillImage" />
      </cc:Work>
    </rdf:RDF>
  </metadata>
  <defs
     id="defs9" />
  <sodipodi:namedview
     pagecolor="#ffffff"
     bordercolor="#666666"
     borderopacity="1"
     objecttolerance="10"
     gridtolerance="10"
     guidetolerance="10"
     inkscape:pageopacity="0"
     inkscape:pageshadow="2"
     inkscape:window-width="1280"
     inkscape:window-height="985"
     id="namedview7"
     showgrid="false"
     inkscape:zoom="0.236"
     inkscape:cx="116.52542"
     inkscape:cy="502.11864"
     inkscape:window-x="-2"
     inkscape:window-y="16"
     inkscape:window-maximized="1"
     inkscape:current-layer="svg2" />
  <path
     inkscape:connector-curvature="0"
     id="path5"
     d="M 852.48959,687.55903 C 879.93403,630.75693 895.70138,567.29166 895.70138,500 895.70138,259.92708 700.4236,64.649296 460.3507,64.649296 220.27777,64.649296 24.999995,259.92708 24.999995,500 c 0,240.07292 195.277775,435.3507 435.350705,435.3507 69.60068,0 135.30901,-16.82292 193.62846,-45.98265 L 641.37848,856.05208 C 587.01736,883.82638 525.59722,899.79167 460.3507,899.79167 239.93749,899.79167 60.493042,720.47916 60.493042,500 c 0,-220.47918 179.378478,-399.85764 399.857658,-399.85764 220.54512,0 399.85763,179.37846 399.85763,399.85764 0,61.15625 -14.64584,118.61805 -39.45139,170.40625 l -2.63889,-1.64932 -81.27778,-94.53819 29.9514,226.68056 L 975,706.42708 z"
     sodipodi:nodetypes="cssssccsssscccccc" />
</svg>
