<?xml version="1.0" encoding="UTF-8" standalone="no"?>
<svg
   xmlns:dc="http://purl.org/dc/elements/1.1/"
   xmlns:cc="http://creativecommons.org/ns#"
   xmlns:rdf="http://www.w3.org/1999/02/22-rdf-syntax-ns#"
   xmlns:svg="http://www.w3.org/2000/svg"
   xmlns="http://www.w3.org/2000/svg"
   xmlns:sodipodi="http://sodipodi.sourceforge.net/DTD/sodipodi-0.dtd"
   xmlns:inkscape="http://www.inkscape.org/namespaces/inkscape"
   width="1000px"
   height="1000px"
   viewBox="0 0 1000 1000"
   version="1.1"
   id="svg2"
   inkscape:version="0.48.4 r9939"
   sodipodi:docname="view-zoom-in.svg">
  <metadata
     id="metadata15">
    <rdf:RDF>
      <cc:Work
         rdf:about="">
        <dc:format>image/svg+xml</dc:format>
        <dc:type
           rdf:resource="http://purl.org/dc/dcmitype/StillImage" />
      </cc:Work>
    </rdf:RDF>
  </metadata>
  <defs
     id="defs13" />
  <sodipodi:namedview
     pagecolor="#ffffff"
     bordercolor="#666666"
     borderopacity="1"
     objecttolerance="10"
     gridtolerance="10"
     guidetolerance="10"
     inkscape:pageopacity="0"
     inkscape:pageshadow="2"
     inkscape:window-width="1280"
     inkscape:window-height="985"
     id="namedview11"
     showgrid="false"
     inkscape:zoom="0.5"
     inkscape:cx="116.52542"
     inkscape:cy="504.35593"
     inkscape:window-x="-2"
     inkscape:window-y="16"
     inkscape:window-maximized="1"
     inkscape:current-layer="svg2" />
  <path
     id="path9"
     d="m 312.5,112.28125 c -125.71805,0 -227.90625,102.1882 -227.90625,227.90625 0,125.71804 102.1882,227.90625 227.90625,227.90625 125.71804,0 227.90625,-102.18821 227.90625,-227.90625 0,-125.71805 -102.18821,-227.90625 -227.90625,-227.90625 z m 0,24.6875 c 112.37452,0 203.21875,90.84422 203.21875,203.21875 0,112.37452 -90.84423,203.21875 -203.21875,203.21875 -112.37453,0 -203.21875,-90.84423 -203.21875,-203.21875 0,-112.37453 90.84422,-203.21875 203.21875,-203.21875 z M 312.4375,52.75 C 174.69249,49.882205 46.608728,159.98256 28.315029,296.44359 4.9895486,430.18814 91.114771,571.32472 220.29816,612.50965 c 74.60881,25.62627 159.66648,18.33007 228.73309,-19.8534 113.60809,115.08489 226.23328,231.22391 340.4538,345.65173 49.23769,44.19203 137.41578,13.0029 147.28017,-52.6251 C 947.92238,841.4602 916.96608,805.53125 886.89864,777.9313 782.48453,671.71462 678.07041,565.49793 573.6563,459.28125 632.25442,338.51048 589.43364,181.2979 478.78556,105.81691 430.63754,71.379587 371.63218,52.567583 312.4375,52.75 z m 0,24.6875 c 128.30197,-2.892159 247.12564,101.66286 260.67245,229.2528 7.15703,53.92653 -3.70017,109.62885 -29.1412,157.59095 118.3029,120.68877 237.29838,240.79263 355.21235,361.80383 36.0761,40.15014 1.72368,111.32003 -52.06293,108.36467 C 804.2522,933.6916 782.23842,892.09668 753.22049,866.9057 653.2733,765.21714 553.31579,663.5387 453.37505,561.8438 349.77097,630.62249 199.6357,610.53066 117.88816,516.9194 29.114759,423.29969 27.216396,263.89589 113.70491,168.17095 162.75821,110.94307 237.03836,76.948029 312.4375,77.4375 z m 427.46875,-36.5 c 0,36.135417 0,72.27083 0,108.40625 -36.16667,0 -72.33333,0 -108.5,0 0,42.27083 0,84.54167 0,126.8125 36.16667,0 72.33333,0 108.5,0 0,36.10417 0,72.20833 0,108.3125 42.25,0 84.5,0 126.75,0 0,-36.10417 0,-72.20833 0,-108.3125 36.11458,0 72.22917,0 108.34375,0 0,-42.27083 0,-84.54167 0,-126.8125 -36.11458,0 -72.22917,0 -108.34375,0 0,-36.13542 0,-72.270833 0,-108.40625 -42.25,0 -84.5,0 -126.75,0 z m 24.6875,24.6875 c 25.79167,0 51.58333,0 77.375,0 0,36.13542 0,72.27083 0,108.40625 36.11458,0 72.22917,0 108.34375,0 0,25.80208 0,51.60417 0,77.40625 -36.11458,0 -72.22917,0 -108.34375,0 0,36.11458 0,72.22917 0,108.34375 -25.79167,0 -51.58333,0 -77.375,0 0,-36.11458 0,-72.22917 0,-108.34375 -36.16667,0 -72.33333,0 -108.5,0 0,-25.80208 0,-51.60417 0,-77.40625 36.16667,0 72.33333,0 108.5,0 0,-36.13542 0,-72.27083 0,-108.40625 z"
     inkscape:connector-curvature="0"
     sodipodi:nodetypes="sssssssssscccccccccccccccccccccccccccccccccccccccccccccc" />
</svg>
