<svg width="92" height="32" viewBox="0 0 92 32" fill="none" xmlns="http://www.w3.org/2000/svg">
<path d="M19.389 11.0929H24.0319V5.94697C24.0319 4.51414 23.3532 3.79002 21.9649 3.79002H21.4405C20.0677 3.79002 19.3735 4.51414 19.3735 5.94697L19.389 11.0929ZM19.389 14.3591L19.4044 19.998C19.4044 21.4308 20.0985 22.1396 21.4713 22.1396H22.0729C23.4457 22.1396 24.1398 21.4308 24.1398 19.998V17.2248H27.3019V19.8593C27.3019 23.4799 25.5435 25.3288 22.0575 25.3288H21.3634C17.8773 25.3288 16.1189 23.4954 16.1189 20.2907V6.50162C16.1189 2.44962 17.8773 0.616211 21.3634 0.616211H22.0575C25.5435 0.616211 27.3019 2.44962 27.3019 6.07023L27.2865 14.3437L19.389 14.3591Z" fill="white"/>
<path d="M32.6851 20.861C33.5798 21.6622 34.6132 22.109 35.693 22.109C36.8961 22.109 37.5902 21.5235 37.5902 20.1369V5.80853C37.5902 4.42192 36.8961 3.83646 35.693 3.83646C34.6132 3.83646 33.5798 4.28326 32.6851 5.08441V20.861ZM29.415 0.909159H32.6851V2.46525C33.4564 1.61787 34.7829 0.631836 36.6802 0.631836C39.4721 0.631836 40.8449 2.55769 40.8449 5.42336V20.5529C40.8449 23.4185 39.4721 25.3444 36.6802 25.3444C34.7829 25.3444 33.4564 24.4046 32.6851 23.6034V31.3993H29.415V0.909159Z" fill="white"/>
<path d="M50.6398 20.9843V13.0343L47.6782 14.2053C46.4751 14.6983 46.0895 15.33 46.0895 16.7166V20.3834C46.0895 21.5543 46.6448 22.1244 47.6782 22.1244C48.6654 22.1244 49.5755 21.7546 50.6398 20.9843ZM42.8194 16.6549C42.8194 13.6506 43.7603 12.4489 46.2591 11.5553L50.6398 9.98379V5.9472C50.6398 4.51436 49.9457 3.75942 48.5729 3.75942H48.0484C46.6756 3.75942 45.9815 4.51436 45.9815 5.9472V9.36751H42.804V6.08586C42.804 2.46525 44.5624 0.631836 48.0484 0.631836H48.6654C52.1514 0.631836 53.9099 2.46525 53.9099 6.08586V25.0671H50.6398V23.5418C49.7451 24.4354 48.5266 25.329 46.6447 25.329C44.0225 25.329 42.8194 23.7575 42.8194 21.0767V16.6549Z" fill="white"/>
<path d="M67.1134 25.0823H63.8434V5.59262C63.8434 4.39089 63.2881 3.85165 62.3009 3.85165C61.4062 3.85165 60.4499 4.206 59.293 5.05338V25.0669H56.0229V0.908941H59.293V2.46503C60.2494 1.52521 61.4834 0.616211 63.2881 0.616211C64.9694 0.616211 66.08 1.34033 66.6815 2.58829C67.8538 1.55603 69.2266 0.616211 71.1085 0.616211C73.6382 0.616211 74.9339 2.23393 74.9339 4.8685V25.0515H71.6638V5.59262C71.6638 4.39089 71.1085 3.85165 70.1213 3.85165C69.2266 3.85165 68.2703 4.206 67.1134 5.05338V25.0823Z" fill="white"/>
<path d="M3.54761 11.432V14.7137L11.9387 22.9255V18.3651L6.44748 13.0343L11.9387 7.56488V3.1123L3.54761 11.432Z" fill="white"/>
<path d="M79.0833 7.56488L84.5745 13.0343L79.0833 18.3959V22.9255L87.4744 14.7137V11.432L79.0833 3.1123V7.56488Z" fill="white"/>
</svg>
