<svg width="749" height="63" viewBox="0 0 749 63" fill="none" xmlns="http://www.w3.org/2000/svg">
<path d="M38.5699 44.9448C37.2341 43.698 35.9004 42.4549 34.5566 41.2001C33.1792 39.9142 31.798 38.6288 30.4121 37.3296V43.3723C30.4121 44.2105 30.4164 45.0488 30.4249 45.887C30.4249 45.9822 30.4121 46.0631 30.4121 46.1334V50.115C30.4121 51.7409 30.4121 53.1517 30.4164 54.0558L30.9649 54.3731C32.378 54.9579 33.7847 54.9711 35.1952 54.4376L43.5821 49.6206C42.8769 48.984 40.838 47.0646 38.5699 44.9448Z" fill="white"/>
<path d="M24.113 45.8292C24.113 45.12 24.113 44.4106 24.113 43.701C24.1162 32.8487 24.1216 12.7654 24.1216 12.3524V12.3477L14.4803 17.8705C12.8279 19.0169 12.0043 20.6471 12.0043 22.7351C12.0054 28.479 12.015 34.2246 12 39.9664C11.9947 42.0729 12.782 43.6973 14.3833 44.8759L24.1125 50.448C24.1125 50.1587 24.1125 48.4593 24.1125 45.926C24.1136 45.8948 24.113 45.8631 24.113 45.8292Z" fill="white"/>
<path d="M48.6693 16.0716L51.959 17.9553C53.5028 19.0873 54.2933 20.6577 54.2938 22.658V40.1674C54.2938 42.118 53.5369 43.6588 52.0662 44.7856L49.2666 46.3888H49.2602C49.2598 46.3886 49.2595 46.3884 49.259 46.3881C49.0678 46.1987 36.7021 33.9514 36.4489 33.9291C36.5352 33.843 37.551 32.7936 38.9632 31.3337C43.3499 26.8072 51.9303 17.9452 51.9303 17.9452L48.6693 16.0716Z" fill="url(#paint0_linear_3623_295)"/>
<path d="M48.6693 16.0716L51.959 17.9553C53.5028 19.0873 54.2933 20.6577 54.2938 22.658V40.1674C54.2938 42.118 53.5369 43.6588 52.0662 44.7856L49.2666 46.3888H49.2602C49.2598 46.3886 49.2595 46.3884 49.259 46.3881C49.0678 46.1987 36.7021 33.9514 36.4489 33.9291C36.5352 33.843 37.551 32.7936 38.9632 31.3337C43.3499 26.8072 51.9303 17.9452 51.9303 17.9452L48.6693 16.0716Z" fill="white" fill-opacity="0.2"/>
<path d="M46.0987 14.5998L35.3077 8.42119C33.8962 7.857 32.4473 7.85489 30.9447 8.4434L30.4116 8.71359C30.4116 8.71359 30.4116 28.8989 30.4939 30.3824C31.1642 29.7079 45.8499 14.8515 46.0987 14.5998Z" fill="url(#paint1_linear_3623_295)"/>
<path d="M46.0987 14.5998L35.3077 8.42119C33.8962 7.857 32.4473 7.85489 30.9447 8.4434L30.4116 8.71359C30.4116 8.71359 30.4116 28.8989 30.4939 30.3824C31.1642 29.7079 45.8499 14.8515 46.0987 14.5998Z" fill="white" fill-opacity="0.2"/>
<path d="M215.902 45.6802V22.804H220.197V26.4379H220.434C220.85 25.2068 221.583 24.2387 222.633 23.5337C223.693 22.8189 224.892 22.4614 226.229 22.4614C226.507 22.4614 226.833 22.4714 227.21 22.4912C227.596 22.5111 227.898 22.5359 228.116 22.5657V26.8252C227.938 26.7755 227.621 26.7209 227.165 26.6614C226.71 26.5918 226.254 26.5571 225.798 26.5571C224.748 26.5571 223.812 26.7805 222.99 27.2273C222.178 27.6642 221.534 28.2748 221.058 29.0592C220.583 29.8336 220.345 30.7173 220.345 31.7102V45.6802H215.902Z" fill="white"/>
<path d="M201.181 46.1421C198.932 46.1421 196.996 45.6605 195.371 44.6974C193.757 43.7244 192.509 42.3592 191.627 40.6018C190.755 38.8344 190.319 36.7642 190.319 34.3912C190.319 32.048 190.755 29.9828 191.627 28.1956C192.509 26.4084 193.737 25.0134 195.312 24.0106C196.897 23.0078 198.749 22.5063 200.869 22.5063C202.157 22.5063 203.405 22.7198 204.613 23.1468C205.822 23.5737 206.907 24.2439 207.867 25.1574C208.828 26.0708 209.586 27.2573 210.141 28.7169C210.696 30.1665 210.973 31.9289 210.973 34.004V35.5827H192.83V32.2466H206.619C206.619 31.075 206.382 30.0374 205.906 29.1339C205.431 28.2204 204.762 27.5006 203.9 26.9744C203.048 26.4481 202.048 26.185 200.899 26.185C199.651 26.185 198.561 26.4928 197.63 27.1084C196.709 27.7141 195.995 28.5084 195.49 29.4913C194.995 30.4644 194.747 31.5218 194.747 32.6636V35.2699C194.747 36.799 195.015 38.0997 195.55 39.172C196.094 40.2443 196.852 41.0635 197.823 41.6294C198.794 42.1854 199.928 42.4634 201.226 42.4634C202.068 42.4634 202.835 42.3443 203.529 42.106C204.222 41.8578 204.821 41.4904 205.327 41.0039C205.832 40.5174 206.218 39.9167 206.486 39.2018L210.691 39.9614C210.354 41.2025 209.75 42.2897 208.878 43.223C208.016 44.1464 206.931 44.8662 205.624 45.3825C204.326 45.8889 202.845 46.1421 201.181 46.1421Z" fill="white"/>
<path d="M170.617 32.0976V45.6803H166.174V15.1787H170.557V26.5274H170.839C171.374 25.2963 172.192 24.3183 173.291 23.5935C174.391 22.8686 175.827 22.5062 177.6 22.5062C179.165 22.5062 180.532 22.8289 181.701 23.4743C182.88 24.1197 183.791 25.0828 184.435 26.3636C185.089 27.6345 185.416 29.2231 185.416 31.1295V45.6803H180.973V31.6656C180.973 29.9877 180.542 28.687 179.68 27.7636C178.819 26.8303 177.62 26.3636 176.085 26.3636C175.035 26.3636 174.094 26.587 173.261 27.0338C172.439 27.4806 171.79 28.1359 171.315 28.9997C170.849 29.8536 170.617 30.8862 170.617 32.0976Z" fill="white"/>
<path d="M152.047 46.1421C149.838 46.1421 147.936 45.6407 146.341 44.6379C144.756 43.6251 143.538 42.2301 142.686 40.4528C141.834 38.6756 141.408 36.6401 141.408 34.3466C141.408 32.0232 141.844 29.9729 142.716 28.1956C143.587 26.4084 144.816 25.0134 146.401 24.0106C147.986 23.0078 149.853 22.5063 152.002 22.5063C153.736 22.5063 155.281 22.829 156.638 23.4744C157.995 24.1099 159.09 25.0035 159.922 26.1552C160.764 27.307 161.264 28.6523 161.423 30.1913H157.099C156.861 29.119 156.316 28.1956 155.465 27.4212C154.623 26.6467 153.493 26.2595 152.077 26.2595C150.839 26.2595 149.754 26.5871 148.823 27.2424C147.901 27.8878 147.183 28.8112 146.668 30.0126C146.153 31.2041 145.896 32.614 145.896 34.2423C145.896 35.9104 146.148 37.3501 146.653 38.5614C147.159 39.7727 147.872 40.711 148.793 41.3762C149.724 42.0415 150.819 42.3741 152.077 42.3741C152.919 42.3741 153.682 42.2202 154.365 41.9124C155.058 41.5947 155.638 41.1429 156.103 40.5571C156.579 39.9713 156.911 39.2663 157.099 38.4422H161.423C161.264 39.9216 160.784 41.2422 159.982 42.4039C159.179 43.5655 158.104 44.479 156.757 45.1442C155.42 45.8095 153.85 46.1421 152.047 46.1421Z" fill="white"/>
<path d="M137.764 22.804V26.3784H125.298V22.804H137.764ZM128.641 17.3232H133.084V38.9633C133.084 39.8271 133.212 40.4774 133.47 40.9143C133.727 41.3412 134.059 41.6341 134.465 41.793C134.881 41.9419 135.332 42.0164 135.818 42.0164C136.174 42.0164 136.486 41.9916 136.754 41.9419C137.021 41.8923 137.229 41.8526 137.378 41.8228L138.18 45.5015C137.923 45.6007 137.556 45.7 137.081 45.7993C136.605 45.9085 136.011 45.9681 135.298 45.978C134.129 45.9979 133.039 45.7894 132.029 45.3525C131.018 44.9156 130.201 44.2405 129.577 43.327C128.953 42.4136 128.641 41.2668 128.641 39.8867V17.3232Z" fill="white"/>
<path d="M112.389 46.1421C110.14 46.1421 108.204 45.6605 106.579 44.6974C104.965 43.7244 103.717 42.3592 102.835 40.6018C101.963 38.8344 101.527 36.7642 101.527 34.3912C101.527 32.048 101.963 29.9828 102.835 28.1956C103.717 26.4084 104.945 25.0134 106.52 24.0106C108.105 23.0078 109.957 22.5063 112.077 22.5063C113.365 22.5063 114.613 22.7198 115.821 23.1468C117.03 23.5737 118.115 24.2439 119.075 25.1574C120.036 26.0708 120.794 27.2573 121.349 28.7169C121.904 30.1665 122.181 31.9289 122.181 34.004V35.5827H104.038V32.2466H117.827C117.827 31.075 117.59 30.0374 117.114 29.1339C116.639 28.2204 115.97 27.5006 115.108 26.9744C114.256 26.4481 113.256 26.185 112.107 26.185C110.859 26.185 109.769 26.4928 108.838 27.1084C107.917 27.7141 107.203 28.5084 106.698 29.4913C106.203 30.4644 105.955 31.5218 105.955 32.6636V35.2699C105.955 36.799 106.223 38.0997 106.758 39.172C107.302 40.2443 108.06 41.0635 109.031 41.6294C110.002 42.1854 111.136 42.4634 112.434 42.4634C113.276 42.4634 114.043 42.3443 114.737 42.106C115.43 41.8578 116.029 41.4904 116.535 41.0039C117.04 40.5174 117.426 39.9167 117.694 39.2018L121.899 39.9614C121.562 41.2025 120.958 42.2897 120.086 43.223C119.224 44.1464 118.139 44.8662 116.832 45.3825C115.534 45.8889 114.053 46.1421 112.389 46.1421Z" fill="white"/>
<path d="M76.7988 45.6803V15.1787H81.3902V29.7444H81.7616L94.5253 15.1787H100.305L88.032 28.9104L100.35 45.6803H94.8224L84.986 32.0529L81.3902 36.1932V45.6803H76.7988Z" fill="white"/>
<rect x="268" y="8" width="2" height="47" fill="#D9D9D9"/>
<path d="M314.284 46V16.474H329.824V19.078H317.182V30.166H328.018V32.77H317.182V46H314.284ZM334.731 46V24.874H337.545V28.612C337.545 29.536 337.461 30.292 337.461 30.292H337.545C338.553 27.1 340.905 24.664 344.223 24.664C344.811 24.664 345.357 24.79 345.357 24.79V27.604C345.357 27.604 344.853 27.52 344.307 27.52C341.325 27.52 339.099 29.872 338.175 32.98C337.755 34.324 337.587 35.752 337.587 37.096V46H334.731ZM347.986 35.458C347.986 28.528 352.69 24.37 358.402 24.37C364.24 24.37 367.222 28.864 367.222 34.114C367.222 34.618 367.138 35.584 367.138 35.584H350.926C351.052 41.002 354.748 43.942 359.116 43.942C362.98 43.942 365.542 41.38 365.542 41.38L366.844 43.564C366.844 43.564 363.778 46.504 359.032 46.504C352.732 46.504 347.986 41.968 347.986 35.458ZM351.052 33.232H364.324C364.156 28.822 361.468 26.764 358.318 26.764C354.79 26.764 351.724 28.99 351.052 33.232ZM371.201 35.458C371.201 28.528 375.905 24.37 381.617 24.37C387.455 24.37 390.437 28.864 390.437 34.114C390.437 34.618 390.353 35.584 390.353 35.584H374.141C374.267 41.002 377.963 43.942 382.331 43.942C386.195 43.942 388.757 41.38 388.757 41.38L390.059 43.564C390.059 43.564 386.993 46.504 382.247 46.504C375.947 46.504 371.201 41.968 371.201 35.458ZM374.267 33.232H387.539C387.371 28.822 384.683 26.764 381.533 26.764C378.005 26.764 374.939 28.99 374.267 33.232ZM405.443 40.246C405.443 33.106 414.725 32.938 418.379 32.938H419.555V32.392C419.555 28.318 417.329 26.932 414.305 26.932C410.819 26.932 408.341 28.948 408.341 28.948L406.997 26.764C406.997 26.764 409.769 24.37 414.515 24.37C419.597 24.37 422.411 27.184 422.411 32.476V46H419.681V43.69C419.681 42.64 419.765 41.926 419.765 41.926H419.681C419.681 41.926 417.917 46.504 412.625 46.504C409.097 46.504 405.443 44.446 405.443 40.246ZM408.383 40.078C408.383 42.052 409.937 44.068 413.087 44.068C417.119 44.068 419.555 39.868 419.555 36.214V35.29H418.337C415.019 35.29 408.383 35.416 408.383 40.078ZM428.985 46V24.874H431.799V28.024C431.799 28.948 431.715 29.704 431.715 29.704H431.799C432.555 27.772 435.243 24.37 440.241 24.37C445.449 24.37 447.297 27.352 447.297 32.56V46H444.441V33.316C444.441 29.998 443.937 27.058 439.863 27.058C436.251 27.058 433.143 29.536 432.177 33.022C431.925 33.904 431.841 34.87 431.841 35.878V46H428.985ZM452.496 35.416C452.496 28.738 456.444 24.37 461.988 24.37C467.112 24.37 468.876 28.36 468.876 28.36H468.96C468.96 28.36 468.876 27.646 468.876 26.764V16.474H471.732V46H468.96V43.774C468.96 42.85 469.044 42.262 469.044 42.262H468.96C468.96 42.262 467.238 46.504 461.694 46.504C456.024 46.504 452.496 41.968 452.496 35.416ZM455.436 35.416C455.436 40.624 458.166 43.942 462.114 43.942C465.642 43.942 468.96 41.422 468.96 35.416C468.96 31.132 466.776 26.932 462.24 26.932C458.502 26.932 455.436 30.082 455.436 35.416ZM488.339 35.332C488.339 29.074 493.337 24.37 499.511 24.37C505.685 24.37 510.683 29.074 510.683 35.332C510.683 41.716 505.685 46.504 499.511 46.504C493.337 46.504 488.339 41.716 488.339 35.332ZM491.279 35.332C491.279 40.246 494.975 43.942 499.511 43.942C504.047 43.942 507.743 40.246 507.743 35.332C507.743 30.544 504.047 26.974 499.511 26.974C494.975 26.974 491.279 30.544 491.279 35.332ZM516.02 54.4V24.874H518.75V26.932C518.75 27.856 518.666 28.57 518.666 28.57H518.75C518.75 28.57 520.472 24.37 526.058 24.37C531.728 24.37 535.256 28.906 535.256 35.458C535.256 42.136 531.266 46.504 525.806 46.504C520.724 46.504 518.876 42.472 518.876 42.472H518.792C518.792 42.472 518.876 43.228 518.876 44.32V54.4H516.02ZM518.792 35.5C518.792 39.742 521.144 43.984 525.512 43.984C529.25 43.984 532.316 40.834 532.316 35.458C532.316 30.292 529.586 26.974 525.638 26.974C522.11 26.974 518.792 29.494 518.792 35.5ZM539.283 35.458C539.283 28.528 543.987 24.37 549.699 24.37C555.537 24.37 558.519 28.864 558.519 34.114C558.519 34.618 558.435 35.584 558.435 35.584H542.223C542.349 41.002 546.045 43.942 550.413 43.942C554.277 43.942 556.839 41.38 556.839 41.38L558.141 43.564C558.141 43.564 555.075 46.504 550.329 46.504C544.029 46.504 539.283 41.968 539.283 35.458ZM542.349 33.232H555.621C555.453 28.822 552.765 26.764 549.615 26.764C546.087 26.764 543.021 28.99 542.349 33.232ZM563.967 46V24.874H566.781V28.024C566.781 28.948 566.697 29.704 566.697 29.704H566.781C567.537 27.772 570.225 24.37 575.223 24.37C580.431 24.37 582.279 27.352 582.279 32.56V46H579.423V33.316C579.423 29.998 578.919 27.058 574.845 27.058C571.233 27.058 568.125 29.536 567.159 33.022C566.907 33.904 566.823 34.87 566.823 35.878V46H563.967ZM589.788 35.374V32.77H601.716V35.374H589.788ZM607.814 43.438L609.368 41.38C609.368 41.38 611.72 43.942 615.668 43.942C617.936 43.942 619.91 42.808 619.91 40.582C619.91 35.962 608.528 37.096 608.528 30.208C608.528 26.428 611.93 24.37 615.752 24.37C620.204 24.37 622.262 26.68 622.262 26.68L620.96 28.864C620.96 28.864 619.154 26.932 615.668 26.932C613.526 26.932 611.468 27.856 611.468 30.208C611.468 34.87 622.85 33.61 622.85 40.582C622.85 44.026 619.868 46.504 615.626 46.504C610.502 46.504 607.814 43.438 607.814 43.438ZM626.603 35.332C626.603 29.074 631.601 24.37 637.775 24.37C643.949 24.37 648.947 29.074 648.947 35.332C648.947 41.716 643.949 46.504 637.775 46.504C631.601 46.504 626.603 41.716 626.603 35.332ZM629.543 35.332C629.543 40.246 633.239 43.942 637.775 43.942C642.311 43.942 646.007 40.246 646.007 35.332C646.007 30.544 642.311 26.974 637.775 26.974C633.239 26.974 629.543 30.544 629.543 35.332ZM653.99 38.314V24.874H656.846V37.558C656.846 40.876 657.35 43.816 661.424 43.816C666.254 43.816 669.236 39.574 669.236 34.996V24.874H672.092V46H669.32V42.85C669.32 41.926 669.404 41.17 669.404 41.17H669.32C668.48 43.228 665.708 46.504 661.046 46.504C656.09 46.504 653.99 43.816 653.99 38.314ZM678.975 46V24.874H681.789V28.612C681.789 29.536 681.705 30.292 681.705 30.292H681.789C682.797 27.1 685.149 24.664 688.467 24.664C689.055 24.664 689.601 24.79 689.601 24.79V27.604C689.601 27.604 689.097 27.52 688.551 27.52C685.569 27.52 683.343 29.872 682.419 32.98C681.999 34.324 681.831 35.752 681.831 37.096V46H678.975ZM692.23 35.458C692.23 28.948 697.102 24.37 703.318 24.37C708.484 24.37 711.046 27.394 711.046 27.394L709.576 29.536C709.576 29.536 707.224 26.974 703.402 26.974C698.782 26.974 695.17 30.418 695.17 35.458C695.17 40.414 698.824 43.942 703.486 43.942C707.77 43.942 710.248 40.96 710.248 40.96L711.55 43.186C711.55 43.186 708.694 46.504 703.318 46.504C697.06 46.504 692.23 42.01 692.23 35.458ZM715.281 35.458C715.281 28.528 719.985 24.37 725.697 24.37C731.535 24.37 734.517 28.864 734.517 34.114C734.517 34.618 734.433 35.584 734.433 35.584H718.221C718.347 41.002 722.043 43.942 726.411 43.942C730.275 43.942 732.837 41.38 732.837 41.38L734.139 43.564C734.139 43.564 731.073 46.504 726.327 46.504C720.027 46.504 715.281 41.968 715.281 35.458ZM718.347 33.232H731.619C731.451 28.822 728.763 26.764 725.613 26.764C722.085 26.764 719.019 28.99 718.347 33.232Z" fill="white"/>
<defs>
<linearGradient id="paint0_linear_3623_295" x1="51.0529" y1="16.5133" x2="34.9155" y2="33.7113" gradientUnits="userSpaceOnUse">
<stop stop-color="#3BC2D7"/>
<stop offset="0.74" stop-color="#1D9DB1"/>
</linearGradient>
<linearGradient id="paint1_linear_3623_295" x1="51.0529" y1="16.5133" x2="34.9155" y2="33.7113" gradientUnits="userSpaceOnUse">
<stop stop-color="#3BC2D7"/>
<stop offset="0.74" stop-color="#1D9DB1"/>
</linearGradient>
</defs>
</svg>
