<svg xmlns="http://www.w3.org/2000/svg" xmlns:xlink="http://www.w3.org/1999/xlink"><symbol viewBox="0 0 1000 1000" id="icon-about" xmlns="http://www.w3.org/2000/svg"><path d="M666.667 812.5V708.333c0-11.718-9.115-20.833-20.834-20.833h-62.5V354.167c0-11.72-9.114-20.834-20.833-20.834H354.167c-11.72 0-20.834 9.115-20.834 20.834v104.166c0 11.72 9.115 20.834 20.834 20.834h62.5V687.5h-62.5c-11.72 0-20.834 9.115-20.834 20.833V812.5c0 11.719 9.115 20.833 20.834 20.833h291.666c11.72 0 20.834-9.114 20.834-20.833zm-83.334-583.333V125c0-11.719-9.114-20.833-20.833-20.833h-125c-11.719 0-20.833 9.114-20.833 20.833v104.167c0 11.718 9.114 20.833 20.833 20.833h125c11.719 0 20.833-9.115 20.833-20.833zM1000 500c0 276.042-223.958 500-500 500C223.958 1000 0 776.042 0 500 0 223.958 223.958 0 500 0c276.042 0 500 223.958 500 500z"/></symbol><symbol viewBox="-125 -125 1000 1000" id="icon-analyse" xmlns="http://www.w3.org/2000/svg"><path d="M585.781 276.055l-8.73 15.797H559.59s-24.945 0-31.598 34.921l-7.066 34.922h47.808l-8.73 17.461H518.43l-24.942 122.23c-10.394 52.384-47.812 52.384-47.812 52.384h-54.047l7.07-17.461h17.043s26.61 0 33.676-34.922l24.945-122.23H435.7l8.73-17.462h33.676l7.067-34.922c10.394-52.382 47.808-52.382 47.808-52.382zm0 186.668l-33.676-46.149-12.054 7.485-12.059 7.898 34.508 52.8-57.79 55.708 19.958 19.957 54.047-51.969 37 56.125 12.058-7.898 12.055-7.485-41.574-60.699 57.371-55.293-9.977-9.976-9.976-10.395zm166.297-23.282c-.367 91.606-55.082 174.254-139.273 210.364a113.081 113.081 0 01-14.137 38.25c-19.602 35.312-55.742 58.308-96.035 61.113H110.172a118.487 118.487 0 01-93.543-60.7 124.736 124.736 0 01-4.574-115.16l180.851-356.706a41.618 41.618 0 005.82-17.461V80.238c-15.167-4.71-25.246-19.058-24.53-34.922C173.78 16.215 196.23.832 225.331.832h162.14a41.57 41.57 0 0148.641 44.066c.91 17.106-11.008 32.23-27.855 35.34v118.489c0 6.234 5.406 12.054 8.316 17.46l7.899 12.473c71.336-30.547 153.21-23.472 218.25 18.856 65.039 42.332 104.66 114.328 105.613 191.925M87.723 644.816c4.988 7.899 13.304 21.204 22.863 21.204h369.18c-111.414-17.891-193.543-113.74-194.149-226.58a228.229 228.229 0 0169.012-163.386l-12.473-22.453a127.586 127.586 0 01-17.875-54.875V83.98h-41.574v114.747a133.024 133.024 0 01-14.555 56.957L86.472 614.469a34.522 34.522 0 000 29.933m430.298-16.629c103.734-1.148 187.007-85.964 186.246-189.703-.762-103.738-85.27-187.328-189.012-186.949-103.738.379-187.64 84.578-187.645 188.32.684 104.54 85.868 188.79 190.41 188.332"/></symbol><symbol viewBox="0 0 1000 1000" id="icon-arom" xmlns="http://www.w3.org/2000/svg"><path d="M461.486 555.69l-18.127 65.268h-59.567l77.694-254.138h75.436l78.773 254.138h-61.879l-19.565-65.267zm64.446-43.032l-15.867-53.919c-4.468-14.994-9.038-33.892-12.787-48.989h-.77c-3.8 14.995-7.549 34.303-11.708 48.99l-15.046 53.918zM261.5 86.968C182.017 224.667 102.5 362.344 23 500.032a1681288.366 1681288.366 0 01238.5 413h477c79.487-137.674 158.974-275.348 238.5-413C897.5 362.343 817.983 224.666 738.5 86.97h-477zm14.844 25.657h447.312L947.313 500 723.655 887.375H276.344L52.688 500l223.656-387.375zM500 242c-125.952-2.705-242.477 100.031-255.956 225.208C225.71 589.9 309.658 716.56 429.414 748.259c116.773 35.718 252.289-25.562 303.155-136.43 55.154-109.081 17.748-253.408-83.244-322.18C606.108 258.73 553.14 241.836 500 242zm0 25.656c115.575-2.723 222.028 93.37 231.177 208.593 14.12 112.839-67.364 226.9-178.639 250.184-108.48 27.437-229.859-36.275-268.812-141.166-43.073-103.399 2.26-233.034 100.548-286.842 34.99-20.191 75.338-30.85 115.726-30.769z"/></symbol><symbol viewBox="0 0 1000 1000" id="icon-bond-any" xmlns="http://www.w3.org/2000/svg"><path d="M807.589 373.705l-17.417-30.746 167.411-82.28L975 291.377zM550.192 497.027l-17.417-30.746 174.483-84.455 17.417 30.746zm-252.7 118.971l-17.417-30.697 167.411-82.376 17.417 30.794zM42.417 739.321L25 708.526l174.483-84.454 17.417 30.746z"/></symbol><symbol viewBox="0 0 1000 1000" id="icon-bond-aromatic" xmlns="http://www.w3.org/2000/svg"><path d="M354.558 455.59l-16.99-32.66 206.568-108.165 16.937 32.66zm312.57-163.196l-16.938-32.66 206.568-108.165 16.937 32.66zM41.936 618.786L25 586.126l206.568-108.164 16.937 32.66zm100.896 229.645l-16.897-32.607 832.167-431.22L975 417.21z"/></symbol><symbol viewBox="0 0 1000 1000" id="icon-bond-crossed" xmlns="http://www.w3.org/2000/svg"><path d="M214.927 956.465c-25.124-12.22-44.919-25.594-17.643-49.159l556.362-863.77c25.123 12.22 44.91 25.595 17.636 49.158l-556.355 863.77zM39.649 756.733c-15.73-23.086-26.341-44.555 9.056-51.484l911.646-473.856c15.73 23.086 26.341 44.555-9.056 51.484L39.649 756.733z"/></symbol><symbol viewBox="0 0 1000 1000" id="icon-bond-double" xmlns="http://www.w3.org/2000/svg"><path d="M41.85 615.302L25 582.793l830.184-430.195 16.85 32.515zm103.48 232.1l-16.883-32.495 829.67-431.244L975 416.151z"/></symbol><symbol viewBox="0 0 1000 1000" id="icon-bond-doublearomatic" xmlns="http://www.w3.org/2000/svg"><path d="M924.756 388.797H975v50.614h-50.244zm-110.042-238.82h50.244v50.667h-50.244zm-458.797 245.84h50.244v50.614h-50.244zM470.603 634.53h50.244v50.666h-50.244zm147.514-30.348l-17.259-33.302 210.425-110.095 17.311 33.25zm-468.14 245.84l-17.258-33.304 210.373-110.147 17.31 33.303zm346.487-477.587l-17.311-33.303 210.425-110.147 17.258 33.303zM42.258 613.578L25 580.275l210.425-110.147 17.258 33.303z"/></symbol><symbol viewBox="0 0 1000 1000" id="icon-bond-down" xmlns="http://www.w3.org/2000/svg"><path d="M935.166 651.48L599.147 136.378l39.834-25.98L975 625.493zm-111.422 30.486l-297.193-455.74 39.742-26.02 297.193 455.635zm-111.42 30.387L453.887 316.035l39.782-25.947L752.11 686.406zM600.861 742.66L381.147 405.672l39.795-26.02 219.715 336.936zM489.5 773.008L308.471 495.395l39.795-26.072 180.976 277.666zM378.14 803.356l-142.29-218.344 39.742-25.966 142.237 218.29zm-111.375 30.261L163.186 674.762l39.749-25.914 103.577 158.855zM155.256 864.05l-64.864-99.486 39.795-26.02 64.864 99.434zM51.165 889.602L25 849.444l39.801-25.927 26.165 40.15z"/></symbol><symbol viewBox="0 0 1000 1000" id="icon-bond-single" xmlns="http://www.w3.org/2000/svg"><path d="M43.96 760.205L25 723.728l931.033-483.933L975 276.272z"/></symbol><symbol viewBox="0 0 1000 1000" id="icon-bond-singlearomatic" xmlns="http://www.w3.org/2000/svg"><path d="M144.817 842.643l-16.837-32.52L958.17 380.26 975 412.772zM798.4 157.357h49.277v49.594h-49.277zM349.049 398.046h49.224v49.594H349.05zm137.649-22.898l-16.936-32.553 206.079-107.893 16.883 32.553zM41.936 611.352L25 578.747l206.026-107.893 16.935 32.605z"/></symbol><symbol viewBox="0 0 1000 1000" id="icon-bond-singledouble" xmlns="http://www.w3.org/2000/svg"><path d="M407.502 572.415l-17.154-33.093 209.117-109.468 17.154 33.041zm358.328-186.21l-17.154-33.04 209.17-109.52L975 276.737zM42.101 763.217L25 730.124l209.117-109.467 17.154 33.04zm637.644-72.098l-17.154-33.094 209.17-109.467 17.154 33.041zM326.06 877.329l-17.154-33.093 209.118-109.52 17.153 33.04zm160.56-612.098l-17.155-33.093L678.584 122.67l17.153 33.04zM128.238 456.034l-17.154-33.041 209.118-109.52 17.153 33.04z"/></symbol><symbol viewBox="0 0 1000 1000" id="icon-bond-triple" xmlns="http://www.w3.org/2000/svg"><path d="M226.323 893.87L211.13 864.54l748.683-387.867L975 505.994zm-95.685-183.373l-15.241-29.301L863.4 292.062l15.24 29.294zm-90.443-187.17L25 494.004l748.683-387.874 15.188 29.32z"/></symbol><symbol viewBox="0 0 1000 1000" id="icon-bond-up" xmlns="http://www.w3.org/2000/svg"><path d="M25 889.025l636.975-778.05L975 595.845z"/></symbol><symbol viewBox="0 0 1000 1000" id="icon-bond-updown" xmlns="http://www.w3.org/2000/svg"><path d="M56.508 883.351L25 866.041l86.08-157.49 152.898 56.578-14.092-251.591 230.428 172.319-94.736-367.333 306.005 284.26L509.025 116.65 975 587.849l-25.544 25.28L601.86 261.735l177.017 471.252-327.75-304.527 89.51 347.436-250.535-187.361 12.878 229.372-175.223-64.811z"/></symbol><symbol viewBox="0 0 1000 1000" id="icon-chain" xmlns="http://www.w3.org/2000/svg"><path d="M337.18 647.039L25 429.964V352.96l312.18 212.167L645.35 352.96 975 565.128v81.91L645.35 429.965z"/></symbol><symbol viewBox="0 0 1000 1000" id="icon-charge-minus" xmlns="http://www.w3.org/2000/svg"><path d="M620.546 105.63v130.925H975V105.63H620.546zm25.546 25.546h303.362v79.832H646.092v-79.832zM315.588 54.538C217.793 351.168 121.288 648.316 25 945.462h138.908c25.114-91.085 55.768-180.853 83.025-271.428h274.622c28.958 90.558 60.417 180.46 87.815 271.428h140.504C654.061 648.335 558.182 351.157 460.882 54.538H315.588zm17.563 25.546H443.32l271.429 839.832h-86.219c-29.461-90.408-57.413-181.36-87.815-271.429H229.37c-29.515 90.014-56.198 181.03-84.622 271.429H61.723L333.15 80.084zm38.32 73.445c-31.053 145.824-82.742 286.157-127.652 428.08 5.085 10.533 37.958 1.603 53.79 4.61h228.736c-42.854-144.445-99.192-285.093-130.925-432.69h-23.95zm12.773 54.286c27.149 120.238 71.648 235.466 108.571 352.857H277.27c36.636-117.314 81.094-232.463 106.975-352.857z"/></symbol><symbol viewBox="0 0 1000 1000" id="icon-charge-plus" xmlns="http://www.w3.org/2000/svg"><path d="M731.656 44.188V156.28H619.5v131.25h112.156v112.094h131.282V287.531H975v-131.25H862.937V44.187h-131.28zm25.657 25.656h79.968v112.125h112.032v79.875H837.28v112.125h-79.968V261.844H645.155v-79.875h112.157V69.844zM310.906 61.78C213.953 359.78 117.082 657.805 20.156 955.813h138.875c28.26-91.036 56.476-182.085 84.719-273.125h274.531c29.48 91.041 58.956 182.084 88.438 273.125h141.156C650.997 657.803 554.108 359.797 457.25 61.78H310.906zm18.656 25.688h109.032L712.53 930.156h-87.125C595.926 839.104 566.451 748.051 536.97 657H224.844c-28.261 91.045-56.476 182.105-84.719 273.156H55.5L329.563 87.47zM367.625 161c-28.523 141.514-79.739 276.783-122.475 414.3-8.888 16.338-5.537 23.76 13.53 19.763h264.57C473.04 438.166 426.802 305.382 391.719 161h-24.094zm12.594 60.875c29.77 117.653 71.46 231.798 107.719 347.531H274c35.996-115.647 78.14-229.583 106.219-347.531z"/></symbol><symbol viewBox="-125 -125 1000 1000" id="icon-check" xmlns="http://www.w3.org/2000/svg"><path d="M361.875 603.375L141.75 375h104.625l106.5 112.5 165.75-235.875L612 249zM375 0C167.895 0 0 167.895 0 375s167.895 375 375 375 375-167.895 375-375S582.105 0 375 0zm0 0"/></symbol><symbol viewBox="0 -5 70 35" id="icon-chiral-flag" xmlns="http://www.w3.org/2000/svg"><path d="M0 25h69V0H0zM68 1v23H1V1z"/><path d="M21 18.14a3.85 3.85 0 002.71-.93 3.07 3.07 0 001-2.43H23.1a2.09 2.09 0 01-.53 1.54 2.09 2.09 0 01-1.55.53 1.94 1.94 0 01-1.64-.8 3.31 3.31 0 01-.6-2v-1.98a3.33 3.33 0 01.59-2 1.89 1.89 0 011.6-.8 2.18 2.18 0 011.59.53 2 2 0 01.54 1.53h1.61a3 3 0 00-1-2.45A4 4 0 0021 7.9a3.58 3.58 0 00-2.78 1.18 4.3 4.3 0 00-1.07 3V14a4.25 4.25 0 001.08 3A3.65 3.65 0 0021 18.14zM27.77 12.54a1.67 1.67 0 01.64-.52 2.09 2.09 0 01.92-.19 1.26 1.26 0 011 .39 1.91 1.91 0 01.34 1.26V18h1.66v-4.51a3.36 3.36 0 00-.66-2.29 2.33 2.33 0 00-1.84-.74 2.42 2.42 0 00-1.17.29 2.63 2.63 0 00-.9.81V7.34h-1.65V18h1.66zM34.16 7.34h1.66V8.8h-1.66zM34.16 10.6h1.66V18h-1.66zM39.32 12.86a1.35 1.35 0 01.5-.58 1.49 1.49 0 01.81-.21h.71l.2-1.55-.24-.06h-.28a1.68 1.68 0 00-1 .32 2.38 2.38 0 00-.72.89l-.11-1.07h-1.53V18h1.66zM45.49 13.65a4.08 4.08 0 00-2.39.6 1.93 1.93 0 00-.85 1.67 2.16 2.16 0 00.62 1.63 2.46 2.46 0 001.77.59 2.3 2.3 0 001.25-.35 2.85 2.85 0 00.9-.87 4 4 0 00.08.53q.06.27.15.55h1.68a4.59 4.59 0 01-.2-.82 6 6 0 01-.06-.88V13a2.31 2.31 0 00-.79-1.89 3.17 3.17 0 00-2.08-.66 3.32 3.32 0 00-2.16.68 1.83 1.83 0 00-.78 1.55h1.6a.86.86 0 01.33-.7 1.39 1.39 0 01.9-.27 1.35 1.35 0 011 .33 1.21 1.21 0 01.34.91v.65zm1.29 2.13a1.59 1.59 0 01-.67.72 2.07 2.07 0 01-1.12.31 1.15 1.15 0 01-.8-.25.86.86 0 01-.28-.67 1.09 1.09 0 01.41-.84 1.67 1.67 0 011.13-.36h1.32zM50.27 7.34h1.66V18h-1.66z"/></symbol><symbol viewBox="-125 -125 1000 1000" id="icon-cip" xmlns="http://www.w3.org/2000/svg"><path d="M376.223 700.95L750 169.991 503.375 44.156l-128.2 650.504L246.974 44.156 0 169.992 373.777 700.95v4.895l2.098-3.145 2.094 3.145zM82.789 190.612l123.313-62.918 65.324 331.02zm0 0"/></symbol><symbol viewBox="-125 -125 1000 1000" id="icon-clean" xmlns="http://www.w3.org/2000/svg"><path d="M750 625c.598 49.754-28.371 95.125-73.758 115.52-45.383 20.394-98.543 11.925-135.347-21.555-36.81-33.485-50.25-85.61-34.227-132.715L375 447.918 243.332 586.25c16.805 51.543-1.527 108.04-45.394 139.895-43.864 31.855-103.266 31.8-147.075-.13C7.055 694.083-11.18 637.552 5.72 586.04 22.613 534.527 70.789 499.777 125 500a125.019 125.019 0 0164.582 18.75L333.332 375V242.5c-57.394-20.293-91.828-78.984-81.531-138.988C262.094 43.508 314.12-.352 375-.352s112.906 43.86 123.2 103.864c10.296 60.004-24.137 118.695-81.532 138.988V375l143.75 143.75c38.488-23.227 86.48-24 125.695-2.02C725.328 538.707 749.723 580.047 750 625zm0 0"/></symbol><symbol viewBox="0 0 1000 1000" id="icon-copy" xmlns="http://www.w3.org/2000/svg"><path d="M233.625 137.25c-15.751 0-27.469 13.865-27.469 29.063V946.03c0 15.216 11.72 28.969 27.469 28.969h591.656l3.688-3.406L959.656 850.53l4.125-3.781V166.312c0-15.295-11.722-29.062-27.468-29.062zm0 25.688h702.688c.275 0 1.78.697 1.78 3.375V835.53L815.25 949.313H233.625c-.376 0-1.813-.73-1.813-3.282V166.313c0-2.776 1.337-3.375 1.813-3.375zm124.774 606.965h472.74v21.362H358.4zm0-113.538h472.74v21.413H358.4zm0-113.59h472.74v21.414H358.4zm0-113.537h472.74v21.413H358.4zm0-113.538h472.74v21.362H358.4zM63.687 25C47.883 25 36.22 38.927 36.22 54.125v779.594c0 15.23 11.611 29.125 27.468 29.125h142.47v-25.657H63.686c-.266 0-1.78-.83-1.78-3.468V54.125c0-2.775 1.359-3.438 1.78-3.438h702.688c.22 0 1.813.76 1.813 3.438v83.125h25.656V54.125C793.844 38.83 782.176 25 766.375 25z"/></symbol><symbol viewBox="0 0 1000 1000" id="icon-cut" xmlns="http://www.w3.org/2000/svg"><path d="M188.594 20.563c-41.974 25.386-41.937 82.3-39.58 125.68 7.163 84.366 69.363 147.928 116.482 213.413 43.805 56.067 89.439 110.677 135.598 164.813l-58.563 71.906c-73.596-17.177-141.836 30.819-186.28 85.053-46.468 50.918-91.788 124.353-60.508 194.533 32.385 82.176 135.85 121.6 215.95 86.166 76.857-32.008 134.032-101.74 165.264-177.37 23.654-38.596-4.39-87.694-1.488-118.84 15.148-23.227 30.195-33.856 45.331-4.265 18.201 27.333-24.521 71.748-2.155 108.895 24.009 74.261 77.109 139.99 144.247 179.717 73.622 45.364 181.713 26.6 227.655-48.931 41.133-55.22 23.891-131.074-16.193-181.546-46.283-62.842-110.682-132.456-196.096-126.287-24.12 12.137-32.516-14.591-46.333-28.502l-33.019-40.56c81.095-97.832 167.177-193.194 231.35-303.417 25.599-55.314 31.862-124.326 3.775-179.872-13.44-28.26-30.205-18.095-41.362 2.297L499.969 403C396.174 275.523 292.402 148.028 188.594 20.562zm-2.469 37.624c104.607 128.496 209.274 256.943 313.844 385.47 104.608-128.495 209.23-256.98 313.844-385.47 28.596 66.964 6.737 145.906-37.271 201.115-64.808 92.513-137.952 178.802-211.01 264.823 27.372 33.665 54.793 67.29 82.187 100.938 60.435-21.826 122.88 12.717 162.386 57.553 42.652 46.805 95.462 108.671 73.69 176.742-25.08 73.56-115.979 110.517-186.173 78.816-71.736-30.476-125.173-96.809-152.528-168.486-12.485-32.966-6.032-72.234 20.531-96.407a6746.21 6746.21 0 01-65.594-73.812c-21.745 24.708-43.48 49.428-65.625 73.781 35.39 31.3 31.09 84.49 10.005 122.664-39.926 76.233-109.977 153.708-202.64 153.422-77.323.7-153.183-80.457-124.952-158.08 24.729-61.991 71.15-115.733 126.448-152.748 32.18-20.335 72.89-25.512 109.046-13.445 27.346-33.678 54.8-67.269 82.156-100.938-83.32-99.646-170.363-197.475-238.563-308.438-24.368-47.417-31.22-107.845-9.781-157.5zm489.563 614.344c-47.42-4.126-79.364 47.448-66.035 90.395 15.345 62.162 66.237 115.746 126.952 135.428 48.764 15.22 101.548-31.226 90.89-81.998-10.859-72.363-77.626-139.564-151.808-143.825zm-351.407.032c-76.431 5.218-143.68 73.383-152.274 148.81-8.155 54.132 53.298 95.856 101.43 73.94 59.468-25.671 111.895-81.437 118.94-147.774 4.98-40.653-26.74-77.638-68.096-74.976zm-.187 25.656c56.192-1.759 48.731 72.64 22.644 102.778-25.885 35.895-63.168 74.471-110.48 74.285-48.469-8.669-45.67-71.252-21.339-102.787 23.466-37.908 63.096-71.548 109.175-74.276zm351.781 0c65.121 6.376 123.103 66.698 126.602 132.073-.04 47.127-62.09 57.596-91.73 28.273-42.198-29.476-84.988-77.461-75.808-132.63 4.237-18.255 22.99-28.824 40.936-27.716z"/></symbol><symbol viewBox="0 0 1000 1000" id="icon-dearom" xmlns="http://www.w3.org/2000/svg"><path d="M464.67 555.69l-18.127 65.268h-59.567L464.67 366.82h75.435l78.773 254.138H557l-19.565-65.267zm64.446-43.032L513.25 458.74c-4.468-14.994-9.038-33.892-12.787-48.989h-.77c-3.8 14.995-7.549 34.303-11.708 48.99l-15.046 53.918zM360.22 190.906l-.313 25.657 260.938 3.125.281-25.657-260.906-3.125zm400.687 323.875L625.688 744.25l22.125 13.031L783.03 527.813l-22.125-13.032zm-553.281 0L185.5 527.813 320.719 757.28l22.125-13.031-135.219-229.469zM261.5 86.97C182.017 224.666 102.5 362.343 23 500.03a1681288.366 1681288.366 0 01238.5 413h477c79.487-137.674 158.974-275.348 238.5-413C897.5 362.343 817.983 224.666 738.5 86.97h-477zm14.844 25.656h447.312L947.313 500 723.655 887.375H276.344L52.688 500l223.656-387.375z"/></symbol><symbol viewBox="0 0 1000 1000" id="icon-dropdown" xmlns="http://www.w3.org/2000/svg"><path d="M876.337 751.055c0 70.936-57.736 128.672-128.672 128.672H201.297c-70.936 0-128.557-57.736-128.557-128.672L747.55 76.36c70.936 0 128.672 57.506 128.672 128.557v546.138z"/></symbol><symbol viewBox="0 0 4 4" id="icon-enhanced-stereo"><text y="3" font-size="3">ES</text></symbol><symbol viewBox="0 0 1000 1000" id="icon-erase" xmlns="http://www.w3.org/2000/svg"><path d="M935.125 131.531c-16.775.337-31.692 9.735-48.156 21.563l-.094.062L326.844 548.47l-.032.031-.062.031c-16.263 11.715-30.435 23.848-42.313 44-11.877 20.153-21.594 47.63-32.156 91.438v.125l-48.125 208.531-.687 3 .719 2.938c5.282 21.522 18.66 37.784 36.5 43.875 17.797 6.076 38.371 1.747 56.625-11.344.043-.031.082-.063.125-.094L928.28 489.312l.844-.593.75-.719c34.183-33.262 47.501-69.646 44.688-116.75h.03l-2.312-201.813-.031-1.468-.344-1.438c-2.595-10.545-6.499-19.164-12.906-25.562-6.407-6.399-15.472-9.606-23.875-9.438zm.5 25.688c2.792-.056 3.519.208 5.219 1.906 1.601 1.6 3.93 5.467 5.781 12.344l2.281 200.094v.312l.032.344c2.649 42.15-6.436 67.397-36.407 96.781L282.563 910.063l-.063.062-.063.031c-13.245 9.536-24.765 10.93-33.437 7.97-8.13-2.776-15.187-9.716-19.094-23l47.344-205.157c.006-.025.025-.038.031-.063v-.062c10.274-42.587 19.537-67.716 29.282-84.25 9.734-16.517 19.828-25.155 35.093-36.157l.094-.062 560.031-395.313.032-.03.062-.032c15.08-10.838 28.167-16.67 33.75-16.781zM736.062 48.906c-2.06.023-4.117.077-6.187.188-27.589 1.48-55.785 10.782-77.969 26.75-.011.008-.02.023-.031.031L151.156 434h-.031c-16.27 11.693-30.435 23.854-42.313 44-11.803 20.02-21.483 47.313-31.968 90.594-.54 1.387-16.671 43.008-30.938 90.25-7.253 24.017-13.988 49.26-17.781 71.468-3.793 22.21-6.24 40.66 1.437 56.25 6.559 13.32 20.806 27.178 40.657 45.407 19.85 18.229 44.805 38.86 70.343 57.781 25.54 18.92 51.522 36.112 73.938 47.469 11.208 5.678 21.49 9.922 31.062 12.125 9.573 2.203 19.586 3.022 28.438-3.375l1.344-.969 1.062-1.281 2.094-2.532c-12.829 4.718-25.942 5.303-37.813 1.25-16.689-5.697-29.47-20.3-35.375-39.78-15.549-9.401-32.625-21.054-49.468-33.532-24.794-18.369-49.23-38.567-68.281-56.063-19.052-17.495-33.208-34.267-34.97-37.843-1.565-3.18-2.642-20.181.844-40.594 3.487-20.413 9.957-44.948 17.032-68.375 14.15-46.854 30.656-89.25 30.656-89.25l.313-.781.187-.844c10.287-42.62 19.557-67.797 29.313-84.344 9.747-16.532 19.864-25.164 35.156-36.156.012-.009.018-.022.031-.031L666.844 96.75l.031-.031c20.747-14.945 51.759-22.69 78.094-21.5 8.778.397 17.031 1.772 24.218 4.219 20.81 7.102 64.082 27.028 101.22 44.906a4145.242 4145.242 0 0134.562 16.844c9.884-5.69 19.65-9.446 30.156-9.657 4.077-.082 8.304.639 12.313 2.125a4232.941 4232.941 0 00-65.875-32.437c-37.402-18.005-79.918-37.81-104.094-46.063v-.031c-12.843-4.372-26.98-6.378-41.407-6.219z"/></symbol><symbol viewBox="0 0 750 750" id="icon-generic-groups" xmlns="http://www.w3.org/2000/svg"><path d="M73.129 209.914v403.543h403.226v73.371H62.133c-34.418 0-62.317-27.922-62.317-62.367V209.914zM304.07 343.45l103.004-103.086-48.754-49.89c-10.734-10.73-28.12-10.73-38.855 0l-63.05 64.199c-10.72 10.742-10.72 28.144 0 38.887zm132.696-73.37L334.859 373.53l311.95 313.297 103.375-103.086zm186.218 123.265V136.543c0-53.195-19.43-73.371-73.316-73.371H183.102c-56.454 0-73.317 16.875-73.317 73.371v366.855c0 54.297 16.863 73.372 73.317 73.372h293.253l-73.312-73.372H183.102V136.543h366.566v183.43zm0 0"/></symbol><symbol viewBox="0 0 1000 1000" id="icon-help" xmlns="http://www.w3.org/2000/svg"><path d="M583.333 812.5v-125c0-11.719-9.114-20.833-20.833-20.833h-125c-11.719 0-20.833 9.114-20.833 20.833v125c0 11.719 9.114 20.833 20.833 20.833h125c11.719 0 20.833-9.114 20.833-20.833zM750 375c0-119.14-125-208.333-236.98-208.333-106.119 0-185.546 45.573-241.536 138.672-5.859 9.114-3.255 20.833 5.209 27.343l85.937 65.104c3.255 2.605 7.813 3.907 12.37 3.907 5.86 0 12.37-2.604 16.276-7.813 30.599-39.062 43.62-50.781 55.99-59.896 11.067-7.812 32.552-15.625 55.99-15.625 41.666 0 80.077 26.693 80.077 55.339 0 33.854-17.578 50.781-57.291 69.01-46.224 20.834-109.375 74.87-109.375 138.021v23.438c0 11.718 9.114 20.833 20.833 20.833h125c11.719 0 20.833-9.115 20.833-20.833 0-14.974 18.88-46.875 49.48-64.453C682.292 511.719 750 473.958 750 375zm250 125c0 276.042-223.958 500-500 500C223.958 1000 0 776.042 0 500 0 223.958 223.958 0 500 0c276.042 0 500 223.958 500 500z"/></symbol><symbol viewBox="-125 -125 1000 1000" id="icon-layout" xmlns="http://www.w3.org/2000/svg"><path d="M76.82 637.959h670.903v74.543H76.82c-41.168 0-74.543-33.375-74.543-74.543V116.146H76.82zm505.04-250.844a68.954 68.954 0 00-39.88 13.047l-94.67-101.754v-91.316c34.52-11.758 56.43-45.703 52.925-82-1.02-48.965-41.222-88.008-90.199-87.59-49.094-.445-89.68 38.16-91.687 87.219-2.946 36.496 19.343 70.308 54.043 81.996v91.691l-97.282 101.38a81.98 81.98 0 00-43.98-13.044c-38.3-.027-72.254 24.637-84.078 61.066-11.82 36.434 1.18 76.333 32.199 98.805 31.016 22.469 72.98 22.39 103.914-.195 30.934-22.59 43.785-62.535 31.828-98.922l92.063-96.91 92.062 96.91c-11.629 35.96 1.227 75.32 31.844 97.484 30.617 22.16 72.023 22.082 102.555-.195 30.53-22.281 43.234-61.691 31.468-97.61-11.765-35.913-45.328-60.167-83.125-60.062"/></symbol><symbol viewBox="0 0 1000 1000" id="icon-logo" xmlns="http://www.w3.org/2000/svg"><path d="M26.773 102.744h181.755c-.074 123.9-8.793 247.613-8.866 371.514 89.984-124.193 181.422-247.321 271.406-371.514H692.64C590.987 240.298 444.471 342.58 363.684 495.732c77.74 155.676 224.317 259.543 320.493 402.076h-215.4c-70.105-101.553-117.732-223.956-219.713-299.423-39.122-14.846-40.087 60.14-46.238 87.253-5.736 70.546-2.166 141.45-3.164 212.17H25c.007-265.023 1.766-530.041 1.773-795.064zm424.242 392.988c102.855-141.27 241.813-251.718 344.669-392.988 59.768-.743 119.55-1.267 179.316 0C872.393 239.74 719.748 333.773 632.325 482.93c-7.765 45.896 45.968 88.282 71.47 126.581 86.444 99.165 194.622 178.714 269.432 288.074-63.035-.013-126.069.437-189.104.437-100.95-142.27-232.05-260.11-333.108-402.29z"/></symbol><symbol viewBox="-125 -125 1000 1000" id="icon-miew" xmlns="http://www.w3.org/2000/svg"><path d="M354.531 0l119.063 120 41.562-41.563c105.004 48.915 176.317 149.704 187.5 265h46.875C733.105 148.988 570.297-.366 375.156 0zM517.97 381.25a136.494 136.494 0 01-4.375 35.313 75.984 75.984 0 01-13.438 26.562 58.417 58.417 0 01-22.187 16.563 80.293 80.293 0 01-31.25 5.625h-28.44V285h31.25a62.498 62.498 0 0151.25 21.563 93.76 93.76 0 0117.813 62.5zm12.187-100a104.02 104.02 0 00-35.625-24.063A117.53 117.53 0 00448.906 250h-73.75v250h71.875a126.896 126.896 0 0047.188-8.438 102.808 102.808 0 0036.25-22.812 105.25 105.25 0 0023.125-37.188 142.735 142.735 0 008.125-49.062V370a142.735 142.735 0 00-8.125-49.063 109.069 109.069 0 00-23.438-39.687zM262.97 468.75c-5.516.031-11-.813-16.25-2.5a33.403 33.403 0 01-12.5-7.5 31.24 31.24 0 01-8.125-11.563 37.209 37.209 0 01-2.813-14.687h-40.625a62.504 62.504 0 006.563 29.688 69.065 69.065 0 0017.5 21.562 79.08 79.08 0 0025.625 12.813 93.693 93.693 0 0031.25 4.687 105.27 105.27 0 0031.25-4.688 76.263 76.263 0 0025.937-13.75 62.517 62.517 0 0017.188-22.5 73.146 73.146 0 006.25-31.25 65.637 65.637 0 00-2.188-17.5 52.264 52.264 0 00-7.187-15.937 56.249 56.249 0 00-12.5-13.438 64.36 64.36 0 00-19.063-9.687 65.575 65.575 0 0016.25-10.313 64.72 64.72 0 0011.563-13.125 55.026 55.026 0 006.875-14.375 49.668 49.668 0 002.187-15 75.576 75.576 0 00-5.625-31.25 55.644 55.644 0 00-15.937-21.562 64.386 64.386 0 00-24.063-13.438 113.802 113.802 0 00-31.25-4.375 93.721 93.721 0 00-31.25 5 79.392 79.392 0 00-24.687 14.063A70.333 70.333 0 00189.219 290a62.535 62.535 0 00-5.625 26.563h40.625a33.112 33.112 0 012.812-14.063 29.362 29.362 0 017.813-10.625A37.17 37.17 0 01246.719 285a45.638 45.638 0 0116.25-3.75 35.94 35.94 0 0127.812 9.688 37.8 37.8 0 019.063 26.875 47.79 47.79 0 01-2.5 15.312 27.19 27.19 0 01-7.813 11.563 39.684 39.684 0 01-12.812 7.5A52.543 52.543 0 01258.594 355H234.53v31.25h24.063a70.241 70.241 0 0118.75 2.188 37.512 37.512 0 0114.062 7.187 36.923 36.923 0 019.063 12.5 44.375 44.375 0 013.125 17.813A37.488 37.488 0 01292.656 455a40.001 40.001 0 01-29.687 13.75zM235.156 672.5C130.242 623.012 59.293 521.758 48.594 406.25H1.719C17.96 600.465 180.266 749.867 375.156 750h20.625L276.72 630zm0 0"/></symbol><symbol viewBox="0 0 1000 1000" id="icon-new" xmlns="http://www.w3.org/2000/svg"><path d="M825.5 171.563c-47.256 0-83.464 9.788-106.719 32.437-23.341 22.733-33.468 58.865-33.468 106.219 0 52.563 18.534 125.27 54.906 220.312 10.783 28.222 17.013 44.051 21.687 52.25l.094.157.094.156C774.704 603.797 794 616.49 816 616.437h.031c24.381-.009 45.457-10.866 57.781-30.437v-.063l.032-.03c6.068-9.81 11.647-26.35 21.468-55.97v-.03c18.839-57.443 33.002-103.73 42.5-139.063 9.499-35.333 14.532-58.903 14.532-74.72 0-45.76-9.879-82.033-31.657-107.187-21.777-25.153-54.738-37.375-95.187-37.375zm0 25.687c35.501 0 59.545 9.716 75.781 28.469 16.236 18.753 25.375 48.354 25.375 90.406 0 9.45-4.359 33.447-13.656 68.031-9.293 34.57-23.323 80.544-42.063 137.688-.008.024-.023.038-.03.062-9.652 29.097-17.383 48.006-18.845 50.407-8.108 12.875-18.347 18.437-36.062 18.437h-.031c-13.02.038-22.353-5.396-31.75-20.688-.005-.008-.027-.085-.032-.093-1.623-2.874-9.318-20.72-19.968-48.594v-.031c-35.831-93.629-53.25-164.783-53.25-211.125 0-43.644 9.62-72.134 25.718-87.813 16.185-15.762 45.174-25.156 88.813-25.156zM820 636.875c-25.872 0-49.422 9.64-68.125 27.938l-.031.03c-18.637 18.29-28.625 41.783-28.625 67.75s9.909 49.487 28.687 67.75v.032c18.7 18.228 42.23 27.875 68.094 27.875 25.845 0 49.415-9.578 68.125-27.875v-.031c18.641-18.243 28.687-41.746 28.687-67.75 0-25.924-10.034-49.418-28.656-67.75v-.032h-.031c-18.692-18.228-42.234-27.937-68.125-27.937zm0 25.656c19.798 0 35.683 6.524 50.156 20.625l.032.032c14.324 14.114 20.937 29.743 20.937 49.406 0 19.794-6.62 35.402-20.937 49.406-14.461 14.148-30.336 20.594-50.188 20.594-19.832 0-35.715-6.48-50.187-20.594l-.032-.031c-14.384-13.984-20.906-29.542-20.906-49.375 0-19.722 6.628-35.35 20.938-49.407l.03-.03c14.463-14.136 30.34-20.626 50.157-20.626zM75.844 25c-16.825 0-28.188 15.321-28.188 31.281v885.813c0 15.929 11.4 31.261 28.157 31.281h.03c.032 0 180.95.544 362.407 1 90.736.228 181.588.423 250.031.531 34.222.054 62.831.099 83.032.094 10.1-.002 18.1-.01 23.656-.031 2.778-.01 4.955-.015 6.5-.032.772-.008 1.372-.02 1.875-.03.251-.007.46-.022.718-.032.25-.01.03.112 1.72-.156.023-.004.038-.028.062-.032 21.28-3.383 33.397-23.027 33.468-41.656v-.063c0-.866.172-83.603.22-106.625-6.332 1.265-12.853 1.907-19.532 1.907-2.068 0-4.12-.065-6.156-.188-.05 22.423-.219 103.549-.219 104.844v.063c-.053 7.96-4.27 14.87-11.406 16.25-.307.005-.567.026-1.032.031-1.435.015-3.563.02-6.312.031-5.497.021-13.478.03-23.563.032-20.17.005-48.786-.008-83-.063-68.427-.108-159.268-.334-250-.562-181.463-.456-362.437-.97-362.437-.97h-.031c-.275 0-2.5-1.125-2.5-5.624V56.28c0-4.375 2.378-5.593 2.5-5.593H813.03c.122 0 2.487 1.217 2.5 5.562v.031l-.25 115.438c3.351-.107 6.748-.156 10.219-.156 5.287 0 10.446.205 15.469.625.06-26.71.25-115.875.25-115.875v-.032c0-15.96-11.363-31.281-28.188-31.281zM840 612.594c-7.439 2.528-15.506 3.84-23.969 3.843H816c-.563.001-1.129-.016-1.688-.03-.02 9.4-.01 11.54-.03 20.655 1.894-.106 3.796-.187 5.718-.187 6.828 0 13.482.702 19.937 2.031.025-11.615.037-14.239.063-26.312zM207.366 808.848c0 13.044-10.578 23.571-23.57 23.571h-24.29c-12.993 0-23.571-10.578-23.571-23.57v-27.166c0-13.044 10.578-23.571 23.57-23.571h24.29c12.993 0 23.571 10.527 23.571 23.57zm0-196.064c0 12.992-10.578 23.52-23.57 23.52h-24.29c-12.993 0-23.571-10.58-23.571-23.52v-27.269c0-12.992 10.578-23.52 23.57-23.52h24.29c12.993 0 23.571 10.528 23.571 23.52zm0-196.22c0 12.993-10.578 23.52-23.57 23.52h-24.29c-12.993 0-23.571-10.578-23.571-23.52v-27.268c0-12.992 10.578-23.57 23.57-23.57h24.29c12.993 0 23.571 10.578 23.571 23.57zm0-196.167c0 12.941-10.578 23.52-23.57 23.52h-24.29c-12.993 0-23.571-10.579-23.571-23.52V193.13c0-12.992 10.578-23.52 23.57-23.52h24.29c12.993 0 23.571 10.579 23.571 23.52z"/></symbol><symbol viewBox="0 0 1000 1000" id="icon-open" xmlns="http://www.w3.org/2000/svg"><path d="M244.594 393.594c-6.44-.041-12.385 1.563-17.656 4.406-5.272 2.843-10.281 6.928-12.907 13.844l-182.5 483.469c-2.635 6.942-.311 16.243 4.844 21.062 5.155 4.82 11.518 6.428 17.969 6.469h.031l706.156 3.343h.094c6.45.066 12.386-1.544 17.656-4.375 5.272-2.831 10.341-6.868 12.969-13.875.012-.032.02-.061.031-.093l182.407-483.438c2.627-6.986.191-16.385-5.032-21.156-5.206-4.756-11.54-6.303-17.968-6.313h-.063l-706.031-3.343zm-.156 25.687h.03l702.47 3.281-179.72 476.313v.031l-.03.032c.024-.067.009-.005.03-.063.476-1.247.318-.429-1.062.313-1.443.775-3.736 1.363-5.312 1.343h-.094L58.281 897.22l179.75-476.281c-.52 1.37-.323.451 1.094-.313s3.64-1.354 5.313-1.344zm45.468-345.469c-9.18.037-18.405.167-27.437.344-48.173.943-90.906 3.5-90.906 3.5l-1.22.063-1.155.312c-20.523 5.163-32.505 21.47-35.75 37.375l-26.625 87.875H53.437C38.61 203.281 25 214.575 25 230.094v669.343c0 15.463 13.596 26.75 28.438 26.75h1.124l1.094-.187 17.5-3.063-18.781-.093h-.031c-6.45-.041-12.814-1.65-17.969-6.469-5.155-4.82-7.48-14.12-4.844-21.063l19.157-50.75V230.095c0 .114.426-1.125 2.75-1.125h72.374l2.782-9.125 29.406-97 .25-.781.125-.813c1.324-7.909 5.455-14.985 16.156-18.031 2.16-.129 42.142-2.5 88.438-3.406 11.889-.233 24.095-.377 36.031-.344 11.936.033 23.6.233 34.375.656 20.959.822 39.048 2.824 47.375 5.156-.793-.113 2.378 1.452 5.5 4.281 3.62 3.282 8.312 8.07 13.531 13.782 10.438 11.425 23.014 26.493 35.031 41.406 24.035 29.825 45.907 59.063 45.907 59.063l3.844 5.156h317.406c2.463 0 2.843 1.136 2.843 1.125V396.25l25.657.125V230.094c0-15.519-13.71-26.813-28.5-26.813H497.375c-4.954-6.582-21.551-28.551-42.563-54.625-12.2-15.14-24.976-30.49-36.062-42.625-5.543-6.067-10.632-11.314-15.25-15.5s-7.606-7.502-14.594-9.625h-.031c-13.399-4.053-32.13-5.56-54.5-6.437-11.185-.44-23.14-.623-35.313-.656-3.043-.009-6.095-.013-9.156 0z"/></symbol><symbol viewBox="0 0 1000 1000" id="icon-paste" xmlns="http://www.w3.org/2000/svg"><path d="M361.281 25c-30.817 0-56.031 25.269-56.031 56.031 0 30.781 25.25 56.031 56.031 56.031H650.22c30.817 0 56.093-25.25 56.093-56.03C706.313 50.25 681.037 25 650.22 25zm0 25.688H650.22c16.94 0 30.406 13.47 30.406 30.343 0 16.873-13.467 30.344-30.406 30.344H361.28c-16.873 0-30.344-13.47-30.344-30.344 0-16.891 13.405-30.344 30.344-30.344zm-66.199 653.844H732.34v21.465H295.082zm0-114.256H732.34v21.516H295.082zm0-114.36H732.34v21.568H295.082zm0-114.308H732.34v21.568H295.082zm0-114.308H732.34v21.516H295.082zM179.594 67.781c-15.828 0-26.406 14.332-26.406 29.156v784.907c0 14.806 10.578 29.125 26.406 29.125H727.53l3.75-3.813 121-121.906L856 781.5V96.937c0-14.775-10.585-29.156-26.406-29.156H704.687a55.371 55.371 0 011.625 13.25c0 4.263-.52 8.409-1.437 12.406h124.5c-.258.084.938.613.938 3.5v674l-113.47 114.344h-537.25c.936 0-.718-.27-.718-3.437V96.937c0-3.25 1.654-3.5.719-3.5h127.094c-.917-3.997-1.438-8.143-1.438-12.406a55.5 55.5 0 011.625-13.25zM79.063 51.97c-16.802 0-30.376 14.117-30.376 30.812v861.407c0 16.711 13.62 30.812 30.376 30.812h841.78c16.816 0 30.47-14.073 30.47-30.813V82.782c0-16.8-13.713-30.812-30.47-30.812h-222.75c4.648 7.58 7.556 16.313 8.126 25.656h214.625c2.552 0 4.781 2.032 4.781 5.156v861.407c0 3.081-2.185 5.125-4.781 5.125H79.062c-2.552 0-4.687-1.913-4.687-5.125V82.78c0-3.126 2.18-5.156 4.688-5.156h226.28c.57-9.338 3.487-18.076 8.126-25.656z"/></symbol><symbol viewBox="0 0 1000 1000" id="icon-period-table" xmlns="http://www.w3.org/2000/svg"><path d="M939.757 670.75h-75.171v247.117c0 14.211-3.176 24.831-9.527 31.65-6.35 6.924-14.524 10.36-24.623 10.36-10.203 0-18.48-3.488-24.936-10.463-6.455-6.976-9.682-17.492-9.682-31.547V670.749h-75.172c-11.765 0-20.51-2.603-26.237-7.756-5.674-5.206-8.59-12.026-8.59-20.563 0-8.798 3.02-15.774 8.955-20.875 5.934-5.102 14.576-7.6 25.872-7.6h219.059c11.921 0 20.77 2.602 26.601 7.86 5.779 5.258 8.694 12.13 8.694 20.615 0 8.485-2.967 15.357-8.798 20.563-5.83 5.153-14.68 7.756-26.445 7.756zM533.916 821.56H470.77v96.307c0 13.795-3.28 24.259-9.735 31.39-6.507 7.132-14.732 10.672-24.623 10.672-10.36 0-18.69-3.54-25.04-10.567-6.351-7.08-9.527-17.388-9.527-31.027V656.121c0-15.149 3.488-25.977 10.464-32.484 6.924-6.455 18.012-9.735 33.16-9.735h88.447c26.132 0 46.279 1.978 60.282 5.987 13.952 3.852 25.977 10.307 36.076 19.261 10.152 9.006 17.856 19.99 23.062 32.953 5.31 13.014 7.913 27.642 7.913 43.884 0 34.67-10.672 60.908-32.016 78.815-21.291 17.804-53.099 26.758-95.317 26.758zm-16.711-155.913H470.77v103.96h46.435c16.242 0 29.83-1.718 40.71-5.154 10.931-3.384 19.208-8.954 24.935-16.71 5.674-7.705 8.59-17.856 8.59-30.402 0-14.993-4.426-27.174-13.275-36.649-9.787-10.047-30.142-15.045-60.96-15.045zm2.857-625.585v461.72h263.625V40.061H520.063zm26.032 26.032h211.562V475.75H546.094V66.094zM25 40.063v243.843h758.688V40.062H25zm26.031 26.03h706.625v191.782H51.031V66.094zM25 40.064v758.75h263.625V40.063H25zm26.031 26.03h211.563v706.688H51.03V66.094zM25 40.064V501.78h758.688V40.062H25zm26.031 26.03h706.625V475.75H51.031V66.094z"/></symbol><symbol viewBox="-125 -125 1000 1000" id="icon-reaction-arrow" xmlns="http://www.w3.org/2000/svg"><path d="M750 375L375 750l-66.094-66.094L570.47 421.875H0v-93.75h570.469L308.906 66.094 375 0zm0 0"/></symbol><symbol viewBox="-125 -125 1000 1000" id="icon-reaction-automap" xmlns="http://www.w3.org/2000/svg"><path d="M153.324 0v306.648h-73.89V73.891H5.543V0zm443.352 443.352v70.195h73.89V750h73.891V443.352zm-99.754-110.84l-73.89 69.828-143.724-143.72-52.094 52.094 142.242 142.242-68.348 64.285h195.813zm0 0"/></symbol><symbol viewBox="-125 -125 1000 1000" id="icon-reaction-map" xmlns="http://www.w3.org/2000/svg"><path d="M333.296 750V116.666H166.481V0h291.926v750zM41.37 583.335h125.111V500H41.37zm542.149 0H708.63V500H583.519zm0 0"/></symbol><symbol viewBox="-125 -125 1000 1000" id="icon-reaction-plus" xmlns="http://www.w3.org/2000/svg"><path d="M450 300h300v150H450v300H300V450H0V300h300V0h150zm0 0"/></symbol><symbol viewBox="-125 -125 1000 1000" id="icon-reaction-unmap" xmlns="http://www.w3.org/2000/svg"><path d="M96.84 44.171l609.284 609.16-52.963 52.915-194.754-194.998v238.748h-125.11V386.249L43.876 97.086zm361.567 291.663V.004H166.484V41.67l83.406 75h83.407v91.667zM41.374 583.332h125.11V500H41.374zm667.252 0V500H625.22zm0 0"/></symbol><symbol viewBox="-125 -125 1000 1000" id="icon-recognize" xmlns="http://www.w3.org/2000/svg"><path d="M519.29 474.242L641.601 596.56l-44.68 45.41-122.313-123.047zM706.054 596.56c0-7.325-2.442-13.43-7.325-18.313L160.398 39.918c-4.882-4.883-10.984-7.324-18.308-7.324s-13.672 2.441-19.043 7.324L40.28 122.68c-5.367 4.882-8.054 11.23-8.054 19.043 0 7.812 2.687 13.918 8.054 18.312l538.332 538.328c4.883 5.371 10.989 8.059 18.309 8.059 7.328 0 13.672-2.688 19.047-8.059l82.761-82.761c4.883-4.883 7.325-11.23 7.325-19.043zm-565.43 79.832l41.016-12.45-41.016-12.453-12.453-41.015-12.45 41.015-41.015 12.453 41.016 12.45 12.449 41.015zm146.484-68.114l82.032-24.902-82.032-24.902-24.902-82.032-24.902 82.032-82.032 24.902 82.032 24.902 24.902 82.032zm389.649-199.953l41.015-12.449-41.015-12.453-12.453-41.016-12.45 41.016-41.015 12.453 41.015 12.45 12.45 41.015zM408.69 676.391l41.016-12.45-41.016-12.453-12.449-41.015-12.453 41.015-41.016 12.453 41.016 12.45 12.453 41.015zm0 0"/></symbol><symbol viewBox="0 0 1000 1000" id="icon-redo" xmlns="http://www.w3.org/2000/svg"><path d="M516.535 183.482c-42.511-3.244-84.89.665-126.774 12.838-166.696 48.452-311.99 227.933-362.668 601.774-.254 1.873-1.356 2.931-1.605 4.814l-9.629 65.794 33.7-57.77c113.495-200.68 220.912-288.903 311.317-308.108 90.406-19.205 166.973 27.93 223.058 110.726-.15 1.044-.856 3.722-3.21 8.024-4.706 8.603-13.412 21.578-25.675 36.908-24.526 30.661-61.65 71.78-97.889 121.96l-14.442 20.861h25.675c132.691 0 364.082-4.623 494.257-6.419l12.838-1.604v-12.838s-3.21-373.383-3.21-505.49v-30.49l-22.466 22.466c-29.89 29.89-68.797 64.785-101.098 96.284-88.105-100.114-208.858-170.318-332.179-179.73zm-1.605 25.676c119.433 9.385 239.23 78.63 324.156 179.73l8.023 11.233 9.629-11.233c26.536-26.495 59.982-56.526 89.865-85.05.344 144.968 3.051 448.397 3.21 465.37-125.038 1.834-325.007 5.912-455.744 6.42 29.225-38.47 59.383-75.03 80.236-101.098 12.553-15.693 22.561-28.558 28.886-40.118 3.162-5.78 5.534-11.524 6.418-17.653.797-5.515-.768-12.485-4.814-17.652-.236-.349-1.367.349-1.604 0-59.698-87.544-145.64-143.518-247.129-121.959-90.757 19.28-190.036 110.26-292.06 271.2C120.47 420.83 252 262.763 397.784 220.39c38.758-11.265 77.334-14.361 117.145-11.233z"/></symbol><symbol viewBox="-125 -125 1000 1000" id="icon-rgroup-attpoints" xmlns="http://www.w3.org/2000/svg"><path d="M10.941 699.883L363.883 346.94H185.648v-70.59h299.293v298.942h-70.59v-178.94L61.412 749.293zm550.59-611.649l-97.765 14.118 70.586 67.058-17.645 98.824 88.234-45.882 88.235 45.882-17.645-98.824 70.586-67.058-98.824-14.118L604.941 0zm0 0"/></symbol><symbol viewBox="-125 -125 1000 1000" id="icon-rgroup-fragment" xmlns="http://www.w3.org/2000/svg"><path d="M340.91 68h-68.183v68.223h68.183zM136.363 477.332v68.223h68.184v-68.223zm0-136.441v68.218h68.184v-68.218zm0 272.886c2.477 36.606 31.602 65.746 68.184 68.223v-68.223zM204.547 68c-36.582 2.477-65.707 31.617-68.184 68.223h68.184zm409.09 545.777h-68.184V682h68.184zm0-545.777h-68.184v68.223h68.184zm-306.82 545.777h-68.18V682h68.18zm170.456 0H409.09V682h68.183zM204.547 204.445h-68.184v68.223h68.184zM681.817 68v68.223H750C747.527 99.617 718.398 70.477 681.816 68zM750 204.445h-68.184v68.223H750zM477.273 68H409.09v68.223h68.183zM750 613.777h-68.184V682c36.582-2.477 65.711-31.617 68.184-68.223zm0-272.886h-68.184v68.218H750zm0 136.441h-68.184v68.223H750zm-102.273 68.223h-68.18V272.668h-68.184v-68.223h136.364zm-159.204 0l-70.57-124.504c35.586-15.133 57.73-51.11 55.23-89.715a123.191 123.191 0 00-34.695-89.508 123.035 123.035 0 00-88.375-37.383H238.637l3.41 341.11h64.77V433.328h43.636l58.637 112.227zM306.816 272.668h37.5c38.868 0 60 12.621 60 48.777 0 36.157-21.132 55.262-60 55.262h-37.5zm-170.453 110.52L25.91 493.706 0 467.781l84.203-84.594L0 298.59l25.91-25.922zm0 0"/></symbol><symbol viewBox="-125 -125 1000 1000" id="icon-rgroup-label" xmlns="http://www.w3.org/2000/svg"><path d="M750 572.5h-78.95v-316h-78.945v-79H750zm-276.316 0l-68.29-130.746h-50.132V572.5h-75.79l-3.156-395h129.868a142.468 142.468 0 01101.894 42.875 142.625 142.625 0 0140.606 102.879c2.898 44.707-22.746 86.363-63.946 103.887L565.656 572.5zM355.262 375h43.422c45 0 69.472-21.723 69.472-63.988 0-42.266-24.472-54.512-69.472-54.512h-43.422zM30 256.5L0 285.73l97.5 97.961L0 481.254l30 30.023 127.895-127.586zm0 0"/></symbol><symbol viewBox="0 0 1000 1000" id="icon-save" xmlns="http://www.w3.org/2000/svg"><path d="M295.39 753.522c-12.297 0-22.913 1.56-32.094 4.814-4.59 1.626-9.05 4.854-12.838 8.023-3.789 3.17-8.024 7.579-8.024 14.443v166.892c0 6.845 4.229 12.868 8.024 16.047 3.795 3.18 8.244 4.796 12.838 6.42 9.187 3.246 19.807 4.813 32.095 4.813h470.185c12.275 0 22.92-1.56 32.095-4.814 4.587-1.627 9.05-3.25 12.838-6.419 3.787-3.169 8.023-9.183 8.023-16.047V780.802c0-6.85-4.24-11.27-8.023-14.443-3.784-3.172-8.252-6.395-12.838-8.023-9.173-3.256-19.797-4.814-32.095-4.814zm0 25.675h470.186c9.835 0 18.776 1.33 24.071 3.21 1.63.578 2.412 1.151 3.21 1.604v160.473c-.802.455-1.577 1.026-3.21 1.605-5.306 1.882-14.264 3.21-24.07 3.21H295.39c-9.845 0-18.764-1.334-24.071-3.21-1.633-.577-2.412-1.152-3.21-1.605V784.011c.802-.454 1.575-1.025 3.21-1.604 5.312-1.882 14.235-3.21 24.07-3.21zM202.317 24.974c-15.675 0-28.631 2.277-40.118 8.024-11.487 5.747-22.466 16.568-22.466 30.49v465.371c0 13.907 9.378 24.724 20.861 30.49 11.484 5.766 26.017 8.024 41.723 8.024h595.355c15.684 0 30.237-2.26 41.723-8.024 11.486-5.763 20.861-16.567 20.861-30.49V63.488c0-13.922-10.984-24.737-22.466-30.49-11.482-5.753-24.434-8.024-40.118-8.024zm0 25.676h595.355c12.2 0 22.073 3.006 28.885 6.419 6.812 3.413 8.024 6.373 8.024 6.419v465.371c0 .097-1.216 3.004-8.024 6.42-6.808 3.415-16.685 6.418-28.885 6.418H202.316c-12.229 0-22.087-3.005-28.885-6.419-6.798-3.413-8.024-6.306-8.024-6.419V63.488c0-.097 1.217-3.013 8.024-6.42 6.807-3.405 16.677-6.418 28.885-6.418zm-97.879-25.681c-44.063 0-78.656 36.186-78.656 80.25V894.75c0 44.064 34.593 80.219 78.656 80.219h190.938c-12.287 0-22.907-1.566-32.094-4.813-4.593-1.623-9.017-3.227-12.812-6.406-3.493-2.926-7.377-8.27-7.969-14.438H104.437c-30.19 0-52.968-24.372-52.968-54.562V105.219c0-30.19 22.778-54.563 52.968-54.563h38.594c4.107-7.743 11.508-13.83 19.156-17.656 11.487-5.747 24.45-8.031 40.125-8.031zm693.22 0c15.683 0 28.642 2.278 40.124 8.031 7.644 3.83 15.048 9.917 19.157 17.656h38.625c30.19 0 54.562 24.384 54.562 54.563V894.75c0 30.178-24.372 54.563-54.563 54.563h-77.125c-.593 6.18-4.452 11.52-7.937 14.437-3.787 3.169-8.256 4.78-12.844 6.406-9.174 3.254-19.819 4.813-32.093 4.813h130c44.063 0 80.218-36.143 80.218-80.219V105.219c0-44.076-36.155-80.25-80.218-80.25z"/></symbol><symbol viewBox="0 0 1000 1000" id="icon-select-fragment" xmlns="http://www.w3.org/2000/svg"><path d="M394.594 339.531l137.969 603.407 107.406-179.032L784.53 923.031l127.282-123.343-148.5-163.063 161.75-50.406zm29.031 37l453.219 209.406-149.907 41.97 146.844 167.03L780.5 887.25 633 724.906 540.812 888.47zm45.438 56.031l84.468 368.625 72.125-128.156 154.907 169.157 49.937-48.25-150.75-177.22 127.313-37.093zM328.418 171.168h353.295v31.825H328.419zM843.344 464.25l-37.813 66.375 29 13.5 36.532-64.094zM326.387 810.135L142.28 479.951l27.8-15.497L354.19 794.64zm402.238 51.334l-8.688 15.562H572.095l-18.813 31.375H737.5l12.844-23zm187.031-272.313l-42.437 13.219-53.625 96.063 21.75 23.875zM262.5 57.063L25 482.813l237.5 425.593h262.156l-7.156-31.375H279.969L60.03 482.875 279.97 88.531h440l219.937 394.344-48.843 87.531 27.843 12.938L975 482.812 737.5 57.063z"/></symbol><symbol viewBox="0 0 1000 1000" id="icon-select-lasso" xmlns="http://www.w3.org/2000/svg"><path d="M384.469 319.844L526.563 941.25l110.625-184.344 148.875 163.907L917.155 793.78l-152.937-168 166.625-51.906zm31.875 38.094l466.812 215.718-154.375 43.157L880 788.875l-96.063 95.063L632 716.688l-94.938 168.5zm46.812 57.687l86.969 379.688 74.313-132 159.5 174.218 51.468-49.656-155.281-182.5 131.094-38.281zm64.438-356.344l3.531 26.657s1.257.037 3.031.093V59.5c-4.01-.15-6.562-.2-6.562-.219zm-55.813.188c-4.705.225-8.312.406-15.625.75v26.468l15.625-.593zm15.594.531v25.5l6.344-.25zm62.406.375v26.469c4.804.35 10.13.872 15.594 1.531V61.844c-5.423-.648-10.707-1.11-15.594-1.469zm-109.218.938c-7.676.892-9.783 1.13-15.594 1.812v26.906l15.594-1.687zm140.406 2.156V90.03c5.85.708 11.223 1.49 15.593 2.188V65.53a436.22 436.22 0 00-15.593-2.062zm-171.594 1.468l-4.75.563 4.75 9.375zm-44.438 7.844s-2.032.43-2.375.5v27.906c1.941-.504 4.517-1.186 6.22-1.624 5.627-1.092 7.924-1.535 9.374-1.813V93.5zm285 2.969l-6.125 25.688s6.35 1.521 15.157 3.843V78c-5.204-1.317-9.032-2.25-9.032-2.25zM346.97 76.813c-4.769 1.283-10.004 2.703-15.594 4.218v28.219a199.197 199.197 0 0111.938-3.094c1.332-.34 2.332-.596 3.656-.937zm327.594 5.28v27.47c2.042.596 4.098 1.242 6.156 1.874 3.206 1.107 6.322 2.157 9.437 3.22v-27.97l-.093-.03a530.587 530.587 0 00-15.5-4.563zM315.78 85.22c-5.716 1.649-11.087 3.43-15.625 5.125v20.094l6.688 7.062s3.708-1.332 8.937-3.094zm390 6.844v27.906c6.76 2.141 11.094 4.052 11.094 4l4.5-8.594V97.406c-1.32-.466-2.73-.929-4.313-1.437-3.088-1.06-7.528-2.614-11.28-3.906zm-457.25 18.312c-1.096.136-5.153 2.001-10.75 4.813v32.406a1001.547 1001.547 0 0115.594-8.094v-25.063l-4.531-4.03c-.03-.058-.15-.052-.313-.032zm519.625 7.156v30.188c4.921 2.603 9.943 5.288 15.625 8.281v-30.063c-5.622-3.028-14.97-8.053-15.625-8.406zm-546 5.813c-5.095 2.73-10.42 5.625-15.594 8.5v33.312c2.85-1.909 8.634-5.24 15.594-9.094zm46.813 5.031v3.594c1.59-.672 2.631-1.025 2.937-.969zm530.406 5.969v31.625c6.266 4.078 14.55 9.476 15.594 10.156v-31.969c-4.06-2.664-7.566-4.975-11.907-7.812-1.849-.994-1.858-1.016-3.687-2zM752.562 137l-1.25 1.813s1.136.595 1.25.656zm-561.593 3.719c-8.26 4.823-14.037 8.454-13.719 8.969l13.719 8.593zm639.593 13.687V165.5l7.125-6.406s-3.994-2.624-7.125-4.688zM145 173.22s-.661.516-.844.656v40.656c.346-.308.682-.631 1.031-.937 4.89-5.005 10.008-9.688 14.594-13.625V181zm724.188 11.187l-7.407 5.344v25.344c3.86 3.779 8.058 7.98 12.157 12.344 1.25 1.462 2.2 2.555 3.437 4v-39.344a554.283 554.283 0 00-8.188-7.688zm-740.625 2.563c-4.459 3.984-9.3 8.51-13.938 13.375-.56.505-1.105 1.02-1.656 1.531v37.594l6.25 2.156s3.105-3.626 7.75-9.063c.503-.633 1.041-1.304 1.594-1.968zm764.406 20.656v42.25c3.246 4.296 5.031 7.219 5.031 7.219l10.563-4.563V225.47c-3.394-4.016-6.426-7.602-10.094-11.969a369.97 369.97 0 00-5.5-5.875zM97.375 218.469c-.65.804-1.288 1.61-1.875 2.375l-8.156 9.75 10.031 3.469zM64.25 263.094s-3.093 4.064-6.313 11.031c-2.003 3.977-4.81 9.558-7.374 14.656v51.188l15.593 1.75v-78.125zm17.531 4.656v32.75c3.385-6.59 6.848-13.328 9.406-18.281 3.062-6.492 6.063-10.344 6.063-10.344zm858 14.125l-15.625 4.938v15.062c2.87 6.174 6.117 13.913 8.625 22.094 3.599 8.585 5.582 17.683 7 24.687zM955.375 302v57.563l15.594-1.594v-2.094c-.29-1.33-.926-4.22-2.25-10.531-1.478-7.6-3.583-17.676-7.594-27.281-1.675-5.623-3.712-11.104-5.75-16.063zM34.969 328.906c-1.722 5.392-2.707 8.943-2.375 9.031l2.375.282zm-8.75 48.406s-2.702 20.378-.063 40.75c.37 20.531 7.345 40.114 6.5 40.22l2.313-.25v-80.376zm24.343.938v78.031l15.594-1.75v-4.406c-1.684-6.512-5.149-19.648-5.375-33.344-2.48-19.053.063-38.156.063-38.156zm904.813 19.906v79.719l5.469 1.156s1.705-4.873 4.343-12.156a14299.35 14299.35 0 005.782-26.813v-41.906zm-15.594 49.219c-1.164 5.316-2.28 10.366-3.156 14.531-2.48 6.703-4.063 11.219-4.063 11.219l7.22 1.5zM66.156 492.313l-15.594 2.875V507.5c3.434 6.861 8.122 15.961 13.22 24.875.862 1.298 1.517 2.273 2.374 3.563zm15.625 3.468v63.281c3.175 4.152 5.458 6.563 5.5 6.563l10.094-3.5v-37.5c-.24-.35-.417-.619-.656-.969-6.279-10.788-11.746-21.481-14.938-27.875zm842.375 13.625v41.063c5.458-8.383 11.312-16.443 15-23 .378-.75.276-.558.625-1.25v-11.875zm-15.593 14.156c-3.276 4.982-7.257 10.551-11.032 16.25-1.409 2.3-2.966 4.478-4.562 6.563v34.219l4.968 2.812s3.32-3.91 8.282-9.875c.731-.896 1.525-1.821 2.343-2.781zm-795.594 23.72v9.468l6.187-2.156s-2.627-2.673-6.187-7.313zm764.406 17.562a2034.665 2034.665 0 01-3.969 4.625l3.969 2.25zm-732.781 17.312l-.438.188v40.093c.041.033.084.062.125.094 5.204 4.494 10.584 8.63 15.5 12.219v-38.313c-2.442-2.099-4.66-4.132-6.531-6.062a980.41 980.41 0 00-8.656-8.219zm-16.031 6.875l-14.625 6.25s3.636 3.554 9.124 8.938c1.607 1.686 3.482 3.451 5.5 5.281zm717.593 6.844c-.554.498-3.607 3.237-8.906 7.188-1.819 1.427-4.538 3.511-6.688 5.187v33.625c3.11-2.034 3.215-2.112 6.438-4.219 3.322-2.627 5.963-4.722 9.156-7.25zm15.625 10.563v11.593c4.583-3.656 7.393-6.218 7.438-6.218zm-686.406 2.437v36.563c.766.484 1.844 1.156 1.844 1.156l13.75-8.625V620.53c-4.764-3.304-10.212-7.282-15.594-11.656zm639.594 11.313l-15.594 10.03V657l2.938 3.375s8.887-5.812 12.656-8.281zm-573.25 28.687c-1.207 1.495-2.549 2.951-3.938 4.406v34.407a224.779 224.779 0 015.188 4.718A118.45 118.45 0 00237.78 694v35.219c4.916-2.487 10.136-4.393 15.594-5.844v-65.438c-3.965-3.289-7.809-6.283-11.5-8.875-.053-.105-.104-.082-.156-.187zm-19.563 18.375c-1.699 1.393-3.389 2.792-5.094 4.188 1.65 1.158 3.49 2.611 5.094 3.812zM268.97 672v48.375c.146-.02.29-.044.437-.063a468.42 468.42 0 0115.156 18.844V686.25c-.53.028-1.06.062-1.593.094a370.663 370.663 0 00-14-14.344zm62.406 13.25V718c5.166.044 10.367.228 15.594.531V685.72c-5.2-.266-10.401-.435-15.594-.469zm-15.594.219l-9.594.187c-1.95.028-4.013.06-6.03.094v75.094a479.371 479.371 0 019.406 14.406c-.634.317-1.098.705-1.625.969a105.8 105.8 0 01-7.782 4.28v35.47a118.074 118.074 0 0015.625-6.563V726.47a542.501 542.501 0 00-6.031-8.094l6.031-.156v-32.75zm46.781 1.343v80.407c1.038-1.438 2.092-2.896 3.125-4.407 4.54-6.491 7.426-13.502 9.907-19.625a203.687 203.687 0 012.562-6.093v-48.688a535.108 535.108 0 00-15.594-1.593zm31.22 3.625v33.125c5.206.755 10.4 1.53 15.593 2.344V692.75a1073.13 1073.13 0 00-15.594-2.313zm31.187 4.813v33.156c.549.09 1.108.161 1.656.25 4.616.744 9.277 1.524 13.938 2.282V697.75c-2.878-.466-5.756-.91-8.657-1.375-2.304-.377-4.624-.749-6.937-1.125zm31.187 4.938v6.218l.188-6.187-.188-.032zm-234 .343a99.585 99.585 0 00-10.594 6.282 102.446 102.446 0 00-5 3.718v91.188c4.639 3.321 9.861 6.269 15.594 8.843V772.22c-4.825-4.324-7.786-9.163-8.281-13.938-.612-5.7 2.31-11.87 8.281-17.875zM346.97 726.5c-.614 1.455-1.223 2.895-1.781 4.281-2.059 5.067-3.936 9.818-6.47 13.407a315.472 315.472 0 01-5.5 7.593c-.612-.955-1.226-1.896-1.843-2.843v65.25c6.04 12.274 11.317 24.687 15.594 36.937zm-156 .281c-9.713 13.952-10.48 27.003-9.656 35.063.947 8.813 4.273 17.138 9.656 24.593zm46.812 54.782v34.812c5.265 1.592 10.453 2.79 15.594 3.594v-33.407c-5.04-1.13-10.218-2.8-15.594-5zm46.781 4.78c-5.175 1.31-10.352 1.985-15.593 2v32.845a95.481 95.481 0 0015.594-1.313zm78 17.313V933.22l15.594 3.25V841.5c-4.345-12.648-9.616-25.323-15.594-37.844z"/></symbol><symbol viewBox="0 0 1000 1000" id="icon-select-rectangle" xmlns="http://www.w3.org/2000/svg"><path d="M370 332l146.965 643 114.506-190.844 154.028 169.688 135.72-131.531-158.372-173.844 172.43-53.719zm30.835 39.156l483.079 223.25-159.745 44.782 156.496 178-99.447 98.375-157.183-173.094-98.26 174.469zm48.489 59.813l89.948 392.969 76.952-136.625 165.057 180.343 53.27-51.468L673.835 627.25l135.72-39.531zM145.228 817H35V706h110.228zm-76.3-34H111v-43H68.929zM855 706.406v42.938L916.063 817H965V706.406zM888.663 740H931v42.719c-45.278 3.257-42.337.156-42.337-42.406zM965 135H855V25h110zm-76.352-34H931V59h-42.352zm-743.42 34H35V25h110.228zm-76.3-34H111V59H68.929zM111.3 744H188v33h-76.7zm113.605 0H336v33H224.905zM373 743.562V777h98.663l-7.592-33.438zM73.572 146H107v109H73.572zm0 436H107v109H73.572zm0-145H107v109H73.572zm0-145H107v109H73.572zm816.922-146H924v109h-33.506zm33.099 452.375L891 608.688V691h32.593zM890.494 437H924v109h-33.506zm0-145H924v109h-33.506zM111.3 65H188v33h-76.7zm557.42 0H780v33H668.72zm147.85 0H877v33h-60.43zm-591.665 0H336v33H224.905zm147.903 0H484v33H372.808zm148.008 0H632v33H520.816z"/></symbol><symbol viewBox="0 0 1000 1000" id="icon-settings" xmlns="http://www.w3.org/2000/svg"><path d="M666.667 500c0-91.797-74.87-166.667-166.667-166.667S333.333 408.203 333.333 500 408.203 666.667 500 666.667 666.667 591.797 666.667 500zM1000 429.036v144.532c0 9.765-7.813 21.484-18.23 23.437l-120.442 18.23c-7.161 20.833-14.974 40.364-25.39 59.244 22.135 31.901 45.572 60.547 69.661 89.844 3.906 4.557 6.51 10.417 6.51 16.276 0 5.86-1.953 10.417-5.859 14.974-15.625 20.833-103.516 116.536-125.651 116.536-5.86 0-11.719-2.604-16.927-5.859l-89.844-70.312c-18.88 9.765-39.062 18.229-59.245 24.74-4.557 39.713-8.463 82.03-18.88 121.093C593.1 992.188 583.984 1000 572.266 1000H427.734c-11.718 0-22.135-8.464-23.437-19.531l-18.23-119.792c-20.182-6.51-39.713-14.323-58.593-24.088l-91.797 69.661c-4.557 3.906-10.417 5.86-16.276 5.86-5.86 0-11.719-2.605-16.276-7.162-34.505-31.25-80.078-71.615-107.422-109.375-3.255-4.557-4.557-9.766-4.557-14.974 0-5.86 1.953-10.417 5.208-14.974 22.136-29.948 46.224-58.594 68.36-89.193-11.068-20.833-20.183-42.317-26.693-64.453L18.88 594.401C7.811 592.448 0 582.031 0 570.964V426.432c0-9.765 7.813-21.484 17.578-23.437l121.094-18.23c6.51-20.833 14.974-40.364 25.39-59.895-22.135-31.25-45.572-60.547-69.661-89.844-3.906-4.557-6.51-9.766-6.51-15.625 0-5.86 2.604-10.417 5.859-14.974 15.625-21.484 103.516-116.536 125.651-116.536 5.86 0 11.719 2.604 16.927 6.51l89.844 69.661c18.88-9.765 39.062-18.229 59.245-24.74 4.557-39.713 8.463-82.03 18.88-121.093C406.9 7.813 416.016 0 427.734 0h144.532c11.718 0 22.135 8.464 23.437 19.531l18.23 119.792c20.182 6.51 39.713 14.323 58.593 24.088l92.448-69.661c3.906-3.906 9.766-5.86 15.625-5.86 5.86 0 11.719 2.605 16.276 6.511 34.505 31.901 80.078 72.266 107.422 110.677 3.255 3.906 4.557 9.115 4.557 14.323 0 5.86-1.953 10.417-5.208 14.974-22.136 29.948-46.224 58.594-68.36 89.193 11.068 20.833 20.183 42.317 26.693 63.802l119.14 18.229c11.068 1.953 18.881 12.37 18.881 23.437z"/></symbol><symbol viewBox="0 0 1000 1000" id="icon-sgroup" xmlns="http://www.w3.org/2000/svg"><path d="M791.333 67.143v52.408h131.153v760.845H791.333v52.461H975V67.143zM225.028 880.396H75.138V119.55h149.89V67.143H25v865.714h200.028z"/></symbol><symbol viewBox="0 0 1000 1000" id="icon-sgroup-data" xmlns="http://www.w3.org/2000/svg"><path d="M976.996 677.429q0-57.429-22.286-110.572-22.285-53.143-63.428-94.286L507.28 92l-53.143 52.286 384 380.572q63.43 61.715 63.43 152.572 0 76.286-49.715 126.857-49.714 50.572-126.857 49.715-87.43 0-154.287-64.286L148.137 370.57q-50.571-50.571-50.571-114 0-48.857 31.714-80.572 31.714-31.714 80.572-30.857 64.285 0 114.857 50.572L647.852 514.57q45.43 47.143 45.43 83.143 0 18-13.715 28.286-13.714 10.286-32.572 10.286-41.143 0-73.714-34.286L281.85 314l-52.285 52.285 290.572 288.001q56.571 56.572 126.857 56.572 49.715 0 85.715-31.715 36-31.714 36-80.571 0-66.858-67.715-136.286L377.852 143.428q-72-72-168-72-79.715 0-132.858 52.285-53.143 52.286-54 132.858 0 94.286 72 166.286l422.572 419.144q89.144 86.571 207.43 86.571 107.143 0 180-72t72-179.143z"/></symbol><symbol viewBox="0 0 1000 1000" id="icon-template-0" xmlns="http://www.w3.org/2000/svg"><path d="M758.79 684.716l.652-363.85 33.725.066-.653 363.85zM201.521 362.534l310.986-188.872 17.503 28.823-310.98 188.872zM510.839 841.63L199.345 653.597l17.43-28.877 311.494 188.041zM500 975L85.906 742.303V267.356L500 25l414.094 232.644v475zM124.908 722.458L500 936.156l380.264-222.459V277.542L500 63.95 124.908 286.408z"/></symbol><symbol viewBox="0 0 1000 1000" id="icon-template-1" xmlns="http://www.w3.org/2000/svg"><path d="M690.455 792.468l-31.469-11.512 122.696-335.442 31.475 11.512zm-386.683-.534L189.205 448.199l31.845-10.615 114.567 343.735zM793.55 951.778h-587.1L25 393.336 500 48.222 975 393.39zM230.833 918.21H769.22l166.356-512.103L500.053 89.653 64.478 406.108z"/></symbol><symbol viewBox="0 0 1000 1000" id="icon-template-2" xmlns="http://www.w3.org/2000/svg"><path d="M500 975L85.906 742.303V267.356L500 25l414.094 232.644v475zM124.908 722.458L500 936.156l380.264-222.459V277.542L500 63.95 124.908 286.408z"/></symbol><symbol viewBox="0 0 1000 1000" id="icon-template-3" xmlns="http://www.w3.org/2000/svg"><path d="M793.55 951.778h-587.1L25 393.336 500 48.222 975 393.39zM230.833 918.21H769.22l166.356-512.103L500.053 89.653 64.478 406.108z"/></symbol><symbol viewBox="0 0 1000 1000" id="icon-template-4" xmlns="http://www.w3.org/2000/svg"><path d="M975 911.35H25l475-822.7zM83.003 877.836H917.05L500 155.572z"/></symbol><symbol viewBox="0 0 1000 1000" id="icon-template-5" xmlns="http://www.w3.org/2000/svg"><path d="M975 975H25V25h950zM59.57 940.483h880.86V59.57H59.57z"/></symbol><symbol viewBox="0 0 1000 1000" id="icon-template-6" xmlns="http://www.w3.org/2000/svg"><path d="M289.35 963.31L25 633.31l93.148-412.33L498.654 36.69l381.404 182.6L975 631.252 712.234 962.308zM61.572 624.813l243.978 304.563 390.217-.897 242.553-305.566-87.659-380.19-351.955-168.51-351.111 170.146z"/></symbol><symbol viewBox="0 0 1000 1000" id="icon-template-7" xmlns="http://www.w3.org/2000/svg"><path d="M696.793 975H303.26L25 696.793V303.26L303.26 25h393.533L975 303.26v393.533zm-379.546-33.674h365.612l258.52-258.414V317.247l-258.52-258.52H317.247l-258.52 258.52v365.665z"/></symbol><symbol viewBox="-125 -125 1000 1000" id="icon-template-lib" xmlns="http://www.w3.org/2000/svg"><path d="M218.75 468.75l140.625-187.5L468.75 422.187l78.125-93.75L656.25 468.75zM687.5 125h-250L375 62.5H187.5c-34.52 0-62.5 27.98-62.5 62.5v375c0 34.52 27.98 62.5 62.5 62.5h500c34.52 0 62.5-27.98 62.5-62.5V187.5c0-34.52-27.98-62.5-62.5-62.5zm-625 62.5H0V625c0 34.52 27.98 62.5 62.5 62.5H625V625H62.5zm0 0"/></symbol><symbol viewBox="0 0 1000 1000" id="icon-transform-flip-h" xmlns="http://www.w3.org/2000/svg"><path d="M975 500L797.825 368.583l42.803 115.742H159.319l42.803-115.742L25 500l177.122 131.417-41.747-112.84h679.144l-41.694 112.84z"/></symbol><symbol viewBox="0 0 1000 1000" id="icon-transform-flip-v" xmlns="http://www.w3.org/2000/svg"><path d="M500 25L368.583 202.175l115.742-42.803v681.309l-115.742-42.803L500 975l131.417-177.122-112.84 41.747V160.481l112.84 41.694z"/></symbol><symbol viewBox="0 0 1000 1000" id="icon-transform-rotate" xmlns="http://www.w3.org/2000/svg"><path d="M852.49 687.559C879.934 630.757 895.7 567.292 895.7 500c0-240.073-195.277-435.35-435.35-435.35C220.278 64.65 25 259.926 25 500c0 240.073 195.278 435.35 435.35 435.35 69.601 0 135.31-16.822 193.63-45.982l-12.602-33.316c-54.36 27.774-115.78 43.74-181.027 43.74-220.414 0-399.858-179.313-399.858-399.792 0-220.48 179.379-399.858 399.858-399.858 220.545 0 399.857 179.379 399.857 399.858 0 61.156-14.646 118.618-39.451 170.406l-2.639-1.65-81.278-94.537 29.952 226.68L975 706.427z"/></symbol><symbol viewBox="0 0 1000 1000" id="icon-undo" xmlns="http://www.w3.org/2000/svg"><path d="M474.812 183.482c42.511-3.244 84.89.665 126.774 12.838 166.696 48.452 311.991 227.933 362.669 601.774.254 1.873 1.355 2.931 1.604 4.814l9.629 65.794-33.7-57.77c-113.495-200.68-220.912-288.903-311.317-308.108-90.405-19.205-166.973 27.93-223.057 110.726.15 1.044.856 3.722 3.209 8.024 4.707 8.603 13.413 21.578 25.676 36.908 24.526 30.661 61.649 71.78 97.888 121.96l14.443 20.861h-25.676c-132.691 0-364.081-4.623-494.257-6.419L15.86 793.28v-12.838s3.21-373.383 3.21-505.49v-30.49l22.466 22.466c29.89 29.89 68.798 64.785 101.098 96.284 88.106-100.114 208.859-170.318 332.18-179.73zm1.605 25.676c-119.433 9.385-239.23 78.63-324.156 179.73l-8.023 11.233-9.629-11.233c-26.536-26.495-59.981-56.526-89.864-85.05-.345 144.968-3.052 448.397-3.21 465.37 125.037 1.834 325.006 5.912 455.743 6.42-29.225-38.47-59.383-75.03-80.236-101.098-12.553-15.693-22.561-28.558-28.885-40.118-3.162-5.78-5.534-11.524-6.42-17.653-.795-5.515.77-12.485 4.815-17.652.237-.349 1.367.349 1.605 0 59.697-87.544 145.64-143.518 247.128-121.959 90.757 19.28 190.036 110.26 292.06 271.2C870.878 420.83 739.347 262.763 593.563 220.39c-38.758-11.265-77.334-14.361-117.145-11.233z"/></symbol><symbol viewBox="0 0 1000 1000" id="icon-zoom-in" xmlns="http://www.w3.org/2000/svg"><path d="M312.5 112.281c-125.718 0-227.906 102.188-227.906 227.906 0 125.719 102.188 227.907 227.906 227.907s227.906-102.188 227.906-227.907c0-125.718-102.188-227.906-227.906-227.906zm0 24.688c112.375 0 203.219 90.844 203.219 203.219 0 112.374-90.844 203.218-203.219 203.218s-203.219-90.844-203.219-203.218c0-112.375 90.844-203.22 203.219-203.22zm-.063-84.219C174.692 49.882 46.61 159.983 28.315 296.444 4.99 430.188 91.115 571.324 220.298 612.51c74.609 25.626 159.667 18.33 228.733-19.854C562.64 707.741 675.265 823.88 789.485 938.308c49.238 44.192 137.416 13.003 147.28-52.625 11.157-44.223-19.799-80.152-49.866-107.752l-313.243-318.65c58.598-120.77 15.778-277.983-94.87-353.464-48.148-34.437-107.154-53.25-166.349-53.067zm0 24.688C440.74 74.544 559.563 179.1 573.11 306.69c7.157 53.927-3.7 109.63-29.141 157.591C662.272 584.97 781.267 705.074 899.18 826.085c36.076 40.15 1.724 111.32-52.063 108.365-42.866-.758-64.88-42.353-93.898-67.544-99.947-101.689-199.904-203.367-299.845-305.062-103.604 68.778-253.74 48.687-335.487-44.925-88.773-93.62-90.672-253.023-4.183-348.748 49.053-57.228 123.333-91.223 198.733-90.733zm427.47-36.5v108.406h-108.5v126.812h108.5V384.47h126.75V276.156H975V149.344H866.656V40.938h-126.75zm24.687 24.687h77.375v108.406h108.343v77.406H841.97v108.344h-77.375V251.437h-108.5v-77.406h108.5V65.625z"/></symbol><symbol viewBox="0 0 1000 1000" id="icon-zoom-out" xmlns="http://www.w3.org/2000/svg"><path d="M312.875 105.875c-125.888 0-228.188 102.3-228.188 228.188 0 125.888 102.3 228.218 228.188 228.218 125.888 0 228.219-102.33 228.219-228.218 0-125.889-102.33-228.188-228.219-228.188zm0 24.719c112.527 0 203.5 90.942 203.5 203.469 0 112.526-90.973 203.468-203.5 203.468S109.406 446.59 109.406 334.063c0-112.527 90.942-203.47 203.469-203.47zm-.031-84.375c-137.939-2.868-266.2 107.39-284.524 244.04C4.96 424.193 91.217 565.522 220.578 606.769c74.712 25.667 159.889 18.353 229.047-19.894 113.754 115.25 226.548 231.5 340.9 346.129 49.31 44.232 137.597 12.992 147.486-52.71 11.152-44.27-19.824-80.262-49.93-107.896L574.406 453.344c58.667-120.945 15.807-278.381-94.994-353.98-48.21-34.488-107.294-53.328-166.568-53.145zm0 24.718C441.32 68.04 560.274 172.766 573.827 300.52c7.134 53.985-3.634 109.795-29.17 157.793 118.503 120.826 237.63 241.135 355.717 362.31 36.097 40.2 1.709 111.429-52.121 108.51-43-.744-64.986-42.4-94.064-67.638-100.088-101.817-200.143-203.667-300.251-305.464-103.737 68.89-254.066 48.744-335.918-44.989-88.903-93.75-90.805-253.38-4.189-349.237 49.123-57.308 123.506-91.357 199.013-90.868zm345.031 23.438v118.344H975V94.375H657.875zm24.75 24.75h267.656V188H682.625v-68.875z"/></symbol></svg>