<svg width="12" height="12" viewBox="0 0 12 12" xmlns="http://www.w3.org/2000/svg">
  <path d="M9.5 10.5H4V3.5H9.5V10.5ZM9.5 2.5H4C3.73478 2.5 3.48043 2.60536 3.29289 2.79289C3.10536 2.98043 3 3.23478 3 3.5V10.5C3 10.7652 3.10536 11.0196 3.29289 11.2071C3.48043 11.3946 3.73478 11.5 4 11.5H9.5C9.76522 11.5 10.0196 11.3946 10.2071 11.2071C10.3946 11.0196 10.5 10.7652 10.5 10.5V3.5C10.5 3.23478 10.3946 2.98043 10.2071 2.79289C10.0196 2.60536 9.76522 2.5 9.5 2.5ZM8 0.5H2C1.73478 0.5 1.48043 0.605357 1.29289 0.792893C1.10536 0.98043 1 1.23478 1 1.5V8.5H2V1.5H8V0.5Z" />
</svg>
