<svg width="48" height="48" viewBox="0 0 48 48" fill="none" xmlns="http://www.w3.org/2000/svg">
<path d="M19.0775 31.6002L15.5335 35.0882C15.3498 35.2871 15.1275 35.4466 14.8803 35.5571C14.633 35.6675 14.3659 35.7266 14.0952 35.7308C13.8244 35.735 13.5556 35.6841 13.3051 35.5813C13.0546 35.4785 12.8276 35.3258 12.6378 35.1327C12.448 34.9395 12.2994 34.7098 12.2011 34.4575C12.1027 34.2052 12.0566 33.9356 12.0655 33.6649C12.0745 33.3943 12.1383 33.1283 12.2531 32.883C12.368 32.6378 12.5314 32.4184 12.7335 32.2382L16.2775 28.7442C16.4613 28.5453 16.6835 28.3857 16.9308 28.2753C17.178 28.1648 17.4451 28.1057 17.7159 28.1016C17.9866 28.0974 18.2554 28.1483 18.5059 28.2511C18.7565 28.3539 18.9835 28.5065 19.1733 28.6997C19.363 28.8928 19.5116 29.1225 19.61 29.3748C19.7083 29.6271 19.7544 29.8968 19.7455 30.1674C19.7365 30.4381 19.6727 30.7041 19.5579 30.9493C19.4431 31.1946 19.2797 31.414 19.0775 31.5942V31.6002Z" fill="#231F20"/>
<path d="M30.2007 19.8321C29.8044 19.8312 29.4172 19.7126 29.0883 19.4913C28.7595 19.27 28.5039 18.9559 28.3538 18.589C28.2038 18.2221 28.1662 17.8189 28.2458 17.4306C28.3254 17.0423 28.5185 16.6864 28.8007 16.4081L32.3447 12.9141C32.5285 12.7152 32.7507 12.5557 32.998 12.4452C33.2452 12.3347 33.5123 12.2756 33.7831 12.2715C34.0538 12.2673 34.3226 12.3182 34.5731 12.421C34.8237 12.5238 35.0507 12.6764 35.2405 12.8696C35.4302 13.0628 35.5788 13.2925 35.6772 13.5448C35.7756 13.7971 35.8217 14.0667 35.8127 14.3374C35.8037 14.608 35.7399 14.874 35.6251 15.1193C35.5103 15.3645 35.3469 15.5839 35.1447 15.7641L31.6007 19.2581C31.2272 19.6254 30.7246 19.8315 30.2007 19.8321Z" fill="#231F20"/>
<path d="M22.1598 27.7479C21.763 27.7475 21.3753 27.629 21.046 27.4076C20.7168 27.1862 20.4608 26.8718 20.3107 26.5045C20.1606 26.1372 20.1232 25.7335 20.2031 25.3449C20.2831 24.9562 20.4769 24.6002 20.7598 24.3219L24.3038 20.8279C24.6872 20.4861 25.1874 20.3049 25.7008 20.3219C26.2142 20.3389 26.7014 20.5527 27.0614 20.9192C27.4214 21.2856 27.6266 21.7765 27.6345 22.2901C27.6424 22.8037 27.4523 23.3006 27.1038 23.6779L23.5598 27.1719C23.1866 27.54 22.6839 27.7468 22.1598 27.7479Z" fill="#231F20"/>
<path d="M22.3999 16.352C22.0036 16.3512 21.6164 16.2325 21.2876 16.0112C20.9587 15.7899 20.7031 15.4759 20.5531 15.109C20.4031 14.7421 20.3654 14.3389 20.445 13.9506C20.5246 13.5623 20.7177 13.2064 20.9999 12.928L24.5439 9.43403C24.727 9.23294 24.9492 9.07131 25.1969 8.959C25.4446 8.8467 25.7126 8.78609 25.9845 8.78088C26.2564 8.77568 26.5265 8.82597 26.7783 8.92871C27.0301 9.03144 27.2583 9.18445 27.449 9.37837C27.6396 9.5723 27.7887 9.80308 27.8872 10.0566C27.9856 10.3101 28.0313 10.581 28.0215 10.8528C28.0116 11.1246 27.9465 11.3915 27.83 11.6372C27.7135 11.883 27.5481 12.1024 27.3439 12.282L23.7999 15.776C23.4268 16.1441 22.9241 16.3509 22.3999 16.352Z" fill="#231F20"/>
<path d="M14.3716 24.2659C13.9752 24.265 13.5881 24.1464 13.2592 23.9251C12.9304 23.7037 12.6748 23.3897 12.5247 23.0228C12.3747 22.6559 12.3371 22.2527 12.4167 21.8644C12.4962 21.4761 12.6894 21.1202 12.9716 20.8419L16.5116 17.3479C16.6989 17.1635 16.9206 17.0178 17.1642 16.9191C17.4078 16.8205 17.6684 16.7707 17.9312 16.7728C18.194 16.7748 18.4538 16.8286 18.6958 16.931C18.9378 17.0335 19.1572 17.1826 19.3416 17.3699C19.526 17.5571 19.6717 17.7789 19.7704 18.0225C19.869 18.266 19.9188 18.5266 19.9167 18.7894C19.9147 19.0522 19.8609 19.312 19.7585 19.554C19.656 19.796 19.5069 20.0155 19.3196 20.1999L15.7756 23.6899C15.4015 24.0589 14.8971 24.2658 14.3716 24.2659Z" fill="#231F20"/>
<path d="M29.9458 31.2283C29.5495 31.2274 29.1623 31.1088 28.8335 30.8874C28.5046 30.6661 28.249 30.3521 28.099 29.9852C27.9489 29.6183 27.9113 29.2151 27.9909 28.8268C28.0705 28.4385 28.2636 28.0826 28.5458 27.8043L32.0918 24.3103C32.2749 24.1092 32.4971 23.9475 32.7448 23.8352C32.9925 23.7229 33.2605 23.6623 33.5324 23.6571C33.8043 23.6519 34.0744 23.7022 34.3262 23.8049C34.578 23.9077 34.8062 24.0607 34.9969 24.2546C35.1875 24.4485 35.3366 24.6793 35.4351 24.9328C35.5335 25.1863 35.5792 25.4573 35.5694 25.729C35.5595 26.0008 35.4944 26.2677 35.3779 26.5135C35.2614 26.7592 35.096 26.9786 34.8918 27.1582L31.3458 30.6522C30.9727 31.0203 30.47 31.2271 29.9458 31.2283Z" fill="#231F20"/>
<path d="M21.9165 39.1421C21.5202 39.1412 21.133 39.0226 20.8042 38.8013C20.4753 38.5799 20.2197 38.2659 20.0697 37.899C19.9197 37.5321 19.882 37.1289 19.9616 36.7406C20.0412 36.3523 20.2343 35.9964 20.5165 35.7181L24.0625 32.2241C24.2456 32.023 24.4678 31.8613 24.7155 31.749C24.9632 31.6367 25.2312 31.5761 25.5031 31.5709C25.775 31.5657 26.0451 31.616 26.2969 31.7187C26.5487 31.8215 26.7769 31.9745 26.9676 32.1684C27.1582 32.3623 27.3073 32.5931 27.4058 32.8466C27.5042 33.1001 27.5499 33.3711 27.5401 33.6428C27.5302 33.9146 27.4651 34.1815 27.3486 34.4273C27.2321 34.673 27.0667 34.8924 26.8625 35.0721L23.3205 38.5661C22.9464 38.9351 22.442 39.142 21.9165 39.1421Z" fill="#231F20"/>
</svg>
