<svg width="24" height="24" viewBox="0 0 24 24" fill="none" xmlns="http://www.w3.org/2000/svg">
<path d="M17.25 18.75H9V8.25H17.25V18.75ZM17.25 6.75H9C8.60217 6.75 8.22064 6.90803 7.93934 7.18934C7.65803 7.47064 7.5 7.85217 7.5 8.25V18.75C7.5 19.1478 7.65803 19.5294 7.93934 19.8107C8.22064 20.092 8.60217 20.25 9 20.25H17.25C17.6478 20.25 18.0294 20.092 18.3107 19.8107C18.592 19.5294 18.75 19.1478 18.75 18.75V8.25C18.75 7.85217 18.592 7.47064 18.3107 7.18934C18.0294 6.90803 17.6478 6.75 17.25 6.75ZM15 3.75H6C5.60217 3.75 5.22064 3.90804 4.93934 4.18934C4.65804 4.47064 4.5 4.85217 4.5 5.25V15.75H6V5.25H15V3.75Z" fill="currentcolor"/>
</svg>
