<svg width="24" height="24" viewBox="0 0 24 24" fill="none" xmlns="http://www.w3.org/2000/svg">
<path d="M7.575 10.5L6 16.5V9H18.75C18.75 8.60217 18.592 8.22064 18.3107 7.93934C18.0294 7.65803 17.6478 7.5 17.25 7.5H12L10.5 6H6C5.60217 6 5.22064 6.15804 4.93934 6.43934C4.65804 6.72064 4.5 7.10217 4.5 7.5V16.5C4.5 16.8978 4.65804 17.2794 4.93934 17.5607C5.22064 17.842 5.60217 18 6 18H17.25C17.925 18 18.525 17.55 18.675 16.875L20.4 10.5H7.575ZM17.25 16.5H7.5L8.7 12H18.45L17.25 16.5Z" fill="currentcolor"/>
</svg>
