<svg width="24" height="24" viewBox="0 0 24 24" fill="none" xmlns="http://www.w3.org/2000/svg">
<path d="M16.999 2.99998H4.99902C3.88902 2.99998 2.99902 3.89998 2.99902 4.99998V19C2.99902 20.1 3.88902 21 4.99902 21H18.999C20.099 21 20.999 20.1 20.999 19V6.99998L16.999 2.99998ZM18.999 19H4.99902V4.99998H16.169L18.999 7.82998V19ZM6.49902 6.49998H14.499V9.49998H6.49902V6.49998Z" fill="#005662"/>
<path d="M13.999 15C13.999 16.1045 13.1036 17 11.999 17C10.8945 17 9.99902 16.1045 9.99902 15C9.99902 13.8954 10.8945 13 11.999 13C13.1036 13 13.999 13.8954 13.999 15Z" fill="#005662"/>
</svg>
