<svg width="12" height="12" viewBox="0 0 12 12" fill="none" xmlns="http://www.w3.org/2000/svg">
<path fill-rule="evenodd" clip-rule="evenodd" d="M4.45321 0.619141C2.33611 0.619141 0.619873 2.33538 0.619873 4.45247C0.619873 6.56957 2.33612 8.28581 4.45321 8.28581C5.27094 8.28581 6.02887 8.02976 6.6512 7.59346L10.2431 11.1854L11.1859 10.2426L7.59404 6.65069C8.03043 6.02832 8.28654 5.27031 8.28654 4.45247C8.28654 2.33538 6.5703 0.619141 4.45321 0.619141ZM1.95321 4.45247C1.95321 3.07176 3.07249 1.95247 4.45321 1.95247C5.83392 1.95247 6.95321 3.07176 6.95321 4.45247C6.95321 5.83319 5.83392 6.95247 4.45321 6.95247C3.07249 6.95247 1.95321 5.83319 1.95321 4.45247Z" fill="#167782"/>
</svg>
