<svg width="24" height="24" viewBox="0 0 24 24" xmlns="http://www.w3.org/2000/svg">
  <path d="M13.2388 16.3421C13.5024 16.665 13.8097 17.2644 13.2737 18.0375C12.7436 18.7861 11.7279 18.5923 10.4131 18.3415C9.32577 18.134 8.03386 17.8875 6.64269 18.1026C4.6261 18.4109 3.0878 18.9272 3.0878 18.9272C3.0878 18.9272 2.07093 19.2194 2.32621 20.1307C2.57993 21.0322 3.5183 20.884 3.5183 20.884C3.59041 20.8647 3.70291 20.827 3.85071 20.7775C4.4594 20.5738 5.66682 20.1696 7.1179 20.0219C8.42157 19.882 9.32032 20.0975 10.0746 20.2783C10.3629 20.3474 10.63 20.4115 10.8906 20.4487C11.8233 20.5849 13.6158 20.7169 14.9987 19.152L15 19.1505V16.064L13.2388 16.3421Z" />
  <path d="M20.5269 23.5839C20.2307 23.7393 19.8752 23.6033 19.7389 23.2794L18.4472 20.2091L16.9599 21.5175C16.8592 21.6082 16.7347 21.6601 16.5925 21.6601C16.4354 21.6601 16.2847 21.5918 16.1735 21.4703C16.0624 21.3489 16 21.1841 16 21.0123V11.2959C16 11.1242 16.0624 10.9594 16.1735 10.8379C16.2847 10.7164 16.4354 10.6482 16.5925 10.6482C16.7347 10.6482 16.871 10.7065 16.9718 10.7972L16.9777 10.7907L23.7859 17.0351C24.0407 17.2683 24.0703 17.6764 23.8629 17.9484C23.774 18.065 23.6496 18.1427 23.5252 18.1686L21.6528 18.5703L22.9563 21.6341C23.1104 21.958 22.9682 22.3402 22.6719 22.4892L20.5269 23.5839Z" />
  <path d="M12.7236 3.01973C12.4753 3.00616 12.2254 2.99955 11.9747 3.00002C11.7242 3.0005 11.4747 3.00805 11.2266 3.02254C10.6753 3.05474 10.2022 2.6339 10.17 2.08255C10.1378 1.53121 10.5587 1.05815 11.11 1.02594C11.3956 1.00926 11.6828 1.00058 11.9709 1.00003C12.2593 0.99948 12.5468 1.00709 12.8327 1.02271C13.3841 1.05283 13.8068 1.5243 13.7767 2.07576C13.7465 2.62722 13.2751 3.04985 12.7236 3.01973Z" />
  <path d="M16.5442 2.71833C16.7732 2.21574 17.3662 1.9939 17.8688 2.22285C18.1376 2.3453 18.4003 2.47679 18.6559 2.61722C18.8739 2.73701 19.0854 2.86258 19.2901 2.99368C19.7552 3.29156 19.8907 3.91005 19.5928 4.37512C19.2949 4.84018 18.6765 4.97571 18.2114 4.67783C18.0453 4.57145 17.8724 4.46873 17.6928 4.37007C17.4822 4.25438 17.2643 4.14523 17.0397 4.0429C16.5371 3.81396 16.3153 3.22092 16.5442 2.71833Z" />
  <path d="M7.409 2.73487C7.64017 3.23645 7.42097 3.83046 6.9194 4.06163C6.69549 4.16483 6.47838 4.27483 6.2687 4.39133C6.09 4.49062 5.91797 4.59392 5.75282 4.70086C5.28923 5.00105 4.67008 4.86858 4.3699 4.405C4.06971 3.94142 4.20218 3.32227 4.66576 3.02208C4.86951 2.89015 5.08016 2.76372 5.29734 2.64306C5.55213 2.50149 5.81409 2.36886 6.08224 2.24527C6.58381 2.0141 7.17782 2.2333 7.409 2.73487Z" />
  <path d="M21.0245 5.83845C21.5209 5.59624 22.1196 5.80226 22.3618 6.2986C22.478 6.53665 22.5795 6.78043 22.6654 7.02927C22.7436 7.25574 22.8082 7.4846 22.8591 7.71523C22.9782 8.25452 22.6376 8.78824 22.0983 8.90732C21.559 9.0264 21.0253 8.68575 20.9062 8.14645C20.872 7.99178 20.8284 7.83684 20.7749 7.68197C20.7161 7.51178 20.646 7.34287 20.5644 7.17571C20.3222 6.67937 20.5282 6.08066 21.0245 5.83845Z" />
  <path d="M2.95155 5.87163C3.44959 6.11033 3.65983 6.70757 3.42113 7.20561C3.34098 7.37284 3.27219 7.54179 3.21483 7.71198C3.16252 7.86716 3.12004 8.02239 3.08709 8.17733C2.9722 8.71753 2.44114 9.06231 1.90094 8.94742C1.36073 8.83252 1.01595 8.30146 1.13085 7.76126C1.18003 7.53 1.243 7.30042 1.31958 7.07319C1.40358 6.82398 1.50323 6.57976 1.61757 6.3412C1.85627 5.84316 2.45352 5.63293 2.95155 5.87163Z" />
  <path d="M14.8031 15.0173L12.4922 15.2326C12.2848 15.4341 12.166 15.7233 12.192 16.0339C12.2382 16.5843 12.7217 16.993 13.2721 16.9469C13.5651 16.9223 13.8577 16.8892 14.149 16.8474C14.4361 16.8063 14.6911 16.6425 14.848 16.3987C14.931 16.2698 14.9822 16.1251 15 15.9763V15.7387C14.9935 15.6843 14.9824 15.6301 14.9668 15.5767L14.8031 15.0173Z" />
  <path d="M20.7882 12.8798L19.8139 11.9021L20.6844 10.6996C20.9856 10.4007 21.4569 10.3165 21.8528 10.5239C22.342 10.7802 22.5309 11.3845 22.2746 11.8738C22.1679 12.0775 22.0499 12.2778 21.921 12.474C21.6759 12.847 21.2136 13.0121 20.7882 12.8798Z" />
  <path d="M2.16015 10.5635C2.64756 10.3038 3.25322 10.4884 3.51292 10.9758C3.58953 11.1196 3.67506 11.2627 3.76973 11.4048C3.87981 11.57 4.00133 11.7323 4.13406 11.8913C4.48803 12.3152 4.4313 12.9459 4.00735 13.2998C3.58341 13.6538 2.95279 13.5971 2.59883 13.1731C2.42164 12.9609 2.2568 12.741 2.10545 12.5139C1.97528 12.3186 1.85596 12.1192 1.74783 11.9163C1.48813 11.4289 1.67273 10.8232 2.16015 10.5635Z" />
  <path d="M5.91648 14.6065C6.13117 14.0977 6.71771 13.8592 7.22656 14.0739C7.4249 14.1575 7.62882 14.2364 7.838 14.31C8.07432 14.3933 8.31545 14.4692 8.56069 14.5378C9.09258 14.6865 9.40324 15.2382 9.25455 15.7701C9.10586 16.302 8.55415 16.6126 8.02225 16.4639C7.73551 16.3838 7.45236 16.2946 7.17367 16.1965C6.92698 16.1096 6.68532 16.0162 6.44912 15.9166C5.94027 15.7019 5.7018 15.1154 5.91648 14.6065Z" />
</svg>
