<svg width="24" height="24" viewBox="0 0 24 24" fill="none" xmlns="http://www.w3.org/2000/svg">
<path d="M20.5269 23.5839C20.2307 23.7393 19.8752 23.6033 19.7389 23.2794L18.4472 20.2091L16.9599 21.5175C16.8592 21.6082 16.7347 21.6601 16.5925 21.6601C16.4354 21.6601 16.2847 21.5918 16.1735 21.4703C16.0624 21.3489 16 21.1841 16 21.0123V11.2959C16 11.1242 16.0624 10.9594 16.1735 10.8379C16.2847 10.7164 16.4354 10.6482 16.5925 10.6482C16.7347 10.6482 16.871 10.7065 16.9718 10.7972L16.9777 10.7907L23.7859 17.0351C24.0407 17.2683 24.0703 17.6764 23.8629 17.9484C23.774 18.065 23.6496 18.1427 23.5252 18.1686L21.6528 18.5703L22.9563 21.6341C23.1104 21.958 22.9682 22.3402 22.6719 22.4892L20.5269 23.5839Z" fill="#005662"/>
<path d="M8.3 16H14V18H7L3 9L10 2L19 6V10H18.1545L17 8.89228V7.3L10.4 4.4L5.4 9.4L8.3 16Z" fill="#005662"/>
</svg>
