<svg width="24" height="24" viewBox="0 0 24 24" xmlns="http://www.w3.org/2000/svg">
  <path d="M12 8C13.0609 8 14.0783 8.42143 14.8285 9.17157C15.5786 9.92172 16 10.9391 16 12C16 13.0609 15.5786 14.0783 14.8285 14.8284C14.0783 15.5786 13.0609 16 12 16C10.9392 16 9.92174 15.5786 9.1716 14.8284C8.42145 14.0783 8.00002 13.0609 8.00002 12C8.00002 10.9391 8.42145 9.92172 9.1716 9.17157C9.92174 8.42143 10.9392 8 12 8ZM12 10C11.4696 10 10.9609 10.2107 10.5858 10.5858C10.2107 10.9609 10 11.4696 10 12C10 12.5304 10.2107 13.0391 10.5858 13.4142C10.9609 13.7893 11.4696 14 12 14C12.5305 14 13.0392 13.7893 13.4142 13.4142C13.7893 13.0391 14 12.5304 14 12C14 11.4696 13.7893 10.9609 13.4142 10.5858C13.0392 10.2107 12.5305 10 12 10ZM10 22C9.75002 22 9.54002 21.82 9.50002 21.58L9.13002 18.93C8.50002 18.68 7.96002 18.34 7.44002 17.94L4.95002 18.95C4.73002 19.03 4.46002 18.95 4.34002 18.73L2.34002 15.27C2.21002 15.05 2.27002 14.78 2.46002 14.63L4.57002 12.97L4.50002 12L4.57002 11L2.46002 9.37C2.27002 9.22 2.21002 8.95 2.34002 8.73L4.34002 5.27C4.46002 5.05 4.73002 4.96 4.95002 5.05L7.44002 6.05C7.96002 5.66 8.50002 5.32 9.13002 5.07L9.50002 2.42C9.54002 2.18 9.75002 2 10 2H14C14.25 2 14.46 2.18 14.5 2.42L14.87 5.07C15.5 5.32 16.04 5.66 16.56 6.05L19.05 5.05C19.27 4.96 19.54 5.05 19.66 5.27L21.66 8.73C21.79 8.95 21.73 9.22 21.54 9.37L19.43 11L19.5 12L19.43 13L21.54 14.63C21.73 14.78 21.79 15.05 21.66 15.27L19.66 18.73C19.54 18.95 19.27 19.04 19.05 18.95L16.56 17.95C16.04 18.34 15.5 18.68 14.87 18.93L14.5 21.58C14.46 21.82 14.25 22 14 22H10ZM11.25 4L10.88 6.61C9.68002 6.86 8.62002 7.5 7.85002 8.39L5.44002 7.35L4.69002 8.65L6.80002 10.2C6.40002 11.37 6.40002 12.64 6.80002 13.8L4.68002 15.36L5.43002 16.66L7.86002 15.62C8.63002 16.5 9.68002 17.14 10.87 17.38L11.24 20H12.76L13.13 17.39C14.32 17.14 15.37 16.5 16.14 15.62L18.57 16.66L19.32 15.36L17.2 13.81C17.6 12.64 17.6 11.37 17.2 10.2L19.31 8.65L18.56 7.35L16.15 8.39C15.38 7.5 14.32 6.86 13.12 6.62L12.75 4H11.25Z"/>
</svg>
