<svg width="24" height="24" viewBox="0 0 24 24" fill="none" xmlns="http://www.w3.org/2000/svg">
<path d="M12.0001 9C12.7958 9 13.5588 9.31607 14.1214 9.87868C14.684 10.4413 15.0001 11.2043 15.0001 12C15.0001 12.7956 14.684 13.5587 14.1214 14.1213C13.5588 14.6839 12.7958 15 12.0001 15C11.2045 15 10.4414 14.6839 9.8788 14.1213C9.31619 13.5587 9.00012 12.7956 9.00012 12C9.00012 11.2043 9.31619 10.4413 9.8788 9.87868C10.4414 9.31607 11.2045 9 12.0001 9ZM12.0001 10.5C11.6023 10.5 11.2208 10.658 10.9395 10.9393C10.6582 11.2206 10.5001 11.6022 10.5001 12C10.5001 12.3978 10.6582 12.7794 10.9395 13.0607C11.2208 13.342 11.6023 13.5 12.0001 13.5C12.3979 13.5 12.7795 13.342 13.0608 13.0607C13.3421 12.7794 13.5001 12.3978 13.5001 12C13.5001 11.6022 13.3421 11.2206 13.0608 10.9393C12.7795 10.658 12.3979 10.5 12.0001 10.5ZM10.5001 19.5C10.3126 19.5 10.1551 19.365 10.1251 19.185L9.84762 17.1975C9.37512 17.01 8.97012 16.755 8.58012 16.455L6.71262 17.2125C6.54762 17.2725 6.34512 17.2125 6.25512 17.0475L4.75512 14.4525C4.65762 14.2875 4.70262 14.085 4.84512 13.9725L6.42762 12.7275L6.37512 12L6.42762 11.25L4.84512 10.0275C4.70262 9.915 4.65762 9.7125 4.75512 9.5475L6.25512 6.9525C6.34512 6.7875 6.54762 6.72 6.71262 6.7875L8.58012 7.5375C8.97012 7.245 9.37512 6.99 9.84762 6.8025L10.1251 4.815C10.1551 4.635 10.3126 4.5 10.5001 4.5H13.5001C13.6876 4.5 13.8451 4.635 13.8751 4.815L14.1526 6.8025C14.6251 6.99 15.0301 7.245 15.4201 7.5375L17.2876 6.7875C17.4526 6.72 17.6551 6.7875 17.7451 6.9525L19.2451 9.5475C19.3426 9.7125 19.2976 9.915 19.1551 10.0275L17.5726 11.25L17.6251 12L17.5726 12.75L19.1551 13.9725C19.2976 14.085 19.3426 14.2875 19.2451 14.4525L17.7451 17.0475C17.6551 17.2125 17.4526 17.28 17.2876 17.2125L15.4201 16.4625C15.0301 16.755 14.6251 17.01 14.1526 17.1975L13.8751 19.185C13.8451 19.365 13.6876 19.5 13.5001 19.5H10.5001ZM11.4376 6L11.1601 7.9575C10.2601 8.145 9.46512 8.625 8.88762 9.2925L7.08012 8.5125L6.51762 9.4875L8.10012 10.65C7.80012 11.5275 7.80012 12.48 8.10012 13.35L6.51012 14.52L7.07262 15.495L8.89512 14.715C9.47262 15.375 10.2601 15.855 11.1526 16.035L11.4301 18H12.5701L12.8476 16.0425C13.7401 15.855 14.5276 15.375 15.1051 14.715L16.9276 15.495L17.4901 14.52L15.9001 13.3575C16.2001 12.48 16.2001 11.5275 15.9001 10.65L17.4826 9.4875L16.9201 8.5125L15.1126 9.2925C14.5351 8.625 13.7401 8.145 12.8401 7.965L12.5626 6H11.4376Z" fill="currentcolor"/>
</svg>
