<svg width="22" height="24" viewBox="0 0 22 24" fill="none" xmlns="http://www.w3.org/2000/svg">
<rect width="21.503" height="24" fill="transparent"/>
<path d="M13.507 18.9358C12.8278 18.2968 12.1497 17.6596 11.4665 17.0165C10.7662 16.3574 10.064 15.6986 9.35938 15.0327V18.1299C9.35938 18.5595 9.36154 18.9891 9.36588 19.4188C9.36588 19.4676 9.35938 19.509 9.35938 19.5451V21.5858C9.35938 22.4192 9.35937 23.1422 9.36154 23.6057L9.64042 23.7683C10.3589 24.068 11.0741 24.0748 11.7912 23.8013L16.0553 21.3324C15.6967 21.0061 14.6601 20.0223 13.507 18.9358Z" fill="#676767"/>
<path d="M6.15851 19.3893C6.15851 19.0258 6.15851 18.6622 6.15851 18.2985C6.16014 12.7362 6.16285 2.44262 6.16285 2.23095V2.22852L1.26104 5.05925C0.420897 5.6468 0.00218177 6.48234 0.00218177 7.55257C0.0027238 10.4966 0.00760203 13.4414 1.36687e-05 16.3843C-0.00269646 17.4641 0.39759 18.2966 1.21171 18.9007L6.15824 21.7566C6.15824 21.6084 6.15824 20.7374 6.15824 19.4389C6.15878 19.4229 6.15851 19.4067 6.15851 19.3893Z" fill="#676767"/>
<path d="M18.642 4.13708L20.3145 5.10251C21.0994 5.68275 21.5013 6.48766 21.5016 7.5129V16.4872C21.5016 17.487 21.1167 18.2767 20.369 18.8543L18.9456 19.676H18.9424C18.9422 19.6759 18.942 19.6758 18.9418 19.6756C18.8446 19.5786 12.5576 13.3013 12.4289 13.2898C12.4727 13.2457 12.9892 12.7078 13.7072 11.9596C15.9375 9.63953 20.2999 5.09736 20.2999 5.09736L18.642 4.13708Z" fill="url(#paint0_linear_5175_84899)"/>
<path d="M17.335 3.3827L11.8486 0.215879C11.131 -0.0732922 10.3944 -0.0743762 9.63039 0.227261L9.35938 0.365749C9.35938 0.365749 9.35938 10.7116 9.40121 11.472C9.742 11.1262 17.2085 3.51168 17.335 3.3827Z" fill="url(#paint1_linear_5175_84899)"/>
<defs>
<linearGradient id="paint0_linear_5175_84899" x1="19.8538" y1="4.36346" x2="11.5787" y2="13.1115" gradientUnits="userSpaceOnUse">
<stop stop-color="#3BC2D7"/>
<stop offset="0.74" stop-color="#1D9DB1"/>
</linearGradient>
<linearGradient id="paint1_linear_5175_84899" x1="19.8538" y1="4.36346" x2="11.5787" y2="13.1115" gradientUnits="userSpaceOnUse">
<stop stop-color="#3BC2D7"/>
<stop offset="0.74" stop-color="#1D9DB1"/>
</linearGradient>
</defs>
</svg>
