<svg xmlns="http://www.w3.org/2000/svg" xmlns:xlink="http://www.w3.org/1999/xlink" viewBox="0 0 2236.62 885.56"><defs><style>.cls-1{fill:none;}.cls-2{isolation:isolate;}.cls-3{fill:#676767;}.cls-4{fill:url(#linear-gradient);}.cls-5{clip-path:url(#clip-path);}.cls-6{opacity:0.4;mix-blend-mode:multiply;}.cls-7{fill:#ccc;}.cls-8{fill:#474648;}</style><linearGradient id="linear-gradient" x1="732.63" y1="161.04" x2="427.29" y2="483.83" gradientUnits="userSpaceOnUse"><stop offset="0" stop-color="#3bc2d7"/><stop offset="0.74" stop-color="#1d9db1"/></linearGradient><clipPath id="clip-path"><path class="cls-1" d="M58,179,339.06,16.7a115.52,115.52,0,0,1,115.52,0L735.65,179a115.52,115.52,0,0,1,57.76,100V603.57a115.52,115.52,0,0,1-57.76,100L454.57,865.89a115.52,115.52,0,0,1-115.52,0L58,703.62a115.52,115.52,0,0,1-57.76-100V279A115.52,115.52,0,0,1,58,179Z"/></clipPath></defs><title>Ketcher logo</title><g class="cls-2"><g id="Layer_1" data-name="Layer 1"><path class="cls-3" d="M498.45,698.74c-25.06-23.58-50.08-47.09-75.29-70.82-25.84-24.32-51.75-48.63-77.75-73.2V669q0,23.78.24,47.56c0,1.8-.24,3.33-.24,4.66v75.3c0,30.75,0,57.43.08,74.53l10.29,6c26.51,11.06,52.9,11.31,79.36,1.22l157.34-91.1h0C579.25,775.13,541,738.83,498.45,698.74Z"/><path class="cls-3" d="M227.24,715.47q0-20.12,0-40.25c.06-205.24.16-585.06.16-592.87v-.09L46.53,186.71c-31,21.68-46.45,52.51-46.45,92C.1,387.34.28,496,0,604.59c-.1,39.84,14.67,70.56,44.71,92.85L227.23,802.82c0-5.47,0-37.61,0-85.52C227.25,716.71,227.24,716.11,227.24,715.47Z"/><path class="cls-4" d="M749.63,188.31,437.25,8c-26.48-10.67-53.66-10.71-81.85.42l-10,5.11s0,382.81,1.55,409.92c11.47-11.58,84.28-85.1,137.78-139.86Q498.9,269,513.07,254.33c5.43-5.62,10.75-7.87,18.55-7.81-7.81-.06-13.12,2.21-18.55,7.82q-13.63,14.09-27.28,28.15c6.44-6.6,12.59-12.91,18.31-18.79,3-3.09,6-6,9-9.06,5.43-5.62,10.75-7.51,18.55-7.51h43.8q-21.89,0-43.78-.2,21.9.16,43.79.2H690.1c-.83,4-4.16,6.62-6.5,9-30.55,31.62-221.39,230.77-225,234.34,4.11-.26,234.95,232.77,240.4,235.58l.12,0,52.52-30.32c27.59-21.31,41.79-50.45,41.79-87.34V277.25C793.42,239.42,778.59,209.72,749.63,188.31Z"/><g class="cls-5"><path class="cls-7" d="M458.64,490.41s0,0,0,0,0,0,0-.06c4.55-4.55,290.45-302.23,290.45-302.23L639.75,124.79s-281.42,287-292.89,298.63c-1.52-27-1.64-407.12-1.64-409.9v0L227.45,82.27v.09c0,7.8-.21,715-.22,720.46l.09.05c0-26.48.13-26.48.11,0l0-.05v.05L345.22,871V554.72c26.07,24.57,234,220.36,247.26,232.87h0l106.54-61.51S462.75,490.14,458.64,490.41Z"/></g><path class="cls-8" d="M1118.72,604.25H1069.5L968.72,440.2V604.25H926.54V276.14h42.18V435.51l91.4-159.37h49.22l-96.09,161.71Z"/><path class="cls-8" d="M1299.18,501.13H1177.31q0,23,3.75,38.2t11.48,24.37a42.83,42.83,0,0,0,20.15,13.12q12.41,4,30.23,4h46.87v18.75a176.28,176.28,0,0,1-26.48,6.56,169,169,0,0,1-29.76,2.81q-26.26,0-45-5.86a64.57,64.57,0,0,1-30.7-19.92q-12-14.06-17.34-37.5t-5.39-58.59q0-35.15,5.16-58.59t15.47-37.5a56.23,56.23,0,0,1,25.78-19.92q15.47-5.86,35.62-5.86t35.62,5.86A56.27,56.27,0,0,1,1278.55,391q10.3,14.06,15.47,37.5t5.16,58.59ZM1257,473q0-23.91-3.28-39.61T1245,408.32q-5.4-9.37-12.66-13.36a31.12,31.12,0,0,0-30.47,0q-7.27,4-12.66,13.36t-8.67,25.08q-3.28,15.71-3.28,39.61Z"/><path class="cls-8" d="M1399.95,405V529.26q0,15.94,3,26t8,15.7a26.22,26.22,0,0,0,10.78,7.73,32.59,32.59,0,0,0,11,2.11h42.19v18.75a65.4,65.4,0,0,1-11,3.52q-6.8,1.65-14.06,3t-14.3,2.11q-7,.7-12.19.7a98.27,98.27,0,0,1-26-3.28,47.33,47.33,0,0,1-20.86-12q-8.91-8.67-13.83-24.14t-4.92-40.31V405h-28.12V374.58h28.12V318.33h42.19v56.25h65.62v21.09a176.28,176.28,0,0,1-26.48,6.56,169,169,0,0,1-29.76,2.81Z"/><path class="cls-8" d="M1594.47,393.33a59.66,59.66,0,0,0-23.2,4.22q-10.09,4.22-16.87,14.76t-10.31,28.59q-3.51,18-3.51,46.17t3.51,46.4q3.52,18.28,10.78,28.83a37.36,37.36,0,0,0,18.28,14.53q11,4,26,4H1646v18.75a176.28,176.28,0,0,1-26.48,6.56,169,169,0,0,1-29.76,2.81q-23.91,0-41-5.86a60.8,60.8,0,0,1-28.36-19.92q-11.25-14.06-16.64-37.5t-5.39-58.59q0-35.15,5.39-58.59t16.17-37.5a58.55,58.55,0,0,1,27-19.92q16.17-5.86,38.2-5.86a169.19,169.19,0,0,1,29.76,2.81,177.32,177.32,0,0,1,26.48,6.56v18.75Z"/><path class="cls-8" d="M1728.05,604.25h-42.18V276.14h42.18V376.92a131.72,131.72,0,0,1,23.2-8.44,111.52,111.52,0,0,1,28.36-3.28,115.33,115.33,0,0,1,27.42,3,50.74,50.74,0,0,1,21.56,11q9.14,8,14.06,21.56t4.92,34.69V604.25H1805.4V435.51q0-12.18-3.28-20.39a31.59,31.59,0,0,0-9.37-13.12,34.79,34.79,0,0,0-14.06-6.8,78.22,78.22,0,0,0-17.81-1.87,63.45,63.45,0,0,0-18.28,2.81q-9.38,2.81-14.53,6.56Z"/><path class="cls-8" d="M2063.19,501.13H1941.33q0,23,3.75,38.2t11.48,24.37a42.83,42.83,0,0,0,20.15,13.12q12.41,4,30.23,4h46.87v18.75a176.28,176.28,0,0,1-26.48,6.56,169,169,0,0,1-29.76,2.81q-26.26,0-45-5.86a64.57,64.57,0,0,1-30.7-19.92q-12-14.06-17.34-37.5t-5.39-58.59q0-35.15,5.16-58.59t15.47-37.5a56.23,56.23,0,0,1,25.78-19.92q15.47-5.86,35.62-5.86t35.62,5.86A56.27,56.27,0,0,1,2042.57,391q10.3,14.06,15.47,37.5t5.16,58.59ZM2021,473q0-23.91-3.28-39.61t-8.67-25.08q-5.4-9.37-12.66-13.36a31.12,31.12,0,0,0-30.47,0q-7.27,4-12.66,13.36t-8.67,25.08q-3.28,15.71-3.28,39.61Z"/><path class="cls-8" d="M2156.93,604.25h-42.19V369.89h35.62l2.34,18.75h2.34q8.44-7,22.73-12.89t35.39-5.86h23.44V405h-46.87a71.27,71.27,0,0,0-17.34,2.11,44,44,0,0,0-15.47,7.26Z"/></g></g></svg>
