<svg xmlns="http://www.w3.org/2000/svg" width="1000" height="1000" viewBox="-125 -125 1000 1000"><path d="M585.781 276.055l-8.73 15.797H559.59s-24.945 0-31.598 34.921l-7.066 34.922h47.808l-8.73 17.461H518.43l-24.942 122.23c-10.394 52.384-47.812 52.384-47.812 52.384h-54.047l7.07-17.461h17.043s26.61 0 33.676-34.922l24.945-122.23H435.7l8.73-17.462h33.676l7.067-34.922c10.394-52.382 47.808-52.382 47.808-52.382zm0 186.668l-33.676-46.149-12.054 7.485-12.059 7.898 34.508 52.8-57.79 55.708 19.958 19.957 54.047-51.969 37 56.125 12.058-7.898 12.055-7.485-41.574-60.699 57.371-55.293-9.977-9.976-9.976-10.395zm166.297-23.282c-.367 91.606-55.082 174.254-139.273 210.364a113.081 113.081 0 0 1-14.137 38.25c-19.602 35.312-55.742 58.308-96.035 61.113H110.172a118.487 118.487 0 0 1-93.543-60.7 124.736 124.736 0 0 1-4.574-115.16l180.851-356.706a41.618 41.618 0 0 0 5.82-17.461V80.238c-15.167-4.71-25.246-19.058-24.53-34.922C173.78 16.215 196.23.832 225.331.832h162.14a41.57 41.57 0 0 1 48.641 44.066c.91 17.106-11.008 32.23-27.855 35.34v118.489c0 6.234 5.406 12.054 8.316 17.46l7.899 12.473c71.336-30.547 153.21-23.472 218.25 18.856 65.039 42.332 104.66 114.328 105.613 191.925M87.723 644.816c4.988 7.899 13.304 21.204 22.863 21.204h369.18c-111.414-17.891-193.543-113.74-194.149-226.58a228.229 228.229 0 0 1 69.012-163.386l-12.473-22.453a127.586 127.586 0 0 1-17.875-54.875V83.98h-41.574v114.747a133.024 133.024 0 0 1-14.555 56.957L86.472 614.469a34.522 34.522 0 0 0 0 29.933m430.298-16.629c103.734-1.148 187.007-85.964 186.246-189.703-.762-103.738-85.27-187.328-189.012-186.949-103.738.379-187.64 84.578-187.645 188.32.684 104.54 85.868 188.79 190.41 188.332"/></svg>
