<svg width="24" height="24" viewBox="0 0 24 24" xmlns="http://www.w3.org/2000/svg">
<path d="M17.5593 18.4119C17.332 18.7922 17.0096 19.1067 16.6239 19.3245C16.2381 19.5423 15.8023 19.6558 15.3593 19.6539H8.27226C7.83354 19.6543 7.40202 19.5423 7.01878 19.3288C6.63554 19.1152 6.31332 18.8072 6.08279 18.4339C5.85225 18.0606 5.72107 17.6346 5.70172 17.1963C5.68237 16.758 5.77551 16.322 5.97226 15.9299L9.48226 8.92991C9.54917 8.7926 9.58339 8.64166 9.58226 8.48891V6.33691H8.98226V4.33691H14.6873V6.33691H13.8413V8.43691C13.843 8.59883 13.8846 8.75783 13.9623 8.89991L14.0113 8.99391C13.3862 9.27722 12.8352 9.70127 12.4013 10.2329L12.1883 9.83291C11.9635 9.40474 11.8458 8.92849 11.8453 8.44491V6.55391H11.5843V8.49091C11.5839 8.95536 11.4757 9.41339 11.2683 9.82891L7.75826 16.8289C7.71431 16.9159 7.69341 17.0127 7.69754 17.1101C7.70168 17.2075 7.73071 17.3022 7.78187 17.3851C7.83303 17.4681 7.9046 17.5365 7.98975 17.5839C8.07491 17.6313 8.17079 17.6561 8.26826 17.6559H15.3553C15.4355 17.6572 15.5151 17.6408 15.5883 17.608C15.6616 17.5752 15.7268 17.5267 15.7793 17.4659H15.8413C16.5683 17.4671 17.2843 17.2881 17.9253 16.9449C17.9539 17.4596 17.8263 17.971 17.5593 18.4119Z" fill="currentcolor"/>
<path d="M15.8423 17.4653C14.9649 17.4653 14.1072 17.2051 13.3776 16.7176C12.6481 16.2301 12.0795 15.5372 11.7438 14.7266C11.4081 13.916 11.3203 13.024 11.4916 12.1635C11.6628 11.3029 12.0854 10.5125 12.7059 9.89218C13.3264 9.27184 14.1169 8.84943 14.9774 8.67838C15.838 8.50733 16.73 8.59532 17.5405 8.93122C18.3511 9.26713 19.0438 9.83585 19.5311 10.5655C20.0185 11.2951 20.2785 12.1529 20.2783 13.0303C20.2767 14.2062 19.8088 15.3335 18.9772 16.1649C18.1456 16.9963 17.0182 17.4639 15.8423 17.4653ZM15.8423 9.59426C15.1627 9.59426 14.4984 9.79578 13.9333 10.1733C13.3683 10.5509 12.9279 11.0875 12.6678 11.7154C12.4077 12.3432 12.3397 13.0341 12.4723 13.7006C12.6049 14.3671 12.9321 14.9794 13.4126 15.4599C13.8932 15.9404 14.5054 16.2677 15.1719 16.4002C15.8384 16.5328 16.5293 16.4648 17.1572 16.2047C17.785 15.9447 18.3216 15.5043 18.6992 14.9392C19.0767 14.3742 19.2783 13.7098 19.2783 13.0303C19.2775 12.1192 18.9152 11.2457 18.271 10.6015C17.6268 9.95732 16.7533 9.59506 15.8423 9.59426Z" fill="currentcolor"/>
<path d="M16.5995 12.0889L15.5935 12.1169C15.4325 13.5889 15.4305 15.6539 13.7875 15.4079C13.4065 15.3509 13.5695 14.7729 13.9475 14.8289C14.9295 14.9759 14.8615 13.4799 14.9885 12.1339L14.2295 12.1549C13.8425 12.1659 13.8435 11.5659 14.2295 11.5549L15.0655 11.5319C15.2175 10.6499 15.5605 9.97792 16.5245 10.1379C16.9045 10.2009 16.7425 10.7789 16.3645 10.7159C15.9645 10.6509 15.7865 10.9909 15.6815 11.5159L16.5995 11.4899C16.9855 11.4789 16.9845 12.0789 16.5995 12.0889Z" fill="currentcolor"/>
<path d="M18.1604 13.2219C17.8954 13.4829 17.6464 13.7589 17.4004 14.0369C17.5656 14.3007 17.7462 14.5545 17.9414 14.7969C18.1814 15.0969 17.7594 15.5219 17.5174 15.2209C17.3327 14.9895 17.1598 14.7488 16.9994 14.4999C16.7864 14.7439 16.5704 14.9869 16.3454 15.2219C16.0774 15.5009 15.6534 15.0759 15.9214 14.7979C16.1894 14.5199 16.4284 14.2449 16.6744 13.9629C16.5023 13.6513 16.3487 13.3297 16.2144 12.9999C16.0684 12.6419 16.6484 12.4869 16.7924 12.8399C16.8824 13.0599 16.9824 13.2769 17.0924 13.4879C17.3024 13.2529 17.5164 13.0209 17.7414 12.7989C18.0114 12.5259 18.4354 12.9509 18.1604 13.2219Z" fill="currentcolor"/>
</svg>
