<svg width="24" height="24" viewBox="0 0 24 24" xmlns="http://www.w3.org/2000/svg">
<path fill-rule="evenodd" clip-rule="evenodd" d="M11.5295 3.62563C11.82 3.45814 12.178 3.45812 12.4685 3.62557L19.0304 7.40731C19.321 7.57476 19.5 7.88426 19.5 8.2192V15.7808C19.5 16.1157 19.321 16.4252 19.0304 16.5927L12.4685 20.3744C12.178 20.5419 11.82 20.5419 11.5295 20.3744L4.96946 16.5926C4.67895 16.4252 4.5 16.1157 4.5 15.7808V8.2192C4.5 7.8843 4.67895 7.57483 4.96946 7.40736L11.5295 3.62563ZM11.9991 5.51996L6.37805 8.76041V15.2396L11.9991 18.48L17.6219 15.2395V8.76048L11.9991 5.51996Z" fill="currentcolor"/>
<path fill-rule="evenodd" clip-rule="evenodd" d="M12.0048 9.70061C10.7331 9.70061 9.70227 10.7298 9.70227 11.9993C9.70227 13.2688 10.7331 14.2979 12.0048 14.2979C13.2764 14.2979 14.3073 13.2688 14.3073 11.9993C14.3073 10.7298 13.2764 9.70061 12.0048 9.70061ZM7.82422 11.9993C7.82422 9.69427 9.69591 7.82568 12.0048 7.82568C14.3136 7.82568 16.1853 9.69427 16.1853 11.9993C16.1853 14.3043 14.3136 16.1729 12.0048 16.1729C9.69591 16.1729 7.82422 14.3043 7.82422 11.9993Z" fill="currentcolor"/>
</svg>
