<svg width="16" height="16" viewBox="0 0 16 16" fill="none" xmlns="http://www.w3.org/2000/svg">
<path d="M13.1253 13.1276C14.1993 12.0537 12.7746 8.88783 9.94335 6.05653C7.11204 3.22523 3.94622 1.80061 2.87228 2.87455C1.79834 3.94849 3.22296 7.11431 6.05426 9.94562C8.88556 12.7769 12.0514 14.2015 13.1253 13.1276Z" stroke="white" stroke-linecap="round" stroke-linejoin="round"/>
<path d="M9.94335 9.94347C12.7746 7.11217 14.1993 3.94635 13.1253 2.8724C12.0514 1.79846 8.88556 3.22308 6.05426 6.05438C3.22296 8.88569 1.79834 12.0515 2.87228 13.1255C3.94622 14.1994 7.11204 12.7748 9.94335 9.94347Z" stroke="white" stroke-linecap="round" stroke-linejoin="round"/>
<path d="M8 8.75C8.41421 8.75 8.75 8.41421 8.75 8C8.75 7.58579 8.41421 7.25 8 7.25C7.58579 7.25 7.25 7.58579 7.25 8C7.25 8.41421 7.58579 8.75 8 8.75Z" fill="white"/>
</svg>
