<svg width="16" height="16" viewBox="0 0 16 16" fill="none" xmlns="http://www.w3.org/2000/svg">
<path d="M13.1253 13.1275C14.1993 12.0536 12.7746 8.88777 9.94335 6.05647C7.11204 3.22517 3.94622 1.80055 2.87228 2.87449C1.79834 3.94843 3.22296 7.11425 6.05426 9.94555C8.88556 12.7769 12.0514 14.2015 13.1253 13.1275Z" stroke="#5B6077" stroke-linecap="round" stroke-linejoin="round"/>
<path d="M9.94335 9.94353C12.7746 7.11223 14.1993 3.94641 13.1253 2.87247C12.0514 1.79852 8.88556 3.22314 6.05426 6.05445C3.22296 8.88575 1.79834 12.0516 2.87228 13.1255C3.94622 14.1995 7.11204 12.7748 9.94335 9.94353Z" stroke="#5B6077" stroke-linecap="round" stroke-linejoin="round"/>
<path d="M8 8.75C8.41421 8.75 8.75 8.41421 8.75 8C8.75 7.58579 8.41421 7.25 8 7.25C7.58579 7.25 7.25 7.58579 7.25 8C7.25 8.41421 7.58579 8.75 8 8.75Z" fill="#5B6077"/>
</svg>
