<svg width="48" height="48" viewBox="0 0 48 48" fill="none" xmlns="http://www.w3.org/2000/svg">
<path d="M38.2004 11.2782L32.6464 23.0382C32.4124 23.5322 31.7324 23.5962 31.3004 23.1642L29.6504 21.5142L14.3724 36.5682C14.1886 36.7671 13.9664 36.9266 13.7192 37.0371C13.4719 37.1476 13.2048 37.2067 12.9341 37.2108C12.6633 37.215 12.3945 37.1641 12.144 37.0613C11.8935 36.9585 11.6664 36.8059 11.4766 36.6127C11.2869 36.4195 11.1383 36.1898 11.0399 35.9375C10.9416 35.6852 10.8955 35.4156 10.9044 35.1449C10.9134 34.8743 10.9772 34.6083 11.092 34.363C11.2068 34.1178 11.3703 33.8984 11.5724 33.7182L26.8244 18.6862L25.0964 16.9582C24.6644 16.5242 24.7284 15.8462 25.2224 15.6122L36.9824 10.0582C37.6904 9.7202 38.5324 10.5622 38.2004 11.2782Z" fill="#231F20"/>
</svg>
