<svg width="24" height="24" viewBox="0 0 24 24" fill="none" xmlns="http://www.w3.org/2000/svg">
<path d="M19.7098 10.384L6.69977 17.918C6.61735 17.9655 6.52161 17.9844 6.42733 17.972C6.33305 17.9597 6.24548 17.9166 6.17812 17.8494C6.11077 17.7823 6.06739 17.6949 6.05467 17.6006C6.04195 17.5064 6.06061 17.4106 6.10777 17.328L13.6078 4.28203C13.641 4.22452 13.6869 4.17541 13.7421 4.13849C13.7973 4.10158 13.8603 4.07786 13.9261 4.06916C13.9919 4.06046 14.0589 4.06702 14.1217 4.08832C14.1846 4.10963 14.2418 4.14511 14.2888 4.19203L19.7998 9.70003C19.8475 9.74692 19.8836 9.80424 19.9054 9.86748C19.9272 9.93072 19.934 9.99815 19.9252 10.0645C19.9165 10.1308 19.8925 10.1941 19.8551 10.2496C19.8177 10.3051 19.768 10.3511 19.7098 10.384V10.384Z" fill="#333333"/>
</svg>
