<svg width="48" height="48" viewBox="0 0 48 48" fill="none" xmlns="http://www.w3.org/2000/svg">
<path d="M39.5635 18.7178L25.4655 25.5178L18.2155 39.3838C18.0462 39.7078 17.7914 39.9793 17.4786 40.1686C17.1658 40.358 16.8071 40.458 16.4415 40.4578C16.1189 40.4586 15.8009 40.3803 15.5155 40.2298C15.0457 39.984 14.6926 39.5618 14.534 39.0559C14.3753 38.55 14.4241 38.0018 14.6695 37.5318L19.4315 28.4218L10.1715 32.8858C9.93373 33.0125 9.67279 33.09 9.40434 33.1134C9.13589 33.1368 8.86547 33.1058 8.60932 33.0221C8.35318 32.9384 8.11659 32.8038 7.91376 32.6264C7.71092 32.449 7.54603 32.2324 7.42899 31.9897C7.31194 31.747 7.24515 31.4831 7.23263 31.2139C7.22011 30.9447 7.26211 30.6758 7.35612 30.4233C7.45013 30.1707 7.5942 29.9398 7.77968 29.7443C7.96517 29.5488 8.18824 29.3929 8.43551 29.2858L22.5335 22.4858L29.7835 8.61576C30.0291 8.14553 30.4514 7.79212 30.9576 7.63328C31.4638 7.47443 32.0123 7.52317 32.4825 7.76876C32.9527 8.01435 33.3062 8.43668 33.465 8.94284C33.6238 9.449 33.5751 9.99753 33.3295 10.4678L28.5675 19.5778L37.8275 15.1138C38.0653 14.987 38.3262 14.9095 38.5947 14.8861C38.8631 14.8627 39.1336 14.8937 39.3897 14.9774C39.6458 15.0611 39.8824 15.1957 40.0853 15.3731C40.2881 15.5505 40.453 15.7671 40.57 16.0098C40.6871 16.2525 40.7539 16.5164 40.7664 16.7856C40.7789 17.0548 40.7369 17.3237 40.6429 17.5762C40.5489 17.8288 40.4048 18.0597 40.2193 18.2552C40.0339 18.4507 39.8108 18.6066 39.5635 18.7138V18.7178Z" fill="#231F20"/>
</svg>
