<?xml version="1.0" encoding="UTF-8" standalone="no"?>
<svg
   xmlns:dc="http://purl.org/dc/elements/1.1/"
   xmlns:cc="http://creativecommons.org/ns#"
   xmlns:rdf="http://www.w3.org/1999/02/22-rdf-syntax-ns#"
   xmlns:svg="http://www.w3.org/2000/svg"
   xmlns="http://www.w3.org/2000/svg"
   xmlns:sodipodi="http://sodipodi.sourceforge.net/DTD/sodipodi-0.dtd"
   xmlns:inkscape="http://www.inkscape.org/namespaces/inkscape"
   width="1000px"
   height="1000px"
   viewBox="0 0 1000 1000"
   version="1.1"
   id="svg3397"
   inkscape:version="0.48.4 r9939"
   sodipodi:docname="bond_doublearomatic.svg">
  <metadata
     id="metadata3420">
    <rdf:RDF>
      <cc:Work
         rdf:about="">
        <dc:format>image/svg+xml</dc:format>
        <dc:type
           rdf:resource="http://purl.org/dc/dcmitype/StillImage" />
      </cc:Work>
    </rdf:RDF>
  </metadata>
  <defs
     id="defs3418" />
  <sodipodi:namedview
     pagecolor="#ffffff"
     bordercolor="#666666"
     borderopacity="1"
     objecttolerance="10"
     gridtolerance="10"
     guidetolerance="10"
     inkscape:pageopacity="0"
     inkscape:pageshadow="2"
     inkscape:window-width="1280"
     inkscape:window-height="985"
     id="namedview3416"
     showgrid="false"
     inkscape:zoom="0.236"
     inkscape:cx="-36.016949"
     inkscape:cy="502.11864"
     inkscape:window-x="-2"
     inkscape:window-y="16"
     inkscape:window-maximized="1"
     inkscape:current-layer="svg3397" />
  <path
     sodipodi:nodetypes="cccccccccccccccccccccccccccccccccccccccc"
     inkscape:connector-curvature="0"
     d="m 924.75556,388.79722 50.24444,0 0,50.61389 -50.24444,0 z m -110.04167,-238.81945 50.24444,0 0,50.66667 -50.24444,0 z m -458.79723,245.83889 50.24445,0 0,50.61389 -50.24445,0 z m 114.68612,238.71389 50.24444,0 0,50.66667 -50.24444,0 z m 147.51389,-30.34722 -17.25834,-33.30278 210.425,-110.09444 17.31112,33.25 z M 149.97777,850.02222 132.71944,816.71944 343.09166,706.57222 360.40278,739.875 z m 346.48612,-477.58611 -17.31111,-33.30278 210.425,-110.14722 17.25833,33.30278 z M 42.258329,613.57778 24.999996,580.275 235.425,470.12778 l 17.25833,33.30277 z"
     id="path3414" />
</svg>
