<?xml version="1.0" encoding="UTF-8" standalone="no"?>
<svg
   xmlns:dc="http://purl.org/dc/elements/1.1/"
   xmlns:cc="http://creativecommons.org/ns#"
   xmlns:rdf="http://www.w3.org/1999/02/22-rdf-syntax-ns#"
   xmlns:svg="http://www.w3.org/2000/svg"
   xmlns="http://www.w3.org/2000/svg"
   xmlns:sodipodi="http://sodipodi.sourceforge.net/DTD/sodipodi-0.dtd"
   xmlns:inkscape="http://www.inkscape.org/namespaces/inkscape"
   width="1000px"
   height="1000px"
   viewBox="0 0 1000 1000"
   version="1.1"
   id="svg2"
   inkscape:version="0.48.4 r9939"
   sodipodi:docname="charge_plus.svg">
  <metadata
     id="metadata13">
    <rdf:RDF>
      <cc:Work
         rdf:about="">
        <dc:format>image/svg+xml</dc:format>
        <dc:type
           rdf:resource="http://purl.org/dc/dcmitype/StillImage" />
      </cc:Work>
    </rdf:RDF>
  </metadata>
  <defs
     id="defs11" />
  <sodipodi:namedview
     pagecolor="#ffffff"
     bordercolor="#666666"
     borderopacity="1"
     objecttolerance="10"
     gridtolerance="10"
     guidetolerance="10"
     inkscape:pageopacity="0"
     inkscape:pageshadow="2"
     inkscape:window-width="1280"
     inkscape:window-height="985"
     id="namedview9"
     showgrid="false"
     inkscape:zoom="0.5"
     inkscape:cx="423"
     inkscape:cy="501"
     inkscape:window-x="-2"
     inkscape:window-y="16"
     inkscape:window-maximized="1"
     inkscape:current-layer="svg2" />
  <path
     id="path7"
     d="m 731.65625,44.1875 c 0,37.364583 0,74.72917 0,112.09375 -37.38542,0 -74.77083,0 -112.15625,0 0,43.75 0,87.5 0,131.25 37.38542,0 74.77083,0 112.15625,0 0,37.36458 0,74.72917 0,112.09375 43.76042,0 87.52083,0 131.28125,0 0,-37.36458 0,-74.72917 0,-112.09375 37.35417,0 74.70833,0 112.0625,0 0,-43.75 0,-87.5 0,-131.25 -37.35417,0 -74.70833,0 -112.0625,0 0,-37.36458 0,-74.729167 0,-112.09375 -43.76042,0 -87.52083,0 -131.28125,0 z m 25.65625,25.65625 c 26.65625,0 53.3125,0 79.96875,0 0,37.375 0,74.75 0,112.125 37.34375,0 74.6875,0 112.03125,0 0,26.625 0,53.25 0,79.875 -37.34375,0 -74.6875,0 -112.03125,0 0,37.375 0,74.75 0,112.125 -26.65625,0 -53.3125,0 -79.96875,0 0,-37.375 0,-74.75 0,-112.125 -37.38542,0 -74.77083,0 -112.15625,0 0,-26.625 0,-53.25 0,-79.875 37.38542,0 74.77083,0 112.15625,0 0,-37.375 0,-74.75 0,-112.125 z m -446.40625,-8.0625 c -96.95367,297.99834 -193.82448,596.02372 -290.75,894.03125 46.291667,0 92.58333,0 138.875,0 28.26063,-91.03512 56.47566,-182.08442 84.71875,-273.125 91.51042,0 183.02083,0 274.53125,0 29.47956,91.04154 58.95593,182.08411 88.4375,273.125 47.05208,0 94.10417,0 141.15625,0 C 650.99701,657.80306 554.10775,359.79726 457.25,61.78125 c -48.78125,0 -97.5625,0 -146.34375,0 z m 18.65625,25.6875 c 36.34375,0 72.6875,0 109.03125,0 91.3125,280.89583 182.625,561.79167 273.9375,842.6875 -29.04167,0 -58.08333,0 -87.125,0 C 595.92659,839.10433 566.45093,748.05111 536.96875,657 c -104.04167,0 -208.08333,0 -312.125,0 -28.26124,91.04535 -56.47556,182.10529 -84.71875,273.15625 -28.20833,0 -56.416667,0 -84.625,0 C 146.85417,649.26042 238.20833,368.36458 329.5625,87.46875 z M 367.625,161 c -28.52254,141.51419 -79.7389,276.78333 -122.47528,414.30068 -8.88811,16.33685 -5.53664,23.75883 13.53081,19.76182 88.18982,0 176.37965,0 264.56947,0 C 473.04087,438.16621 426.80248,305.3818 391.71875,161 c -8.03125,0 -16.0625,0 -24.09375,0 z m 12.59375,60.875 c 29.76983,117.65318 71.46037,231.79826 107.71875,347.53125 -71.3125,0 -142.625,0 -213.9375,0 C 309.99584,453.75898 352.14073,339.82337 380.21875,221.875 z"
     inkscape:connector-curvature="0"
     sodipodi:nodetypes="cccccccccccccccccccccccccccccccccccccccccccccccccccccc" />
</svg>
