<svg width="24" height="24" viewBox="0 0 24 24" xmlns="http://www.w3.org/2000/svg">
<path d="M19.8484 16.3124C19.8484 16.9587 19.5917 17.5785 19.1347 18.0356C18.6776 18.4926 18.0578 18.7494 17.4114 18.7494C16.7651 18.7494 16.1452 18.4926 15.6882 18.0356C15.2312 17.5785 14.9744 16.9587 14.9744 16.3124C14.9741 16.1831 14.9845 16.0539 15.0054 15.9264L13.0184 14.7794L12.0184 14.2014L11.0184 14.7784L9.33144 15.7524C9.37582 15.9357 9.39798 16.1237 9.39744 16.3124C9.39733 16.8448 9.22284 17.3626 8.90064 17.7865C8.57845 18.2104 8.12628 18.5171 7.61328 18.6598C7.10028 18.8024 6.55468 18.7731 6.0599 18.5764C5.56513 18.3796 5.14841 18.0262 4.87347 17.5702C4.59852 17.1143 4.48049 16.5808 4.5374 16.0514C4.59432 15.5219 4.82306 15.0257 5.18864 14.6386C5.55423 14.2515 6.03654 13.9948 6.56183 13.9077C7.08712 13.8206 7.62648 13.9079 8.09744 14.1564L10.0194 13.0474L11.0194 12.4694V9.16036C10.511 8.93159 10.0964 8.53541 9.84479 8.03792C9.59316 7.54042 9.51971 6.97169 9.6367 6.42659C9.75369 5.88149 10.054 5.39298 10.4877 5.04256C10.9213 4.69213 11.4619 4.50098 12.0194 4.50098C12.577 4.50098 13.1176 4.69213 13.5512 5.04256C13.9848 5.39298 14.2852 5.88149 14.4022 6.42659C14.5192 6.97169 14.4457 7.54042 14.1941 8.03792C13.9425 8.53541 13.5279 8.93159 13.0194 9.16036V12.4704L14.0194 13.0474L16.1094 14.2544C16.4779 14.0206 16.9023 13.8901 17.3384 13.8765C17.7745 13.8629 18.2063 13.9667 18.5886 14.177C18.9709 14.3873 19.2897 14.6964 19.5116 15.072C19.7336 15.4477 19.8506 15.876 19.8504 16.3124H19.8484Z" fill="currentcolor"/>
</svg>
