<svg width="24" height="24" viewBox="0 0 24 24" xmlns="http://www.w3.org/2000/svg">
<path d="M18.6554 7.52861L15.0194 3.89261C14.8319 3.70506 14.5776 3.59967 14.3124 3.59961H6.39844C6.13322 3.59961 5.87887 3.70497 5.69133 3.8925C5.50379 4.08004 5.39844 4.33439 5.39844 4.59961V19.1477C5.39844 19.279 5.4243 19.409 5.47456 19.5303C5.52481 19.6517 5.59847 19.7619 5.69133 19.8548C5.78419 19.9476 5.89443 20.0213 6.01575 20.0715C6.13708 20.1218 6.26712 20.1477 6.39844 20.1477H17.9484C18.0798 20.1477 18.2098 20.1218 18.3311 20.0715C18.4524 20.0213 18.5627 19.9476 18.6555 19.8548C18.7484 19.7619 18.8221 19.6517 18.8723 19.5303C18.9226 19.409 18.9484 19.279 18.9484 19.1477V8.23561C18.9484 7.97041 18.843 7.7161 18.6554 7.52861ZM16.9484 18.1437H7.39844V5.59561H13.3504V9.19561H16.9504L16.9484 18.1437Z" fill="currentcolor"/>
<path d="M10.9219 14.5498H8.92188V16.5498H10.9219V14.5498Z" fill="currentcolor"/>
<path d="M10.9219 7.91992H8.92188V13.4219H10.9219V7.91992Z" fill="currentcolor"/>
</svg>
