<svg width="24" height="24" viewBox="0 0 30 30" fill="none" xmlns="http://www.w3.org/2000/svg">
<path d="M10.7437 3.00006C8.8912 3.00006 7.38321 4.52461 7.38321 6.39885V6.61845H7.37237C5.37533 6.6199 3.75 8.22104 3.75 10.1866L3.75108 17.2063C3.75108 18.9772 5.26268 20.7218 6.86268 22.5685C7.58253 23.3989 8.78205 24.784 8.89652 25.2994V26.8207H22.3389V25.2672C22.3389 24.6771 22.9566 23.4974 23.5019 22.4561C24.4396 20.6683 25.5 18.6416 25.5 16.4659C25.5 13.208 25.4906 10.2177 25.4906 10.2177C25.4906 8.52228 24.0997 7.13893 22.3891 7.13893C22.1875 7.13893 21.99 7.15807 21.7982 7.19492C21.1477 6.22765 20.0317 5.58761 18.7645 5.58761C18.3983 5.58761 18.0443 5.64143 17.7099 5.74075C17.0731 4.7193 15.926 4.03627 14.6207 4.03627C14.1761 4.03627 13.7491 4.11537 13.3558 4.26093C12.7381 3.49196 11.797 3.00006 10.7437 3.00006Z" fill="white"/>
<path d="M10.744 4.55355C11.7434 4.55355 12.5521 5.37994 12.5521 6.39885V7.5958C12.5521 6.48734 13.4786 5.58831 14.6203 5.58831C15.763 5.58831 16.6884 6.48731 16.6884 7.5958V9.14817C16.6884 8.03861 17.6178 7.13958 18.7649 7.13958C19.9116 7.13958 20.8413 8.03858 20.8413 9.14817V10.2159C20.8446 9.37356 21.5363 8.69094 22.3894 8.69094C23.2447 8.69094 23.9374 9.37539 23.9374 10.2209C23.9374 10.2209 23.9468 13.209 23.9468 16.4651C23.9468 19.7216 20.7856 23.1013 20.7856 25.2666H10.45C10.45 23.327 5.30421 19.4941 5.30421 17.2056C5.30421 17.1781 5.30313 10.1859 5.30313 10.1859C5.30313 9.07448 6.22962 8.17231 7.37349 8.1712V12.2222C7.37349 12.5639 7.72348 12.842 8.15546 12.842C8.58743 12.842 8.93742 12.5639 8.93742 12.2222L8.93706 6.39885C8.93634 5.3799 9.74576 4.55355 10.7437 4.55355H10.744ZM10.7437 3.00006C8.8912 3.00006 7.38321 4.5246 7.38321 6.39885V6.61845H7.37237C5.37533 6.6199 3.75 8.22104 3.75 10.1866L3.75108 17.2063C3.75108 18.9772 5.26268 20.7218 6.86268 22.5685C7.58253 23.3989 8.78205 24.784 8.89652 25.2994V26.8207H22.3389V25.2672C22.3389 24.6771 22.9566 23.4974 23.5019 22.4561C24.4396 20.6683 25.5 18.6416 25.5 16.4659C25.5 13.208 25.4906 10.2177 25.4906 10.2177C25.4906 8.52228 24.0997 7.13893 22.3891 7.13893C22.1875 7.13893 21.99 7.15807 21.7982 7.19492C21.1477 6.22765 20.0317 5.58761 18.7645 5.58761C18.3983 5.58761 18.0443 5.64143 17.7099 5.74075C17.0731 4.7193 15.926 4.03627 14.6207 4.03627C14.1761 4.03627 13.7491 4.11537 13.3558 4.26093C12.7381 3.49196 11.7969 3 10.7437 3L10.7437 3.00006Z" fill="black"/>
</svg>
