<svg width="1000" height="1000" viewBox="0 0 1000 1000" fill="none" xmlns="http://www.w3.org/2000/svg">
<path d="M233.625 137.25C217.874 137.25 206.156 151.115 206.156 166.312V946.031C206.156 961.247 217.876 975 233.625 975H820.25H825.281L828.969 971.594L959.656 850.531L963.781 846.75V841.125V166.312C963.781 151.017 952.059 137.25 936.312 137.25H233.625ZM233.625 162.938H936.312C936.588 162.938 938.094 163.635 938.094 166.312V835.531L815.25 949.312H233.625C233.249 949.312 231.812 948.583 231.812 946.031V166.312C231.812 163.537 233.149 162.938 233.625 162.938ZM63.6875 25C47.8821 25 36.2188 38.9274 36.2188 54.125V833.719C36.2188 848.95 47.83 862.844 63.6875 862.844H206.156V837.188H63.6875C63.4207 837.188 61.9062 836.358 61.9062 833.719V54.125C61.9062 51.3496 63.2659 50.6875 63.6875 50.6875H766.375C766.595 50.6875 768.188 51.4474 768.188 54.125V137.25H793.844V54.125C793.844 38.8296 782.176 25 766.375 25H63.6875Z" fill="black"/>
<path d="M473.807 381.531L590.018 671.57L706.229 381.531H767.02V737H720.145V598.572L724.539 449.158L607.84 737H571.951L455.496 449.891L460.135 598.572V737H413.26V381.531H473.807Z" fill="black"/>
</svg>