<svg width="1000" height="1000" viewBox="0 0 1000 1000" fill="none" xmlns="http://www.w3.org/2000/svg">
<path d="M233.625 137.25C217.874 137.25 206.156 151.115 206.156 166.312V946.031C206.156 961.247 217.876 975 233.625 975H820.25H825.281L828.969 971.594L959.656 850.531L963.781 846.75V841.125V166.312C963.781 151.017 952.059 137.25 936.312 137.25H233.625ZM233.625 162.938H936.312C936.588 162.938 938.094 163.635 938.094 166.312V835.531L815.25 949.312H233.625C233.249 949.312 231.812 948.583 231.812 946.031V166.312C231.812 163.537 233.149 162.938 233.625 162.938ZM63.6875 25C47.8821 25 36.2188 38.9274 36.2188 54.125V833.719C36.2188 848.95 47.83 862.844 63.6875 862.844H206.156V837.188H63.6875C63.4207 837.188 61.9062 836.358 61.9062 833.719V54.125C61.9062 51.3496 63.2659 50.6875 63.6875 50.6875H766.375C766.595 50.6875 768.188 51.4474 768.188 54.125V137.25H793.844V54.125C793.844 38.8296 782.176 25 766.375 25H63.6875Z" fill="black"/>
<mask id="path-2-inside-1" fill="white">
<path fill-rule="evenodd" clip-rule="evenodd" d="M358 355C358 332.909 375.909 315 398 315H791C813.091 315 831 332.909 831 355V492C666.866 492 534 625.904 534 790.848H568C568 644.471 685.854 526 831 526V751C831 773.091 813.091 791 791 791H398C375.909 791 358 773.091 358 751V355ZM487.5 525C525.332 525 556 494.332 556 456.5C556 418.668 525.332 388 487.5 388C449.668 388 419 418.668 419 456.5C419 494.332 449.668 525 487.5 525Z"/>
</mask>
<path fill-rule="evenodd" clip-rule="evenodd" d="M358 355C358 332.909 375.909 315 398 315H791C813.091 315 831 332.909 831 355V492C666.866 492 534 625.904 534 790.848H568C568 644.471 685.854 526 831 526V751C831 773.091 813.091 791 791 791H398C375.909 791 358 773.091 358 751V355ZM487.5 525C525.332 525 556 494.332 556 456.5C556 418.668 525.332 388 487.5 388C449.668 388 419 418.668 419 456.5C419 494.332 449.668 525 487.5 525Z" fill="black"/>
<path d="M831 492V513H852V492H831ZM534 790.848H513V811.848H534V790.848ZM568 790.848V811.848H589V790.848H568ZM831 526H852V505H831V526ZM398 294C364.311 294 337 321.311 337 355H379C379 344.507 387.507 336 398 336V294ZM791 294H398V336H791V294ZM852 355C852 321.311 824.689 294 791 294V336C801.493 336 810 344.507 810 355H852ZM852 492V355H810V492H852ZM555 790.848C555 637.37 678.596 513 831 513V471C655.136 471 513 614.439 513 790.848H555ZM568 769.848H534V811.848H568V769.848ZM831 505C674.129 505 547 633.001 547 790.848H589C589 655.941 697.58 547 831 547V505ZM852 751V526H810V751H852ZM791 812C824.689 812 852 784.689 852 751H810C810 761.493 801.493 770 791 770V812ZM398 812H791V770H398V812ZM337 751C337 784.689 364.311 812 398 812V770C387.507 770 379 761.493 379 751H337ZM337 355V751H379V355H337ZM535 456.5C535 482.734 513.734 504 487.5 504V546C536.929 546 577 505.929 577 456.5H535ZM487.5 409C513.734 409 535 430.266 535 456.5H577C577 407.071 536.929 367 487.5 367V409ZM440 456.5C440 430.266 461.266 409 487.5 409V367C438.071 367 398 407.071 398 456.5H440ZM487.5 504C461.266 504 440 482.734 440 456.5H398C398 505.929 438.071 546 487.5 546V504Z" fill="black" mask="url(#path-2-inside-1)"/>
</svg>
