<svg width="928" height="950" viewBox="0 0 928 950" fill="none" xmlns="http://www.w3.org/2000/svg">
<path d="M197.625 112.25C181.874 112.25 170.156 126.115 170.156 141.312V921.031C170.156 936.247 181.876 950 197.625 950H784.25H789.281L792.969 946.594L923.656 825.531L927.781 821.75V816.125V141.312C927.781 126.017 916.059 112.25 900.312 112.25H197.625ZM197.625 137.938H900.312C900.588 137.938 902.094 138.635 902.094 141.312V810.531L779.25 924.312H197.625C197.249 924.312 195.812 923.583 195.812 921.031V141.312C195.812 138.537 197.149 137.938 197.625 137.938ZM27.6875 0C11.8821 0 0.21875 13.9274 0.21875 29.125V808.719C0.21875 823.95 11.83 837.844 27.6875 837.844H170.156V812.188H27.6875C27.4207 812.188 25.9062 811.358 25.9062 808.719V29.125C25.9062 26.3496 27.2659 25.6875 27.6875 25.6875H730.375C730.595 25.6875 732.188 26.4474 732.188 29.125V112.25H757.844V29.125C757.844 13.8296 746.176 0 730.375 0H27.6875Z" fill="black"/>
<path d="M525.592 546.717L482.135 591.883V712H435.26V356.531H482.135V532.312L640.094 356.531H696.734L556.842 513.514L707.721 712H651.568L525.592 546.717Z" fill="black"/>
</svg>