<?xml version="1.0" encoding="UTF-8" standalone="no"?>
<svg
   xmlns:dc="http://purl.org/dc/elements/1.1/"
   xmlns:cc="http://creativecommons.org/ns#"
   xmlns:rdf="http://www.w3.org/1999/02/22-rdf-syntax-ns#"
   xmlns:svg="http://www.w3.org/2000/svg"
   xmlns="http://www.w3.org/2000/svg"
   xmlns:sodipodi="http://sodipodi.sourceforge.net/DTD/sodipodi-0.dtd"
   xmlns:inkscape="http://www.inkscape.org/namespaces/inkscape"
   width="1000px"
   height="1000px"
   viewBox="0 0 1000 1000"
   version="1.1"
   id="svg2"
   inkscape:version="0.48.4 r9939"
   sodipodi:docname="dearom.svg">
  <metadata
     id="metadata19">
    <rdf:RDF>
      <cc:Work
         rdf:about="">
        <dc:format>image/svg+xml</dc:format>
        <dc:type
           rdf:resource="http://purl.org/dc/dcmitype/StillImage" />
      </cc:Work>
    </rdf:RDF>
  </metadata>
  <defs
     id="defs17" />
  <sodipodi:namedview
     pagecolor="#ffffff"
     bordercolor="#666666"
     borderopacity="1"
     objecttolerance="10"
     gridtolerance="10"
     guidetolerance="10"
     inkscape:pageopacity="0"
     inkscape:pageshadow="2"
     inkscape:window-width="1280"
     inkscape:window-height="985"
     id="namedview15"
     showgrid="false"
     inkscape:zoom="0.5"
     inkscape:cx="170"
     inkscape:cy="501"
     inkscape:window-x="-2"
     inkscape:window-y="16"
     inkscape:window-maximized="1"
     inkscape:current-layer="svg2" />
  <path
     id="path13"
     d="m 464.67027,555.69054 -18.12703,65.26757 -59.56757,0 77.6946,-254.13783 75.43513,0 78.77297,254.13783 -61.87838,0 -19.56486,-65.26757 z m 64.44594,-43.03243 -15.86757,-53.91892 c -4.46756,-14.99459 -9.03783,-33.89189 -12.78648,-48.98918 l -0.77027,0 c -3.8,14.99459 -7.54865,34.3027 -11.70811,48.98918 l -15.04595,53.91892 z m -168.89746,-321.75186 -0.3125,25.65625 260.9375,3.125 0.28125,-25.65625 -260.90625,-3.125 z m 400.6875,323.875 L 625.6875,744.25 l 22.125,13.03125 135.21875,-229.46875 -22.125,-13.03125 z m -553.28125,0 L 185.5,527.8125 320.71875,757.28125 342.84375,744.25 207.625,514.78125 z M 261.5,86.96875 C 182.01696,224.66603 102.49955,362.34349 23,500.03125 c 79.52601,137.6516 159.01303,275.32583 238.5,413 159,0 318,0 477,0 79.48707,-137.67411 158.97388,-275.34846 238.5,-413 -79.49951,-137.68778 -159.017,-275.3652 -238.5,-413.0625 -159,0 -318,0 -477,0 z m 14.84375,25.65625 c 149.10417,0 298.20833,0 447.3125,0 C 798.20833,241.75 872.76042,370.875 947.3125,500 872.76042,629.125 798.20833,758.25 723.65625,887.375 c -149.10417,0 -298.20833,0 -447.3125,0 C 201.79167,758.25 127.23958,629.125 52.6875,500 127.23958,370.875 201.79167,241.75 276.34375,112.625 z" />
</svg>
