<svg width="15" height="16" viewBox="0 0 15 16" fill="none" xmlns="http://www.w3.org/2000/svg">
<path d="M10.9994 8C11.8482 7.99981 12.675 7.72961 13.3601 7.22847C14.0452 6.72733 14.5531 6.02124 14.8104 5.21234C15.0676 4.40344 15.0609 3.53367 14.7912 2.72885C14.5214 1.92402 14.0026 1.22588 13.3099 0.735392C12.6171 0.244909 11.7863 -0.0124768 10.9375 0.000465214C10.0888 0.0134072 9.26619 0.296006 8.5887 0.807384C7.91121 1.31876 7.41396 2.0324 7.16887 2.84508C6.92379 3.65775 6.94359 4.52732 7.2254 5.328L5.1044 6.388C4.50511 6.0789 3.8293 5.94949 3.15822 6.01534C2.48715 6.08119 1.84938 6.33948 1.3216 6.75916C0.793827 7.17885 0.398519 7.74205 0.183214 8.38106C-0.032091 9.02006 -0.0582272 9.70765 0.107948 10.3612C0.274124 11.0147 0.625536 11.6062 1.11993 12.0648C1.61432 12.5233 2.23064 12.8293 2.89479 12.9459C3.55893 13.0625 4.24261 12.9848 4.86363 12.722C5.48465 12.4593 6.01656 12.0228 6.3954 11.465L9.0854 12.849C8.98608 13.2196 8.97326 13.608 9.04795 13.9843C9.12263 14.3606 9.28282 14.7147 9.51613 15.0192C9.74944 15.3237 10.0496 15.5706 10.3935 15.7406C10.7374 15.9107 11.1158 15.9994 11.4994 16C11.9231 15.9999 12.3399 15.8921 12.7105 15.6868C13.0811 15.4814 13.3935 15.1852 13.6182 14.826C13.8429 14.4668 13.9727 14.0564 13.9953 13.6333C14.0179 13.2102 13.9326 12.7882 13.7473 12.4072C13.5621 12.0261 13.2831 11.6983 12.9364 11.4547C12.5898 11.211 12.1869 11.0595 11.7656 11.0143C11.3443 10.9691 10.9184 11.0317 10.5279 11.1962C10.1375 11.3608 9.79525 11.6219 9.5334 11.955L6.8334 10.567C6.9414 10.231 6.9994 9.872 6.9994 9.5C6.9994 8.55 6.6194 7.687 6.0054 7.056L7.6734 6.222C8.03858 6.76926 8.53323 7.21789 9.11344 7.52806C9.69366 7.83823 10.3415 8.00034 10.9994 8ZM10.9994 7C10.2037 7 9.44068 6.68393 8.87808 6.12132C8.31547 5.55871 7.9994 4.79565 7.9994 4C7.9994 3.20435 8.31547 2.44129 8.87808 1.87868C9.44068 1.31607 10.2037 1 10.9994 1C11.795 1 12.5581 1.31607 13.1207 1.87868C13.6833 2.44129 13.9994 3.20435 13.9994 4C13.9994 4.79565 13.6833 5.55871 13.1207 6.12132C12.5581 6.68393 11.795 7 10.9994 7ZM3.4994 12C2.83636 12 2.20047 11.7366 1.73163 11.2678C1.26279 10.7989 0.999397 10.163 0.999397 9.5C0.999397 8.83696 1.26279 8.20107 1.73163 7.73223C2.20047 7.26339 2.83636 7 3.4994 7C4.16244 7 4.79832 7.26339 5.26716 7.73223C5.736 8.20107 5.9994 8.83696 5.9994 9.5C5.9994 10.163 5.736 10.7989 5.26716 11.2678C4.79832 11.7366 4.16244 12 3.4994 12ZM12.9994 13.5C12.9994 13.8978 12.8414 14.2794 12.5601 14.5607C12.2788 14.842 11.8972 15 11.4994 15C11.1016 15 10.72 14.842 10.4387 14.5607C10.1574 14.2794 9.9994 13.8978 9.9994 13.5C9.9994 13.1022 10.1574 12.7206 10.4387 12.4393C10.72 12.158 11.1016 12 11.4994 12C11.8972 12 12.2788 12.158 12.5601 12.4393C12.8414 12.7206 12.9994 13.1022 12.9994 13.5Z" fill="black"/>
</svg>
