<svg width="83" height="82" viewBox="0 0 83 82" fill="none" xmlns="http://www.w3.org/2000/svg">
<path d="M41.506 29.35L44.4699 1H38.5422L41.506 29.35Z" fill="#313131" stroke="#313131" stroke-width="2" stroke-linecap="round" stroke-linejoin="round"/>
<path d="M41.506 30.97L81.0241 47.17" stroke="#313131" stroke-width="2" stroke-linecap="round" stroke-linejoin="round"/>
<path d="M41.506 30.97L1.00002 47.17" stroke="#313131" stroke-width="2" stroke-linecap="round" stroke-linejoin="round"/>
<g clip-path="url(#clip0)">
<path d="M14.4272 50.6367H11.3496V77.5781H14.4272V80.0273H8.35254V48.1875H14.4272V50.6367ZM27.7852 75C27.6133 74.6562 27.4736 74.0439 27.3662 73.1631C25.9805 74.6025 24.3262 75.3223 22.4033 75.3223C20.6846 75.3223 19.272 74.8389 18.1655 73.8721C17.0698 72.8945 16.522 71.6592 16.522 70.166C16.522 68.3506 17.2095 66.9434 18.5845 65.9443C19.9702 64.9346 21.9146 64.4297 24.4175 64.4297H27.3179V63.0601C27.3179 62.0181 27.0063 61.1909 26.3833 60.5786C25.7603 59.9556 24.8418 59.644 23.6279 59.644C22.5645 59.644 21.6729 59.9126 20.9531 60.4497C20.2334 60.9868 19.8735 61.6367 19.8735 62.3994H16.8765C16.8765 61.5293 17.1826 60.6914 17.7949 59.8857C18.418 59.0693 19.2559 58.4248 20.3086 57.9521C21.3721 57.4795 22.5376 57.2432 23.8052 57.2432C25.814 57.2432 27.3877 57.748 28.5264 58.7578C29.665 59.7568 30.2559 61.1372 30.2988 62.8989V70.9233C30.2988 72.5239 30.5029 73.7969 30.9111 74.7422V75H27.7852ZM22.8384 72.728C23.7729 72.728 24.6592 72.4863 25.4971 72.0029C26.335 71.5195 26.9419 70.8911 27.3179 70.1177V66.5405H24.9814C21.3291 66.5405 19.5029 67.6094 19.5029 69.7471C19.5029 70.6816 19.8145 71.4121 20.4375 71.9385C21.0605 72.4648 21.8608 72.728 22.8384 72.728ZM49.7314 66.4761C49.7314 69.1401 49.1191 71.2832 47.8945 72.9053C46.6699 74.5166 45.0264 75.3223 42.9639 75.3223C40.7617 75.3223 39.0591 74.5435 37.856 72.9858L37.7109 75H34.9717V50.25H37.9526V59.4829C39.1558 57.9897 40.8154 57.2432 42.9316 57.2432C45.0479 57.2432 46.7075 58.0435 47.9106 59.644C49.1245 61.2446 49.7314 63.436 49.7314 66.2183V66.4761ZM46.7505 66.1377C46.7505 64.1074 46.3584 62.5391 45.5742 61.4326C44.79 60.3262 43.6621 59.7729 42.1904 59.7729C40.2246 59.7729 38.812 60.686 37.9526 62.5122V70.0532C38.8657 71.8794 40.2891 72.7925 42.2227 72.7925C43.6514 72.7925 44.7632 72.2393 45.5581 71.1328C46.353 70.0264 46.7505 68.3613 46.7505 66.1377ZM63.6533 70.3755C63.6533 69.5698 63.3472 68.9468 62.7349 68.5063C62.1333 68.0552 61.0752 67.6685 59.5605 67.3462C58.0566 67.0239 56.8589 66.6372 55.9673 66.186C55.0864 65.7349 54.4312 65.1978 54.0015 64.5747C53.5825 63.9517 53.373 63.2104 53.373 62.3511C53.373 60.9224 53.9746 59.7139 55.1777 58.7256C56.3916 57.7373 57.9385 57.2432 59.8184 57.2432C61.7949 57.2432 63.3955 57.7534 64.6201 58.7739C65.8555 59.7944 66.4731 61.0996 66.4731 62.6895H63.4761C63.4761 61.873 63.127 61.1694 62.4287 60.5786C61.7412 59.9878 60.8711 59.6924 59.8184 59.6924C58.7334 59.6924 57.8848 59.9287 57.2725 60.4014C56.6602 60.874 56.354 61.4917 56.354 62.2544C56.354 62.9741 56.6387 63.5166 57.208 63.8818C57.7773 64.2471 58.8032 64.5962 60.2856 64.9292C61.7788 65.2622 62.9873 65.6597 63.9111 66.1216C64.835 66.5835 65.5171 67.1421 65.9575 67.7974C66.4087 68.4419 66.6343 69.2314 66.6343 70.166C66.6343 71.7236 66.0112 72.9751 64.7651 73.9204C63.519 74.855 61.9023 75.3223 59.915 75.3223C58.5186 75.3223 57.2832 75.0752 56.209 74.5811C55.1348 74.0869 54.2915 73.3994 53.6792 72.5186C53.0776 71.627 52.7769 70.6655 52.7769 69.6343H55.7578C55.8115 70.6333 56.209 71.4282 56.9502 72.019C57.7021 72.5991 58.6904 72.8892 59.915 72.8892C61.043 72.8892 61.9453 72.6636 62.6221 72.2124C63.3096 71.7505 63.6533 71.1382 63.6533 70.3755ZM68.4067 48.1875H74.4976V80.0273H68.4067V77.5781H71.5166V50.6367H68.4067V48.1875Z" fill="black"/>
</g>
<defs>
<clipPath id="clip0">
<rect width="75" height="43" fill="white" transform="translate(8 39)"/>
</clipPath>
</defs>
</svg>
