<svg width="24" height="24" viewBox="0 0 24 24" fill="none" xmlns="http://www.w3.org/2000/svg">
<path fill-rule="evenodd" clip-rule="evenodd" d="M13.9998 4.5C13.9998 5.63772 13.2398 6.59794 12.1998 6.90068V9.86285C12.8744 10.0661 13.4313 10.5556 13.7392 11.1958L15.5061 10.4381C15.5019 10.3926 15.4998 10.3466 15.4998 10.3C15.4998 9.47157 16.1714 8.8 16.9998 8.8C17.8282 8.8 18.4998 9.47157 18.4998 10.3C18.4998 11.1284 17.8282 11.8 16.9998 11.8C16.6545 11.8 16.3364 11.6833 16.0829 11.4872L13.9994 12.3808C13.9957 12.6821 13.9421 12.971 13.8469 13.2391L15.3232 14.512C15.8019 14.1888 16.3789 14 17 14C18.6569 14 20 15.3431 20 17C20 18.6569 18.6569 20 17 20C15.3431 20 14 18.6569 14 17C14 16.5023 14.1212 16.0329 14.3357 15.6197L12.968 14.4404C12.5558 14.7505 12.0484 14.9334 11.4997 14.9334C11.0699 14.9334 10.6654 14.8212 10.3122 14.6235L7.96239 16.0656C7.98711 16.2067 8 16.3518 8 16.5C8 17.8807 6.88071 19 5.5 19C4.11929 19 3 17.8807 3 16.5C3 15.1193 4.11929 14 5.5 14C6.1963 14 6.82611 14.2847 7.27941 14.7439L9.27167 13.5213C9.09775 13.1688 8.99966 12.7696 8.99966 12.3467C8.99966 11.2076 9.71135 10.2404 10.6998 9.89527V6.86926C9.71142 6.53565 8.99978 5.60093 8.99978 4.5C8.99978 3.11929 10.1191 2 11.4998 2C12.8805 2 13.9998 3.11929 13.9998 4.5ZM10.3654 4.5C10.3654 5.12651 10.8733 5.6344 11.4998 5.6344C12.1263 5.6344 12.6342 5.12651 12.6342 4.5C12.6342 3.87349 12.1263 3.3656 11.4998 3.3656C10.8733 3.3656 10.3654 3.87349 10.3654 4.5ZM11.4997 13.4549C10.9081 13.4549 10.4286 12.9587 10.4286 12.3467C10.4286 11.7347 10.9081 11.2385 11.4997 11.2385C12.0912 11.2385 12.5707 11.7347 12.5707 12.3467C12.5707 12.9587 12.0912 13.4549 11.4997 13.4549ZM4.29848 16.5C4.29848 17.1636 4.83642 17.7015 5.5 17.7015C6.16358 17.7015 6.70152 17.1636 6.70152 16.5C6.70152 15.8364 6.16358 15.2985 5.5 15.2985C4.83642 15.2985 4.29848 15.8364 4.29848 16.5ZM17 18.5134C16.1642 18.5134 15.4866 17.8358 15.4866 17C15.4866 16.1642 16.1642 15.4866 17 15.4866C17.8358 15.4866 18.5134 16.1642 18.5134 17C18.5134 17.8358 17.8358 18.5134 17 18.5134ZM16.9998 10.9993C16.6136 10.9993 16.3005 10.6862 16.3005 10.3C16.3005 9.9138 16.6136 9.60072 16.9998 9.60072C17.386 9.60072 17.6991 9.9138 17.6991 10.3C17.6991 10.6862 17.386 10.9993 16.9998 10.9993Z" fill="currentColor"/>
</svg>

