<svg width="24" height="24" viewBox="0 0 24 24" fill="none" xmlns="http://www.w3.org/2000/svg">
<path d="M7.76316 20.1474H5.90916C5.10916 20.1474 4.53516 19.7064 4.53516 19.0994V13.6994C4.53516 13.0924 5.11316 12.6514 5.90916 12.6514H7.76316V14.0514H5.93516V18.7514H7.76316V20.1474Z" fill="#333333"/>
<path d="M18.0884 20.1475H16.2344V18.7475H18.0624V14.0475H16.2344V12.6475H18.0884C18.8884 12.6475 19.4624 13.0885 19.4624 13.6955V19.0955C19.4624 19.7065 18.8844 20.1475 18.0884 20.1475Z" fill="#333333"/>
<path d="M21.4158 12.3926C21.3361 12.589 21.1817 12.7457 20.9865 12.8284C20.7914 12.9111 20.5713 12.913 20.3748 12.8336L11.9988 9.44355L3.6228 12.8336C3.42697 12.909 3.20933 12.9045 3.0168 12.821C2.82427 12.7375 2.67226 12.5816 2.59355 12.3871C2.51484 12.1926 2.51573 11.9749 2.59603 11.781C2.67632 11.5871 2.82959 11.4325 3.0228 11.3506L11.1988 8.04155V3.19355C11.1988 2.98138 11.2831 2.7779 11.4331 2.62787C11.5831 2.47784 11.7866 2.39355 11.9988 2.39355C12.211 2.39355 12.4145 2.47784 12.5645 2.62787C12.7145 2.7779 12.7988 2.98138 12.7988 3.19355V8.04155L20.9748 11.3506C21.0722 11.39 21.1608 11.4483 21.2357 11.522C21.3106 11.5957 21.3702 11.6834 21.4111 11.7802C21.4521 11.877 21.4736 11.9808 21.4744 12.0859C21.4752 12.191 21.4553 12.2952 21.4158 12.3926Z" fill="#333333"/>
<path d="M9.21476 14.6138C8.43876 14.2328 7.37776 14.8548 7.25976 14.9268L7.72776 15.6998C7.98376 15.5438 8.56776 15.2998 8.81776 15.4258C8.88798 15.458 8.94981 15.5059 8.99839 15.5659C9.04697 15.626 9.08098 15.6964 9.09776 15.7718C8.67676 15.8048 8.06176 15.9168 7.56376 16.2608C7.37776 16.3965 7.23428 16.5824 7.15015 16.7967C7.06602 17.011 7.04473 17.2448 7.08876 17.4708C7.12353 17.6787 7.21942 17.8715 7.36422 18.0247C7.50902 18.1779 7.69615 18.2844 7.90176 18.3308C7.9962 18.3526 8.09285 18.3633 8.18976 18.3628C8.52892 18.3486 8.86165 18.2656 9.16776 18.1188H10.0098V15.8998C10.0142 15.6319 9.94171 15.3682 9.80078 15.1403C9.65986 14.9123 9.45647 14.7296 9.21476 14.6138ZM8.10776 17.4508C8.07179 17.4442 8.03905 17.4257 8.01477 17.3984C7.99049 17.371 7.97606 17.3363 7.97376 17.2998C7.9624 17.2454 7.96567 17.189 7.98324 17.1363C8.00081 17.0836 8.03205 17.0365 8.07376 16.9998C8.38976 16.7818 8.80376 16.6998 9.10876 16.6718V17.1388C8.77876 17.3218 8.33376 17.4998 8.10776 17.4508Z" fill="#333333"/>
<path d="M12.72 14.8837C12.4013 14.8237 12.0719 14.8613 11.775 14.9917V13.0757H10.875V17.9757H11.264C11.502 18.1287 11.896 18.3297 12.32 18.3297C12.4729 18.3306 12.6246 18.3024 12.767 18.2467C13.367 18.0127 13.722 17.4097 13.775 16.5467C13.818 15.8417 13.462 15.0167 12.72 14.8837ZM12.876 16.4997C12.859 16.7847 12.776 17.2827 12.439 17.4157C12.26 17.4857 11.974 17.3617 11.775 17.2397V16.0847C11.898 15.9447 12.175 15.7007 12.561 15.7697C12.778 15.8087 12.898 16.2257 12.876 16.4997Z" fill="#333333"/>
<path d="M15.5583 18.3914C15.3137 18.3907 15.0723 18.3358 14.8515 18.2306C14.6307 18.1255 14.436 17.9727 14.2812 17.7834L14.9713 17.2054C15.2603 17.5514 15.6953 17.5394 15.8853 17.3994C15.9403 17.3584 16.0033 17.3124 15.8933 17.1424C15.7805 17.034 15.6486 16.9475 15.5043 16.8874C15.4883 16.8794 15.4342 16.8604 15.3953 16.8474C15.1413 16.7564 14.7152 16.6054 14.4952 16.2554C14.2082 15.7964 14.3662 15.2184 14.6702 14.8854C14.7851 14.7608 14.9241 14.6611 15.0789 14.5923C15.2337 14.5235 15.4009 14.4871 15.5703 14.4854H15.5823C16.0743 14.4854 16.5433 14.7694 16.6753 14.8544L16.1872 15.6104C16.0039 15.4867 15.7931 15.4095 15.5732 15.3854C15.5286 15.3854 15.4844 15.3942 15.4433 15.4114C15.4021 15.4285 15.3647 15.4537 15.3333 15.4854C15.2973 15.5222 15.2714 15.5677 15.2581 15.6174C15.2448 15.6671 15.2445 15.7195 15.2573 15.7694C15.3093 15.8544 15.5893 15.9534 15.6943 15.9904C15.7663 16.0164 15.8273 16.0384 15.8833 16.0634C16.0903 16.1634 16.4653 16.3634 16.6463 16.6454C16.9873 17.1724 16.8953 17.7634 16.4173 18.1164C16.167 18.2961 15.8664 18.3923 15.5583 18.3914Z" fill="#333333"/>
</svg>
