<svg width="24" height="24" viewBox="0 0 24 24" fill="none" xmlns="http://www.w3.org/2000/svg">
<path fill-rule="evenodd" clip-rule="evenodd" d="M9.97042 7.34195C11.0083 6.88898 11.7248 5.92487 11.7248 4.80869C11.7248 3.2575 10.3409 2 8.63388 2C6.92682 2 5.54297 3.2575 5.54297 4.80869C5.54297 6.35989 6.92682 7.61739 8.63388 7.61739C8.77032 7.61739 8.90469 7.60936 9.03646 7.59378L9.36673 10.1614C8.21243 11.0082 7.70662 12.452 8.21993 13.7993C8.26383 13.9145 8.31406 14.0261 8.37015 14.1338L6.74736 16.8733C6.37192 16.6615 5.92895 16.5392 5.45455 16.5392C4.09894 16.5392 3 17.5378 3 18.7696C3 20.0014 4.09894 21 5.45455 21C6.81016 21 7.90909 20.0014 7.90909 18.7696C7.90909 18.3638 7.78984 17.9833 7.58145 17.6555L10.1846 15.7352C10.9912 16.0576 11.9285 16.1149 12.8268 15.8323C13.0603 15.7588 13.2802 15.6658 13.4851 15.556L16.291 16.7274C16.1616 16.9989 16.0898 17.2984 16.0898 17.6131C16.0898 18.8449 17.1888 19.8435 18.5444 19.8435C19.9 19.8435 20.9989 18.8449 20.9989 17.6131C20.9989 16.3812 19.9 15.3826 18.5444 15.3826C17.9586 15.3826 17.4208 15.5691 16.9989 15.8802L15.0075 13.9377C15.3173 13.2302 15.3597 12.4221 15.064 11.6461C15.0381 11.578 15.01 11.5113 14.9797 11.4458L16.7762 9.9018C17.0868 10.1266 17.4801 10.2609 17.908 10.2609C18.9122 10.2609 19.7262 9.52118 19.7262 8.60871C19.7262 7.69624 18.9122 6.95654 17.908 6.95654C16.9039 6.95654 16.0898 7.69624 16.0898 8.60871C16.0898 8.87952 16.1615 9.13511 16.2886 9.36066L14.0611 10.2731C13.397 9.73256 12.5268 9.42662 11.6224 9.43115L9.97042 7.34195Z" fill="#333333"/>
</svg>

