<?xml version="1.0" encoding="UTF-8" standalone="no"?>
<svg
   xmlns:dc="http://purl.org/dc/elements/1.1/"
   xmlns:cc="http://creativecommons.org/ns#"
   xmlns:rdf="http://www.w3.org/1999/02/22-rdf-syntax-ns#"
   xmlns:svg="http://www.w3.org/2000/svg"
   xmlns="http://www.w3.org/2000/svg"
   xmlns:sodipodi="http://sodipodi.sourceforge.net/DTD/sodipodi-0.dtd"
   xmlns:inkscape="http://www.inkscape.org/namespaces/inkscape"
   width="1000px"
   height="1000px"
   viewBox="0 0 1000 1000"
   version="1.1"
   id="svg2"
   inkscape:version="0.48.4 r9939"
   sodipodi:docname="edit-clear.svg">
  <metadata
     id="metadata13">
    <rdf:RDF>
      <cc:Work
         rdf:about="">
        <dc:format>image/svg+xml</dc:format>
        <dc:type
           rdf:resource="http://purl.org/dc/dcmitype/StillImage" />
      </cc:Work>
    </rdf:RDF>
  </metadata>
  <defs
     id="defs11" />
  <sodipodi:namedview
     pagecolor="#ffffff"
     bordercolor="#666666"
     borderopacity="1"
     objecttolerance="10"
     gridtolerance="10"
     guidetolerance="10"
     inkscape:pageopacity="0"
     inkscape:pageshadow="2"
     inkscape:window-width="1280"
     inkscape:window-height="985"
     id="namedview9"
     showgrid="false"
     inkscape:zoom="0.5"
     inkscape:cx="808"
     inkscape:cy="502.11864"
     inkscape:window-x="-2"
     inkscape:window-y="16"
     inkscape:window-maximized="1"
     inkscape:current-layer="svg2" />
  <path
     id="path7"
     d="m 935.125,131.53125 c -16.77459,0.33665 -31.69171,9.73452 -48.15625,21.5625 -0.0316,0.0227 -0.0622,0.0398 -0.0937,0.0625 l -560.03125,395.3125 -0.0313,0.0313 -0.0625,0.0313 c -16.26267,11.71441 -30.43531,23.84755 -42.3125,44 -11.87719,20.15245 -21.59434,47.62896 -32.15625,91.4375 l 0,0.0625 0,0.0625 -48.125,208.53125 -0.6875,3 0.71875,2.9375 c 5.28245,21.52221 18.66045,37.7845 36.5,43.875 17.79759,6.07618 38.37197,1.74692 56.625,-11.34375 0.043,-0.0309 0.082,-0.0628 0.125,-0.0937 L 928.28125,489.3125 929.125,488.71875 929.875,488 c 34.18312,-33.26218 47.50099,-69.64567 44.6875,-116.75 l 0.0313,0 -2.3125,-201.8125 -0.0313,-1.46875 -0.34375,-1.4375 c -2.59556,-10.5454 -6.49876,-19.16388 -12.90625,-25.5625 -6.40749,-6.39862 -15.47162,-9.60615 -23.875,-9.4375 z m 0.5,25.6875 c 2.79163,-0.056 3.51885,0.20871 5.21875,1.90625 1.60168,1.59946 3.92943,5.46689 5.78125,12.34375 l 2.28125,200.09375 0,0.3125 0.0313,0.34375 C 951.58693,414.3688 942.5024,439.61618 912.53125,469 L 282.5625,910.0625 282.5,910.125 l -0.0625,0.0313 c -13.24577,9.53523 -24.76595,10.92926 -33.4375,7.96875 -8.12958,-2.77548 -15.18678,-9.71496 -19.09375,-23 L 277.25,689.96875 c 0.006,-0.0245 0.0254,-0.038 0.0313,-0.0625 l 0,-0.0625 c 10.27415,-42.58647 19.53643,-67.71561 29.28125,-84.25 9.73466,-16.51715 19.82862,-25.15473 35.09375,-36.15625 l 0.0937,-0.0625 560.03125,-395.3125 0.0313,-0.0313 0.0625,-0.0312 c 15.08014,-10.83808 28.16675,-16.6692 33.75,-16.78125 z M 736.0625,48.90625 c -2.06088,0.0227 -4.11727,0.0764 -6.1875,0.1875 -27.58851,1.480572 -55.78517,10.782238 -77.96875,26.75 -0.0117,0.0084 -0.0195,0.02281 -0.0313,0.03125 L 151.15625,434 l -0.0313,0 c -16.2695,11.69288 -30.43523,23.85446 -42.3125,44 -11.803007,20.01958 -21.483399,47.31274 -31.96875,90.59375 -0.539248,1.38765 -16.670914,43.00791 -30.9375,90.25 -7.252862,24.01698 -13.988237,49.26006 -17.78125,71.46875 -3.793013,22.20869 -6.23999,40.66043 1.4375,56.25 6.558407,13.31924 20.805673,27.17706 40.65625,45.40625 19.850577,18.22919 44.8051,38.86096 70.34375,57.78125 25.53865,18.92029 51.52168,36.11184 73.9375,47.46875 11.20791,5.67845 21.49019,9.92209 31.0625,12.125 9.57231,2.20291 19.58527,3.02229 28.4375,-3.375 l 1.3438,-0.96875 1.0625,-1.28125 2.09375,-2.53125 c -12.8286,4.71756 -25.94179,5.30272 -37.8125,1.25 -16.68918,-5.69776 -29.47058,-20.30061 -35.375,-39.78125 C 189.76333,893.25602 172.68724,881.60349 155.84375,869.125 131.04981,850.75643 106.6136,830.55751 87.5625,813.0625 68.511401,795.56749 54.354566,778.79473 52.59375,775.21875 51.027658,772.03871 49.951193,755.03788 53.4375,734.625 56.923807,714.21212 63.394061,689.67698 70.46875,666.25 84.618129,619.39603 101.125,577 101.125,577 l 0.3125,-0.78125 0.1875,-0.84375 c 10.28739,-42.6192 19.55722,-67.7974 29.3125,-84.34375 9.74723,-16.53269 19.86469,-25.164 35.15625,-36.15625 0.0126,-0.009 0.0186,-0.0222 0.0313,-0.0313 L 666.84375,96.75 666.875,96.71875 c 20.74664,-14.944329 51.759,-22.690653 78.09375,-21.5 8.77825,0.396884 17.03157,1.772281 24.21875,4.21875 20.80888,7.102576 64.08146,27.02841 101.21875,44.90625 13.23753,6.37253 24.64175,11.95605 34.5625,16.84375 9.88463,-5.68981 19.65092,-9.44542 30.15625,-9.65625 4.07671,-0.0818 8.30354,0.63879 12.3125,2.125 -7.46488,-3.76148 -33.96091,-17.07411 -65.875,-32.4375 C 844.16057,83.213517 801.6453,63.40829 777.46875,55.15625 l 0,-0.03125 C 764.62586,50.753364 750.48863,48.74737 736.0625,48.90625 z"
     inkscape:connector-curvature="0"
     sodipodi:nodetypes="scccccsccccccsccccccccccsscsccccccccsccccscccccccssccccscsscssssccccscsscsscccsccccscscscsccs" />
</svg>
