<svg width="24" height="24" viewBox="0 0 24 24" fill="none" xmlns="http://www.w3.org/2000/svg">
<path d="M10.832 15.2295V16.9715H13.481V17.9715H10.832V19.7135H14.304V20.7135H9.83203V14.2295H14.304V15.2295H10.832Z" fill="#333333"/>
<path d="M19.8834 14.2295V15.2295H18.0154V20.7135H17.0154V15.2295H15.1484V14.2295H19.8834Z" fill="#333333"/>
<path d="M19.7815 5.131C19.7815 3.95408 18.8275 3 17.6505 3C16.4736 3 15.5195 3.95408 15.5195 5.131C15.5195 6.30792 16.4736 7.262 17.6505 7.262C18.8275 7.262 19.7815 6.30792 19.7815 5.131Z" fill="#333333"/>
<path d="M14.0237 5.131C14.0237 3.95408 13.0696 3 11.8927 3C10.7158 3 9.76172 3.95408 9.76172 5.131C9.76172 6.30792 10.7158 7.262 11.8927 7.262C13.0696 7.262 14.0237 6.30792 14.0237 5.131Z" fill="#333333"/>
<path d="M8.262 5.131C8.262 3.95408 7.30792 3 6.131 3C4.95408 3 4 3.95408 4 5.131C4 6.30792 4.95408 7.262 6.131 7.262C7.30792 7.262 8.262 6.30792 8.262 5.131Z" fill="#333333"/>
<path d="M19.7815 10.7448C19.7815 9.56785 18.8275 8.61377 17.6505 8.61377C16.4736 8.61377 15.5195 9.56785 15.5195 10.7448C15.5195 11.9217 16.4736 12.8758 17.6505 12.8758C18.8275 12.8758 19.7815 11.9217 19.7815 10.7448Z" fill="#333333"/>
<path d="M14.0237 10.7448C14.0237 9.56785 13.0696 8.61377 11.8927 8.61377C10.7158 8.61377 9.76172 9.56785 9.76172 10.7448C9.76172 11.9217 10.7158 12.8758 11.8927 12.8758C13.0696 12.8758 14.0237 11.9217 14.0237 10.7448Z" fill="#333333"/>
<path d="M8.262 10.7448C8.262 9.56785 7.30792 8.61377 6.131 8.61377C4.95408 8.61377 4 9.56785 4 10.7448C4 11.9217 4.95408 12.8758 6.131 12.8758C7.30792 12.8758 8.262 11.9217 8.262 10.7448Z" fill="#333333"/>
<path d="M8.262 16.36C8.262 15.1831 7.30792 14.229 6.131 14.229C4.95408 14.229 4 15.1831 4 16.36C4 17.5369 4.95408 18.491 6.131 18.491C7.30792 18.491 8.262 17.5369 8.262 16.36Z" fill="#333333"/>
</svg>
