<svg width="48" height="48" viewBox="0 0 48 48" fill="none" xmlns="http://www.w3.org/2000/svg">
<path fill-rule="evenodd" clip-rule="evenodd" d="M32.5697 11.8387V17.3047H38.0357V11.8387H32.5697ZM28.5697 10.6387C28.5697 9.09235 29.8233 7.83875 31.3697 7.83875H39.2357C40.7821 7.83875 42.0357 9.09235 42.0357 10.6387V18.5047C42.0357 20.0511 40.7821 21.3047 39.2357 21.3047H31.3697C29.8233 21.3047 28.5697 20.0511 28.5697 18.5047V16.5706H26.0006V26.0006H25.9915L25.968 31.4227H28.5697V29.4967C28.5697 27.9503 29.8233 26.6967 31.3697 26.6967H39.2357C40.7821 26.6967 42.0357 27.9503 42.0357 29.4967V37.3627C42.0357 38.9091 40.7821 40.1627 39.2357 40.1627H31.3697C29.8233 40.1627 28.5697 38.9091 28.5697 37.3627V35.4227H25.5662C24.6114 35.4227 23.6958 35.0434 23.0206 34.3683C22.3455 33.6932 21.9662 32.7775 21.9662 31.8227V31.8184L21.9915 26.0006H19.4221V27.9326C19.4221 29.479 18.1685 30.7326 16.6221 30.7326H8.75605C7.20966 30.7326 5.95605 29.479 5.95605 27.9326V20.0666C5.95605 18.5202 7.20966 17.2666 8.75605 17.2666H16.6221C18.1685 17.2666 19.4221 18.5202 19.4221 20.0666V22.0006H22.0006V16.1706C22.0006 15.2158 22.3799 14.3002 23.055 13.625C23.7302 12.9499 24.6458 12.5706 25.6006 12.5706H28.5697V10.6387ZM9.95605 21.2666V26.7326H15.4221V21.2666H9.95605ZM32.5697 36.1627V30.6967H38.0357V36.1627H32.5697Z" fill="#FFFFFF"/>
</svg>
