<svg width="47" height="38" viewBox="0 0 47 38" fill="none" xmlns="http://www.w3.org/2000/svg">
<path d="M0 33.7778C0 36.1 1.89029 38 4.22222 38H21.1111H29.5556H42.2222C44.555 38 46.4444 36.1 46.4444 33.7778V4.22222C46.4444 1.9 44.555 0 42.2222 0H29.5556H21.1111H12.6667H4.22222C1.89029 0 0 1.9 0 4.22222V12.6667V33.7778Z" fill="#EFF2F5"/>
<path d="M42.2266 4.22217H4.22656V33.7777H42.2266V4.22217Z" fill="#AFDADF"/>
<path d="M32.9858 11.8748L11.1484 33.7775H42.2219V21.1109L32.9858 11.8748Z" fill="#3498A4"/>
<path d="M21.1137 14.7778C21.1137 16.7375 20.3352 18.6169 18.9496 20.0025C17.5639 21.3882 15.6845 22.1667 13.7248 22.1667C11.7652 22.1667 9.88578 21.3882 8.50009 20.0025C7.11441 18.6169 6.33594 16.7375 6.33594 14.7778C6.33594 12.8181 7.11441 10.9388 8.50009 9.55307C9.88578 8.16739 11.7652 7.38892 13.7248 7.38892C15.6845 7.38892 17.5639 8.16739 18.9496 9.55307C20.3352 10.9388 21.1137 12.8181 21.1137 14.7778Z" fill="#39BBCA"/>
<path d="M14.9801 17.0874L4.22656 27.8414V33.7778H31.671L14.9801 17.0874Z" fill="#167782"/>
</svg>
