<svg xmlns="http://www.w3.org/2000/svg" width="1000" height="1000" viewBox="-125 -125 1000 1000"><path d="M354.531 0l119.063 120 41.562-41.563c105.004 48.915 176.317 149.704 187.5 265h46.875C733.105 148.988 570.297-.366 375.156 0zM517.97 381.25a136.494 136.494 0 0 1-4.375 35.313 75.984 75.984 0 0 1-13.438 26.562 58.417 58.417 0 0 1-22.187 16.563 80.293 80.293 0 0 1-31.25 5.625h-28.44V285h31.25a62.498 62.498 0 0 1 51.25 21.563 93.76 93.76 0 0 1 17.813 62.5zm12.187-100a104.02 104.02 0 0 0-35.625-24.063A117.53 117.53 0 0 0 448.906 250h-73.75v250h71.875a126.896 126.896 0 0 0 47.188-8.438 102.808 102.808 0 0 0 36.25-22.812 105.25 105.25 0 0 0 23.125-37.188 142.735 142.735 0 0 0 8.125-49.062V370a142.735 142.735 0 0 0-8.125-49.063 109.069 109.069 0 0 0-23.438-39.687zM262.97 468.75c-5.516.031-11-.813-16.25-2.5a33.403 33.403 0 0 1-12.5-7.5 31.24 31.24 0 0 1-8.125-11.563 37.209 37.209 0 0 1-2.813-14.687h-40.625a62.504 62.504 0 0 0 6.563 29.688 69.065 69.065 0 0 0 17.5 21.562 79.08 79.08 0 0 0 25.625 12.813 93.693 93.693 0 0 0 31.25 4.687 105.27 105.27 0 0 0 31.25-4.688 76.263 76.263 0 0 0 25.937-13.75 62.517 62.517 0 0 0 17.188-22.5 73.146 73.146 0 0 0 6.25-31.25 65.637 65.637 0 0 0-2.188-17.5 52.264 52.264 0 0 0-7.187-15.937 56.249 56.249 0 0 0-12.5-13.438 64.36 64.36 0 0 0-19.063-9.687 65.575 65.575 0 0 0 16.25-10.313 64.72 64.72 0 0 0 11.563-13.125 55.026 55.026 0 0 0 6.875-14.375 49.668 49.668 0 0 0 2.187-15 75.576 75.576 0 0 0-5.625-31.25 55.644 55.644 0 0 0-15.937-21.562 64.386 64.386 0 0 0-24.063-13.438 113.802 113.802 0 0 0-31.25-4.375 93.721 93.721 0 0 0-31.25 5 79.392 79.392 0 0 0-24.687 14.063A70.333 70.333 0 0 0 189.219 290a62.535 62.535 0 0 0-5.625 26.563h40.625a33.112 33.112 0 0 1 2.812-14.063 29.362 29.362 0 0 1 7.813-10.625A37.17 37.17 0 0 1 246.719 285a45.638 45.638 0 0 1 16.25-3.75 35.94 35.94 0 0 1 27.812 9.688 37.8 37.8 0 0 1 9.063 26.875 47.79 47.79 0 0 1-2.5 15.312 27.19 27.19 0 0 1-7.813 11.563 39.684 39.684 0 0 1-12.812 7.5A52.543 52.543 0 0 1 258.594 355H234.53v31.25h24.063a70.241 70.241 0 0 1 18.75 2.188 37.512 37.512 0 0 1 14.062 7.187 36.923 36.923 0 0 1 9.063 12.5 44.375 44.375 0 0 1 3.125 17.813A37.488 37.488 0 0 1 292.656 455a40.001 40.001 0 0 1-29.687 13.75zM235.156 672.5C130.242 623.012 59.293 521.758 48.594 406.25H1.719C17.96 600.465 180.266 749.867 375.156 750h20.625L276.72 630zm0 0"/></svg>
