<svg width="16" height="16" viewBox="0 0 16 16" fill="currentColor" xmlns="http://www.w3.org/2000/svg">
<path d="M7.72301 6.98287C8.05824 6.98287 8.37784 7.04679 8.68182 7.17463C8.9858 7.30247 9.24858 7.48429 9.47017 7.72008C9.39915 7.21156 9.26136 6.7769 9.05682 6.4161C8.85227 6.05531 8.60085 5.77832 8.30256 5.58514C8.00426 5.39196 7.68182 5.29537 7.33523 5.29537C7.05682 5.29537 6.79119 5.32235 6.53835 5.37633C6.28835 5.43031 6.03125 5.50559 5.76705 5.60218L5.60938 4.55389C5.86506 4.44309 6.13068 4.34934 6.40625 4.27264C6.68182 4.19309 7.03551 4.15332 7.46733 4.15332C8.20597 4.15332 8.82102 4.34934 9.3125 4.74139C9.80682 5.13343 10.1761 5.68741 10.4205 6.40332C10.6676 7.11639 10.7912 7.95304 10.7912 8.91326V9.25417C10.794 9.99849 10.6776 10.6618 10.4418 11.2442C10.2088 11.8266 9.87216 12.2854 9.43182 12.6207C8.99432 12.953 8.46733 13.1192 7.85085 13.1192C7.24858 13.1192 6.73011 12.9843 6.29545 12.7144C5.86364 12.4445 5.53125 12.0752 5.2983 11.6064C5.06818 11.1377 4.95312 10.6079 4.95312 10.017V9.88059C4.95312 9.32093 5.0625 8.82378 5.28125 8.38912C5.5 7.95162 5.81534 7.60787 6.22727 7.35787C6.64205 7.10787 7.14062 6.98287 7.72301 6.98287ZM7.89347 8.0823C7.52699 8.0823 7.22727 8.16468 6.99432 8.32946C6.7642 8.49423 6.59375 8.71582 6.48295 8.99423C6.375 9.2698 6.32102 9.57662 6.32102 9.91468V10.0425C6.32102 10.4062 6.375 10.7371 6.48295 11.0354C6.59375 11.3337 6.76136 11.5724 6.9858 11.7513C7.21307 11.9303 7.50426 12.0198 7.85938 12.0198C8.21733 12.0198 8.50994 11.9161 8.73722 11.7087C8.96733 11.4985 9.13778 11.2116 9.24858 10.8479C9.35938 10.4843 9.41477 10.0738 9.41477 9.61639V9.12207C9.38352 8.99991 9.31108 8.85787 9.19744 8.69593C9.08665 8.534 8.92472 8.39196 8.71165 8.2698C8.49858 8.1448 8.22585 8.0823 7.89347 8.0823Z" fill="currentColor"/>
</svg>
