<svg width="24" height="24" viewBox="0 0 24 24" fill="none" xmlns="http://www.w3.org/2000/svg">
<path d="M17.25 18H6.75V6H8.25V8.25H15.75V6H17.25V18ZM12 4.5C12.1989 4.5 12.3897 4.57902 12.5303 4.71967C12.671 4.86032 12.75 5.05109 12.75 5.25C12.75 5.44891 12.671 5.63968 12.5303 5.78033C12.3897 5.92098 12.1989 6 12 6C11.8011 6 11.6103 5.92098 11.4697 5.78033C11.329 5.63968 11.25 5.44891 11.25 5.25C11.25 5.05109 11.329 4.86032 11.4697 4.71967C11.6103 4.57902 11.8011 4.5 12 4.5ZM17.25 4.5H14.115C13.8 3.63 12.975 3 12 3C11.025 3 10.2 3.63 9.885 4.5H6.75C6.35217 4.5 5.97064 4.65803 5.68934 4.93934C5.40804 5.22064 5.25 5.60217 5.25 6V18C5.25 18.3978 5.40804 18.7794 5.68934 19.0607C5.97064 19.342 6.35217 19.5 6.75 19.5H17.25C17.6478 19.5 18.0294 19.342 18.3107 19.0607C18.592 18.7794 18.75 18.3978 18.75 18V6C18.75 5.60217 18.592 5.22064 18.3107 4.93934C18.0294 4.65803 17.6478 4.5 17.25 4.5Z" fill="currentcolor"/>
</svg>
