<svg width="24" height="24" viewBox="0 0 24 24" fill="none" xmlns="http://www.w3.org/2000/svg">
<path d="M10.832 20.77H9.83203V14.23H12.017C12.125 14.23 13.061 14.246 13.691 14.875C13.8645 15.0532 14.0005 15.2644 14.0908 15.4961C14.1812 15.7279 14.2241 15.9754 14.217 16.224C14.217 17.707 12.911 18.246 12.033 18.247H10.833L10.832 20.77ZM10.832 17.247H12.032C12.232 17.247 13.216 17.184 13.216 16.224C13.216 15.288 12.216 15.232 12.016 15.23H10.832V17.247Z" fill="#333333"/>
<path d="M19.8834 14.23V15.23H18.0154V20.77H17.0154V15.23H15.1484V14.23H19.8834Z" fill="#333333"/>
<path d="M19.1815 3H16.1195C15.7882 3 15.5195 3.26863 15.5195 3.6V6.662C15.5195 6.99337 15.7882 7.262 16.1195 7.262H19.1815C19.5129 7.262 19.7815 6.99337 19.7815 6.662V3.6C19.7815 3.26863 19.5129 3 19.1815 3Z" fill="#333333"/>
<path d="M13.4237 3H10.3617C10.0303 3 9.76172 3.26863 9.76172 3.6V6.662C9.76172 6.99337 10.0303 7.262 10.3617 7.262H13.4237C13.7551 7.262 14.0237 6.99337 14.0237 6.662V3.6C14.0237 3.26863 13.7551 3 13.4237 3Z" fill="#333333"/>
<path d="M7.662 3H4.6C4.26863 3 4 3.26863 4 3.6V6.662C4 6.99337 4.26863 7.262 4.6 7.262H7.662C7.99337 7.262 8.262 6.99337 8.262 6.662V3.6C8.262 3.26863 7.99337 3 7.662 3Z" fill="#333333"/>
<path d="M19.1815 8.61377H16.1195C15.7882 8.61377 15.5195 8.8824 15.5195 9.21377V12.2758C15.5195 12.6071 15.7882 12.8758 16.1195 12.8758H19.1815C19.5129 12.8758 19.7815 12.6071 19.7815 12.2758V9.21377C19.7815 8.8824 19.5129 8.61377 19.1815 8.61377Z" fill="#333333"/>
<path d="M13.4237 8.61377H10.3617C10.0303 8.61377 9.76172 8.8824 9.76172 9.21377V12.2758C9.76172 12.6071 10.0303 12.8758 10.3617 12.8758H13.4237C13.7551 12.8758 14.0237 12.6071 14.0237 12.2758V9.21377C14.0237 8.8824 13.7551 8.61377 13.4237 8.61377Z" fill="#333333"/>
<path d="M7.662 8.61377H4.6C4.26863 8.61377 4 8.8824 4 9.21377V12.2758C4 12.6071 4.26863 12.8758 4.6 12.8758H7.662C7.99337 12.8758 8.262 12.6071 8.262 12.2758V9.21377C8.262 8.8824 7.99337 8.61377 7.662 8.61377Z" fill="#333333"/>
<path d="M7.662 14.229H4.6C4.26863 14.229 4 14.4976 4 14.829V17.891C4 18.2224 4.26863 18.491 4.6 18.491H7.662C7.99337 18.491 8.262 18.2224 8.262 17.891V14.829C8.262 14.4976 7.99337 14.229 7.662 14.229Z" fill="#333333"/>
</svg>
