<svg width="24" height="24" viewBox="0 0 24 24" fill="none" xmlns="http://www.w3.org/2000/svg">
<path d="M14.485 14.3477V15.3477H12.617V20.8877H11.617V15.3477H9.75V14.3477H14.485Z" fill="#333333"/>
<path d="M19.2909 3.11816H16.2289C15.8975 3.11816 15.6289 3.38679 15.6289 3.71816V6.78016C15.6289 7.11154 15.8975 7.38017 16.2289 7.38017H19.2909C19.6223 7.38017 19.8909 7.11154 19.8909 6.78016V3.71816C19.8909 3.38679 19.6223 3.11816 19.2909 3.11816Z" fill="#333333"/>
<path d="M13.5292 3.11816H10.4672C10.1358 3.11816 9.86719 3.38679 9.86719 3.71816V6.78016C9.86719 7.11154 10.1358 7.38017 10.4672 7.38017H13.5292C13.8606 7.38017 14.1292 7.11154 14.1292 6.78016V3.71816C14.1292 3.38679 13.8606 3.11816 13.5292 3.11816Z" fill="#333333"/>
<path d="M7.77137 3.11816H4.70937C4.378 3.11816 4.10938 3.38679 4.10938 3.71816V6.78016C4.10938 7.11154 4.378 7.38017 4.70937 7.38017H7.77137C8.10274 7.38017 8.37137 7.11154 8.37137 6.78016V3.71816C8.37137 3.38679 8.10274 3.11816 7.77137 3.11816Z" fill="#333333"/>
<path d="M19.2909 8.73193H16.2289C15.8975 8.73193 15.6289 9.00056 15.6289 9.33193V12.3939C15.6289 12.7253 15.8975 12.9939 16.2289 12.9939H19.2909C19.6223 12.9939 19.8909 12.7253 19.8909 12.3939V9.33193C19.8909 9.00056 19.6223 8.73193 19.2909 8.73193Z" fill="#333333"/>
<path d="M13.5292 8.73193H10.4672C10.1358 8.73193 9.86719 9.00056 9.86719 9.33193V12.3939C9.86719 12.7253 10.1358 12.9939 10.4672 12.9939H13.5292C13.8606 12.9939 14.1292 12.7253 14.1292 12.3939V9.33193C14.1292 9.00056 13.8606 8.73193 13.5292 8.73193Z" fill="#333333"/>
<path d="M7.77137 8.73193H4.70938C4.378 8.73193 4.10938 9.00056 4.10938 9.33193V12.3939C4.10938 12.7253 4.378 12.9939 4.70938 12.9939H7.77137C8.10275 12.9939 8.37137 12.7253 8.37137 12.3939V9.33193C8.37137 9.00056 8.10275 8.73193 7.77137 8.73193Z" fill="#333333"/>
<path d="M7.77137 14.3467H4.70938C4.378 14.3467 4.10938 14.6153 4.10938 14.9467V18.0087C4.10938 18.34 4.378 18.6087 4.70938 18.6087H7.77137C8.10275 18.6087 8.37137 18.34 8.37137 18.0087V14.9467C8.37137 14.6153 8.10275 14.3467 7.77137 14.3467Z" fill="#333333"/>
<path d="M15.75 20.9133V14.25H17.7955C18.2145 14.25 18.5661 14.3281 18.8501 14.4844C19.136 14.6406 19.3517 14.8555 19.4973 15.1289C19.6447 15.4006 19.7184 15.7095 19.7184 16.0558C19.7184 16.4055 19.6447 16.7163 19.4973 16.9879C19.35 17.2596 19.1325 17.4735 18.8448 17.6298C18.5572 17.7843 18.2029 17.8615 17.7821 17.8615H16.4265V17.0492H17.649C17.894 17.0492 18.0946 17.0066 18.2509 16.9213C18.4071 16.8361 18.5225 16.7189 18.5971 16.5698C18.6735 16.4206 18.7116 16.2493 18.7116 16.0558C18.7116 15.8622 18.6735 15.6918 18.5971 15.5444C18.5225 15.397 18.4062 15.2825 18.2482 15.2008C18.092 15.1174 17.8904 15.0756 17.6436 15.0756H16.7381V20.9133H15.75Z" fill="#333333"/>
</svg>
