<?xml version="1.0" encoding="UTF-8" standalone="no"?>
<svg
   xmlns:dc="http://purl.org/dc/elements/1.1/"
   xmlns:cc="http://creativecommons.org/ns#"
   xmlns:rdf="http://www.w3.org/1999/02/22-rdf-syntax-ns#"
   xmlns:svg="http://www.w3.org/2000/svg"
   xmlns="http://www.w3.org/2000/svg"
   xmlns:sodipodi="http://sodipodi.sourceforge.net/DTD/sodipodi-0.dtd"
   xmlns:inkscape="http://www.inkscape.org/namespaces/inkscape"
   width="1000"
   height="1000"
   viewBox="-125 -125 1000 1000"
   version="1.1"
   id="svg4"
   sodipodi:docname="reaction-arrow-equilibrium-filled-half-bow.svg"
   inkscape:version="1.0.2-2 (e86c870879, 2021-01-15)">
  <metadata
     id="metadata10">
    <rdf:RDF>
      <cc:Work
         rdf:about="">
        <dc:format>image/svg+xml</dc:format>
        <dc:type
           rdf:resource="http://purl.org/dc/dcmitype/StillImage" />
      </cc:Work>
    </rdf:RDF>
  </metadata>
  <defs
     id="defs8" />
  <sodipodi:namedview
     pagecolor="#ffffff"
     bordercolor="#666666"
     borderopacity="1"
     objecttolerance="10"
     gridtolerance="10"
     guidetolerance="10"
     inkscape:pageopacity="0"
     inkscape:pageshadow="2"
     inkscape:window-width="1920"
     inkscape:window-height="1001"
     id="namedview6"
     showgrid="false"
     inkscape:zoom="0.83"
     inkscape:cx="500"
     inkscape:cy="462.6506"
     inkscape:window-x="-9"
     inkscape:window-y="-9"
     inkscape:window-maximized="1"
     inkscape:current-layer="svg4"
     inkscape:document-rotation="0" />
  <path
     d="m 770.72605,302.11695 c 0,-1.16247 -0.72031,-3.25491 -1.57155,-4.64991 C 768.30335,296.07209 705.90288,226.32362 630.47234,142.16046 555.10726,58.22981 493.0342,-11.053711 492.57585,-11.518691 c -0.5893,-0.929999 39.08206,67.439427 55.5458,138.320651 l 12.13294,52.23589 -226.72461,0.0893 c -87.02016,0.92999 -197.93975,1.62744 -246.524358,1.62744 h -88.26428 v 54.63635 c 0,34.87419 0.26191999,54.63628 0.65476999,54.63628 0.32738,0 0.65477003,3.25493 0.65477003,6.97482 v 6.97486 H 385.38849 c 211.95202,0 385.33756,-0.92997 385.33756,-1.85996 z"
     id="path4-4-6-6"
     style="stroke-width:0.123383"
     sodipodi:nodetypes="ssccsccscssscss" />
  <path
     d="m -12.292313,450.29267 c 0,1.16249 0.72031,3.25491 1.57155,4.64992 0.8511498,1.39495 63.2516,71.14341 138.682143,155.30657 75.36508,83.93065 137.43815,153.21418 137.89649,153.67916 0.5893,0.92999 -39.08206,-67.43942 -55.5458,-138.32065 l -12.13294,-52.2359 226.72462,-0.0893 c 87.02015,-0.92999 197.93974,-1.62745 246.52434,-1.62745 h 88.26429 v -54.63637 c 0,-34.8742 -0.26193,-54.63629 -0.65478,-54.63629 -0.32738,0 -0.65477,-3.25491 -0.65477,-6.97482 v -6.97482 h -385.3376 c -211.95202,0 -385.337543,0.92997 -385.337543,1.85995 z"
     id="path4-4-6-6-6"
     style="stroke-width:0.123383"
     sodipodi:nodetypes="ssccsccscssscss" />
</svg>
