<?xml version="1.0" encoding="UTF-8" standalone="no"?>
<svg
   xmlns:dc="http://purl.org/dc/elements/1.1/"
   xmlns:cc="http://creativecommons.org/ns#"
   xmlns:rdf="http://www.w3.org/1999/02/22-rdf-syntax-ns#"
   xmlns:svg="http://www.w3.org/2000/svg"
   xmlns="http://www.w3.org/2000/svg"
   xmlns:sodipodi="http://sodipodi.sourceforge.net/DTD/sodipodi-0.dtd"
   xmlns:inkscape="http://www.inkscape.org/namespaces/inkscape"
   width="1000"
   height="1000"
   viewBox="-125 -125 1000 1000"
   version="1.1"
   id="svg4"
   sodipodi:docname="reaction-arrow-unbalanced-equilibrium-filled-half-triangle.svg"
   inkscape:version="1.0.2-2 (e86c870879, 2021-01-15)">
  <metadata
     id="metadata10">
    <rdf:RDF>
      <cc:Work
         rdf:about="">
        <dc:format>image/svg+xml</dc:format>
        <dc:type
           rdf:resource="http://purl.org/dc/dcmitype/StillImage" />
      </cc:Work>
    </rdf:RDF>
  </metadata>
  <defs
     id="defs8" />
  <sodipodi:namedview
     pagecolor="#ffffff"
     bordercolor="#666666"
     borderopacity="1"
     objecttolerance="10"
     gridtolerance="10"
     guidetolerance="10"
     inkscape:pageopacity="0"
     inkscape:pageshadow="2"
     inkscape:window-width="1920"
     inkscape:window-height="1001"
     id="namedview6"
     showgrid="false"
     inkscape:zoom="0.415"
     inkscape:cx="378.10699"
     inkscape:cy="77.278647"
     inkscape:window-x="-9"
     inkscape:window-y="-9"
     inkscape:window-maximized="1"
     inkscape:current-layer="svg4" />
  <path
     d="m 784.93218,289.26904 c 0,-1.07637 -0.76642,-3.01379 -1.67214,-4.30545 C 782.35441,283.67197 715.95989,219.09038 635.70128,141.16192 555.51232,63.44873 489.46616,-0.70235547 488.97848,-1.1328915 488.35145,-1.9939965 496.46141,60.254236 498.682,128.14598 l 1.46374,44.75185 -180.39315,2.49234 c -92.59004,0.86109 -210.60925,1.50688 -262.303601,1.50688 h -93.913795 v 50.58896 c 0,32.29075 0.278685,50.58889 0.69668,50.58889 0.348334,0 0.69668,3.01381 0.69668,6.45813 v 6.45818 H 374.9304 c 225.51838,0 410.00178,-0.86108 410.00178,-1.72218 z"
     id="path4-4-6-6"
     style="stroke-width:0.122466"
     sodipodi:nodetypes="ssccsccscssscsss" />
  <path
     d="m 108.1915,459.65744 c 0,1.10523 0.47934,3.09456 1.04581,4.42085 0.56642,1.32622 47.13054,65.7798 100.73502,140.68521 56.96865,69.1468 83.01464,104.35468 83.31965,104.79675 0.39216,0.88417 0.067,-15.80202 0.0952,-84.07626 l 0.0193,-46.68083 105.72575,-2.21474 c 57.90925,-0.88417 131.72288,-1.54727 164.05445,-1.54727 h 58.73719 v -51.94483 c 0,-33.1562 -0.1743,-51.94476 -0.43573,-51.94476 -0.21786,0 -0.43573,-3.09456 -0.43573,-6.63123 v -6.63122 H 364.62192 c -141.04763,0 -256.43042,0.88417 -256.43042,1.76834 z"
     id="path4-4-6-6-6"
     style="stroke-width:0.0981407"
     sodipodi:nodetypes="ssccsccscssscsss" />
</svg>
