<?xml version="1.0" encoding="UTF-8" standalone="no"?>
<svg
   width="1000"
   height="1000"
   viewBox="-125 -125 1000 1000"
   version="1.1"
   id="svg4"
   sodipodi:docname="reaction-arrow-elliptical-arc-arrow-filled-bow.svg"
   inkscape:version="1.1.1 (3bf5ae0d25, 2021-09-20)"
   xmlns:inkscape="http://www.inkscape.org/namespaces/inkscape"
   xmlns:sodipodi="http://sodipodi.sourceforge.net/DTD/sodipodi-0.dtd"
   xmlns="http://www.w3.org/2000/svg"
   xmlns:svg="http://www.w3.org/2000/svg"
   xmlns:rdf="http://www.w3.org/1999/02/22-rdf-syntax-ns#"
   xmlns:cc="http://creativecommons.org/ns#"
   xmlns:dc="http://purl.org/dc/elements/1.1/">
  <metadata
     id="metadata10">
    <rdf:RDF>
      <cc:Work
         rdf:about="">
        <dc:format>image/svg+xml</dc:format>
        <dc:type
           rdf:resource="http://purl.org/dc/dcmitype/StillImage" />
      </cc:Work>
    </rdf:RDF>
  </metadata>
  <defs
     id="defs8" />
  <sodipodi:namedview
     pagecolor="#ffffff"
     bordercolor="#666666"
     borderopacity="1"
     objecttolerance="10"
     gridtolerance="10"
     guidetolerance="10"
     inkscape:pageopacity="0"
     inkscape:pageshadow="2"
     inkscape:window-width="1920"
     inkscape:window-height="1017"
     id="namedview6"
     showgrid="false"
     inkscape:zoom="2.8284271"
     inkscape:cx="749.35641"
     inkscape:cy="616.42033"
     inkscape:window-x="-8"
     inkscape:window-y="-8"
     inkscape:window-maximized="1"
     inkscape:current-layer="svg4"
     inkscape:pagecheckerboard="0" />
  <path
     style="fill:none;stroke:#000000;stroke-width:1.32801px;stroke-linecap:butt;stroke-linejoin:miter;stroke-opacity:1"
     d="m 251.02256,538.9665 c 166.2891,-618.130368 300.84051,2.24738 300.84051,2.24738"
     id="path3604" />
  <path
     style="fill:none;stroke:#000000;stroke-width:1.46125px;stroke-linecap:butt;stroke-linejoin:miter;stroke-opacity:1"
     d="m 552.1481,542.29859 -8.80429,-6.95842 12.00583,23.44677 1.28062,-25.56455 z"
     id="path4990" />
  <path
     style="fill:#000000;stroke-width:0.026623"
     d="m 675.16508,672.02395 c -2.5153,-4.91278 -4.56993,-8.9353 -4.56585,-8.93894 0.004,-0.004 0.91836,0.71383 2.03172,1.59439 4.21774,3.3358 4.76457,3.76571 4.77873,3.75696 0.008,-0.005 0.75081,-1.50046 1.65069,-3.32337 0.89988,-1.8229 1.63826,-3.31225 1.64084,-3.30967 0.006,0.006 -0.94429,18.98309 -0.95523,19.0831 -0.005,0.0501 -1.29793,-2.45029 -4.5809,-8.86247 z"
     id="path5672"
     transform="translate(-125,-125)" />
</svg>
