<?xml version="1.0" encoding="UTF-8" standalone="no"?>
<svg
   xmlns:dc="http://purl.org/dc/elements/1.1/"
   xmlns:cc="http://creativecommons.org/ns#"
   xmlns:rdf="http://www.w3.org/1999/02/22-rdf-syntax-ns#"
   xmlns:svg="http://www.w3.org/2000/svg"
   xmlns="http://www.w3.org/2000/svg"
   xmlns:sodipodi="http://sodipodi.sourceforge.net/DTD/sodipodi-0.dtd"
   xmlns:inkscape="http://www.inkscape.org/namespaces/inkscape"
   width="1000"
   height="1000"
   viewBox="-125 -125 1000 1000"
   version="1.1"
   id="svg4"
   sodipodi:docname="reaction-arrow-unbalanced-equilibrium-filled-half-bow.svg"
   inkscape:version="1.0.2-2 (e86c870879, 2021-01-15)">
  <metadata
     id="metadata10">
    <rdf:RDF>
      <cc:Work
         rdf:about="">
        <dc:format>image/svg+xml</dc:format>
        <dc:type
           rdf:resource="http://purl.org/dc/dcmitype/StillImage" />
      </cc:Work>
    </rdf:RDF>
  </metadata>
  <defs
     id="defs8" />
  <sodipodi:namedview
     pagecolor="#ffffff"
     bordercolor="#666666"
     borderopacity="1"
     objecttolerance="10"
     gridtolerance="10"
     guidetolerance="10"
     inkscape:pageopacity="0"
     inkscape:pageshadow="2"
     inkscape:window-width="1920"
     inkscape:window-height="1001"
     id="namedview6"
     showgrid="false"
     inkscape:zoom="0.415"
     inkscape:cx="332.49325"
     inkscape:cy="111.22375"
     inkscape:window-x="-9"
     inkscape:window-y="-9"
     inkscape:window-maximized="1"
     inkscape:current-layer="svg4" />
  <path
     d="m 767.714,314.43506 c 0,-0.99379 -0.72031,-2.78259 -1.57155,-3.97516 C 765.2913,309.26737 702.89083,249.64015 627.46029,177.68996 552.09521,105.93853 490.02215,46.708785 489.5638,46.311278 c -0.5893,-0.795046 39.08206,57.653252 55.5458,118.248862 l 12.13294,44.6559 -226.72461,0.0763 c -87.02016,0.79503 -197.93975,1.39128 -246.524357,1.39128 H -4.2707071 v 46.70803 c 0,29.81357 0.26192,46.70797 0.65477,46.70797 0.32738,0 0.65477,2.78261 0.65477,5.9627 v 5.96274 H 382.37644 c 211.95202,0 385.33756,-0.79502 385.33756,-1.59006 z"
     id="path4-4-6-6"
     style="stroke-width:0.11408"
     sodipodi:nodetypes="ssccsccscssscss" />
  <path
     d="m 131.6836,471.75214 c 0,1.02044 0.4505,2.85717 0.9829,4.08171 0.53234,1.22448 39.55991,62.4498 86.73699,136.32835 47.13613,73.67446 85.95895,89.91334 86.24561,90.3215 0.36857,0.81634 -24.44338,-14.62012 -34.74041,-76.83978 l -7.5884,-45.85275 141.80205,-0.0784 c 54.42565,-0.81634 123.79891,-1.42857 154.18553,-1.42857 h 55.20378 v -47.95989 c 0,-30.61263 -0.16382,-47.95982 -0.40952,-47.95982 -0.20476,0 -0.40952,-2.85717 -0.40952,-6.12252 v -6.1225 H 372.68808 c -132.56271,0 -241.00448,0.81633 -241.00448,1.63267 z"
     id="path4-4-6-6-6"
     style="stroke-width:0.0914208"
     sodipodi:nodetypes="ssccsccscssscss" />
</svg>
