<svg version="1.0" xmlns="http://www.w3.org/2000/svg" width="1200.000000pt" height="585.000000pt" viewBox="0 0 1200.000000 585.000000" preserveAspectRatio="xMidYMid meet"><g transform="translate(0.000000,585.000000) scale(0.100000,-0.100000)" fill="#000000" stroke="none"><path d="M7650 4609 l0 -469 -3790 0 -3790 0 0 -214 c0 -117 3 -234 6 -260 l7 -46 5945 0 c3637 0 5942 4 5937 9 -25 24 -338 131 -2055 699 -1015 337 -1938 643 -2052 681 l-208 70 0 -470z"/><path d="M130 2262 c0 -5 11 -14 24 -20 13 -6 966 -306 2118 -668 1151 -361 2099 -659 2106 -661 9 -4 12 81 12 404 l0 410 2417 6 c1329 4 3023 7 3765 7 l1348 0 0 235 c0 150 -4 235 -10 235 -5 0 -10 14 -10 30 l0 30 -5885 0 c-3237 0 -5885 -4 -5885 -8z"/></g></svg>
