<?xml version="1.0" encoding="UTF-8" standalone="no"?>
<svg
   xmlns:dc="http://purl.org/dc/elements/1.1/"
   xmlns:cc="http://creativecommons.org/ns#"
   xmlns:rdf="http://www.w3.org/1999/02/22-rdf-syntax-ns#"
   xmlns:svg="http://www.w3.org/2000/svg"
   xmlns="http://www.w3.org/2000/svg"
   xmlns:sodipodi="http://sodipodi.sourceforge.net/DTD/sodipodi-0.dtd"
   xmlns:inkscape="http://www.inkscape.org/namespaces/inkscape"
   width="1000"
   height="1000"
   viewBox="-125 -125 1000 1000"
   version="1.1"
   id="svg4"
   sodipodi:docname="reaction-arrow-unbalanced-equilibrium-large-filled-half-bow.svg"
   inkscape:version="1.0.2-2 (e86c870879, 2021-01-15)">
  <metadata
     id="metadata10">
    <rdf:RDF>
      <cc:Work
         rdf:about="">
        <dc:format>image/svg+xml</dc:format>
        <dc:type
           rdf:resource="http://purl.org/dc/dcmitype/StillImage" />
      </cc:Work>
    </rdf:RDF>
  </metadata>
  <defs
     id="defs8" />
  <sodipodi:namedview
     pagecolor="#ffffff"
     bordercolor="#666666"
     borderopacity="1"
     objecttolerance="10"
     gridtolerance="10"
     guidetolerance="10"
     inkscape:pageopacity="0"
     inkscape:pageshadow="2"
     inkscape:window-width="1920"
     inkscape:window-height="1001"
     id="namedview6"
     showgrid="false"
     inkscape:zoom="0.415"
     inkscape:cx="429.03467"
     inkscape:cy="592.06679"
     inkscape:window-x="-9"
     inkscape:window-y="-9"
     inkscape:window-maximized="1"
     inkscape:current-layer="svg4" />
  <path
     d="m 871.83573,283.93512 c 0,-1.28938 -0.91592,-3.61023 -1.99832,-5.15751 -1.0823,-1.54724 -80.4281,-78.90974 -176.34241,-172.2605 C 597.66394,13.424206 518.73445,-63.422597 518.15164,-63.938337 c -0.74933,-1.031521 49.69509,74.801407 70.62968,153.420338 l 15.42774,57.938169 -288.29347,0.099 c -110.65117,1.0315 -251.691854,1.8051 -313.4699837,1.8051 H -109.78754 v 60.60068 c 0,38.6812 0.33305,60.6006 0.83258,60.6006 0.41629,0 0.83258,3.61026 0.83258,7.73622 v 7.73628 h 489.97907 c 269.50926,0 489.97903,-1.03149 489.97903,-2.063 z"
     id="path4-4-6-6"
     style="stroke-width:0.146528"
     sodipodi:nodetypes="ssccsccscssscss" />
  <path
     d="m 63.086239,488.04397 c 0,1.32396 0.572839,3.70699 1.249814,5.29576 0.676905,1.58868 50.302717,81.02462 110.291107,176.87732 59.93632,95.5879 109.30179,116.65681 109.66629,117.18636 0.46865,1.05915 -31.08118,-18.96867 -44.17445,-99.6947 l -9.64909,-59.49101 180.30952,-0.10171 c 69.20537,-1.05915 157.41748,-1.85348 196.05583,-1.85348 h 70.19481 v -62.22489 c 0,-39.71793 -0.20832,-62.2248 -0.52074,-62.2248 -0.26036,0 -0.52072,-3.707 -0.52072,-7.94358 v -7.94355 H 369.53739 c -168.56118,0 -306.451151,1.05914 -306.451151,2.11828 z"
     id="path4-4-6-6-6"
     style="stroke-width:0.117424"
     sodipodi:nodetypes="ssccsccscssscss" />
</svg>
