<svg width="32" height="32" viewBox="0 0 32 32" fill="none" xmlns="http://www.w3.org/2000/svg">
<path d="M27.9272 22.052H25.2605V11.2813H22.8525V8.61465H27.9272V22.052Z" fill="#231F20"/>
<path d="M19.3963 16.176C20.8536 15.5093 21.7576 14.2533 21.7576 12.6947C21.7576 11.228 21.0616 10.0173 19.8003 9.30401C18.7003 8.68268 17.4989 8.61601 17.0349 8.61601H11.7803V22.052H14.4469V16.6933C15.1896 16.6933 16.0816 16.6933 16.6909 16.6933L19.2243 22.0547H22.1736L19.3963 16.176ZM14.4469 14.0267V11.2827H17.0349C17.5393 11.2795 18.0372 11.397 18.4869 11.6253C18.9163 11.868 19.0909 12.1773 19.0909 12.692C19.0909 13.6947 17.7229 13.996 16.9989 14.0147C16.4749 14.032 15.3496 14.0307 14.4469 14.0267Z" fill="#231F20"/>
<path d="M6.3492 19.1373L4.46387 17.2507L6.41187 15.304L4.46387 13.356L6.3492 11.4693L10.1825 15.304L6.3492 19.1373Z" fill="#231F20"/>
</svg>
