<svg width="17" height="17" viewBox="0 0 17 17" fill="none" xmlns="http://www.w3.org/2000/svg">
<path fill-rule="evenodd" clip-rule="evenodd" d="M6.67969 0.928711C3.50405 0.928711 0.929688 3.50307 0.929688 6.67871C0.929688 9.85435 3.50405 12.4287 6.67969 12.4287C7.90629 12.4287 9.04318 12.0446 9.97667 11.3902L15.3646 16.7781L16.7788 15.3639L11.3909 9.97603C12.0455 9.04248 12.4297 7.90546 12.4297 6.67871C12.4297 3.50307 9.85532 0.928711 6.67969 0.928711ZM2.92969 6.67871C2.92969 4.60764 4.60862 2.92871 6.67969 2.92871C8.75075 2.92871 10.4297 4.60764 10.4297 6.67871C10.4297 8.74978 8.75075 10.4287 6.67969 10.4287C4.60862 10.4287 2.92969 8.74978 2.92969 6.67871Z" fill="currentColor"/>
</svg>
