<svg width="16" height="16" viewBox="0 0 16 16" fill="none" xmlns="http://www.w3.org/2000/svg">
<path d="M8.00004 8.00004C11.0376 8.00004 13.5001 6.65689 13.5001 5.00002C13.5001 3.34316 11.0376 2 8.00004 2C4.96245 2 2.5 3.34316 2.5 5.00002C2.5 6.65689 4.96245 8.00004 8.00004 8.00004Z" stroke="white" stroke-width="0.666671" stroke-linecap="round" stroke-linejoin="round"/>
<path d="M2.5 5V8.00002C2.5 9.65689 4.96245 11 8.00004 11C11.0376 11 13.5001 9.65689 13.5001 8.00002V5" stroke="white" stroke-width="0.666671" stroke-linecap="round" stroke-linejoin="round"/>
<path d="M2.5 8V11C2.5 12.6569 4.96245 14 8.00004 14C11.0376 14 13.5001 12.6569 13.5001 11V8" stroke="white" stroke-width="0.666671" stroke-linecap="round" stroke-linejoin="round"/>
</svg>
