<?xml version="1.0" encoding="UTF-8" standalone="no"?>
<!-- Generated by IcoMoon.io -->

<svg
   xmlns:dc="http://purl.org/dc/elements/1.1/"
   xmlns:cc="http://creativecommons.org/ns#"
   xmlns:rdf="http://www.w3.org/1999/02/22-rdf-syntax-ns#"
   xmlns:svg="http://www.w3.org/2000/svg"
   xmlns="http://www.w3.org/2000/svg"
   xmlns:sodipodi="http://sodipodi.sourceforge.net/DTD/sodipodi-0.dtd"
   xmlns:inkscape="http://www.inkscape.org/namespaces/inkscape"
   version="1.1"
   width="1000"
   height="1000"
   viewBox="0 0 1000 1000"
   id="svg2"
   inkscape:version="0.91 r13725"
   sodipodi:docname="settings.svg">
  <metadata
     id="metadata11">
    <rdf:RDF>
      <cc:Work
         rdf:about="">
        <dc:format>image/svg+xml</dc:format>
        <dc:type
           rdf:resource="http://purl.org/dc/dcmitype/StillImage" />
        <dc:title></dc:title>
      </cc:Work>
    </rdf:RDF>
  </metadata>
  <defs
     id="defs9" />
  <sodipodi:namedview
     pagecolor="#ffffff"
     bordercolor="#666666"
     borderopacity="1"
     objecttolerance="10"
     gridtolerance="10"
     guidetolerance="10"
     inkscape:pageopacity="0"
     inkscape:pageshadow="2"
     inkscape:window-width="1280"
     inkscape:window-height="974"
     id="namedview7"
     showgrid="false"
     inkscape:zoom="0.52678571"
     inkscape:cx="192"
     inkscape:cy="224"
     inkscape:window-x="0"
     inkscape:window-y="23"
     inkscape:window-maximized="1"
     inkscape:current-layer="svg2" />
  <g
     id="icomoon-ignore"
     transform="translate(0,552)" />
  <path
     d="m 666.66667,500 c 0,-91.79687 -74.8698,-166.66667 -166.66667,-166.66667 -91.79688,0 -166.66667,74.8698 -166.66667,166.66667 0,91.79687 74.86979,166.66667 166.66667,166.66667 91.79687,0 166.66667,-74.8698 166.66667,-166.66667 z M 1000,429.03646 l 0,144.53125 c 0,9.76562 -7.8125,21.48437 -18.22917,23.4375 l -120.44271,18.22916 c -7.16145,20.83334 -14.97395,40.36459 -25.39062,59.2448 22.13542,31.90104 45.57292,60.54687 69.66146,89.84375 3.90625,4.55729 6.51041,10.41666 6.51041,16.27604 0,5.85937 -1.95312,10.41666 -5.85937,14.97396 -15.625,20.83333 -103.51563,116.53645 -125.65104,116.53645 -5.85938,0 -11.71875,-2.60416 -16.92709,-5.85937 l -89.84375,-70.3125 c -18.8802,9.76562 -39.0625,18.22917 -59.24479,24.73958 -4.55729,39.71354 -8.46354,82.03125 -18.88021,121.09375 C 593.09896,992.1875 583.98437,1000 572.26562,1000 l -144.53125,0 c -11.71875,0 -22.13541,-8.46354 -23.4375,-19.53125 L 386.06771,860.67708 c -20.18229,-6.51041 -39.71354,-14.32291 -58.59375,-24.08854 L 235.67708,906.25 c -4.55729,3.90625 -10.41666,5.85937 -16.27604,5.85937 -5.85937,0 -11.71875,-2.60416 -16.27604,-7.16145 -34.50521,-31.25 -80.07812,-71.61459 -107.421875,-109.375 -3.255208,-4.5573 -4.557292,-9.76563 -4.557292,-14.97396 0,-5.85938 1.953125,-10.41667 5.208334,-14.97396 22.135413,-29.94792 46.223953,-58.59375 68.359373,-89.19271 -11.06771,-20.83333 -20.18229,-42.31771 -26.69271,-64.45312 L 18.880208,594.40104 C 7.8125,592.44792 0,582.03125 0,570.96354 L 0,426.43229 c 0,-9.76562 7.8125,-21.48437 17.578125,-23.4375 L 138.67187,384.76563 c 6.51042,-20.83334 14.97396,-40.36459 25.39063,-59.89584 -22.13542,-31.25 -45.57292,-60.54687 -69.661458,-89.84375 -3.90625,-4.55729 -6.510417,-9.76562 -6.510417,-15.625 0,-5.85937 2.604167,-10.41666 5.859375,-14.97396 15.625,-21.48437 103.51562,-116.536455 125.65104,-116.536455 5.85938,0 11.71875,2.604167 16.92708,6.510417 l 89.84375,69.661458 c 18.88021,-9.76562 39.0625,-18.22917 59.2448,-24.73958 4.55729,-39.713545 8.46354,-82.031253 18.8802,-121.093753 C 406.90104,7.8125 416.01562,0 427.73437,0 l 144.53125,0 c 11.71875,0 22.13542,8.463542 23.4375,19.53125 l 18.22917,119.79167 c 20.18229,6.51041 39.71354,14.32291 58.59375,24.08854 L 764.97396,93.75 c 3.90625,-3.90625 9.76562,-5.859375 15.625,-5.859375 5.85937,0 11.71875,2.604167 16.27604,6.510417 34.50521,31.901038 80.07812,72.265628 107.42187,110.677088 3.25521,3.90625 4.5573,9.11458 4.5573,14.32291 0,5.85938 -1.95313,10.41667 -5.20834,14.97396 -22.13541,29.94792 -46.22396,58.59375 -68.35937,89.19271 11.06771,20.83333 20.18229,42.31771 26.69271,63.80208 l 119.14062,18.22917 C 992.1875,407.55208 1000,417.96875 1000,429.03646 Z"
     id="path5"
     inkscape:connector-curvature="0" />
</svg>
