<svg width="32" height="32" viewBox="0 0 32 32" fill="none" xmlns="http://www.w3.org/2000/svg">
<path fill-rule="evenodd" clip-rule="evenodd" d="M11.3569 6.12527C11.6069 5.87522 11.9461 5.73474 12.2997 5.73474H19.6997C20.0533 5.73474 20.3925 5.87522 20.6425 6.12527L25.8745 11.3573C26.1246 11.6073 26.265 11.9465 26.265 12.3001V19.7001C26.265 20.0537 26.1246 20.3928 25.8745 20.6429L20.6425 25.8749C20.3925 26.1249 20.0533 26.2654 19.6997 26.2654H12.2997C11.9461 26.2654 11.6069 26.1249 11.3569 25.8749L6.1249 20.6429C5.87485 20.3928 5.73438 20.0537 5.73438 19.7001V12.3001C5.73438 11.9465 5.87485 11.6073 6.1249 11.3573L11.3569 6.12527ZM12.852 8.40141L8.40104 12.8524V19.1478L12.852 23.5987H19.1474L23.5984 19.1478V12.8524L19.1474 8.40141H12.852Z" fill="#231F20"/>
</svg>
