<svg width="24" height="24" viewBox="0 0 24 24" fill="none" xmlns="http://www.w3.org/2000/svg">
<path d="M7.44474 15.5H4.14632C3.78937 15.5 3.5 15.7686 3.5 16.1V19.162C3.5 19.4934 3.78937 19.762 4.14632 19.762H7.44474C7.80169 19.762 8.09106 19.4934 8.09106 19.162V16.1C8.09106 15.7686 7.80169 15.5 7.44474 15.5Z" fill="#333333"/>
<path d="M13.6518 15.5H10.3534C9.9964 15.5 9.70703 15.7686 9.70703 16.1V19.162C9.70703 19.4934 9.9964 19.762 10.3534 19.762H13.6518C14.0087 19.762 14.2981 19.4934 14.2981 19.162V16.1C14.2981 15.7686 14.0087 15.5 13.6518 15.5Z" fill="#333333"/>
<path d="M19.8549 15.5H16.5565C16.1995 15.5 15.9102 15.7686 15.9102 16.1V19.162C15.9102 19.4934 16.1995 19.762 16.5565 19.762H19.8549C20.2119 19.762 20.5012 19.4934 20.5012 19.162V16.1C20.5012 15.7686 20.2119 15.5 19.8549 15.5Z" fill="#333333"/>
<path d="M5 6.2666C4.72386 6.2666 4.5 6.04274 4.5 5.7666V5C4.5 4.72386 4.72386 4.5 5 4.5H11.2818C11.5579 4.5 11.7818 4.72386 11.7818 5V5.7666C11.7818 6.04274 11.5579 6.2666 11.2818 6.2666H9.66943C9.39328 6.2666 9.16942 6.49046 9.16942 6.7666V13C9.16942 13.2761 8.94557 13.5 8.66942 13.5H7.61656C7.34042 13.5 7.11656 13.2761 7.11656 13V6.7666C7.11656 6.49046 6.8927 6.2666 6.61656 6.2666H5Z" fill="#333333"/>
<path d="M13.2987 13.5C13.0226 13.5 12.7987 13.2761 12.7987 13V5C12.7987 4.72386 13.0226 4.5 13.2987 4.5H16.3576C17.0026 4.5 17.5593 4.63184 18.0277 4.89551C18.4988 5.15625 18.862 5.521 19.1172 5.98975C19.3724 6.45557 19.5 6.99756 19.5 7.61572C19.5 8.23682 19.3696 8.78027 19.1088 9.24609C18.8508 9.70898 18.482 10.0679 18.0024 10.3228C17.5229 10.5776 16.9536 10.7051 16.2945 10.7051H14.5986C14.3225 10.7051 14.0986 10.4812 14.0986 10.2051V9.49121C14.0986 9.21507 14.3225 8.99121 14.5986 8.99121H15.9075C16.2216 8.99121 16.4838 8.93408 16.6941 8.81982C16.9073 8.70557 17.0685 8.5459 17.1779 8.34082C17.2873 8.13281 17.342 7.89111 17.342 7.61572C17.342 7.3374 17.2873 7.09717 17.1779 6.89502C17.0685 6.68994 16.9073 6.53174 16.6941 6.42041C16.481 6.30908 16.2188 6.25342 15.9075 6.25342H15.3811C15.1049 6.25342 14.8811 6.47728 14.8811 6.75342V13C14.8811 13.2761 14.6572 13.5 14.3811 13.5H13.2987Z" fill="#333333"/>
</svg>
