<svg width="32" height="32" viewBox="0 0 32 32" fill="none" xmlns="http://www.w3.org/2000/svg">
<path fill-rule="evenodd" clip-rule="evenodd" d="M15.3329 4.53606C15.7455 4.29788 16.2538 4.29788 16.6663 4.53606L25.5943 9.69072C26.0068 9.9289 26.261 10.3691 26.261 10.8454V21.1548C26.261 21.6311 26.0068 22.0713 25.5943 22.3095L16.6663 27.4641C16.2538 27.7023 15.7455 27.7023 15.3329 27.4641L6.40494 22.3095C5.99241 22.0713 5.73828 21.6311 5.73828 21.1548V10.8454C5.73828 10.3691 5.99241 9.9289 6.40494 9.69072L15.3329 4.53606ZM8.40495 11.6152V20.385L15.9996 24.7698L23.5943 20.385V11.6152L15.9996 7.23036L8.40495 11.6152Z" fill="#231F20"/>
</svg>
