<svg width="32" height="32" viewBox="0 0 32 32" fill="none" xmlns="http://www.w3.org/2000/svg">
<path fill-rule="evenodd" clip-rule="evenodd" d="M15.4219 5.62533C15.7874 5.44935 16.2131 5.44935 16.5786 5.62533L24.0146 9.20533C24.3802 9.38135 24.6458 9.71431 24.7361 10.1099L26.5735 18.1579C26.6638 18.5535 26.569 18.9688 26.316 19.286L21.1693 25.7394C20.9163 26.0566 20.5327 26.2413 20.1269 26.2413H11.8736C11.4678 26.2413 11.0841 26.0566 10.8311 25.7394L5.68448 19.286C5.43146 18.9688 5.33669 18.5535 5.42701 18.1579L7.26434 10.1099C7.35466 9.71431 7.62023 9.38135 7.98585 9.20533L15.4219 5.62533ZM9.7212 11.3295L8.16972 18.1254L12.5156 23.5747H19.4848L23.8308 18.1254L22.2793 11.3295L16.0002 8.30649L9.7212 11.3295Z" fill="#231F20"/>
</svg>
