<svg width="24" height="24" viewBox="0 0 24 24" fill="none" xmlns="http://www.w3.org/2000/svg">
<path d="M14.3756 14.2295V15.2295H12.5076V20.7695H11.5076V15.2295H9.64062V14.2295H14.3756Z" fill="currentColor"/>
<path d="M19.1815 3H16.1195C15.7882 3 15.5195 3.26863 15.5195 3.6V6.662C15.5195 6.99337 15.7882 7.262 16.1195 7.262H19.1815C19.5129 7.262 19.7815 6.99337 19.7815 6.662V3.6C19.7815 3.26863 19.5129 3 19.1815 3Z" fill="currentColor"/>
<path d="M13.4198 3H10.3578C10.0264 3 9.75781 3.26863 9.75781 3.6V6.662C9.75781 6.99337 10.0264 7.262 10.3578 7.262H13.4198C13.7512 7.262 14.0198 6.99337 14.0198 6.662V3.6C14.0198 3.26863 13.7512 3 13.4198 3Z" fill="currentColor"/>
<path d="M7.662 3H4.6C4.26863 3 4 3.26863 4 3.6V6.662C4 6.99337 4.26863 7.262 4.6 7.262H7.662C7.99337 7.262 8.262 6.99337 8.262 6.662V3.6C8.262 3.26863 7.99337 3 7.662 3Z" fill="currentColor"/>
<path d="M19.1815 8.61377H16.1195C15.7882 8.61377 15.5195 8.8824 15.5195 9.21377V12.2758C15.5195 12.6071 15.7882 12.8758 16.1195 12.8758H19.1815C19.5129 12.8758 19.7815 12.6071 19.7815 12.2758V9.21377C19.7815 8.8824 19.5129 8.61377 19.1815 8.61377Z" fill="currentColor"/>
<path d="M13.4198 8.61377H10.3578C10.0264 8.61377 9.75781 8.8824 9.75781 9.21377V12.2758C9.75781 12.6071 10.0264 12.8758 10.3578 12.8758H13.4198C13.7512 12.8758 14.0198 12.6071 14.0198 12.2758V9.21377C14.0198 8.8824 13.7512 8.61377 13.4198 8.61377Z" fill="currentColor"/>
<path d="M7.662 8.61377H4.6C4.26863 8.61377 4 8.8824 4 9.21377V12.2758C4 12.6071 4.26863 12.8758 4.6 12.8758H7.662C7.99337 12.8758 8.262 12.6071 8.262 12.2758V9.21377C8.262 8.8824 7.99337 8.61377 7.662 8.61377Z" fill="currentColor"/>
<path d="M7.662 14.2285H4.6C4.26863 14.2285 4 14.4971 4 14.8285V17.8905C4 18.2219 4.26863 18.4905 4.6 18.4905H7.662C7.99337 18.4905 8.262 18.2219 8.262 17.8905V14.8285C8.262 14.4971 7.99337 14.2285 7.662 14.2285Z" fill="currentColor"/>
<path d="M15.6406 20.7952V14.1318H17.6861C18.1051 14.1318 18.4567 14.21 18.7408 14.3662C19.0266 14.5225 19.2424 14.7373 19.388 15.0107C19.5353 15.2824 19.609 15.5914 19.609 15.9376C19.609 16.2874 19.5353 16.5981 19.388 16.8698C19.2406 17.1414 19.0231 17.3554 18.7354 17.5116C18.4478 17.6661 18.0936 17.7433 17.6728 17.7433H16.3171V16.931H17.5396C17.7846 16.931 17.9853 16.8884 18.1415 16.8032C18.2978 16.718 18.4132 16.6008 18.4877 16.4516C18.5641 16.3025 18.6023 16.1311 18.6023 15.9376C18.6023 15.7441 18.5641 15.5736 18.4877 15.4262C18.4132 15.2789 18.2969 15.1643 18.1388 15.0827C17.9826 14.9992 17.7811 14.9575 17.5343 14.9575H16.6287V20.7952H15.6406Z" fill="currentColor"/>
</svg>
