<svg width="24" height="24" viewBox="0 0 24 24" fill="currentColor" xmlns="http://www.w3.org/2000/svg">
<path d="M9 18.87C8.44771 18.87 8 18.4223 8 17.87V6C8 5.44772 8.44772 5 9 5H12.465C13.871 5 14.992 5.323 15.828 5.969C16.664 6.60233 17.082 7.46367 17.082 8.553C17.082 9.161 16.9363 9.693 16.645 10.149C16.3663 10.605 15.9863 10.9597 15.505 11.213C15.0363 11.4663 14.5233 11.593 13.966 11.593V11.65C14.5867 11.6373 15.1503 11.7513 15.657 11.992C16.1763 12.2327 16.5943 12.5937 16.911 13.075C17.2277 13.5563 17.386 14.1517 17.386 14.861C17.386 15.6717 17.1897 16.381 16.797 16.989C16.417 17.5843 15.8723 18.0467 15.163 18.376C14.4537 18.7053 13.6113 18.87 12.636 18.87H9ZM10.755 16.571H12.522C13.1427 16.571 13.6303 16.4063 13.985 16.077C14.3397 15.7477 14.517 15.2917 14.517 14.709C14.517 14.1263 14.3397 13.6703 13.985 13.341C13.6303 12.999 13.1427 12.828 12.522 12.828H10.755V16.571ZM10.755 10.586H12.427C12.9843 10.586 13.4213 10.4403 13.738 10.149C14.0547 9.845 14.213 9.43967 14.213 8.933C14.213 8.41367 14.0547 8.01467 13.738 7.736C13.4213 7.44467 12.9843 7.299 12.427 7.299H10.755V10.586Z" fill="currentColor"/>
</svg>
