<svg width="28" height="28" viewBox="0 0 28 28" fill="none" xmlns="http://www.w3.org/2000/svg">
<rect width="28" height="28" rx="4" fill="white"/>
<path d="M18.6504 22.7349C18.5885 22.7349 18.5316 22.6437 18.4795 22.4614C18.4307 22.2791 18.4062 22.1147 18.4062 21.9683C18.4062 21.9129 18.4144 21.869 18.4307 21.8364L20.6279 19.1509C20.8493 18.8742 20.96 18.5959 20.96 18.3159C20.96 18.0913 20.8851 17.9188 20.7354 17.7983C20.5856 17.6746 20.3903 17.6128 20.1494 17.6128C19.9899 17.6128 19.8483 17.6372 19.7246 17.686C19.6042 17.7349 19.4805 17.8 19.3535 17.8813C19.3112 17.9106 19.2705 17.9351 19.2314 17.9546C19.1924 17.9741 19.1598 17.9839 19.1338 17.9839C19.0492 17.9839 18.9678 17.9513 18.8896 17.8862C18.8148 17.8211 18.7546 17.7414 18.709 17.647C18.6634 17.5526 18.6406 17.4663 18.6406 17.3882C18.6406 17.2254 18.7253 17.0838 18.8945 16.9634C19.0638 16.8397 19.2803 16.7469 19.5439 16.6851C19.8109 16.62 20.0859 16.5874 20.3691 16.5874C20.7663 16.5874 21.1064 16.6606 21.3896 16.8071C21.6761 16.9504 21.8926 17.1506 22.0391 17.4077C22.1855 17.6616 22.2588 17.9546 22.2588 18.2866C22.2588 18.5535 22.2116 18.8058 22.1172 19.0435C22.026 19.2811 21.8975 19.5008 21.7314 19.7026L20.1006 21.7192H22.1025C22.1937 21.7192 22.2604 21.755 22.3027 21.8267C22.3451 21.895 22.3662 22.0041 22.3662 22.1538V22.3003C22.3662 22.45 22.3451 22.5607 22.3027 22.6323C22.2604 22.7007 22.1937 22.7349 22.1025 22.7349H18.6504Z" fill="#333333"/>
<path d="M9.02979 19.6152C8.34326 19.6152 8 19.5101 8 19.2998C8 19.1947 8.05257 19.0586 8.15771 18.8916L11.5625 13.5664L8.53809 8.73291C8.43294 8.54118 8.38037 8.40202 8.38037 8.31543C8.38037 8.22266 8.46696 8.14844 8.64014 8.09277C8.8195 8.03092 9.08236 8 9.42871 8H10.106C10.6379 8 10.9657 8.10514 11.0894 8.31543L12.9727 11.3862L14.9487 8.31543C15.0415 8.19173 15.1652 8.10824 15.3198 8.06494C15.4806 8.02165 15.694 8 15.96 8H16.6001C17.2928 8 17.6392 8.10514 17.6392 8.31543C17.6392 8.43294 17.5866 8.5721 17.4814 8.73291L14.3643 13.6035L17.6577 18.8916C17.7567 19.0462 17.8062 19.1823 17.8062 19.2998C17.8062 19.5101 17.4598 19.6152 16.7671 19.6152H16.127C15.861 19.6152 15.6476 19.5936 15.4868 19.5503C15.326 19.507 15.2116 19.4235 15.1436 19.2998L12.9448 15.7559L10.6626 19.2998C10.576 19.4421 10.4585 19.5317 10.3101 19.5688C10.1678 19.5998 9.95133 19.6152 9.66064 19.6152H9.02979Z" fill="#333333"/>
</svg>
