<svg enable-background="new 0 0 512 512" height="512" viewBox="0 0 512 512" width="512" xmlns="http://www.w3.org/2000/svg"><g><path d="m15 114.235c8.284 0 15-6.716 15-15v-69.235h69.235c8.284 0 15-6.716 15-15s-6.716-15-15-15h-84.235c-8.284 0-15 6.716-15 15v84.235c0 8.285 6.716 15 15 15z"/><path d="m497 0h-84.235c-8.284 0-15 6.716-15 15s6.716 15 15 15h69.235v69.235c0 8.284 6.716 15 15 15s15-6.716 15-15v-84.235c0-8.284-6.716-15-15-15z"/><path d="m497 397.765c-8.284 0-15 6.716-15 15v69.235h-69.235c-8.284 0-15 6.716-15 15s6.716 15 15 15h84.235c8.284 0 15-6.716 15-15v-84.235c0-8.285-6.716-15-15-15z"/><path d="m99.235 482h-69.235v-69.235c0-8.284-6.716-15-15-15s-15 6.716-15 15v84.235c0 8.284 6.716 15 15 15h84.235c8.284 0 15-6.716 15-15s-6.715-15-15-15z"/><path d="m419.66 191.38v-94.73c0-4.7-3.81-8.51-8.52-8.51h-155.14-155.14c-4.71 0-8.52 3.81-8.52 8.51v94.73c0 4.71 3.81 8.52 8.52 8.52h45.24c4.7 0 8.51-3.81 8.51-8.52v-32.45c0-4.71 3.82-8.52 8.52-8.52h53.21c4.71 0 8.52 3.81 8.52 8.52v234.14c0 4.71-3.81 8.52-8.52 8.52h-23.27c-4.71 0-8.52 3.81-8.52 8.52v45.24c0 4.7 3.81 8.51 8.52 8.51h62.93 62.93c4.71 0 8.52-3.81 8.52-8.51v-45.24c0-4.71-3.81-8.52-8.52-8.52h-23.27c-4.71 0-8.52-3.81-8.52-8.52v-234.14c0-4.71 3.81-8.52 8.52-8.52h53.21c4.7 0 8.52 3.81 8.52 8.52v32.45c0 4.71 3.81 8.52 8.51 8.52h45.24c4.71 0 8.52-3.81 8.52-8.52z"/></g></svg> 