<svg width="24" height="24" viewBox="0 0 24 24" fill="currentColor" xmlns="http://www.w3.org/2000/svg">
<path d="M16.6504 20.7349C16.5885 20.7349 16.5316 20.6437 16.4795 20.4614C16.4307 20.2791 16.4062 20.1147 16.4062 19.9683C16.4062 19.9129 16.4144 19.869 16.4307 19.8364L18.6279 17.1509C18.8493 16.8742 18.96 16.5959 18.96 16.3159C18.96 16.0913 18.8851 15.9188 18.7354 15.7983C18.5856 15.6746 18.3903 15.6128 18.1494 15.6128C17.9899 15.6128 17.8483 15.6372 17.7246 15.686C17.6042 15.7349 17.4805 15.8 17.3535 15.8813C17.3112 15.9106 17.2705 15.9351 17.2314 15.9546C17.1924 15.9741 17.1598 15.9839 17.1338 15.9839C17.0492 15.9839 16.9678 15.9513 16.8896 15.8862C16.8148 15.8211 16.7546 15.7414 16.709 15.647C16.6634 15.5526 16.6406 15.4663 16.6406 15.3882C16.6406 15.2254 16.7253 15.0838 16.8945 14.9634C17.0638 14.8397 17.2803 14.7469 17.5439 14.6851C17.8109 14.62 18.0859 14.5874 18.3691 14.5874C18.7663 14.5874 19.1064 14.6606 19.3896 14.8071C19.6761 14.9504 19.8926 15.1506 20.0391 15.4077C20.1855 15.6616 20.2588 15.9546 20.2588 16.2866C20.2588 16.5535 20.2116 16.8058 20.1172 17.0435C20.026 17.2811 19.8975 17.5008 19.7314 17.7026L18.1006 19.7192H20.1025C20.1937 19.7192 20.2604 19.755 20.3027 19.8267C20.3451 19.895 20.3662 20.0041 20.3662 20.1538V20.3003C20.3662 20.45 20.3451 20.5607 20.3027 20.6323C20.2604 20.7007 20.1937 20.7349 20.1025 20.7349H16.6504Z" fill="currentColor"/>
<path d="M7.02979 17.6152C6.34326 17.6152 6 17.5101 6 17.2998C6 17.1947 6.05257 17.0586 6.15771 16.8916L9.5625 11.5664L6.53809 6.73291C6.43294 6.54118 6.38037 6.40202 6.38037 6.31543C6.38037 6.22266 6.46696 6.14844 6.64014 6.09277C6.8195 6.03092 7.08236 6 7.42871 6H8.10596C8.63786 6 8.96566 6.10514 9.08936 6.31543L10.9727 9.38623L12.9487 6.31543C13.0415 6.19173 13.1652 6.10824 13.3198 6.06494C13.4806 6.02165 13.694 6 13.96 6H14.6001C15.2928 6 15.6392 6.10514 15.6392 6.31543C15.6392 6.43294 15.5866 6.5721 15.4814 6.73291L12.3643 11.6035L15.6577 16.8916C15.7567 17.0462 15.8062 17.1823 15.8062 17.2998C15.8062 17.5101 15.4598 17.6152 14.7671 17.6152H14.127C13.861 17.6152 13.6476 17.5936 13.4868 17.5503C13.326 17.507 13.2116 17.4235 13.1436 17.2998L10.9448 13.7559L8.6626 17.2998C8.57601 17.4421 8.4585 17.5317 8.31006 17.5688C8.16781 17.5998 7.95133 17.6152 7.66064 17.6152H7.02979Z" fill="currentColor"/>
</svg>
