<svg width="28" height="28" viewBox="0 0 28 28" fill="none" xmlns="http://www.w3.org/2000/svg">
<rect width="28" height="28" rx="4" fill="white"/>
<path d="M10 20.87V7H14.465C15.871 7 16.992 7.323 17.828 7.969C18.664 8.60233 19.082 9.46367 19.082 10.553C19.082 11.161 18.9363 11.693 18.645 12.149C18.3663 12.605 17.9863 12.9597 17.505 13.213C17.0363 13.4663 16.5233 13.593 15.966 13.593V13.65C16.5867 13.6373 17.1503 13.7513 17.657 13.992C18.1763 14.2327 18.5943 14.5937 18.911 15.075C19.2277 15.5563 19.386 16.1517 19.386 16.861C19.386 17.6717 19.1897 18.381 18.797 18.989C18.417 19.5843 17.8723 20.0467 17.163 20.376C16.4537 20.7053 15.6113 20.87 14.636 20.87H10ZM12.755 18.571H14.522C15.1427 18.571 15.6303 18.4063 15.985 18.077C16.3397 17.7477 16.517 17.2917 16.517 16.709C16.517 16.1263 16.3397 15.6703 15.985 15.341C15.6303 14.999 15.1427 14.828 14.522 14.828H12.755V18.571ZM12.755 12.586H14.427C14.9843 12.586 15.4213 12.4403 15.738 12.149C16.0547 11.845 16.213 11.4397 16.213 10.933C16.213 10.4137 16.0547 10.0147 15.738 9.736C15.4213 9.44467 14.9843 9.299 14.427 9.299H12.755V12.586Z" fill="#333333"/>
</svg>
