<svg width="28" height="28" viewBox="0 0 28 28" fill="none" xmlns="http://www.w3.org/2000/svg">
<rect width="28" height="28" rx="4" fill="white"/>
<path d="M9.02979 19.6152C8.34326 19.6152 8 19.5101 8 19.2998C8 19.1947 8.05257 19.0586 8.15771 18.8916L11.5625 13.5664L8.53809 8.73291C8.43294 8.54118 8.38037 8.40202 8.38037 8.31543C8.38037 8.22266 8.46696 8.14844 8.64014 8.09277C8.8195 8.03092 9.08236 8 9.42871 8H10.106C10.6379 8 10.9657 8.10514 11.0894 8.31543L12.9727 11.3862L14.9487 8.31543C15.0415 8.19173 15.1652 8.10824 15.3198 8.06494C15.4806 8.02165 15.694 8 15.96 8H16.6001C17.2928 8 17.6392 8.10514 17.6392 8.31543C17.6392 8.43294 17.5866 8.5721 17.4814 8.73291L14.3643 13.6035L17.6577 18.8916C17.7567 19.0462 17.8062 19.1823 17.8062 19.2998C17.8062 19.5101 17.4598 19.6152 16.7671 19.6152H16.127C15.861 19.6152 15.6476 19.5936 15.4868 19.5503C15.326 19.507 15.2116 19.4235 15.1436 19.2998L12.9448 15.7559L10.6626 19.2998C10.576 19.4421 10.4585 19.5317 10.3101 19.5688C10.1678 19.5998 9.95133 19.6152 9.66064 19.6152H9.02979Z" fill="#333333"/>
<path d="M18.6504 11.1475C18.5885 11.1475 18.5316 11.0563 18.4795 10.874C18.4307 10.6917 18.4062 10.5273 18.4062 10.3809C18.4062 10.3255 18.4144 10.2816 18.4307 10.249L20.6279 7.56348C20.8493 7.28678 20.96 7.00846 20.96 6.72852C20.96 6.50391 20.8851 6.33138 20.7354 6.21094C20.5856 6.08724 20.3903 6.02539 20.1494 6.02539C19.9899 6.02539 19.8483 6.0498 19.7246 6.09863C19.6042 6.14746 19.4805 6.21257 19.3535 6.29395C19.3112 6.32324 19.2705 6.34766 19.2314 6.36719C19.1924 6.38672 19.1598 6.39648 19.1338 6.39648C19.0492 6.39648 18.9678 6.36393 18.8896 6.29883C18.8148 6.23372 18.7546 6.15397 18.709 6.05957C18.6634 5.96517 18.6406 5.87891 18.6406 5.80078C18.6406 5.63802 18.7253 5.49642 18.8945 5.37598C19.0638 5.25228 19.2803 5.15951 19.5439 5.09766C19.8109 5.03255 20.0859 5 20.3691 5C20.7663 5 21.1064 5.07324 21.3896 5.21973C21.6761 5.36296 21.8926 5.56315 22.0391 5.82031C22.1855 6.07422 22.2588 6.36719 22.2588 6.69922C22.2588 6.96615 22.2116 7.21842 22.1172 7.45605C22.026 7.69368 21.8975 7.91341 21.7314 8.11523L20.1006 10.1318H22.1025C22.1937 10.1318 22.2604 10.1676 22.3027 10.2393C22.3451 10.3076 22.3662 10.4167 22.3662 10.5664V10.7129C22.3662 10.8626 22.3451 10.9733 22.3027 11.0449C22.2604 11.1133 22.1937 11.1475 22.1025 11.1475H18.6504Z" fill="#333333"/>
</svg>
