<svg width="48" height="48" viewBox="0 0 48 48" fill="none" xmlns="http://www.w3.org/2000/svg">
<path d="M42 21.9996H6V25.9996H42V21.9996Z" fill="#231F20"/>
<path d="M40 18.2696H36V11.9996H12V18.2696H8V11.5996C8 10.6449 8.37928 9.72918 9.05442 9.05405C9.72955 8.37892 10.6452 7.99963 11.6 7.99963H36.4C37.3548 7.99963 38.2705 8.37892 38.9456 9.05405C39.6207 9.72918 40 10.6449 40 11.5996V18.2696Z" fill="#231F20"/>
<path d="M40 36.0156V36.4156C40 37.3704 39.6207 38.2861 38.9456 38.9612C38.2705 39.6363 37.3548 40.0156 36.4 40.0156H36V36.0156H40Z" fill="#231F20"/>
<path d="M12 40.0157H11.6C10.6452 40.0157 9.72955 39.6365 9.05442 38.9613C8.37928 38.2862 8 37.3705 8 36.4157L8 36.0157H12V40.0157Z" fill="#231F20"/>
<path d="M12 34.5496V30.0156H8V34.5496H12Z" fill="#231F20"/>
<path d="M40 34.5496V30.0156H36V34.5496H40Z" fill="#231F20"/>
<path d="M33.3992 36.0156H28.8652V40.0156H33.3992V36.0156Z" fill="#231F20"/>
<path d="M26.2674 36.0156H21.7334V40.0156H26.2674V36.0156Z" fill="#231F20"/>
<path d="M19.1346 36.0156H14.6006V40.0156H19.1346V36.0156Z" fill="#231F20"/>
</svg>
