<svg width="20" height="20" viewBox="0 0 20 20" fill="none" xmlns="http://www.w3.org/2000/svg">
<circle cx="10" cy="10" r="10" fill="#B4B9D6"/>
<path d="M12.7034 14.8189L9.39616 17.6218L9.13674 16.1892C8.12927 16.0487 7.17132 15.6644 6.34605 15.0697C5.52078 14.475 4.85314 13.6878 4.40108 12.7766C3.94903 11.8653 3.72622 10.8575 3.75201 9.84062C3.7778 8.82373 4.0514 7.8285 4.54906 6.94133L5.8121 7.65148C5.45018 8.29719 5.24246 9.01784 5.20516 9.75712C5.16786 10.4964 5.302 11.2343 5.59709 11.9132C5.89218 12.592 6.34023 13.1935 6.90624 13.6705C7.47225 14.1475 8.1409 14.4872 8.85993 14.6631L8.62297 13.3587L12.7034 14.8189Z" fill="white"/>
<path d="M15.4493 13.0588L14.1862 12.3486C14.5482 11.7029 14.7559 10.9823 14.7932 10.243C14.8305 9.50371 14.6963 8.76582 14.4012 8.08695C14.1062 7.40809 13.6581 6.80665 13.0921 6.32962C12.5261 5.85259 11.8574 5.51288 11.1384 5.33704L11.3754 6.64501L7.29492 5.18124L10.6022 2.37834L10.8616 3.81095C11.8691 3.95145 12.827 4.33573 13.6523 4.93043C14.4776 5.52513 15.1452 6.31227 15.5973 7.22353C16.0493 8.13478 16.2721 9.1426 16.2463 10.1595C16.2205 11.1764 15.9469 12.1716 15.4493 13.0588Z" fill="white"/>
</svg>
