<?xml version="1.0" encoding="UTF-8" standalone="no"?>
<svg
   xmlns:dc="http://purl.org/dc/elements/1.1/"
   xmlns:cc="http://creativecommons.org/ns#"
   xmlns:rdf="http://www.w3.org/1999/02/22-rdf-syntax-ns#"
   xmlns:svg="http://www.w3.org/2000/svg"
   xmlns="http://www.w3.org/2000/svg"
   xmlns:sodipodi="http://sodipodi.sourceforge.net/DTD/sodipodi-0.dtd"
   xmlns:inkscape="http://www.inkscape.org/namespaces/inkscape"
   width="1000px"
   height="1000px"
   viewBox="0 0 1000 1000"
   version="1.1"
   id="svg2"
   inkscape:version="0.48.4 r9939"
   sodipodi:docname="edit-redo.svg">
  <metadata
     id="metadata11">
    <rdf:RDF>
      <cc:Work
         rdf:about="">
        <dc:format>image/svg+xml</dc:format>
        <dc:type
           rdf:resource="http://purl.org/dc/dcmitype/StillImage" />
        <dc:title></dc:title>
      </cc:Work>
    </rdf:RDF>
  </metadata>
  <defs
     id="defs9" />
  <sodipodi:namedview
     pagecolor="#ffffff"
     bordercolor="#666666"
     borderopacity="1"
     objecttolerance="10"
     gridtolerance="10"
     guidetolerance="10"
     inkscape:pageopacity="0"
     inkscape:pageshadow="2"
     inkscape:window-width="1280"
     inkscape:window-height="985"
     id="namedview7"
     showgrid="false"
     inkscape:zoom="0.5"
     inkscape:cx="301.54386"
     inkscape:cy="502.11864"
     inkscape:window-x="-2"
     inkscape:window-y="16"
     inkscape:window-maximized="1"
     inkscape:current-layer="svg2" />
  <path
     inkscape:connector-curvature="0"
     id="path5"
     d="m 474.81216,183.48247 c 42.51126,-3.24427 84.89071,0.66434 126.77365,12.83784 166.69653,48.4512 311.99143,227.93303 362.6689,601.77363 0.25393,1.87315 1.35564,2.93129 1.60474,4.8142 l 9.62837,65.79391 -33.69932,-57.77027 C 828.2935,610.25245 720.87627,522.02858 630.47093,502.82368 c -90.40532,-19.2049 -166.97272,27.92989 -223.05741,110.72634 0.15068,1.04387 0.85611,3.722 3.20945,8.02365 4.70661,8.60326 13.41271,21.57851 25.67567,36.90879 24.52592,30.66061 61.6491,71.77978 97.88851,121.95945 l 14.44258,20.86148 -25.67567,0 c -132.69114,0 -364.08144,-4.62372 -494.256749,-6.41892 l -12.83784,-1.60472 0,-12.83784 c 0,0 3.20946,-373.38326 3.20946,-505.48985 l 0,-30.48986 22.46622,22.46621 c 29.8892,29.88922 68.797349,64.78457 101.097959,96.28378 88.10557,-100.11423 208.85867,-170.31844 332.17905,-179.72972 z m 1.60472,25.67567 c -119.43297,9.38493 -239.23043,78.62945 -324.15539,179.72973 l -8.02364,11.23311 -9.62839,-11.23311 C 108.07329,362.39284 74.627651,332.36185 44.744601,303.8372 c -0.34431,144.96928 -3.05129,448.39793 -3.20945,465.3716 125.037129,1.83274 325.006029,5.91111 455.743229,6.41892 -29.22515,-38.4698 -59.38337,-75.02889 -80.23649,-101.09796 -12.55259,-15.69236 -22.56086,-28.55809 -28.88513,-40.11825 -3.16217,-5.7801 -5.53415,-11.52335 -6.41892,-17.65202 -0.79631,-5.51581 0.76832,-12.48541 4.81418,-17.65203 0.23653,-0.34914 1.36734,0.34811 1.60474,0 C 447.85393,511.56337 533.79606,455.5886 635.28513,477.148 726.04237,496.42762 825.32101,587.40793 927.34594,748.34732 870.87657,420.82959 739.34647,262.76424 593.56216,220.39125 554.80422,209.12607 516.2279,206.02985 476.41688,209.15814 z"
  />
</svg>
