<?xml version="1.0" encoding="UTF-8" standalone="no"?>
<svg
   xmlns:dc="http://purl.org/dc/elements/1.1/"
   xmlns:cc="http://creativecommons.org/ns#"
   xmlns:rdf="http://www.w3.org/1999/02/22-rdf-syntax-ns#"
   xmlns:svg="http://www.w3.org/2000/svg"
   xmlns="http://www.w3.org/2000/svg"
   xmlns:sodipodi="http://sodipodi.sourceforge.net/DTD/sodipodi-0.dtd"
   xmlns:inkscape="http://www.inkscape.org/namespaces/inkscape"
   width="1000px"
   height="1000px"
   viewBox="0 0 1000 1000"
   version="1.1"
   id="svg2"
   inkscape:version="0.48.4 r9939"
   sodipodi:docname="view-zoom-out.svg">
  <metadata
     id="metadata15">
    <rdf:RDF>
      <cc:Work
         rdf:about="">
        <dc:format>image/svg+xml</dc:format>
        <dc:type
           rdf:resource="http://purl.org/dc/dcmitype/StillImage" />
      </cc:Work>
    </rdf:RDF>
  </metadata>
  <defs
     id="defs13" />
  <sodipodi:namedview
     pagecolor="#ffffff"
     bordercolor="#666666"
     borderopacity="1"
     objecttolerance="10"
     gridtolerance="10"
     guidetolerance="10"
     inkscape:pageopacity="0"
     inkscape:pageshadow="2"
     inkscape:window-width="1280"
     inkscape:window-height="985"
     id="namedview11"
     showgrid="false"
     inkscape:zoom="0.5"
     inkscape:cx="116.52542"
     inkscape:cy="503.35593"
     inkscape:window-x="-2"
     inkscape:window-y="16"
     inkscape:window-maximized="1"
     inkscape:current-layer="svg2" />
  <path
     id="path9"
     d="m 312.875,105.875 c -125.88819,0 -228.1875,102.29931 -228.1875,228.1875 0,125.88819 102.29931,228.21875 228.1875,228.21875 125.88818,0 228.21875,-102.33056 228.21875,-228.21875 0,-125.88819 -102.33057,-228.1875 -228.21875,-228.1875 z m 0,24.71875 c 112.5266,0 203.5,90.94214 203.5,203.46875 0,112.52661 -90.9734,203.46875 -203.5,203.46875 -112.52661,0 -203.46875,-90.94214 -203.46875,-203.46875 0,-112.52661 90.94214,-203.46875 203.46875,-203.46875 z m -0.0313,-84.375 C 174.90509,43.350688 46.644641,153.60837 28.319941,290.25897 4.9614684,424.19282 91.217113,565.52156 220.57787,606.7686 295.29013,632.43577 380.46701,625.1216 449.625,586.875 563.37936,702.12578 676.17302,818.37441 790.52577,933.00366 839.83538,977.23572 928.12218,945.99649 938.01098,880.29408 949.16325,836.02339 918.1865,800.0322 888.08138,772.39765 783.523,666.04635 678.96463,559.69505 574.40625,453.34375 633.0725,332.39868 590.2132,174.96273 479.41218,99.363318 431.20214,64.876211 372.11794,46.035909 312.84375,46.21875 z m 0,24.71875 c 128.47724,-2.898914 247.42955,101.82798 260.98284,229.58213 7.13489,53.9854 -3.63349,109.79558 -29.17034,157.79287 118.5036,120.82618 237.63087,241.13523 355.71817,362.31069 36.09688,40.19988 1.70852,111.42861 -52.1217,108.50906 -43.00032,-0.74334 -64.98594,-42.4 -94.06341,-67.63708 C 654.10132,759.67789 554.04595,657.82849 453.93755,556.0313 350.20124,624.92079 199.87165,604.7753 118.0205,511.04238 29.117082,417.29257 27.215223,257.66286 113.83115,161.80481 162.95424,104.49686 237.33714,70.447748 312.84375,70.9375 z M 657.875,94.375 c 0,39.44792 0,78.89583 0,118.34375 105.70833,0 211.41667,0 317.125,0 0,-39.44792 0,-78.89583 0,-118.34375 -105.70833,0 -211.41667,0 -317.125,0 z m 24.75,24.75 c 89.21875,0 178.4375,0 267.65625,0 0,22.95833 0,45.91667 0,68.875 -89.21875,0 -178.4375,0 -267.65625,0 0,-22.95833 0,-45.91667 0,-68.875 z"
     inkscape:connector-curvature="0"
     sodipodi:nodetypes="sssssssssscccccccccccccccccccccccccccccccc" />
</svg>
