<svg width="16" height="16" viewBox="0 0 16 16" fill="currentColor" xmlns="http://www.w3.org/2000/svg">
<path d="M4.69744 13.4543L7.51847 8.17023H8.05114L9.89205 11.754C9.98864 11.9444 10.0724 12.0822 10.1435 12.1674C10.2173 12.2526 10.304 12.3066 10.4034 12.3293C10.5028 12.3521 10.6435 12.3634 10.8253 12.3634H11.1193V13.4543H10.8253C10.473 13.4543 10.1818 13.4231 9.9517 13.3606C9.72159 13.2981 9.52273 13.1816 9.35511 13.0111C9.19034 12.8407 9.02415 12.5921 8.85653 12.2654L7.77415 10.1219L6.0142 13.4543H4.69744ZM7.39915 9.43586L5.66903 6.15887C5.5554 5.9458 5.46307 5.79239 5.39205 5.69864C5.32386 5.60489 5.2429 5.54665 5.14915 5.52393C5.05824 5.5012 4.91903 5.48984 4.73153 5.48984H4.4375V4.39893H4.73153C5.08381 4.39893 5.37216 4.43302 5.59659 4.5012C5.82386 4.56654 6.01989 4.69012 6.18466 4.87194C6.35227 5.05092 6.52557 5.30944 6.70455 5.64751L7.78693 7.72705L9.55114 4.45432H10.8679L8.16619 9.43586H7.39915Z" fill="currentColor"/>
</svg>
