<?xml version="1.0" encoding="UTF-8"?>
<svg xmlns="http://www.w3.org/2000/svg" xmlns:xlink="http://www.w3.org/1999/xlink" width="32pt" height="32pt" viewBox="0 0 32 32" version="1.1">
<g id="surface5">
<path style="fill:none;stroke-width:0.05;stroke-linecap:butt;stroke-linejoin:miter;stroke:rgb(0%,0%,0%);stroke-opacity:1;stroke-miterlimit:10;" d="M -0.0000481377 0.371451 L 0.185719 0.297065 " transform="matrix(29.564857,0,0,29.564857,2.274861,10.510291)"/>
<path style="fill:none;stroke-width:0.05;stroke-linecap:butt;stroke-linejoin:miter;stroke:rgb(0%,0%,0%);stroke-opacity:1;stroke-miterlimit:10;" d="M 0.232095 0.413202 L 0.417863 0.338948 " transform="matrix(29.564857,0,0,29.564857,2.274861,10.510291)"/>
<path style="fill:none;stroke-width:0.05;stroke-linecap:butt;stroke-linejoin:miter;stroke:rgb(0%,0%,0%);stroke-opacity:1;stroke-miterlimit:10;" d="M 0.139211 0.181059 L 0.324979 0.106805 " transform="matrix(29.564857,0,0,29.564857,2.274861,10.510291)"/>
<path style="fill:none;stroke-width:0.05;stroke-linecap:butt;stroke-linejoin:miter;stroke:rgb(0%,0%,0%);stroke-opacity:1;stroke-miterlimit:10;" d="M 0.371355 0.222811 L 0.557122 0.148557 " transform="matrix(29.564857,0,0,29.564857,2.274861,10.510291)"/>
<path style="fill:none;stroke-width:0.05;stroke-linecap:butt;stroke-linejoin:miter;stroke:rgb(0%,0%,0%);stroke-opacity:1;stroke-miterlimit:10;" d="M 0.603498 0.264562 L 0.789265 0.190308 " transform="matrix(29.564857,0,0,29.564857,2.274861,10.510291)"/>
<path style="fill:none;stroke-width:0.05;stroke-linecap:butt;stroke-linejoin:miter;stroke:rgb(0%,0%,0%);stroke-opacity:1;stroke-miterlimit:10;" d="M 0.510614 0.032551 L 0.696382 -0.0418352 " transform="matrix(29.564857,0,0,29.564857,2.274861,10.510291)"/>
<path style="fill:none;stroke-width:0.05;stroke-linecap:butt;stroke-linejoin:miter;stroke:rgb(0%,0%,0%);stroke-opacity:1;stroke-miterlimit:10;" d="M 0.742757 0.0743024 L 0.928525 0.0000483073 " transform="matrix(29.564857,0,0,29.564857,2.274861,10.510291)"/>
</g>
</svg>
