<?xml version="1.0" encoding="UTF-8"?>
<svg xmlns="http://www.w3.org/2000/svg" xmlns:xlink="http://www.w3.org/1999/xlink" width="32pt" height="32pt" viewBox="0 0 32 32" version="1.1">
<g id="surface5">
<path style="fill:none;stroke-width:0.05;stroke-linecap:butt;stroke-linejoin:miter;stroke:rgb(0%,0%,0%);stroke-opacity:1;stroke-miterlimit:10;" d="M 1.718363 -0.0000109514 L 0.694958 -0.0000109514 " transform="matrix(11.366771,0,0,11.366771,2.28417,2.285281)"/>
<path style="fill:none;stroke-width:0.05;stroke-linecap:butt;stroke-linejoin:miter;stroke:rgb(0%,0%,0%);stroke-opacity:1;stroke-miterlimit:10;" d="M 2.42045 0.71273 L 1.700493 -0.00722771 " transform="matrix(11.366771,0,0,11.366771,2.28417,2.285281)"/>
<path style="fill:none;stroke-width:0.05;stroke-linecap:butt;stroke-linejoin:miter;stroke:rgb(0%,0%,0%);stroke-opacity:1;stroke-miterlimit:10;" d="M 2.413234 1.718265 L 2.413234 0.69486 " transform="matrix(11.366771,0,0,11.366771,2.28417,2.285281)"/>
<path style="fill:none;stroke-width:0.05;stroke-linecap:butt;stroke-linejoin:miter;stroke:rgb(0%,0%,0%);stroke-opacity:1;stroke-miterlimit:10;" d="M 1.700493 2.420353 L 2.42045 1.700395 " transform="matrix(11.366771,0,0,11.366771,2.28417,2.285281)"/>
<path style="fill:none;stroke-width:0.05;stroke-linecap:butt;stroke-linejoin:miter;stroke:rgb(0%,0%,0%);stroke-opacity:1;stroke-miterlimit:10;" d="M 0.695301 2.413136 L 1.718363 2.413136 " transform="matrix(11.366771,0,0,11.366771,2.28417,2.285281)"/>
<path style="fill:none;stroke-width:0.05;stroke-linecap:butt;stroke-linejoin:miter;stroke:rgb(0%,0%,0%);stroke-opacity:1;stroke-miterlimit:10;" d="M -0.00747361 1.700395 L 0.712828 2.420353 " transform="matrix(11.366771,0,0,11.366771,2.28417,2.285281)"/>
<path style="fill:none;stroke-width:0.05;stroke-linecap:butt;stroke-linejoin:miter;stroke:rgb(0%,0%,0%);stroke-opacity:1;stroke-miterlimit:10;" d="M -0.00747361 0.71273 L 0.712484 -0.00722771 " transform="matrix(11.366771,0,0,11.366771,2.28417,2.285281)"/>
<path style="fill:none;stroke-width:0.05;stroke-linecap:butt;stroke-linejoin:miter;stroke:rgb(0%,0%,0%);stroke-opacity:1;stroke-miterlimit:10;" d="M 0.0000868002 1.718265 L 0.0000868002 0.69486 " transform="matrix(11.366771,0,0,11.366771,2.28417,2.285281)"/>
</g>
</svg>
