<?xml version="1.0" encoding="UTF-8"?>
<svg xmlns="http://www.w3.org/2000/svg" xmlns:xlink="http://www.w3.org/1999/xlink" width="32pt" height="32pt" viewBox="0 0 32 32" version="1.1">
<g id="surface5">
<path style="fill:none;stroke-width:0.05;stroke-linecap:butt;stroke-linejoin:miter;stroke:rgb(0%,0%,0%);stroke-opacity:1;stroke-miterlimit:10;" d="M 0.794247 -0.0106054 L 1.632645 0.598543 " transform="matrix(16.698503,0,0,16.698503,2.491171,3.200532)"/>
<path style="fill:none;stroke-width:0.05;stroke-linecap:butt;stroke-linejoin:miter;stroke:rgb(0%,0%,0%);stroke-opacity:1;stroke-miterlimit:10;" d="M 1.623522 0.570472 L 1.303275 1.556245 " transform="matrix(16.698503,0,0,16.698503,2.491171,3.200532)"/>
<path style="fill:none;stroke-width:0.05;stroke-linecap:butt;stroke-linejoin:miter;stroke:rgb(0%,0%,0%);stroke-opacity:1;stroke-miterlimit:10;" d="M 1.329708 0.665915 L 1.121746 1.306176 " transform="matrix(16.698503,0,0,16.698503,2.491171,3.200532)"/>
<path style="fill:none;stroke-width:0.05;stroke-linecap:butt;stroke-linejoin:miter;stroke:rgb(0%,0%,0%);stroke-opacity:1;stroke-miterlimit:10;" d="M 1.327135 1.538935 L 0.290834 1.538935 " transform="matrix(16.698503,0,0,16.698503,2.491171,3.200532)"/>
<path style="fill:none;stroke-width:0.05;stroke-linecap:butt;stroke-linejoin:miter;stroke:rgb(0%,0%,0%);stroke-opacity:1;stroke-miterlimit:10;" d="M 0.314694 1.556245 L -0.00555342 0.570472 " transform="matrix(16.698503,0,0,16.698503,2.491171,3.200532)"/>
<path style="fill:none;stroke-width:0.05;stroke-linecap:butt;stroke-linejoin:miter;stroke:rgb(0%,0%,0%);stroke-opacity:1;stroke-miterlimit:10;" d="M 0.496222 1.306176 L 0.28826 0.665915 " transform="matrix(16.698503,0,0,16.698503,2.491171,3.200532)"/>
<path style="fill:none;stroke-width:0.05;stroke-linecap:butt;stroke-linejoin:miter;stroke:rgb(0%,0%,0%);stroke-opacity:1;stroke-miterlimit:10;" d="M -0.0146766 0.598543 L 0.823722 -0.0106054 " transform="matrix(16.698503,0,0,16.698503,2.491171,3.200532)"/>
</g>
</svg>
