<?xml version="1.0" encoding="UTF-8"?>
<svg xmlns="http://www.w3.org/2000/svg" xmlns:xlink="http://www.w3.org/1999/xlink" width="32pt" height="32pt" viewBox="0 0 32 32" version="1.1">
<g id="surface5">
<path style="fill:none;stroke-width:0.05;stroke-linecap:butt;stroke-linejoin:miter;stroke:rgb(0%,0%,0%);stroke-opacity:1;stroke-miterlimit:10;" d="M 1.768305 2.021286 L 0.771748 2.249162 " transform="matrix(12.170813,0,0,12.170813,2.657984,2.328992)"/>
<path style="fill:none;stroke-width:0.05;stroke-linecap:butt;stroke-linejoin:miter;stroke:rgb(0%,0%,0%);stroke-opacity:1;stroke-miterlimit:10;" d="M -0.00945011 1.616244 L 0.792931 2.253977 " transform="matrix(12.170813,0,0,12.170813,2.657984,2.328992)"/>
<path style="fill:none;stroke-width:0.05;stroke-linecap:butt;stroke-linejoin:miter;stroke:rgb(0%,0%,0%);stroke-opacity:1;stroke-miterlimit:10;" d="M -0.00014249 0.604924 L -0.00014249 1.635823 " transform="matrix(12.170813,0,0,12.170813,2.657984,2.328992)"/>
<path style="fill:none;stroke-width:0.05;stroke-linecap:butt;stroke-linejoin:miter;stroke:rgb(0%,0%,0%);stroke-opacity:1;stroke-miterlimit:10;" d="M 2.19485 1.106893 L 1.751294 2.035087 " transform="matrix(12.170813,0,0,12.170813,2.657984,2.328992)"/>
<path style="fill:none;stroke-width:0.05;stroke-linecap:butt;stroke-linejoin:miter;stroke:rgb(0%,0%,0%);stroke-opacity:1;stroke-miterlimit:10;" d="M 1.750652 0.211436 L 2.19485 1.128397 " transform="matrix(12.170813,0,0,12.170813,2.657984,2.328992)"/>
<path style="fill:none;stroke-width:0.05;stroke-linecap:butt;stroke-linejoin:miter;stroke:rgb(0%,0%,0%);stroke-opacity:1;stroke-miterlimit:10;" d="M 0.771748 -0.00263884 L 1.767663 0.224916 " transform="matrix(12.170813,0,0,12.170813,2.657984,2.328992)"/>
<path style="fill:none;stroke-width:0.05;stroke-linecap:butt;stroke-linejoin:miter;stroke:rgb(0%,0%,0%);stroke-opacity:1;stroke-miterlimit:10;" d="M -0.00945011 0.624823 L 0.792931 -0.00745312 " transform="matrix(12.170813,0,0,12.170813,2.657984,2.328992)"/>
</g>
</svg>
