<?xml version="1.0" encoding="UTF-8" standalone="no"?>
<svg
   xmlns:dc="http://purl.org/dc/elements/1.1/"
   xmlns:cc="http://creativecommons.org/ns#"
   xmlns:rdf="http://www.w3.org/1999/02/22-rdf-syntax-ns#"
   xmlns:svg="http://www.w3.org/2000/svg"
   xmlns="http://www.w3.org/2000/svg"
   xmlns:sodipodi="http://sodipodi.sourceforge.net/DTD/sodipodi-0.dtd"
   xmlns:inkscape="http://www.inkscape.org/namespaces/inkscape"
   width="1000px"
   height="1000px"
   viewBox="0 0 1000 1000"
   version="1.1"
   id="svg3017"
   inkscape:version="0.48.4 r9939"
   sodipodi:docname="arom.svg">
  <sodipodi:namedview
     pagecolor="#ffffff"
     bordercolor="#666666"
     borderopacity="1"
     objecttolerance="10"
     gridtolerance="10"
     guidetolerance="10"
     inkscape:pageopacity="0"
     inkscape:pageshadow="2"
     inkscape:window-width="1280"
     inkscape:window-height="985"
     id="namedview3024"
     showgrid="false"
     inkscape:zoom="0.788"
     inkscape:cx="451.14213"
     inkscape:cy="500.63452"
     inkscape:window-x="-2"
     inkscape:window-y="16"
     inkscape:window-maximized="1"
     inkscape:current-layer="svg3017" />
  <metadata
     id="metadata3028">
    <rdf:RDF>
      <cc:Work
         rdf:about="">
        <dc:format>image/svg+xml</dc:format>
        <dc:type
           rdf:resource="http://purl.org/dc/dcmitype/StillImage" />
      </cc:Work>
    </rdf:RDF>
  </metadata>
  <defs
     id="defs3026" />
  <path
     id="path3022"
     d="m 461.48649,555.69054 -18.12703,65.26757 -59.56757,0 77.6946,-254.13783 75.43513,0 78.77297,254.13783 -61.87838,0 -19.56486,-65.26757 z m 64.44594,-43.03243 -15.86757,-53.91892 C 505.5973,443.7446 501.02703,424.8473 497.27838,409.75001 l -0.77027,0 c -3.8,14.99459 -7.54865,34.3027 -11.70811,48.98918 l -15.04595,53.91892 z M 261.5,86.96875 C 182.01696,224.66603 102.49955,362.34349 23,500.03125 c 79.52601,137.6516 159.01303,275.32583 238.5,413 159,0 318,0 477,0 79.48707,-137.67411 158.97388,-275.34846 238.5,-413 -79.49951,-137.68778 -159.017,-275.3652 -238.5,-413.0625 -159,0 -318,0 -477,0 z m 14.84375,25.65625 c 149.10417,0 298.20833,0 447.3125,0 C 798.20833,241.75 872.76042,370.875 947.3125,500 872.76042,629.125 798.20833,758.25 723.65625,887.375 c -149.10417,0 -298.20833,0 -447.3125,0 C 201.79167,758.25 127.23958,629.125 52.6875,500 127.23958,370.875 201.79167,241.75 276.34375,112.625 z M 500,242 C 374.04836,239.29512 257.52291,342.03121 244.04439,467.20792 225.70876,589.90115 309.65836,716.56 429.41412,748.25904 546.18673,783.97655 681.70279,722.69748 732.56859,611.82988 787.72264,502.74797 750.317,358.42131 649.3252,289.64929 606.10754,258.72845 553.13905,241.83584 500,242 z m 0,25.65625 c 115.57457,-2.72299 222.02818,93.36956 231.17737,208.59286 14.12026,112.83847 -67.3644,226.90051 -178.63888,250.18431 C 444.05716,753.87 322.67939,690.15798 283.7264,585.26728 240.65276,481.8684 285.98523,352.23297 384.27419,298.42521 419.26475,278.23386 459.61245,267.57542 500,267.65625 z"
     inkscape:connector-curvature="0"
     sodipodi:nodetypes="cccccccccccccccccccccccccccccccccccccccccc" />
</svg>
