<svg xmlns="http://www.w3.org/2000/svg" viewBox="0 0 750 749.99998" height="1000" width="1000"><path d="M73.129 209.914v403.543h403.226v73.371H62.133c-34.418 0-62.317-27.922-62.317-62.367V209.914zM304.07 343.45l103.004-103.086-48.754-49.89c-10.734-10.73-28.12-10.73-38.855 0l-63.05 64.199c-10.72 10.742-10.72 28.144 0 38.887zm132.696-73.37L334.859 373.53l311.95 313.297 103.375-103.086zm186.218 123.265V136.543c0-53.195-19.43-73.371-73.316-73.371H183.102c-56.454 0-73.317 16.875-73.317 73.371v366.855c0 54.297 16.863 73.372 73.317 73.372h293.253l-73.312-73.372H183.102V136.543h366.566v183.43zm0 0"/></svg>