<svg xmlns="http://www.w3.org/2000/svg" width="1000" height="1000" viewBox="-125 -125 1000 1000"><path d="M76.82 637.959h670.903v74.543H76.82c-41.168 0-74.543-33.375-74.543-74.543V116.146H76.82zm505.04-250.844a68.954 68.954 0 0 0-39.88 13.047l-94.67-101.754v-91.316c34.52-11.758 56.43-45.703 52.925-82-1.02-48.965-41.222-88.008-90.199-87.59-49.094-.445-89.68 38.16-91.687 87.219-2.946 36.496 19.343 70.308 54.043 81.996v91.691l-97.282 101.38a81.98 81.98 0 0 0-43.98-13.044c-38.3-.027-72.254 24.637-84.078 61.066-11.82 36.434 1.18 76.333 32.199 98.805 31.016 22.469 72.98 22.39 103.914-.195 30.934-22.59 43.785-62.535 31.828-98.922l92.063-96.91 92.062 96.91c-11.629 35.96 1.227 75.32 31.844 97.484 30.617 22.16 72.023 22.082 102.555-.195 30.53-22.281 43.234-61.691 31.468-97.61-11.765-35.913-45.328-60.167-83.125-60.062"/></svg>
