<?xml version="1.0" encoding="UTF-8" standalone="no"?>
<svg
   xmlns:dc="http://purl.org/dc/elements/1.1/"
   xmlns:cc="http://creativecommons.org/ns#"
   xmlns:rdf="http://www.w3.org/1999/02/22-rdf-syntax-ns#"
   xmlns:svg="http://www.w3.org/2000/svg"
   xmlns="http://www.w3.org/2000/svg"
   xmlns:sodipodi="http://sodipodi.sourceforge.net/DTD/sodipodi-0.dtd"
   xmlns:inkscape="http://www.inkscape.org/namespaces/inkscape"
   width="1000px"
   height="1000px"
   viewBox="0 0 1000 1000"
   version="1.1"
   id="svg2"
   inkscape:version="0.48.4 r9939"
   sodipodi:docname="edit-paste.svg">
  <metadata
     id="metadata25">
    <rdf:RDF>
      <cc:Work
         rdf:about="">
        <dc:format>image/svg+xml</dc:format>
        <dc:type
           rdf:resource="http://purl.org/dc/dcmitype/StillImage" />
      </cc:Work>
    </rdf:RDF>
  </metadata>
  <defs
     id="defs23" />
  <sodipodi:namedview
     pagecolor="#ffffff"
     bordercolor="#666666"
     borderopacity="1"
     objecttolerance="10"
     gridtolerance="10"
     guidetolerance="10"
     inkscape:pageopacity="0"
     inkscape:pageshadow="2"
     inkscape:window-width="1280"
     inkscape:window-height="985"
     id="namedview21"
     showgrid="false"
     inkscape:zoom="0.5"
     inkscape:cx="428.5748"
     inkscape:cy="501"
     inkscape:window-x="-2"
     inkscape:window-y="16"
     inkscape:window-maximized="1"
     inkscape:current-layer="svg2" />
  <path
     id="path19"
     d="M 361.28125,25 C 330.464,25 305.25,50.26884 305.25,81.03125 c 0,30.78085 25.25039,56.03125 56.03125,56.03125 l 288.9375,0 c 30.81725,0 56.09375,-25.2504 56.09375,-56.03125 C 706.3125,50.250395 681.036,25 650.21875,25 z m 0,25.6875 288.9375,0 c 16.93949,0 30.40625,13.470553 30.40625,30.34375 0,16.873197 -13.46676,30.34375 -30.40625,30.34375 l -288.9375,0 c -16.8732,0 -30.34375,-13.470553 -30.34375,-30.34375 0,-16.891642 13.40424,-30.34375 30.34375,-30.34375 z m -66.19881,653.84493 437.25674,0 0,21.46486 -437.25674,0 z m 0,-114.25676 437.25674,0 0,21.51622 -437.25674,0 z m 0,-114.35945 437.25674,0 0,21.56756 -437.25674,0 z m 0,-114.30811 437.25674,0 0,21.56757 -437.25674,0 z m 0,-114.3081 437.25674,0 0,21.51621 -437.25674,0 z M 179.59375,67.78125 c -15.82743,0 -26.40625,14.33166 -26.40625,29.15625 l 0,784.90625 c 0,14.8063 10.57881,29.125 26.40625,29.125 l 542.5625,0 5.375,0 3.75,-3.8125 121,-121.90625 L 856,781.5 856,776.21875 856,96.9375 C 856,82.161537 845.41512,67.78125 829.59375,67.78125 l -124.90625,0 c 1.04696,4.256308 1.625,8.686272 1.625,13.25 0,4.262423 -0.52052,8.408292 -1.4375,12.40625 l 124.5,0 c -0.25805,0.08345 0.9375,0.612751 0.9375,3.5 l 0,674 -113.46875,114.34375 -537.25,0 c 0.93556,0 -0.71875,-0.27084 -0.71875,-3.4375 l 0,-784.90625 c 0,-3.251086 1.6543,-3.5 0.71875,-3.5 l 127.09375,0 c -0.91603,-3.997958 -1.4375,-8.143827 -1.4375,-12.40625 0,-4.560993 0.58038,-8.994985 1.625,-13.25 z M 79.0625,51.96875 c -16.80136,0 -30.375,14.116926 -30.375,30.8125 l 0,861.40625 c 0,16.71195 13.619164,30.8125 30.375,30.8125 l 841.78125,0 c 16.81489,0 30.46875,-14.07259 30.46875,-30.8125 l 0,-861.40625 c 0,-16.800186 -13.71291,-30.8125 -30.46875,-30.8125 l -222.75,0 c 4.64734,7.579505 7.55522,16.313597 8.125,25.65625 l 214.625,0 c 2.55226,0 4.78125,2.032112 4.78125,5.15625 l 0,861.40625 c 0,3.08171 -2.18532,5.125 -4.78125,5.125 l -841.78125,0 c -2.552272,0 -4.6875,-1.91263 -4.6875,-5.125 l 0,-861.40625 c 0,-3.126048 2.180752,-5.15625 4.6875,-5.15625 l 226.28125,0 c 0.56842,-9.338031 3.48615,-18.076481 8.125,-25.65625 z"
     inkscape:connector-curvature="0"
     sodipodi:nodetypes="sssssssssssssscccccccccccccccccccccccccssssccccccsscsccscccssccscsssssssssccssssssssccs" />
</svg>
