<svg xmlns="http://www.w3.org/2000/svg" width="1000" height="1000" viewBox="-125 -125 1000 1000"><path d="M519.29 474.242L641.601 596.56l-44.68 45.41-122.313-123.047zM706.054 596.56c0-7.325-2.442-13.43-7.325-18.313L160.398 39.918c-4.882-4.883-10.984-7.324-18.308-7.324s-13.672 2.441-19.043 7.324L40.28 122.68c-5.367 4.882-8.054 11.23-8.054 19.043 0 7.812 2.687 13.918 8.054 18.312l538.332 538.328c4.883 5.371 10.989 8.059 18.309 8.059 7.328 0 13.672-2.688 19.047-8.059l82.761-82.761c4.883-4.883 7.325-11.23 7.325-19.043zm-565.43 79.832l41.016-12.45-41.016-12.453-12.453-41.015-12.45 41.015-41.015 12.453 41.016 12.45 12.449 41.015zm146.484-68.114l82.032-24.902-82.032-24.902-24.902-82.032-24.902 82.032-82.032 24.902 82.032 24.902 24.902 82.032zm389.649-199.953l41.015-12.449-41.015-12.453-12.453-41.016-12.45 41.016-41.015 12.453 41.015 12.45 12.45 41.015zM408.69 676.391l41.016-12.45-41.016-12.453-12.449-41.015-12.453 41.015-41.016 12.453 41.016 12.45 12.453 41.015zm0 0"/></svg>
