<?xml version="1.0" encoding="UTF-8" standalone="no"?>
<svg
   xmlns:dc="http://purl.org/dc/elements/1.1/"
   xmlns:cc="http://creativecommons.org/ns#"
   xmlns:rdf="http://www.w3.org/1999/02/22-rdf-syntax-ns#"
   xmlns:svg="http://www.w3.org/2000/svg"
   xmlns="http://www.w3.org/2000/svg"
   xmlns:sodipodi="http://sodipodi.sourceforge.net/DTD/sodipodi-0.dtd"
   xmlns:inkscape="http://www.inkscape.org/namespaces/inkscape"
   width="1000px"
   height="1000px"
   viewBox="0 0 1000 1000"
   version="1.1"
   id="svg2"
   inkscape:version="0.48.4 r9939"
   sodipodi:docname="document-save-as.svg">
  <metadata
     id="metadata15">
    <rdf:RDF>
      <cc:Work
         rdf:about="">
        <dc:format>image/svg+xml</dc:format>
        <dc:type
           rdf:resource="http://purl.org/dc/dcmitype/StillImage" />
      </cc:Work>
    </rdf:RDF>
  </metadata>
  <defs
     id="defs13" />
  <sodipodi:namedview
     pagecolor="#ffffff"
     bordercolor="#666666"
     borderopacity="1"
     objecttolerance="10"
     gridtolerance="10"
     guidetolerance="10"
     inkscape:pageopacity="0"
     inkscape:pageshadow="2"
     inkscape:window-width="1280"
     inkscape:window-height="985"
     id="namedview11"
     showgrid="false"
     inkscape:zoom="0.5"
     inkscape:cx="419.97403"
     inkscape:cy="424.35593"
     inkscape:window-x="-2"
     inkscape:window-y="16"
     inkscape:window-maximized="1"
     inkscape:current-layer="svg2" />
  <path
     id="path9"
     d="m 295.39054,753.52161 c -12.29736,0 -22.91322,1.5613 -32.0946,4.8142 -4.59069,1.62645 -9.04912,4.85465 -12.83783,8.02364 -3.7887,3.169 -8.02365,7.57849 -8.02365,14.44257 l 0,166.89188 c 0,6.84483 4.22833,12.86824 8.02365,16.04731 3.79533,3.17905 8.24436,4.79554 12.83783,6.41892 9.18692,3.24673 19.80715,4.81417 32.0946,4.81417 l 470.18581,0 c 12.27457,0 22.91991,-1.56077 32.09459,-4.81417 4.58736,-1.62672 9.05077,-3.25003 12.83784,-6.41892 3.78705,-3.1689 8.02364,-9.18322 8.02364,-16.04731 l 0,-166.89188 c 0,-6.85001 -4.23987,-11.27014 -8.02364,-14.44257 -3.78378,-3.17243 -8.25155,-6.39586 -12.83784,-8.02364 -9.17253,-3.25558 -19.79723,-4.8142 -32.09459,-4.8142 z m 0,25.67568 470.18581,0 c 9.83506,0 18.77524,1.32989 24.07093,3.20945 1.62944,0.57832 2.41204,1.1515 3.20947,1.60474 l 0,160.47297 c -0.80139,0.45482 -1.57674,1.02575 -3.20947,1.60473 -5.30637,1.88171 -14.26442,3.20945 -24.07093,3.20945 l -470.18581,0 c -9.84497,0 -18.76393,-1.33389 -24.07093,-3.20945 -1.63293,-0.57709 -2.41132,-1.15223 -3.20947,-1.60473 l 0,-160.47297 c 0.802,-0.45488 1.57485,-1.02559 3.20947,-1.60474 5.31255,-1.88222 14.23587,-3.20945 24.07093,-3.20945 z M 202.31622,24.97433 c -15.67566,0 -28.63142,2.27622 -40.11823,8.02366 -11.48682,5.747424 -22.46623,16.567721 -22.46623,30.489852 l 0,465.371618 c 0,13.90645 9.37816,24.72397 20.86148,30.48987 11.48335,5.76587 26.01697,8.02364 41.72298,8.02364 l 595.35472,0 c 15.68358,0 30.23686,-2.26043 41.72297,-8.02364 11.48612,-5.76322 20.86148,-16.56776 20.86148,-30.48987 l 0,-465.371618 c 0,-13.921868 -10.98405,-24.736676 -22.46621,-30.489852 -11.48216,-5.753175 -24.43466,-8.02366 -40.11824,-8.02366 z m 0,25.675675 595.35472,0 c 12.20021,0 22.07338,3.005886 28.88513,6.418918 6.81177,3.413049 8.02364,6.373237 8.02364,6.418919 l 0,465.371618 c 0,0.0968 -1.21583,3.00307 -8.02364,6.41892 -6.80779,3.41584 -16.68492,6.41892 -28.88513,6.41892 l -595.35472,0 c -12.22911,0 -22.08739,-3.00576 -28.88514,-6.41892 -6.79773,-3.41317 -8.02364,-6.30646 -8.02364,-6.41892 l 0,-465.371618 c 0,-0.09679 1.21654,-3.012968 8.02364,-6.418919 6.80714,-3.405933 16.67703,-6.418918 28.88514,-6.418918 z M 104.4375,24.96875 c -44.063848,0 -78.65625,36.186155 -78.65625,80.25 l 0,789.53125 c 0,44.06383 34.592402,80.21875 78.65625,80.21875 l 190.9375,0 c -12.28745,0 -22.90683,-1.56577 -32.09375,-4.8125 -4.59347,-1.62338 -9.01717,-3.2272 -12.8125,-6.40625 -3.49315,-2.92597 -7.37627,-8.26981 -7.96875,-14.4375 l -138.0625,0 c -30.190225,0 -52.96875,-24.37228 -52.96875,-54.5625 l 0,-789.53125 c 0,-30.190205 22.778525,-54.5625 52.96875,-54.5625 l 38.59375,0 C 147.13842,42.913115 154.53907,36.826888 162.1875,33 c 11.48681,-5.74744 24.44934,-8.03125 40.125,-8.03125 z m 693.21875,0 c 15.68358,0 28.64284,2.278075 40.125,8.03125 7.64381,3.829956 15.04755,9.916593 19.15625,17.65625 l 38.625,0 c 30.19022,0 54.5625,24.384126 54.5625,54.5625 l 0,789.53125 c 0,30.17837 -24.37228,54.5625 -54.5625,54.5625 l -77.125,0 c -0.59391,6.18094 -4.45217,11.52107 -7.9375,14.4375 -3.78707,3.16889 -8.25639,4.77953 -12.84375,6.40625 -9.17468,3.2534 -19.81918,4.8125 -32.09375,4.8125 l 130,0 c 44.06383,0 80.21875,-36.14308 80.21875,-80.21875 l 0,-789.53125 c 0,-44.075676 -36.15492,-80.25 -80.21875,-80.25 z"
     inkscape:connector-curvature="0"
     sodipodi:nodetypes="ssssssssssssssssssssccssssccsssssssssssssssssssssssssssssssscsscsssscscscscsssscsscssssc" />
</svg>
