<svg xmlns="http://www.w3.org/2000/svg">
    <symbol id="fg1" viewBox="0 0 662 791">
        <mask id="path-1-inside-1" fill="white">
            <path fill-rule="evenodd" clip-rule="evenodd" d="M352 268.905L354.646 266.452C358.516 262.866 364.343 263.517 367.718 267.913C368.65 269.127 368.944 287.077 368.968 344.3C368.969 347.084 368.971 349.772 368.972 352.366C369.004 414.251 369.008 422.998 365.438 424.849C364.85 425.154 364.165 425.272 363.368 425.409C363.165 425.444 362.955 425.48 362.737 425.521C358.746 426.27 354.482 424.769 353.061 422.114C352.34 420.767 352 395.904 352 344.518V306.711V268.905ZM401.5 267.911C402.05 267.038 403.4 265.814 404.5 265.192C407.755 263.351 411.529 263.834 414.354 266.452L417 268.905L416.968 358.702C416.944 427.743 416.655 448.855 415.718 450.035C414.573 451.479 401.353 459.499 382 470.491C377.325 473.147 369.9 477.446 365.5 480.045C361.1 482.644 349.85 489.17 340.5 494.548C331.15 499.926 320.575 506.026 317 508.105C313.425 510.184 308.7 512.866 306.5 514.064C304.3 515.263 297.1 519.403 290.5 523.263C283.9 527.123 275.575 531.952 272 533.995C268.425 536.037 261.556 540.023 256.736 542.854C246.249 549.012 241.449 549.658 238.073 545.365C235.372 541.933 235.441 537.755 238.25 534.524C239.488 533.1 247.025 528.205 255 523.646C262.975 519.086 278.275 510.265 289 504.044C299.725 497.822 311.425 491.062 315 489.022C318.575 486.982 327.575 481.797 335 477.5C342.425 473.203 351.425 468.033 355 466.013C358.575 463.992 365.775 459.841 371 456.789C376.225 453.737 384.775 448.76 390 445.73L399.5 440.219L400 354.86C400.318 300.566 400.864 268.922 401.5 267.911ZM146.831 582.651C143.539 561.48 152.909 543.962 170.5 538.399C176.015 536.655 186.63 536.701 192.672 538.495C199.205 540.435 206.607 546.954 209.591 553.394C210.857 556.127 211.697 558.681 211.458 559.068C211.218 559.456 209.41 560.076 207.44 560.445C205.47 560.815 203.292 561.335 202.6 561.6C201.854 561.886 200.589 560.416 199.497 557.992C195.773 549.735 187.212 545.141 178.095 546.509C164.743 548.511 157.898 558.128 157.787 575.041C157.663 593.778 166.277 604.919 180.934 604.978C188.359 605.008 194.085 602.096 197.886 596.359C199.53 593.877 201.153 590.578 201.494 589.028L202.113 586.211L207.16 587.542C209.936 588.274 212.401 589.068 212.639 589.305C212.876 589.543 212.12 592.276 210.959 595.38C208.081 603.071 201.143 610.1 193.962 612.599C186.207 615.298 173.186 615.058 166.463 612.093C155.905 607.437 149.097 597.227 146.831 582.651ZM0 613V575.5V538H5.5H11V553.5V569H30H49V553.5V538H54H59V575.5V613H54H49V595.5V578H30H11V595.5V613H5.5H0ZM80.543 579.695C83.032 571.191 87.811 565.545 94.5 563.207C98.934 561.657 108.257 561.791 112.257 563.463C120.616 566.955 125 573.167 125 581.518C125 586.866 123.198 590.814 119.236 594.148L116.4 596.534L119.95 598.248C127.718 602 131.273 613.759 127.57 623.456C124.333 631.932 113.389 639 103.5 639C92.333 639 82.456 631.518 80.181 621.334C79.332 617.535 79.437 617.118 81.375 616.598C85.74 615.426 90 615.928 90 617.614C90 620.383 94.058 626.603 96.999 628.34C103.136 631.965 111.975 629.37 116.005 622.759C118.478 618.703 118.601 611.827 116.272 607.883C113.739 603.596 107.162 600.703 101.781 601.51L97.473 602.156L97.837 597.578C98.195 593.078 98.262 593 101.715 593C106.102 593 112.438 589.529 113.897 586.327C119.002 575.122 104.877 565.136 95.463 573.295C94.063 574.508 92.296 577.3 91.535 579.5C90.775 581.7 89.556 583.426 88.826 583.336C80.971 582.368 79.898 581.897 80.543 579.695ZM535.989 788.5L557.093 751.25L578.198 714H584.599C588.12 714 591 714.215 591 714.478C591 714.741 593.7 731.438 597 751.583C600.3 771.727 603 788.387 603 788.605C603 788.822 600.525 789 597.5 789C592.928 789 592 788.705 592.002 787.25C592.003 786.288 591.281 781.563 590.398 776.75L588.792 768L574.146 768.018L559.5 768.037L554.034 778.133C551.027 783.686 548.048 788.428 547.414 788.671C546.78 788.915 543.95 788.976 541.125 788.807L535.989 788.5ZM587 757.599C587 756.829 586.092 749.967 584.983 742.349C583.874 734.732 582.861 727.901 582.733 727.17C582.605 726.438 580.83 729.138 578.789 733.17C576.748 737.201 572.778 744.663 569.966 749.75L564.854 759H575.927C584.754 759 587 758.716 587 757.599ZM613.632 768.015C613.632 750.726 622.95 736.696 636.184 734.058C649.171 731.469 659.229 737.305 661.326 748.643C661.894 751.715 661.806 751.802 657.457 752.454C652.333 753.223 651 752.688 651 749.864C651 746.681 645.67 742 642.045 742C631.553 742 624.018 753.291 624.027 769C624.03 775.996 625.568 779.036 630.265 781.336C633.961 783.145 634.079 783.14 638.576 780.963C642.026 779.293 643.79 777.551 645.819 773.81C648.481 768.9 648.531 768.868 652.799 769.315C658.224 769.883 658.553 770.251 656.996 774.009C654.724 779.495 650.187 784.806 645.353 787.639C641.471 789.914 639.433 790.412 634 790.412C620.55 790.412 613.632 782.804 613.632 768.015Z"/>
            <path fill-rule="evenodd" clip-rule="evenodd" d="M394.802 142.333C384.643 146.615 378.65 153.172 374.994 164.006C373.157 169.451 372.86 172.203 373.16 181.039C373.481 190.52 373.843 192.24 376.768 198.181C380.565 205.893 386.014 211.193 393.88 214.824C398.602 217.004 400.937 217.42 408.5 217.429C416.494 217.439 418.226 217.096 424 214.357C435.718 208.799 441.993 199.855 444.096 185.714C445.523 176.118 444.119 166.715 440.013 158.375C434.259 146.687 424.36 140.811 409.5 140.263C401.78 139.978 399.69 140.273 394.802 142.333ZM433.187 178.472C433.102 163.683 426.231 153.248 414.5 150.088C407.365 148.167 400.47 149.619 393.91 154.424C388.158 158.638 385.055 164.956 384.297 173.995C383.428 184.367 384.647 191.251 388.321 196.712C393.119 203.843 398.42 207.103 406.236 207.731C414.244 208.374 418.982 206.915 424.203 202.198C430.785 196.251 433.252 189.736 433.187 178.472Z"/>
            <path d="M440 4.5V9H478H516V379V749H478H440V753.5V758H482.5H525V379V0H482.5H440V4.5Z"/>
            <path d="M63 379V758H105H147V753.5V749H109H71V379V9H109H147V4.5V0H105H63V50V379Z"/>
        </mask>
        <path d="M62.5 50V758H63.5V50H62.5ZM63 758H62V759H63V758ZM147 758V759H148V758H147ZM147 749H148V748H147V749ZM71 749H70V750H71V749ZM71 9V8H70V9H71ZM147 9V10H148V9H147ZM147 0H148V-1H147V0ZM63 0V-1H62V0H63ZM440 9H439V10H440V9ZM516 9H517V8H516V9ZM516 749V750H517V749H516ZM440 749V748H439V749H440ZM440 758H439V759H440V758ZM525 758V759H526V758H525ZM525 0H526V-1H525V0ZM440 0V-1H439V0H440ZM394.802 142.333L394.414 141.411L394.414 141.412L394.802 142.333ZM374.994 164.006L374.046 163.686L374.046 163.686L374.994 164.006ZM373.16 181.039L374.159 181.005L374.159 181.005L373.16 181.039ZM376.768 198.181L375.871 198.623L375.871 198.623L376.768 198.181ZM393.88 214.824L394.299 213.916L394.299 213.916L393.88 214.824ZM408.5 217.429L408.501 216.429L408.501 216.429L408.5 217.429ZM424 214.357L423.571 213.453L423.571 213.453L424 214.357ZM444.096 185.714L445.085 185.861L445.085 185.861L444.096 185.714ZM440.013 158.375L439.116 158.817L439.116 158.817L440.013 158.375ZM409.5 140.263L409.463 141.262L409.463 141.262L409.5 140.263ZM414.5 150.088L414.76 149.122L414.76 149.122L414.5 150.088ZM433.187 178.472L432.187 178.478L432.187 178.478L433.187 178.472ZM424.203 202.198L424.873 202.94L424.873 202.94L424.203 202.198ZM406.236 207.731L406.156 208.728L406.156 208.728L406.236 207.731ZM388.321 196.712L387.491 197.27L387.491 197.27L388.321 196.712ZM384.297 173.995L383.3 173.911L383.3 173.912L384.297 173.995ZM393.91 154.424L393.319 153.617L393.319 153.617L393.91 154.424ZM354.646 266.452L353.966 265.718L353.966 265.719L354.646 266.452ZM352 268.905L351.32 268.172L351 268.468V268.905H352ZM353.061 422.114L353.943 421.642L353.943 421.642L353.061 422.114ZM362.737 425.521L362.553 424.538L362.553 424.538L362.737 425.521ZM368.968 344.3L367.968 344.3L367.968 344.3L368.968 344.3ZM367.718 267.913L368.511 267.304L368.511 267.304L367.718 267.913ZM404.5 265.192L404.992 266.062L404.992 266.062L404.5 265.192ZM401.5 267.911L400.654 267.378L400.654 267.379L401.5 267.911ZM400 354.86L401 354.866L401 354.866L400 354.86ZM399.5 440.219L400.002 441.084L400.497 440.797L400.5 440.225L399.5 440.219ZM390 445.73L390.502 446.595L390.502 446.595L390 445.73ZM355 466.013L355.492 466.884L355.492 466.884L355 466.013ZM289 504.044L289.502 504.909L289.502 504.909L289 504.044ZM255 523.646L255.496 524.514L255.496 524.514L255 523.646ZM238.25 534.524L239.005 535.18L239.005 535.18L238.25 534.524ZM238.073 545.365L238.859 544.747L238.859 544.747L238.073 545.365ZM256.736 542.854L257.242 543.716L257.242 543.716L256.736 542.854ZM272 533.995L272.496 534.863L272.496 534.863L272 533.995ZM306.5 514.064L306.022 513.186L306.021 513.186L306.5 514.064ZM382 470.491L381.506 469.621L381.506 469.622L382 470.491ZM415.718 450.035L414.935 449.413L414.934 449.414L415.718 450.035ZM416.968 358.702L415.968 358.702L415.968 358.702L416.968 358.702ZM417 268.905L418 268.905L418 268.469L417.68 268.172L417 268.905ZM414.354 266.452L415.034 265.719L415.034 265.719L414.354 266.452ZM170.5 538.399L170.198 537.446L170.198 537.446L170.5 538.399ZM146.831 582.651L147.819 582.497L147.819 582.497L146.831 582.651ZM166.463 612.093L166.867 611.178L166.866 611.178L166.463 612.093ZM193.962 612.599L193.633 611.655L193.633 611.655L193.962 612.599ZM210.959 595.38L211.896 595.73L211.896 595.73L210.959 595.38ZM212.639 589.305L213.348 588.599L213.345 588.596L212.639 589.305ZM207.16 587.542L206.905 588.509L206.905 588.509L207.16 587.542ZM202.113 586.211L202.368 585.244L201.36 584.978L201.136 585.996L202.113 586.211ZM201.494 589.028L202.471 589.243L202.471 589.243L201.494 589.028ZM197.886 596.359L198.72 596.911L198.72 596.911L197.886 596.359ZM180.934 604.978L180.938 603.978L180.938 603.978L180.934 604.978ZM157.787 575.041L158.787 575.048L158.787 575.048L157.787 575.041ZM178.095 546.509L178.243 547.498L178.243 547.498L178.095 546.509ZM199.497 557.992L200.409 557.581L200.409 557.581L199.497 557.992ZM202.6 561.6L202.242 560.666L202.242 560.666L202.6 561.6ZM207.44 560.445L207.256 559.462L207.255 559.462L207.44 560.445ZM211.458 559.068L212.308 559.594L212.309 559.593L211.458 559.068ZM209.591 553.394L210.498 552.974L210.498 552.974L209.591 553.394ZM192.672 538.495L192.957 537.536L192.957 537.536L192.672 538.495ZM0 613H-1V614H0V613ZM11 613V614H12V613H11ZM11 578V577H10V578H11ZM49 578H50V577H49V578ZM49 613H48V614H49V613ZM59 613V614H60V613H59ZM59 538H60V537H59V538ZM49 538V537H48V538H49ZM49 569V570H50V569H49ZM11 569H10V570H11V569ZM11 538H12V537H11V538ZM0 538V537H-1V538H0ZM94.5 563.207L94.83 564.151L94.83 564.151L94.5 563.207ZM80.543 579.695L81.5027 579.976L81.5027 579.976L80.543 579.695ZM88.826 583.336L88.9484 582.344L88.9483 582.344L88.826 583.336ZM91.535 579.5L90.5899 579.173L90.5898 579.173L91.535 579.5ZM95.463 573.295L96.1178 574.051L96.1179 574.051L95.463 573.295ZM113.897 586.327L114.807 586.742L114.807 586.742L113.897 586.327ZM97.837 597.578L96.8402 597.499L96.8402 597.499L97.837 597.578ZM97.473 602.156L96.4762 602.077L96.3764 603.332L97.6213 603.145L97.473 602.156ZM101.781 601.51L101.929 602.499L101.929 602.499L101.781 601.51ZM116.272 607.883L117.133 607.375L117.133 607.374L116.272 607.883ZM116.005 622.759L115.151 622.238L115.151 622.238L116.005 622.759ZM96.999 628.34L97.5076 627.479L97.5075 627.479L96.999 628.34ZM81.375 616.598L81.6342 617.564L81.6343 617.564L81.375 616.598ZM80.181 621.334L81.1569 621.116L81.1569 621.116L80.181 621.334ZM127.57 623.456L128.504 623.813L128.504 623.813L127.57 623.456ZM119.95 598.248L120.385 597.348L120.385 597.347L119.95 598.248ZM116.4 596.534L115.756 595.769L114.574 596.763L115.965 597.435L116.4 596.534ZM119.236 594.148L119.88 594.913L119.88 594.913L119.236 594.148ZM112.257 563.463L111.871 564.386L111.872 564.386L112.257 563.463ZM557.093 751.25L556.223 750.757L556.223 750.757L557.093 751.25ZM535.989 788.5L535.119 788.007L534.328 789.403L535.929 789.498L535.989 788.5ZM541.125 788.807L541.185 787.809L541.185 787.809L541.125 788.807ZM547.414 788.671L547.056 787.737L547.055 787.738L547.414 788.671ZM554.034 778.133L554.913 778.609L554.913 778.609L554.034 778.133ZM559.5 768.037L559.499 767.037L558.904 767.038L558.621 767.561L559.5 768.037ZM574.146 768.018L574.145 767.018L574.145 767.018L574.146 768.018ZM588.792 768L589.776 767.819L589.625 766.999L588.791 767L588.792 768ZM590.398 776.75L591.382 776.57L591.382 776.569L590.398 776.75ZM592.002 787.25L593.002 787.251L593.002 787.251L592.002 787.25ZM597 751.583L596.013 751.745L596.013 751.745L597 751.583ZM578.198 714V713H577.615L577.328 713.507L578.198 714ZM584.983 742.349L585.973 742.205L585.973 742.205L584.983 742.349ZM564.854 759L563.979 758.516L563.159 760H564.854V759ZM569.966 749.75L569.091 749.266L569.091 749.266L569.966 749.75ZM578.789 733.17L579.681 733.622L579.681 733.622L578.789 733.17ZM582.733 727.17L581.748 727.342L581.748 727.342L582.733 727.17ZM636.184 734.058L636.38 735.039L636.38 735.039L636.184 734.058ZM645.353 787.639L645.859 788.502L645.859 788.502L645.353 787.639ZM656.996 774.009L656.072 773.626L656.072 773.626L656.996 774.009ZM652.799 769.315L652.695 770.31L652.695 770.31L652.799 769.315ZM645.819 773.81L646.698 774.287L646.698 774.287L645.819 773.81ZM638.576 780.963L638.14 780.063L638.14 780.063L638.576 780.963ZM630.265 781.336L629.825 782.234L629.825 782.234L630.265 781.336ZM624.027 769L625.027 769L625.027 768.999L624.027 769ZM657.457 752.454L657.309 751.465L657.309 751.465L657.457 752.454ZM661.326 748.643L662.309 748.461L662.309 748.461L661.326 748.643ZM365.438 424.849L365.898 425.737L365.898 425.737L365.438 424.849ZM363.368 425.409L363.199 424.423L363.199 424.423L363.368 425.409ZM368.972 352.366L369.972 352.366L369.972 352.366L368.972 352.366ZM62 379V758H64V379H62ZM63 759H105V757H63V759ZM105 759H147V757H105V759ZM148 758V753.5H146V758H148ZM148 753.5V749H146V753.5H148ZM147 748H109V750H147V748ZM109 748H71V750H109V748ZM72 749V379H70V749H72ZM72 379V9H70V379H72ZM71 10H109V8H71V10ZM109 10H147V8H109V10ZM148 9V4.5H146V9H148ZM148 4.5V0H146V4.5H148ZM147 -1H105V1H147V-1ZM105 -1H63V1H105V-1ZM439 4.5V9H441V4.5H439ZM440 10H478V8H440V10ZM478 10H516V8H478V10ZM515 9V379H517V9H515ZM515 379V749H517V379H515ZM516 748H478V750H516V748ZM478 748H440V750H478V748ZM439 749V753.5H441V749H439ZM439 753.5V758H441V753.5H439ZM440 759H482.5V757H440V759ZM482.5 759H525V757H482.5V759ZM526 758V379H524V758H526ZM526 379V0H524V379H526ZM525 -1H482.5V1H525V-1ZM482.5 -1H440V1H482.5V-1ZM439 0V4.5H441V0H439ZM394.414 141.412C389.227 143.598 385.061 146.384 381.721 150.038C378.383 153.691 375.909 158.168 374.046 163.686L375.941 164.326C377.735 159.01 380.086 154.792 383.198 151.387C386.308 147.984 390.218 145.35 395.19 143.254L394.414 141.412ZM374.046 163.686C373.115 166.448 372.558 168.573 372.281 171.144C372.007 173.693 372.01 176.652 372.161 181.073L374.159 181.005C374.01 176.59 374.012 173.755 374.27 171.358C374.526 168.983 375.036 167.009 375.942 164.326L374.046 163.686ZM372.161 181.073C372.321 185.801 372.492 188.687 373.009 191.143C373.532 193.629 374.401 195.637 375.871 198.623L377.665 197.739C376.21 194.784 375.435 192.961 374.966 190.732C374.491 188.472 374.32 185.758 374.159 181.005L372.161 181.073ZM375.871 198.623C379.77 206.542 385.389 212.006 393.461 215.732L394.299 213.916C386.639 210.38 381.36 205.244 377.665 197.739L375.871 198.623ZM393.461 215.732C395.861 216.84 397.713 217.527 399.949 217.925C402.162 218.319 404.713 218.424 408.499 218.429L408.501 216.429C404.724 216.425 402.326 216.317 400.3 215.956C398.298 215.599 396.621 214.988 394.299 213.916L393.461 215.732ZM408.499 218.429C412.49 218.434 415.014 218.353 417.277 217.905C419.559 217.453 421.529 216.636 424.429 215.26L423.571 213.453C420.697 214.817 418.914 215.541 416.888 215.943C414.843 216.348 412.504 216.434 408.501 216.429L408.499 218.429ZM424.429 215.261C430.419 212.419 435.062 208.689 438.472 203.828C441.879 198.973 444.017 193.044 445.085 185.861L443.107 185.567C442.072 192.525 440.021 198.139 436.835 202.68C433.653 207.216 429.299 210.737 423.571 213.453L424.429 215.261ZM445.085 185.861C446.541 176.073 445.11 166.464 440.91 157.933L439.116 158.817C443.128 166.966 444.505 176.163 443.107 185.567L445.085 185.861ZM440.91 157.933C437.958 151.937 433.919 147.391 428.682 144.282C423.452 141.177 417.088 139.542 409.537 139.264L409.463 141.262C416.772 141.532 422.788 143.109 427.661 146.001C432.526 148.889 436.314 153.125 439.116 158.817L440.91 157.933ZM409.537 139.264C405.678 139.121 403.145 139.119 400.95 139.428C398.727 139.741 396.892 140.367 394.414 141.411L395.19 143.255C397.6 142.239 399.254 141.687 401.228 141.409C403.23 141.127 405.602 141.12 409.463 141.262L409.537 139.264ZM414.24 151.054C425.422 154.066 432.104 164.008 432.187 178.478L434.187 178.466C434.1 163.358 427.04 152.43 414.76 149.122L414.24 151.054ZM432.187 178.478C432.219 184.042 431.624 188.352 430.252 191.975C428.887 195.582 426.727 198.57 423.533 201.456L424.873 202.94C428.261 199.879 430.626 196.636 432.123 192.683C433.614 188.746 434.22 184.166 434.187 178.466L432.187 178.478ZM423.533 201.456C421 203.744 418.635 205.198 415.97 206.019C413.296 206.842 410.248 207.05 406.316 206.734L406.156 208.728C410.232 209.055 413.557 208.855 416.559 207.93C419.571 207.003 422.185 205.369 424.873 202.94L423.533 201.456ZM406.316 206.734C402.534 206.43 399.414 205.495 396.671 203.808C393.923 202.118 391.494 199.637 389.151 196.154L387.491 197.27C389.946 200.918 392.567 203.632 395.623 205.512C398.684 207.395 402.122 208.404 406.156 208.728L406.316 206.734ZM389.151 196.154C385.659 190.964 384.433 184.348 385.294 174.078L383.3 173.912C382.423 184.386 383.635 191.538 387.491 197.27L389.151 196.154ZM385.293 174.079C386.034 165.244 389.043 159.229 394.501 155.231L393.319 153.617C387.273 158.047 384.076 164.668 383.3 173.911L385.293 174.079ZM394.501 155.231C400.844 150.585 407.43 149.22 414.24 151.054L414.76 149.122C407.3 147.114 400.096 148.653 393.319 153.617L394.501 155.231ZM353.966 265.719L351.32 268.172L352.68 269.638L355.326 267.185L353.966 265.719ZM351 344.518C351 370.212 351.085 389.28 351.26 402.094C351.348 408.5 351.458 413.351 351.592 416.688C351.659 418.354 351.732 419.655 351.812 420.587C351.852 421.051 351.895 421.438 351.942 421.74C351.966 421.89 351.993 422.032 352.024 422.159C352.051 422.269 352.097 422.432 352.179 422.586L353.943 421.642C353.98 421.712 353.982 421.744 353.965 421.679C353.953 421.629 353.937 421.549 353.918 421.43C353.881 421.195 353.843 420.859 353.805 420.415C353.728 419.529 353.657 418.264 353.59 416.607C353.458 413.298 353.348 408.468 353.26 402.067C353.085 389.267 353 370.21 353 344.518H351ZM352.179 422.586C353.045 424.203 354.712 425.371 356.603 426.037C358.509 426.708 360.751 426.911 362.921 426.504L362.553 424.538C360.732 424.88 358.846 424.707 357.267 424.151C355.674 423.59 354.498 422.68 353.943 421.642L352.179 422.586ZM369.968 344.3C369.956 315.689 369.877 296.888 369.683 285.087C369.587 279.188 369.462 275.025 369.301 272.256C369.221 270.874 369.132 269.819 369.029 269.063C368.978 268.686 368.921 268.362 368.855 268.098C368.799 267.876 368.705 267.556 368.511 267.304L366.925 268.522C366.848 268.421 366.865 268.385 366.916 268.586C366.956 268.747 367.001 268.989 367.047 269.331C367.139 270.012 367.226 271.006 367.305 272.371C367.463 275.097 367.587 279.226 367.684 285.119C367.876 296.902 367.956 315.688 367.968 344.3L369.968 344.3ZM368.511 267.304C364.81 262.484 358.307 261.697 353.966 265.718L355.326 267.186C358.725 264.035 363.875 264.55 366.925 268.522L368.511 267.304ZM404.008 264.322C403.377 264.678 402.705 265.188 402.122 265.716C401.546 266.239 400.997 266.833 400.654 267.378L402.346 268.444C402.553 268.116 402.954 267.662 403.465 267.198C403.97 266.741 404.523 266.328 404.992 266.062L404.008 264.322ZM400.654 267.379C400.529 267.577 400.481 267.8 400.463 267.884C400.435 268.014 400.411 268.166 400.39 268.329C400.347 268.658 400.307 269.098 400.269 269.639C400.191 270.725 400.116 272.269 400.043 274.251C399.897 278.218 399.759 283.973 399.631 291.387C399.375 306.217 399.159 327.706 399 354.854L401 354.866C401.159 327.72 401.375 306.24 401.631 291.422C401.758 284.011 401.896 278.272 402.041 274.325C402.114 272.35 402.188 270.832 402.263 269.782C402.301 269.255 402.338 268.859 402.374 268.586C402.391 268.449 402.407 268.359 402.418 268.306C402.439 268.208 402.431 268.308 402.346 268.443L400.654 267.379ZM399 354.854L398.5 440.213L400.5 440.225L401 354.866L399 354.854ZM398.998 439.354L389.498 444.865L390.502 446.595L400.002 441.084L398.998 439.354ZM389.498 444.865C384.272 447.895 375.721 452.873 370.496 455.926L371.504 457.652C376.729 454.601 385.278 449.625 390.502 446.595L389.498 444.865ZM370.496 455.926C365.273 458.976 358.077 463.125 354.508 465.142L355.492 466.884C359.073 464.859 366.277 460.706 371.504 457.652L370.496 455.926ZM354.508 465.142C350.928 467.165 341.924 472.337 334.499 476.634L335.501 478.366C342.926 474.069 351.922 468.901 355.492 466.884L354.508 465.142ZM334.499 476.634C327.074 480.931 318.077 486.115 314.504 488.153L315.496 489.891C319.073 487.849 328.076 482.663 335.501 478.366L334.499 476.634ZM314.504 488.153C310.926 490.196 299.223 496.957 288.498 503.179L289.502 504.909C300.227 498.687 311.924 491.928 315.496 489.891L314.504 488.153ZM288.498 503.179C277.774 509.399 262.476 518.219 254.504 522.778L255.496 524.514C263.474 519.953 278.776 511.131 289.502 504.909L288.498 503.179ZM254.504 522.778C250.502 525.066 246.608 527.439 243.554 529.422C242.028 530.413 240.705 531.311 239.68 532.056C238.687 532.777 237.891 533.413 237.495 533.868L239.005 535.18C239.228 534.923 239.838 534.413 240.856 533.674C241.842 532.957 243.134 532.08 244.643 531.099C247.661 529.139 251.523 526.785 255.496 524.514L254.504 522.778ZM237.495 533.868C234.362 537.472 234.298 542.185 237.287 545.983L238.859 544.747C236.446 541.681 236.52 538.038 239.005 535.18L237.495 533.868ZM237.287 545.983C238.211 547.158 239.275 548.048 240.559 548.575C241.843 549.102 243.27 549.235 244.871 549.02C248.02 548.596 251.993 546.799 257.242 543.716L256.23 541.992C250.992 545.067 247.321 546.672 244.605 547.038C243.272 547.217 242.211 547.091 241.318 546.725C240.425 546.358 239.623 545.718 238.859 544.747L237.287 545.983ZM257.242 543.716C262.06 540.887 268.925 536.903 272.496 534.863L271.504 533.127C267.925 535.171 261.052 539.159 256.23 541.992L257.242 543.716ZM272.496 534.863C276.076 532.818 284.404 527.987 291.005 524.126L289.995 522.4C283.396 526.259 275.074 531.086 271.504 533.127L272.496 534.863ZM291.005 524.126C297.607 520.265 304.794 516.133 306.979 514.942L306.021 513.186C303.806 514.393 296.593 518.541 289.995 522.4L291.005 524.126ZM306.978 514.942C309.19 513.738 313.924 511.05 317.503 508.969L316.497 507.241C312.926 509.317 308.21 511.994 306.022 513.186L306.978 514.942ZM317.503 508.969C321.075 506.892 331.648 500.793 340.999 495.415L340.001 493.681C330.652 499.059 320.075 505.16 316.497 507.241L317.503 508.969ZM340.999 495.415C350.349 490.037 361.603 483.508 366.009 480.906L364.991 479.184C360.597 481.78 349.351 488.303 340.001 493.681L340.999 495.415ZM366.009 480.906C370.403 478.31 377.824 474.014 382.494 471.36L381.506 469.622C376.826 472.28 369.397 476.582 364.991 479.184L366.009 480.906ZM382.494 471.361C392.175 465.862 400.327 461.104 406.206 457.537C409.144 455.755 411.521 454.266 413.24 453.129C414.098 452.561 414.801 452.074 415.331 451.68C415.827 451.311 416.265 450.955 416.502 450.656L414.934 449.414C414.935 449.413 414.931 449.418 414.92 449.429C414.91 449.441 414.896 449.455 414.876 449.474C414.837 449.513 414.783 449.562 414.713 449.622C414.572 449.743 414.381 449.894 414.137 450.076C413.649 450.439 412.981 450.902 412.136 451.461C410.449 452.577 408.097 454.051 405.168 455.828C399.312 459.38 391.178 464.128 381.506 469.621L382.494 471.361ZM416.501 450.657C416.628 450.498 416.7 450.326 416.743 450.209C416.791 450.078 416.829 449.937 416.861 449.795C416.926 449.509 416.982 449.149 417.033 448.721C417.134 447.862 417.224 446.644 417.304 445.025C417.464 441.782 417.589 436.86 417.685 429.83C417.878 415.767 417.956 393.222 417.968 358.702L415.968 358.702C415.956 393.223 415.878 415.755 415.685 429.803C415.589 436.829 415.465 441.721 415.306 444.926C415.227 446.531 415.14 447.695 415.047 448.486C415 448.883 414.953 449.165 414.911 449.352C414.89 449.446 414.873 449.499 414.865 449.522C414.852 449.558 414.867 449.499 414.935 449.413L416.501 450.657ZM417.968 358.702L418 268.905L416 268.905L415.968 358.702L417.968 358.702ZM417.68 268.172L415.034 265.719L413.674 267.185L416.32 269.638L417.68 268.172ZM415.034 265.719C411.903 262.817 407.657 262.258 404.008 264.322L404.992 266.062C407.853 264.444 411.155 264.851 413.674 267.185L415.034 265.719ZM170.198 537.446C152.034 543.19 142.493 561.261 145.843 582.805L147.819 582.497C144.585 561.699 153.784 544.734 170.802 539.352L170.198 537.446ZM145.843 582.805C148.145 597.611 155.102 608.176 166.059 613.008L166.866 611.178C156.707 606.698 150.049 596.843 147.819 582.497L145.843 582.805ZM166.059 613.008C169.592 614.566 174.677 615.375 179.807 615.47C184.946 615.564 190.266 614.944 194.291 613.543L193.633 611.655C189.903 612.953 184.835 613.562 179.844 613.47C174.844 613.378 170.057 612.585 166.867 611.178L166.059 613.008ZM194.291 613.543C201.777 610.938 208.923 603.675 211.896 595.73L210.022 595.03C207.239 602.467 200.509 609.262 193.633 611.655L194.291 613.543ZM211.896 595.73C212.484 594.158 212.973 592.67 213.287 591.534C213.443 590.97 213.562 590.47 213.626 590.081C213.658 589.89 213.682 589.691 213.682 589.51C213.683 589.42 213.678 589.299 213.65 589.17C213.627 589.064 213.563 588.815 213.348 588.599L211.93 590.011C211.745 589.824 211.702 589.625 211.694 589.586C211.681 589.525 211.683 589.491 211.682 589.505C211.682 589.53 211.677 589.608 211.653 589.756C211.606 590.043 211.508 590.464 211.359 591.001C211.065 592.067 210.595 593.498 210.022 595.03L211.896 595.73ZM213.345 588.596C213.179 588.431 212.964 588.329 212.881 588.289C212.753 588.228 212.599 588.164 212.434 588.1C212.1 587.971 211.663 587.82 211.158 587.657C210.144 587.331 208.817 586.945 207.415 586.575L206.905 588.509C208.279 588.871 209.572 589.248 210.545 589.561C211.033 589.718 211.43 589.856 211.712 589.965C211.854 590.02 211.954 590.063 212.017 590.093C212.125 590.145 212.04 590.12 211.933 590.014L213.345 588.596ZM207.415 586.575L202.368 585.244L201.858 587.178L206.905 588.509L207.415 586.575ZM201.136 585.996L200.517 588.813L202.471 589.243L203.09 586.426L201.136 585.996ZM200.517 588.813C200.374 589.464 199.93 590.585 199.281 591.902C198.644 593.197 197.848 594.605 197.052 595.807L198.72 596.911C199.568 595.631 200.405 594.148 201.076 592.786C201.735 591.445 202.273 590.142 202.471 589.243L200.517 588.813ZM197.052 595.807C193.454 601.238 188.058 604.007 180.938 603.978L180.93 605.978C188.66 606.009 194.716 602.954 198.72 596.911L197.052 595.807ZM180.938 603.978C173.888 603.95 168.373 601.271 164.609 596.402C160.82 591.501 158.726 584.277 158.787 575.048L156.787 575.034C156.724 584.542 158.875 592.257 163.027 597.625C167.202 603.026 173.323 605.947 180.93 605.978L180.938 603.978ZM158.787 575.048C158.842 566.71 160.557 560.306 163.79 555.763C167.003 551.249 171.792 548.465 178.243 547.498L177.947 545.52C171.046 546.555 165.736 549.58 162.161 554.603C158.606 559.598 156.843 566.459 156.787 575.034L158.787 575.048ZM178.243 547.498C186.929 546.195 195.05 550.564 198.585 558.403L200.409 557.581C196.496 548.906 187.495 544.087 177.947 545.52L178.243 547.498ZM198.585 558.403C199.154 559.665 199.79 560.732 200.42 561.464C200.732 561.827 201.082 562.154 201.463 562.369C201.841 562.582 202.384 562.754 202.958 562.534L202.242 560.666C202.443 560.589 202.549 560.685 202.445 560.626C202.345 560.57 202.17 560.432 201.936 560.16C201.475 559.623 200.932 558.743 200.409 557.581L198.585 558.403ZM202.958 562.534C203.554 562.306 205.647 561.799 207.625 561.428L207.255 559.462C205.293 559.831 203.03 560.364 202.242 560.666L202.958 562.534ZM207.624 561.428C208.649 561.236 209.641 560.977 210.422 560.71C210.81 560.577 211.167 560.434 211.458 560.287C211.602 560.214 211.749 560.13 211.881 560.035C211.998 559.951 212.176 559.807 212.308 559.594L210.608 558.542C210.68 558.426 210.749 558.386 210.714 558.411C210.693 558.426 210.644 558.457 210.554 558.503C210.377 558.593 210.114 558.701 209.773 558.818C209.098 559.049 208.201 559.285 207.256 559.462L207.624 561.428ZM212.309 559.593C212.502 559.28 212.501 558.941 212.498 558.802C212.494 558.612 212.465 558.409 212.427 558.213C212.351 557.817 212.214 557.331 212.039 556.798C211.686 555.726 211.144 554.367 210.498 552.974L208.684 553.814C209.304 555.154 209.815 556.439 210.139 557.423C210.302 557.919 210.41 558.315 210.463 558.592C210.49 558.733 210.498 558.814 210.499 558.848C210.501 558.934 210.474 558.759 210.607 558.543L212.309 559.593ZM210.498 552.974C208.935 549.599 206.241 546.252 203.123 543.507C200.007 540.763 196.399 538.559 192.957 537.536L192.387 539.454C195.478 540.371 198.837 542.397 201.801 545.007C204.764 547.616 207.263 550.749 208.684 553.814L210.498 552.974ZM192.957 537.536C189.812 536.603 185.544 536.138 181.393 536.12C177.247 536.102 173.097 536.529 170.198 537.446L170.802 539.352C173.418 538.525 177.333 538.103 181.384 538.12C185.429 538.138 189.49 538.593 192.387 539.454L192.957 537.536ZM-1 575.5V613H1V575.5H-1ZM0 614H5.5V612H0V614ZM5.5 614H11V612H5.5V614ZM12 613V595.5H10V613H12ZM12 595.5V578H10V595.5H12ZM11 579H30V577H11V579ZM30 579H49V577H30V579ZM48 578V595.5H50V578H48ZM48 595.5V613H50V595.5H48ZM49 614H54V612H49V614ZM54 614H59V612H54V614ZM60 613V575.5H58V613H60ZM60 575.5V538H58V575.5H60ZM59 537H54V539H59V537ZM54 537H49V539H54V537ZM48 538V553.5H50V538H48ZM48 553.5V569H50V553.5H48ZM49 568H30V570H49V568ZM30 568H11V570H30V568ZM12 569V553.5H10V569H12ZM12 553.5V538H10V553.5H12ZM11 537H5.5V539H11V537ZM5.5 537H0V539H5.5V537ZM-1 538V575.5H1V538H-1ZM94.17 562.263C87.1 564.734 82.1375 570.687 79.5833 579.414L81.5027 579.976C83.9265 571.695 88.522 566.356 94.83 564.151L94.17 562.263ZM79.5833 579.414C79.4108 580.003 79.2733 580.71 79.5195 581.395C79.7837 582.13 80.388 582.583 81.0946 582.894C81.7929 583.201 82.7405 583.435 83.9504 583.653C85.1746 583.873 86.7378 584.086 88.7037 584.328L88.9483 582.344C86.9867 582.102 85.4701 581.894 84.3041 581.684C83.1238 581.472 82.3706 581.27 81.8994 581.063C81.4365 580.859 81.4025 580.721 81.4015 580.718C81.3824 580.665 81.3527 580.488 81.5027 579.976L79.5833 579.414ZM88.7036 584.328C89.2932 584.401 89.7798 584.102 90.0761 583.864C90.4042 583.601 90.7105 583.244 90.9861 582.854C91.5419 582.067 92.0759 580.997 92.4802 579.827L90.5898 579.173C90.2341 580.203 89.7787 581.096 89.3524 581.7C89.137 582.005 88.9542 582.2 88.8247 582.304C88.6633 582.433 88.7238 582.316 88.9484 582.344L88.7036 584.328ZM92.4801 579.827C92.8294 578.817 93.4228 577.639 94.1043 576.562C94.7917 575.476 95.5226 574.566 96.1178 574.051L94.8082 572.539C94.0034 573.237 93.1508 574.329 92.4144 575.493C91.6722 576.665 91.0016 577.983 90.5899 579.173L92.4801 579.827ZM96.1179 574.051C100.433 570.311 105.803 570.719 109.547 573.366C113.286 576.009 115.311 580.812 112.987 585.912L114.807 586.742C117.588 580.637 115.103 574.844 110.702 571.733C106.306 568.625 99.907 568.12 94.8081 572.539L96.1179 574.051ZM112.987 585.912C112.393 587.215 110.679 588.752 108.424 589.987C106.197 591.207 103.684 592 101.715 592V594C104.133 594 106.981 593.058 109.384 591.741C111.758 590.441 113.942 588.641 114.807 586.742L112.987 585.912ZM101.715 592C100.877 592 100.139 592.002 99.5485 592.094C98.9274 592.191 98.3153 592.409 97.8524 592.955C97.4259 593.458 97.2405 594.114 97.123 594.794C97.0029 595.489 96.9285 596.389 96.8402 597.499L98.8339 597.657C98.9246 596.517 98.9927 595.72 99.0938 595.134C99.1974 594.534 99.3117 594.327 99.3783 594.248C99.4086 594.212 99.483 594.129 99.8568 594.071C100.261 594.007 100.827 594 101.715 594V592ZM96.8402 597.499L96.4762 602.077L98.4699 602.235L98.8339 597.657L96.8402 597.499ZM97.6213 603.145L101.929 602.499L101.633 600.521L97.3247 601.167L97.6213 603.145ZM101.929 602.499C104.4 602.128 107.198 602.605 109.692 603.702C112.191 604.801 114.279 606.476 115.411 608.392L117.133 607.374C115.732 605.003 113.265 603.088 110.497 601.871C107.724 600.651 104.543 600.085 101.633 600.521L101.929 602.499ZM115.411 608.391C116.454 610.158 116.986 612.665 116.939 615.261C116.893 617.854 116.272 620.401 115.151 622.238L116.859 623.28C118.211 621.061 118.888 618.142 118.939 615.297C118.99 612.455 118.419 609.552 117.133 607.375L115.411 608.391ZM115.151 622.238C111.365 628.449 103.109 630.788 97.5076 627.479L96.4904 629.201C103.163 633.142 112.585 630.291 116.859 623.279L115.151 622.238ZM97.5075 627.479C96.2381 626.729 94.5908 624.897 93.2341 622.818C92.5679 621.797 91.9988 620.757 91.5998 619.822C91.1906 618.862 91 618.103 91 617.614H89C89 618.509 89.3166 619.566 89.7602 620.606C90.214 621.67 90.8432 622.813 91.5591 623.91C92.9667 626.068 94.8189 628.214 96.4905 629.201L97.5075 627.479ZM91 617.614C91 616.693 90.3962 616.071 89.7604 615.71C89.1295 615.351 88.3123 615.144 87.4414 615.041C85.6823 614.834 83.3968 615.02 81.1157 615.632L81.6343 617.564C83.7182 617.004 85.7452 616.855 87.2074 617.027C87.9471 617.115 88.4676 617.275 88.7719 617.448C88.9192 617.532 88.9793 617.598 88.9982 617.624C89.0064 617.636 89.0056 617.638 89.0032 617.63C89.0021 617.627 89.0012 617.624 89.0006 617.62C89.0003 617.618 89.0002 617.617 89.0001 617.616C89 617.615 89 617.615 89 617.614C89 617.614 89 617.614 89 617.614H91ZM81.1158 615.632C80.6312 615.762 80.1258 615.917 79.7139 616.18C79.2414 616.481 78.9101 616.909 78.7632 617.492C78.6336 618.006 78.6625 618.587 78.746 619.199C78.8317 619.828 78.9931 620.604 79.2051 621.552L81.1569 621.116C80.9444 620.165 80.8006 619.464 80.7277 618.929C80.6527 618.379 80.6697 618.111 80.7025 617.981C80.718 617.919 80.7233 617.908 80.789 617.866C80.9153 617.786 81.1498 617.694 81.6342 617.564L81.1158 615.632ZM79.2051 621.552C81.5921 632.238 91.9119 640 103.5 640V638C92.7541 638 83.3199 630.798 81.1569 621.116L79.2051 621.552ZM103.5 640C108.67 640 114.064 638.158 118.572 635.247C123.075 632.338 126.79 628.301 128.504 623.813L126.636 623.099C125.113 627.087 121.737 630.822 117.487 633.566C113.241 636.308 108.219 638 103.5 638V640ZM128.504 623.813C130.439 618.745 130.476 613.153 129.019 608.333C127.564 603.522 124.585 599.376 120.385 597.348L119.515 599.148C123.083 600.872 125.765 604.481 127.104 608.912C128.441 613.334 128.404 618.47 126.636 623.099L128.504 623.813ZM120.385 597.347L116.835 595.633L115.965 597.435L119.515 599.149L120.385 597.347ZM117.044 597.299L119.88 594.913L118.592 593.383L115.756 595.769L117.044 597.299ZM119.88 594.913C124.076 591.382 126 587.15 126 581.518H124C124 586.582 122.32 590.246 118.592 593.383L119.88 594.913ZM126 581.518C126 577.16 124.853 573.312 122.58 570.092C120.31 566.876 116.96 564.344 112.642 562.54L111.872 564.386C115.913 566.074 118.934 568.394 120.946 571.245C122.955 574.091 124 577.525 124 581.518H126ZM112.643 562.54C110.463 561.629 106.978 561.176 103.556 561.127C100.125 561.077 96.5493 561.431 94.17 562.263L94.83 564.151C96.8847 563.433 100.188 563.079 103.527 563.127C106.875 563.175 110.051 563.625 111.871 564.386L112.643 562.54ZM556.223 750.757L535.119 788.007L536.859 788.993L557.963 751.743L556.223 750.757ZM535.929 789.498L541.065 789.805L541.185 787.809L536.049 787.502L535.929 789.498ZM541.065 789.805C542.502 789.891 543.943 789.919 545.113 789.894C545.697 789.881 546.224 789.855 546.655 789.815C547.046 789.778 547.47 789.721 547.773 789.604L547.055 787.738C547.067 787.733 547.029 787.747 546.908 787.768C546.798 787.787 546.651 787.806 546.468 787.823C546.101 787.858 545.625 787.882 545.07 787.894C543.959 787.918 542.573 787.892 541.185 787.809L541.065 789.805ZM547.772 789.605C547.974 789.527 548.128 789.404 548.213 789.331C548.313 789.245 548.409 789.146 548.499 789.047C548.679 788.847 548.882 788.59 549.099 788.295C549.535 787.701 550.075 786.889 550.681 785.925C551.895 783.993 553.402 781.4 554.913 778.609L553.155 777.657C551.659 780.419 550.173 782.973 548.987 784.861C548.393 785.807 547.882 786.573 547.487 787.111C547.288 787.381 547.131 787.578 547.015 787.706C546.957 787.77 546.922 787.803 546.907 787.816C546.877 787.842 546.933 787.784 547.056 787.737L547.772 789.605ZM554.913 778.609L560.379 768.513L558.621 767.561L553.155 777.657L554.913 778.609ZM559.501 769.037L574.147 769.018L574.145 767.018L559.499 767.037L559.501 769.037ZM574.147 769.018L588.793 769L588.791 767L574.145 767.018L574.147 769.018ZM587.808 768.181L589.414 776.931L591.382 776.569L589.776 767.819L587.808 768.181ZM589.414 776.93C589.854 779.328 590.254 781.703 590.543 783.595C590.839 785.533 591.002 786.863 591.002 787.249L593.002 787.251C593.003 786.675 592.806 785.162 592.52 783.293C592.228 781.379 591.825 778.985 591.382 776.57L589.414 776.93ZM591.002 787.249C591.001 787.704 591.07 788.229 591.391 788.7C591.718 789.181 592.205 789.456 592.733 789.624C593.713 789.936 595.257 790 597.5 790V788C595.171 788 593.965 787.917 593.339 787.718C593.201 787.674 593.124 787.633 593.084 787.607C593.064 787.594 593.054 787.585 593.05 787.581C593.045 787.577 593.044 787.575 593.044 787.574C593.044 787.574 593.042 787.571 593.039 787.564C593.035 787.556 593.03 787.541 593.024 787.517C593.013 787.466 593.002 787.383 593.002 787.251L591.002 787.249ZM597.5 790C599.029 790 600.429 789.955 601.456 789.881C601.965 789.845 602.406 789.799 602.733 789.744C602.888 789.718 603.063 789.682 603.217 789.629C603.287 789.604 603.416 789.555 603.545 789.464C603.637 789.4 604 789.125 604 788.605H602C602 788.112 602.343 787.864 602.397 787.826C602.449 787.79 602.492 787.769 602.514 787.759C602.537 787.748 602.554 787.742 602.559 787.74C602.566 787.738 602.523 787.751 602.399 787.772C602.167 787.811 601.8 787.851 601.313 787.886C600.346 787.956 598.996 788 597.5 788V790ZM604 788.605C604 788.556 603.996 788.516 603.996 788.509C603.994 788.493 603.993 788.479 603.991 788.468C603.989 788.448 603.986 788.425 603.983 788.403C603.977 788.358 603.969 788.299 603.958 788.228C603.937 788.085 603.906 787.883 603.866 787.624C603.785 787.106 603.666 786.357 603.514 785.403C603.209 783.495 602.768 780.762 602.225 777.406C601.137 770.695 599.637 761.494 597.987 751.421L596.013 751.745C597.663 761.816 599.163 771.017 600.25 777.726C600.794 781.081 601.235 783.813 601.539 785.719C601.691 786.672 601.809 787.418 601.889 787.932C601.929 788.189 601.96 788.386 601.98 788.521C601.99 788.589 601.997 788.639 602.001 788.671C602.012 788.75 602 788.684 602 788.605H604ZM597.987 751.421C596.337 741.349 594.837 732.14 593.75 725.415C593.206 722.053 592.766 719.313 592.461 717.397C592.309 716.439 592.191 715.688 592.111 715.169C592.071 714.91 592.041 714.71 592.021 714.573C592.011 714.504 592.004 714.454 591.999 714.421C591.99 714.348 592 714.404 592 714.478H590C590 714.568 590.015 714.673 590.016 714.68C590.022 714.727 590.031 714.788 590.042 714.861C590.063 715.006 590.094 715.213 590.134 715.474C590.215 715.997 590.333 716.752 590.486 717.711C590.791 719.629 591.232 722.371 591.775 725.734C592.863 732.461 594.363 741.672 596.013 751.745L597.987 751.421ZM592 714.478C592 713.973 591.66 713.697 591.556 713.622C591.423 713.524 591.288 713.47 591.21 713.442C591.042 713.381 590.847 713.339 590.668 713.307C590.294 713.242 589.785 713.187 589.194 713.143C588.003 713.054 586.376 713 584.599 713V715C586.343 715 587.917 715.053 589.045 715.138C589.614 715.18 590.046 715.229 590.322 715.277C590.389 715.289 590.441 715.3 590.479 715.309C590.519 715.319 590.533 715.324 590.528 715.322C590.526 715.321 590.511 715.316 590.489 715.305C590.469 715.295 590.428 715.274 590.377 715.237C590.318 715.194 590 714.95 590 714.478H592ZM584.599 713H578.198V715H584.599V713ZM577.328 713.507L556.223 750.757L557.963 751.743L579.068 714.493L577.328 713.507ZM583.993 742.493C584.547 746.299 585.051 749.914 585.416 752.673C585.599 754.053 585.746 755.216 585.848 756.079C585.899 756.512 585.937 756.865 585.964 757.132C585.977 757.266 585.986 757.374 585.992 757.458C585.995 757.499 585.997 757.532 585.999 757.558C585.999 757.571 586 757.581 586 757.588C586 757.591 586 757.594 586 757.596C586 757.598 586 757.599 586 757.599H588C588 757.333 587.933 756.687 587.834 755.846C587.731 754.968 587.582 753.795 587.399 752.411C587.032 749.642 586.528 746.017 585.973 742.205L583.993 742.493ZM586 757.599C586 757.559 586.014 757.483 586.062 757.414C586.1 757.358 586.122 757.364 586.045 757.405C585.864 757.5 585.459 757.624 584.648 757.726C583.057 757.928 580.353 758 575.927 758V760C580.328 760 583.161 759.93 584.899 759.71C585.753 759.602 586.461 759.446 586.977 759.174C587.249 759.031 587.515 758.831 587.711 758.546C587.916 758.247 588 757.919 588 757.599H586ZM575.927 758H564.854V760H575.927V758ZM565.729 759.484L570.841 750.234L569.091 749.266L563.979 758.516L565.729 759.484ZM570.841 750.234C573.658 745.139 577.633 737.666 579.681 733.622L577.897 732.718C575.863 736.736 571.898 744.187 569.091 749.266L570.841 750.234ZM579.681 733.622C580.693 731.623 581.628 729.977 582.314 728.933C582.668 728.395 582.916 728.077 583.052 727.944C583.081 727.915 583.085 727.915 583.064 727.929C583.057 727.935 582.957 728.006 582.787 728.036C582.574 728.075 582.258 728.04 582.002 727.798C581.798 727.605 581.756 727.39 581.748 727.342L583.718 726.998C583.694 726.858 583.623 726.579 583.378 726.347C583.081 726.066 582.712 726.018 582.433 726.068C582.199 726.11 582.023 726.218 581.928 726.283C581.821 726.358 581.726 726.442 581.648 726.519C581.35 726.813 581.004 727.285 580.643 727.834C579.899 728.965 578.926 730.685 577.897 732.718L579.681 733.622ZM581.748 727.342C581.873 728.055 582.883 734.864 583.993 742.493L585.973 742.205C584.865 734.6 583.849 727.747 583.718 726.998L581.748 727.342ZM635.989 733.077C622.127 735.84 612.632 750.433 612.632 768.015H614.632C614.632 751.019 623.773 737.552 636.38 735.039L635.989 733.077ZM612.632 768.015C612.632 775.548 614.393 781.43 618.032 785.432C621.688 789.452 627.087 791.412 634 791.412V789.412C627.463 789.412 622.678 787.568 619.512 784.087C616.33 780.588 614.632 775.271 614.632 768.015H612.632ZM634 791.412C636.736 791.412 638.701 791.288 640.495 790.85C642.304 790.408 643.879 789.662 645.859 788.502L644.847 786.776C642.945 787.891 641.56 788.531 640.021 788.907C638.467 789.287 636.697 789.412 634 789.412V791.412ZM645.859 788.502C650.892 785.552 655.57 780.066 657.92 774.392L656.072 773.626C653.878 778.924 649.482 784.06 644.847 786.776L645.859 788.502ZM657.92 774.392C658.305 773.463 658.619 772.641 658.744 771.948C658.874 771.23 658.836 770.442 658.261 769.799C657.755 769.233 656.981 768.964 656.182 768.784C655.347 768.596 654.254 768.462 652.903 768.32L652.695 770.31C654.056 770.452 655.039 770.577 655.743 770.735C656.483 770.902 656.711 771.065 656.77 771.132C656.782 771.145 656.791 771.156 656.798 771.199C656.809 771.258 656.815 771.377 656.776 771.592C656.694 772.043 656.466 772.676 656.072 773.626L657.92 774.392ZM652.903 768.32C651.859 768.211 650.982 768.12 650.256 768.139C649.498 768.158 648.809 768.298 648.165 768.713C647.548 769.111 647.065 769.702 646.594 770.429C646.122 771.156 645.598 772.119 644.94 773.333L646.698 774.287C647.371 773.046 647.852 772.164 648.271 771.518C648.691 770.872 648.987 770.562 649.248 770.394C649.483 770.243 649.774 770.152 650.308 770.138C650.875 770.123 651.605 770.195 652.695 770.31L652.903 768.32ZM644.94 773.333C643.951 775.156 643.058 776.434 642.028 777.452C641.002 778.464 639.799 779.26 638.14 780.063L639.012 781.863C640.802 780.996 642.207 780.086 643.433 778.875C644.655 777.668 645.658 776.205 646.698 774.287L644.94 773.333ZM638.14 780.063C637.006 780.612 636.191 781.003 635.531 781.265C634.877 781.524 634.444 781.629 634.075 781.645C633.332 781.679 632.633 781.381 630.705 780.438L629.825 782.234C631.593 783.1 632.801 783.704 634.165 783.643C634.85 783.613 635.52 783.421 636.269 783.124C637.011 782.829 637.898 782.402 639.012 781.863L638.14 780.063ZM630.705 780.438C628.483 779.35 627.122 778.147 626.278 776.478C625.413 774.767 625.028 772.449 625.027 769L623.027 769C623.028 772.547 623.414 775.247 624.493 777.38C625.593 779.555 627.35 781.022 629.825 782.234L630.705 780.438ZM625.027 768.999C625.023 761.293 626.87 754.749 629.93 750.164C632.98 745.593 637.202 743 642.045 743V741C636.396 741 631.604 744.052 628.266 749.054C624.938 754.042 623.022 760.998 623.027 769.001L625.027 768.999ZM642.045 743C643.501 743 645.511 743.987 647.222 745.49C648.057 746.223 648.768 747.034 649.264 747.824C649.768 748.628 650 749.33 650 749.864H652C652 748.806 651.566 747.73 650.958 746.761C650.341 745.778 649.493 744.822 648.542 743.987C646.682 742.354 644.214 741 642.045 741V743ZM650 749.864C650 750.629 650.087 751.364 650.384 751.994C650.702 752.67 651.226 753.15 651.935 753.434C652.601 753.702 653.402 753.785 654.303 753.771C655.214 753.756 656.308 753.638 657.605 753.443L657.309 751.465C656.044 751.655 655.05 751.758 654.27 751.771C653.479 751.784 652.986 751.701 652.679 751.578C652.415 751.472 652.285 751.337 652.193 751.142C652.08 750.902 652 750.512 652 749.864H650ZM657.605 753.443C658.679 753.282 659.548 753.148 660.211 752.987C660.85 752.833 661.483 752.615 661.937 752.168C662.452 751.662 662.577 751.03 662.573 750.435C662.568 749.879 662.446 749.203 662.309 748.461L660.343 748.825C660.49 749.619 660.57 750.106 660.573 750.451C660.574 750.61 660.557 750.688 660.547 750.719C660.54 750.739 660.538 750.739 660.534 750.744C660.493 750.784 660.325 750.902 659.741 751.044C659.182 751.179 658.409 751.3 657.309 751.465L657.605 753.443ZM662.309 748.461C661.211 742.524 658.009 737.971 653.341 735.263C648.687 732.563 642.667 731.746 635.989 733.077L636.38 735.039C642.688 733.781 648.19 734.587 652.337 736.993C656.468 739.39 659.344 743.424 660.343 748.825L662.309 748.461ZM362.921 426.504C363.131 426.465 363.334 426.43 363.538 426.395L363.199 424.423C362.996 424.458 362.779 424.496 362.553 424.538L362.921 426.504ZM363.538 426.395C364.296 426.264 365.146 426.127 365.898 425.737L364.978 423.961C364.554 424.181 364.035 424.28 363.199 424.423L363.538 426.395ZM365.898 425.737C367.162 425.082 367.941 423.853 368.472 421.683C368.999 419.531 369.334 416.243 369.555 411.164C369.997 400.982 369.988 383.293 369.972 352.366L367.972 352.367C367.988 383.324 367.997 400.952 367.557 411.077C367.336 416.152 367.005 419.265 366.53 421.208C366.058 423.132 365.499 423.691 364.978 423.961L365.898 425.737ZM369.972 352.366C369.971 349.772 369.969 347.084 369.968 344.3L367.968 344.3C367.969 347.085 367.971 349.773 367.972 352.367L369.972 352.366ZM351 268.905V306.711H353V268.905H351ZM351 306.711V344.518H353V306.711H351ZM62 0V50H64V0H62ZM62 50V379H64V50H62Z" fill="black" mask="url(#path-1-inside-1)"/>
        <mask id="path-3-inside-2" fill="white">
            <path fill-rule="evenodd" clip-rule="evenodd" d="M352 268.905L354.646 266.452C358.516 262.866 364.343 263.517 367.718 267.913C368.65 269.127 368.944 287.077 368.968 344.3C368.969 347.084 368.971 349.772 368.972 352.366C369.004 414.251 369.008 422.998 365.438 424.849C364.85 425.154 364.165 425.272 363.368 425.409C363.165 425.444 362.955 425.48 362.737 425.521C358.746 426.27 354.482 424.769 353.061 422.114C352.34 420.767 352 395.904 352 344.518V306.711V268.905ZM401.5 267.911C402.05 267.038 403.4 265.814 404.5 265.192C407.755 263.351 411.529 263.834 414.354 266.452L417 268.905L416.968 358.702C416.944 427.743 416.655 448.855 415.718 450.035C414.573 451.479 401.353 459.499 382 470.491C377.325 473.147 369.9 477.446 365.5 480.045C361.1 482.644 349.85 489.17 340.5 494.548C331.15 499.926 320.575 506.026 317 508.105C313.425 510.184 308.7 512.866 306.5 514.064C304.3 515.263 297.1 519.403 290.5 523.263C283.9 527.123 275.575 531.952 272 533.995C268.425 536.037 261.556 540.023 256.736 542.854C246.249 549.012 241.449 549.658 238.073 545.365C235.372 541.933 235.441 537.755 238.25 534.524C239.488 533.1 247.025 528.205 255 523.646C262.975 519.086 278.275 510.265 289 504.044C299.725 497.822 311.425 491.062 315 489.022C318.575 486.982 327.575 481.797 335 477.5C342.425 473.203 351.425 468.033 355 466.013C358.575 463.992 365.775 459.841 371 456.789C376.225 453.737 384.775 448.76 390 445.73L399.5 440.219L400 354.86C400.318 300.566 400.864 268.922 401.5 267.911ZM146.831 582.651C143.539 561.48 152.909 543.962 170.5 538.399C176.015 536.655 186.63 536.701 192.672 538.495C199.205 540.435 206.607 546.954 209.591 553.394C210.857 556.127 211.697 558.681 211.458 559.068C211.218 559.456 209.41 560.076 207.44 560.445C205.47 560.815 203.292 561.335 202.6 561.6C201.854 561.886 200.589 560.416 199.497 557.992C195.773 549.735 187.212 545.141 178.095 546.509C164.743 548.511 157.898 558.128 157.787 575.041C157.663 593.778 166.277 604.919 180.934 604.978C188.359 605.008 194.085 602.096 197.886 596.359C199.53 593.877 201.153 590.578 201.494 589.028L202.113 586.211L207.16 587.542C209.936 588.274 212.401 589.068 212.639 589.305C212.876 589.543 212.12 592.276 210.959 595.38C208.081 603.071 201.143 610.1 193.962 612.599C186.207 615.298 173.186 615.058 166.463 612.093C155.905 607.437 149.097 597.227 146.831 582.651ZM0 613V575.5V538H5.5H11V553.5V569H30H49V553.5V538H54H59V575.5V613H54H49V595.5V578H30H11V595.5V613H5.5H0ZM80.543 579.695C83.032 571.191 87.811 565.545 94.5 563.207C98.934 561.657 108.257 561.791 112.257 563.463C120.616 566.955 125 573.167 125 581.518C125 586.866 123.198 590.814 119.236 594.148L116.4 596.534L119.95 598.248C127.718 602 131.273 613.759 127.57 623.456C124.333 631.932 113.389 639 103.5 639C92.333 639 82.456 631.518 80.181 621.334C79.332 617.535 79.437 617.118 81.375 616.598C85.74 615.426 90 615.928 90 617.614C90 620.383 94.058 626.603 96.999 628.34C103.136 631.965 111.975 629.37 116.005 622.759C118.478 618.703 118.601 611.827 116.272 607.883C113.739 603.596 107.162 600.703 101.781 601.51L97.473 602.156L97.837 597.578C98.195 593.078 98.262 593 101.715 593C106.102 593 112.438 589.529 113.897 586.327C119.002 575.122 104.877 565.136 95.463 573.295C94.063 574.508 92.296 577.3 91.535 579.5C90.775 581.7 89.556 583.426 88.826 583.336C80.971 582.368 79.898 581.897 80.543 579.695ZM535.989 788.5L557.093 751.25L578.198 714H584.599C588.12 714 591 714.215 591 714.478C591 714.741 593.7 731.438 597 751.583C600.3 771.727 603 788.387 603 788.605C603 788.822 600.525 789 597.5 789C592.928 789 592 788.705 592.002 787.25C592.003 786.288 591.281 781.563 590.398 776.75L588.792 768L574.146 768.018L559.5 768.037L554.034 778.133C551.027 783.686 548.048 788.428 547.414 788.671C546.78 788.915 543.95 788.976 541.125 788.807L535.989 788.5ZM587 757.599C587 756.829 586.092 749.967 584.983 742.349C583.874 734.732 582.861 727.901 582.733 727.17C582.605 726.438 580.83 729.138 578.789 733.17C576.748 737.201 572.778 744.663 569.966 749.75L564.854 759H575.927C584.754 759 587 758.716 587 757.599ZM613.632 768.015C613.632 750.726 622.95 736.696 636.184 734.058C649.171 731.469 659.229 737.305 661.326 748.643C661.894 751.715 661.806 751.802 657.457 752.454C652.333 753.223 651 752.688 651 749.864C651 746.681 645.67 742 642.045 742C631.553 742 624.018 753.291 624.027 769C624.03 775.996 625.568 779.036 630.265 781.336C633.961 783.145 634.079 783.14 638.576 780.963C642.026 779.293 643.79 777.551 645.819 773.81C648.481 768.9 648.531 768.868 652.799 769.315C658.224 769.883 658.553 770.251 656.996 774.009C654.724 779.495 650.187 784.806 645.353 787.639C641.471 789.914 639.433 790.412 634 790.412C620.55 790.412 613.632 782.804 613.632 768.015Z"/>
        </mask>
        <path fill-rule="evenodd" clip-rule="evenodd" d="M352 268.905L354.646 266.452C358.516 262.866 364.343 263.517 367.718 267.913C368.65 269.127 368.944 287.077 368.968 344.3C368.969 347.084 368.971 349.772 368.972 352.366C369.004 414.251 369.008 422.998 365.438 424.849C364.85 425.154 364.165 425.272 363.368 425.409C363.165 425.444 362.955 425.48 362.737 425.521C358.746 426.27 354.482 424.769 353.061 422.114C352.34 420.767 352 395.904 352 344.518V306.711V268.905ZM401.5 267.911C402.05 267.038 403.4 265.814 404.5 265.192C407.755 263.351 411.529 263.834 414.354 266.452L417 268.905L416.968 358.702C416.944 427.743 416.655 448.855 415.718 450.035C414.573 451.479 401.353 459.499 382 470.491C377.325 473.147 369.9 477.446 365.5 480.045C361.1 482.644 349.85 489.17 340.5 494.548C331.15 499.926 320.575 506.026 317 508.105C313.425 510.184 308.7 512.866 306.5 514.064C304.3 515.263 297.1 519.403 290.5 523.263C283.9 527.123 275.575 531.952 272 533.995C268.425 536.037 261.556 540.023 256.736 542.854C246.249 549.012 241.449 549.658 238.073 545.365C235.372 541.933 235.441 537.755 238.25 534.524C239.488 533.1 247.025 528.205 255 523.646C262.975 519.086 278.275 510.265 289 504.044C299.725 497.822 311.425 491.062 315 489.022C318.575 486.982 327.575 481.797 335 477.5C342.425 473.203 351.425 468.033 355 466.013C358.575 463.992 365.775 459.841 371 456.789C376.225 453.737 384.775 448.76 390 445.73L399.5 440.219L400 354.86C400.318 300.566 400.864 268.922 401.5 267.911ZM146.831 582.651C143.539 561.48 152.909 543.962 170.5 538.399C176.015 536.655 186.63 536.701 192.672 538.495C199.205 540.435 206.607 546.954 209.591 553.394C210.857 556.127 211.697 558.681 211.458 559.068C211.218 559.456 209.41 560.076 207.44 560.445C205.47 560.815 203.292 561.335 202.6 561.6C201.854 561.886 200.589 560.416 199.497 557.992C195.773 549.735 187.212 545.141 178.095 546.509C164.743 548.511 157.898 558.128 157.787 575.041C157.663 593.778 166.277 604.919 180.934 604.978C188.359 605.008 194.085 602.096 197.886 596.359C199.53 593.877 201.153 590.578 201.494 589.028L202.113 586.211L207.16 587.542C209.936 588.274 212.401 589.068 212.639 589.305C212.876 589.543 212.12 592.276 210.959 595.38C208.081 603.071 201.143 610.1 193.962 612.599C186.207 615.298 173.186 615.058 166.463 612.093C155.905 607.437 149.097 597.227 146.831 582.651ZM0 613V575.5V538H5.5H11V553.5V569H30H49V553.5V538H54H59V575.5V613H54H49V595.5V578H30H11V595.5V613H5.5H0ZM80.543 579.695C83.032 571.191 87.811 565.545 94.5 563.207C98.934 561.657 108.257 561.791 112.257 563.463C120.616 566.955 125 573.167 125 581.518C125 586.866 123.198 590.814 119.236 594.148L116.4 596.534L119.95 598.248C127.718 602 131.273 613.759 127.57 623.456C124.333 631.932 113.389 639 103.5 639C92.333 639 82.456 631.518 80.181 621.334C79.332 617.535 79.437 617.118 81.375 616.598C85.74 615.426 90 615.928 90 617.614C90 620.383 94.058 626.603 96.999 628.34C103.136 631.965 111.975 629.37 116.005 622.759C118.478 618.703 118.601 611.827 116.272 607.883C113.739 603.596 107.162 600.703 101.781 601.51L97.473 602.156L97.837 597.578C98.195 593.078 98.262 593 101.715 593C106.102 593 112.438 589.529 113.897 586.327C119.002 575.122 104.877 565.136 95.463 573.295C94.063 574.508 92.296 577.3 91.535 579.5C90.775 581.7 89.556 583.426 88.826 583.336C80.971 582.368 79.898 581.897 80.543 579.695ZM535.989 788.5L557.093 751.25L578.198 714H584.599C588.12 714 591 714.215 591 714.478C591 714.741 593.7 731.438 597 751.583C600.3 771.727 603 788.387 603 788.605C603 788.822 600.525 789 597.5 789C592.928 789 592 788.705 592.002 787.25C592.003 786.288 591.281 781.563 590.398 776.75L588.792 768L574.146 768.018L559.5 768.037L554.034 778.133C551.027 783.686 548.048 788.428 547.414 788.671C546.78 788.915 543.95 788.976 541.125 788.807L535.989 788.5ZM587 757.599C587 756.829 586.092 749.967 584.983 742.349C583.874 734.732 582.861 727.901 582.733 727.17C582.605 726.438 580.83 729.138 578.789 733.17C576.748 737.201 572.778 744.663 569.966 749.75L564.854 759H575.927C584.754 759 587 758.716 587 757.599ZM613.632 768.015C613.632 750.726 622.95 736.696 636.184 734.058C649.171 731.469 659.229 737.305 661.326 748.643C661.894 751.715 661.806 751.802 657.457 752.454C652.333 753.223 651 752.688 651 749.864C651 746.681 645.67 742 642.045 742C631.553 742 624.018 753.291 624.027 769C624.03 775.996 625.568 779.036 630.265 781.336C633.961 783.145 634.079 783.14 638.576 780.963C642.026 779.293 643.79 777.551 645.819 773.81C648.481 768.9 648.531 768.868 652.799 769.315C658.224 769.883 658.553 770.251 656.996 774.009C654.724 779.495 650.187 784.806 645.353 787.639C641.471 789.914 639.433 790.412 634 790.412C620.55 790.412 613.632 782.804 613.632 768.015Z" fill="black" stroke="black" stroke-width="2" mask="url(#path-3-inside-2)"/>
        <path d="M373.66 181.022L373.66 181.022C373.51 176.606 373.51 173.739 373.773 171.304C374.034 168.88 374.556 166.869 375.468 164.166C377.279 158.799 379.66 154.517 382.828 151.05C385.996 147.584 389.97 144.912 394.996 142.794C397.423 141.771 399.122 141.201 401.159 140.914C403.209 140.625 405.621 140.62 409.482 140.763L409.5 140.263L409.482 140.763C416.851 141.034 422.954 142.626 427.916 145.571C432.874 148.515 436.725 152.828 439.564 158.596C443.623 166.841 445.014 176.14 443.601 185.64C442.558 192.655 440.485 198.347 437.244 202.967C434.005 207.584 429.579 211.157 423.786 213.905C420.905 215.272 419.075 216.019 416.985 216.433C414.886 216.849 412.501 216.934 408.501 216.929C404.721 216.925 402.285 216.818 400.212 216.448C398.152 216.081 396.431 215.451 394.09 214.37C386.327 210.787 380.963 205.568 377.217 197.96C375.758 194.997 374.96 193.128 374.477 190.835C373.991 188.526 373.82 185.769 373.66 181.022ZM414.63 149.605L414.63 149.605C407.332 147.64 400.283 149.136 393.615 154.021L393.615 154.021C387.716 158.342 384.565 164.812 383.799 173.953L383.799 173.953C382.925 184.377 384.141 191.395 387.906 196.991L388.321 196.712L387.906 196.991C390.333 200.598 392.906 203.254 395.885 205.086C398.866 206.92 402.225 207.91 406.196 208.229L406.236 207.731L406.196 208.229C410.236 208.554 413.492 208.352 416.412 207.452C419.337 206.552 421.889 204.963 424.538 202.569L424.203 202.198L424.538 202.569C427.878 199.552 430.191 196.372 431.655 192.506C433.116 188.647 433.72 184.135 433.687 178.469C433.601 163.521 426.636 152.839 414.63 149.605Z" fill="#EB3528" stroke="#EB3528"/>
        <path d="M516.5 9V8.5H516H478H440.5V4.5V0.5H482.5H524.5V379V757.5H482.5H440.5V753.5V749.5H478H516H516.5V749V379V9Z" fill="#A9A9A9" stroke="#A9A9A9"/>
        <path d="M70.5 749V749.5H71H109H146.5V753.5V757.5H105H63.5V379V50V0.5H105H146.5V4.5V8.5H109H71H70.5V9V379V749Z" fill="#A9A9A9" stroke="#A9A9A9"/>
    </symbol>
   </svg>
